<svg width="1220" height="667" viewBox="0 0 1220 667" fill="none" xmlns="http://www.w3.org/2000/svg">
<path d="M1370.5 -228.5L0 -287C134.636 102.236 421.614 -60.6511 495.363 311.945C555.12 613.848 880.793 772.082 1117.73 587.593C1290.09 453.378 1370.5 561.547 1370.5 561.547V-228.5Z" fill="url(#paint0_linear)" fill-opacity="0.1"/>
<path d="M1220.5 -1H131.5C233.5 268 501.628 115 557.5 372.5C602.772 581.145 849.5 690.5 1029 563C1159.59 470.244 1220.5 545 1220.5 545V-1Z" fill="url(#paint1_linear)"/>
<path d="M142.5 -92C142.5 -36.5303 209.724 168.858 363.715 232.099C486.35 282.464 551.238 275.134 622.634 421.274C694.031 567.413 853.868 668.025 1011.44 636C1193.5 599 1248.9 399.603 1278 400.5" stroke="url(#paint2_linear)" stroke-opacity="0.2" stroke-width="4"/>
<defs>
<linearGradient id="paint0_linear" x1="-12.8228" y1="-203.178" x2="1392.43" y2="253.374" gradientUnits="userSpaceOnUse">
<stop stop-color="#3AC784"/>
<stop offset="1" stop-color="#253083"/>
</linearGradient>
<linearGradient id="paint1_linear" x1="172.5" y1="16.5001" x2="1217" y2="388.5" gradientUnits="userSpaceOnUse">
<stop stop-color="#3AC784"/>
<stop offset="1" stop-color="#253083"/>
</linearGradient>
<linearGradient id="paint2_linear" x1="291.353" y1="-28.0348" x2="1230.25" y2="509.68" gradientUnits="userSpaceOnUse">
<stop stop-color="#274083"/>
<stop offset="1" stop-color="#39C384"/>
</linearGradient>
</defs>
</svg>
