<svg width="130" height="23" viewBox="0 0 130 23" fill="none" xmlns="http://www.w3.org/2000/svg">
<path d="M50.1223 18.4447L50.1065 11.1089L46.4702 17.1799H45.5532L41.917 11.2038V18.4447H39.9565V7.37782H41.6482L46.0433 14.7136L50.3594 7.37782H52.0511L52.0669 18.4447H50.1223Z" fill="white"/>
<path d="M60.226 18.6028C59.0982 18.6028 58.0811 18.3604 57.1747 17.8756C56.2683 17.3802 55.5568 16.7004 55.0404 15.8361C54.5239 14.9613 54.2657 13.9863 54.2657 12.9113C54.2657 11.8362 54.5239 10.8665 55.0404 10.0023C55.5568 9.12745 56.2683 8.44762 57.1747 7.96279C58.0811 7.46741 59.0982 7.21973 60.226 7.21973C61.3538 7.21973 62.3709 7.46741 63.2773 7.96279C64.1837 8.44762 64.8952 9.12218 65.4116 9.98645C65.9281 10.8507 66.1863 11.8257 66.1863 12.9113C66.1863 13.9969 65.9281 14.9718 65.4116 15.8361C64.8952 16.7004 64.1837 17.3802 63.2773 17.8756C62.3709 18.3604 61.3538 18.6028 60.226 18.6028ZM60.226 16.8005C60.9638 16.8005 61.6278 16.6371 62.218 16.3104C62.8083 15.9731 63.272 15.5093 63.6093 14.9191C63.9466 14.3183 64.1152 13.6491 64.1152 12.9113C64.1152 12.1735 63.9466 11.5095 63.6093 10.9192C63.272 10.3185 62.8083 9.8547 62.218 9.52796C61.6278 9.19069 60.9638 9.02205 60.226 9.02205C59.4882 9.02205 58.8242 9.19069 58.2339 9.52796C57.6437 9.8547 57.18 10.3185 56.8427 10.9192C56.5054 11.5095 56.3368 12.1735 56.3368 12.9113C56.3368 13.6491 56.5054 14.3183 56.8427 14.9191C57.18 15.5093 57.6437 15.9731 58.2339 16.3104C58.8242 16.6371 59.4882 16.8005 60.226 16.8005Z" fill="white"/>
<path d="M78.1986 7.37782V18.4447H76.1433V13.7018H70.4201V18.4447H68.3648V7.37782H70.4201V11.9469H76.1433V7.37782H78.1986Z" fill="white"/>
<path d="M83.409 9.11691H79.7411V7.37782H89.1322V9.11691H85.4643V18.4447H83.409V9.11691Z" fill="white"/>
<path d="M97.2965 15.8835H91.763L90.6721 18.4447H88.5536L93.5337 7.37782H95.5574L100.553 18.4447H98.4032L97.2965 15.8835ZM96.6166 14.2709L94.5297 9.4331L92.4587 14.2709H96.6166Z" fill="white"/>
<path d="M117.548 7.37782L113.88 18.4447H111.698L108.963 10.2552L106.18 18.4447H103.983L100.315 7.37782H102.449L105.2 15.7887L108.062 7.37782H109.959L112.757 15.8361L115.587 7.37782H117.548Z" fill="white"/>
<path d="M126.044 15.8835H120.511L119.42 18.4447H117.302L122.282 7.37782H124.305L129.301 18.4447H127.151L126.044 15.8835ZM125.365 14.2709L123.278 9.4331L121.207 14.2709H125.365Z" fill="white"/>
<path d="M11.0669 21.8423C3.29709 21.0677 8.33808 13.8436 11.0669 10.3523C6.14579 11.256 3.61305 13.5878 1.29009 16.6137C-1.13117 19.7677 0.0595684 22.746 3.16759 22.9397C6.27561 23.1333 9.23066 22.8864 11.0669 21.8423Z" fill="url(#paint0_linear)"/>
<path fill-rule="evenodd" clip-rule="evenodd" d="M19.5757 8.47065C20.13 14.5942 16.9952 20.9725 5.79688 23.0003C7.23427 23.0003 8.91521 22.999 10.554 22.9975C10.5493 22.9983 10.5446 22.9992 10.5399 23C12.3179 23 14.7016 22.998 16.9019 22.9961L18.2223 22.995L18.3716 22.9954C19.1448 22.9972 19.8335 22.9988 21.5175 22.9933C22.1147 22.9933 22.6626 22.9953 23.1668 22.9971H23.1668C26.811 23.0101 28.1705 23.015 29.3477 22.2131C31.4923 20.7523 28.3667 16.7272 23.809 10.858C22.3037 8.91964 20.6422 6.78008 18.9628 4.46532C18.8912 4.3442 18.8191 4.22247 18.7464 4.10013C18.4793 3.56272 18.191 3.01195 17.8807 2.44755C18.0068 2.71286 18.1277 2.98258 18.2427 3.25618C18.0827 2.98934 17.9204 2.71971 17.7558 2.44727C17.9008 2.75899 18.0467 3.07414 18.1923 3.39214C17.9707 3.08013 17.7491 2.76516 17.528 2.44727C17.7642 4.51585 18.5915 6.54116 19.5757 8.47065Z" fill="url(#paint1_linear)"/>
<path d="M19.3649 11.2292C10.1455 7.5467 3.52463 13.4817 1.47636 16.5928C1.2111 16.8365 8.07135 7.2686 9.4261 5.36073C11.9655 1.78452 13.2166 0.265376 14.9157 0.265366C18.3139 0.265366 19.9482 7.21994 19.3649 11.2292Z" fill="url(#paint2_linear)"/>
<defs>
<linearGradient id="paint0_linear" x1="8.35224" y1="9.952" x2="8.16875" y2="21.3434" gradientUnits="userSpaceOnUse">
<stop stop-color="#DA6F37"/>
<stop offset="0.903961" stop-color="#FFC895"/>
</linearGradient>
<linearGradient id="paint1_linear" x1="18.3561" y1="9.95522" x2="14.2871" y2="23.0828" gradientUnits="userSpaceOnUse">
<stop stop-color="#C8E381"/>
<stop offset="1" stop-color="#1C7249"/>
</linearGradient>
<linearGradient id="paint2_linear" x1="18.3846" y1="4.17126" x2="4.20337" y2="13.4511" gradientUnits="userSpaceOnUse">
<stop stop-color="#2F3590"/>
<stop offset="0.181863" stop-color="#347CBF"/>
<stop offset="0.375389" stop-color="#3598D1"/>
<stop offset="0.701814" stop-color="#37B0E1"/>
</linearGradient>
</defs>
</svg>
