<svg width="258" height="45" viewBox="0 0 258 45" fill="none" xmlns="http://www.w3.org/2000/svg">
<path d="M95.11 35L95.08 21.08L88.18 32.6H86.44L79.54 21.26V35H75.82V14H79.03L87.37 27.92L95.56 14H98.77L98.8 35H95.11ZM114.282 35.3C112.142 35.3 110.212 34.84 108.492 33.92C106.772 32.98 105.422 31.69 104.442 30.05C103.462 28.39 102.972 26.54 102.972 24.5C102.972 22.46 103.462 20.62 104.442 18.98C105.422 17.32 106.772 16.03 108.492 15.11C110.212 14.17 112.142 13.7 114.282 13.7C116.422 13.7 118.352 14.17 120.072 15.11C121.792 16.03 123.142 17.31 124.122 18.95C125.102 20.59 125.592 22.44 125.592 24.5C125.592 26.56 125.102 28.41 124.122 30.05C123.142 31.69 121.792 32.98 120.072 33.92C118.352 34.84 116.422 35.3 114.282 35.3ZM114.282 31.88C115.682 31.88 116.942 31.57 118.062 30.95C119.182 30.31 120.062 29.43 120.702 28.31C121.342 27.17 121.662 25.9 121.662 24.5C121.662 23.1 121.342 21.84 120.702 20.72C120.062 19.58 119.182 18.7 118.062 18.08C116.942 17.44 115.682 17.12 114.282 17.12C112.882 17.12 111.622 17.44 110.502 18.08C109.382 18.7 108.502 19.58 107.862 20.72C107.222 21.84 106.902 23.1 106.902 24.5C106.902 25.9 107.222 27.17 107.862 28.31C108.502 29.43 109.382 30.31 110.502 30.95C111.622 31.57 112.882 31.88 114.282 31.88ZM148.386 14V35H144.486V26H133.626V35H129.726V14H133.626V22.67H144.486V14H148.386ZM158.273 17.3H151.313V14H169.133V17.3H162.173V35H158.273V17.3ZM184.626 30.14H174.126L172.056 35H168.036L177.486 14H181.326L190.806 35H186.726L184.626 30.14ZM183.336 27.08L179.376 17.9L175.446 27.08H183.336ZM223.053 14L216.093 35H211.953L206.763 19.46L201.483 35H197.313L190.353 14H194.403L199.623 29.96L205.053 14H208.653L213.963 30.05L219.333 14H223.053ZM239.176 30.14H228.676L226.606 35H222.586L232.036 14H235.876L245.356 35H241.276L239.176 30.14ZM237.886 27.08L233.926 17.9L229.996 27.08H237.886Z" fill="#3587C6"/>
<path d="M21 41.4467C6.2564 39.9769 15.822 26.2688 21 19.6438C11.662 21.3586 6.85595 25.7833 2.44801 31.5252C-2.14645 37.5101 0.113034 43.1616 6.01067 43.529C11.9083 43.8965 17.5157 43.4279 21 41.4467Z" fill="url(#paint0_linear)"/>
<path fill-rule="evenodd" clip-rule="evenodd" d="M37.1461 16.0745C38.1974 27.6938 32.2484 39.7961 11 43.6438C13.7283 43.6438 16.9191 43.6413 20.0297 43.6384C20.0198 43.6402 20.0099 43.642 20 43.6438C23.3738 43.6438 27.897 43.6399 32.0722 43.6364L34.5769 43.6342L34.8609 43.6349C36.328 43.6383 37.635 43.6414 40.8303 43.631C41.9636 43.631 43.0033 43.6348 43.9601 43.6382C50.875 43.6629 53.4547 43.6721 55.6886 42.1505C59.7582 39.3785 53.827 31.7407 45.1786 20.6037L45.1785 20.6036C42.3224 16.9257 39.17 12.8661 35.9835 8.47416C35.8484 8.24567 35.7122 8.01603 35.5752 7.78524C35.0675 6.76372 34.5196 5.71675 33.9298 4.6438C34.1695 5.14822 34.3992 5.66106 34.6179 6.18126C34.3138 5.67411 34.0053 5.16163 33.6924 4.6438C33.9676 5.23548 34.2446 5.83368 34.521 6.43727C34.1004 5.84505 33.6798 5.24719 33.26 4.6438C33.7083 8.56939 35.2784 12.4128 37.1461 16.0745Z" fill="url(#paint1_linear)"/>
<path d="M36.7462 21.308C19.2519 14.3203 6.68848 25.5822 2.80179 31.4857C2.29843 31.9481 15.3161 13.7926 17.8868 10.1723C22.7055 3.38626 25.0795 0.5036 28.3036 0.50358C34.752 0.50358 37.853 13.7003 36.7462 21.308Z" fill="url(#paint2_linear)"/>
<defs>
<linearGradient id="paint0_linear" x1="15.8488" y1="18.8842" x2="15.5006" y2="40.5" gradientUnits="userSpaceOnUse">
<stop stop-color="#DA6F37"/>
<stop offset="0.903961" stop-color="#FFC895"/>
</linearGradient>
<linearGradient id="paint1_linear" x1="34.8317" y1="18.8903" x2="27.1106" y2="43.8003" gradientUnits="userSpaceOnUse">
<stop stop-color="#C8E381"/>
<stop offset="1" stop-color="#1C7249"/>
</linearGradient>
<linearGradient id="paint2_linear" x1="34.8861" y1="7.91522" x2="7.97644" y2="25.5243" gradientUnits="userSpaceOnUse">
<stop stop-color="#2F3590"/>
<stop offset="0.181863" stop-color="#347CBF"/>
<stop offset="0.375389" stop-color="#3598D1"/>
<stop offset="0.701814" stop-color="#37B0E1"/>
</linearGradient>
</defs>
</svg>
