<svg width="587" height="587" viewBox="0 0 587 587" fill="none" xmlns="http://www.w3.org/2000/svg">
<path d="M371.634 418.152C358.07 422.95 341.713 422.461 329.37 414.545C317.238 406.763 306.186 401.145 291.26 401.417C277.922 401.66 266.893 408.871 253.976 410.405C243.729 411.623 233.321 407.156 225.897 399.992C218.648 393 213.835 382.338 216.988 372.764C218.639 367.755 222.258 363.624 224.307 358.77C229.053 347.571 216.555 340.817 219.664 329.03C222.299 319.006 233.307 311.857 233.131 301.49C233.011 293.901 227.138 288.022 225.068 280.996C222.981 273.914 223.443 265.98 227.118 259.51C229.876 254.702 234.116 250.917 239.203 248.718C243.726 246.792 248.777 246.754 252.275 242.804C258.508 235.76 260.795 228.128 269.344 222.978C276.584 218.619 286.143 218.341 294.449 219.102C312.893 220.794 330.816 230.534 341.209 246.036C344.892 251.535 347.551 257.162 347.65 263.696C347.753 270.84 347.75 278.024 352.127 284.099C355.801 289.199 361.7 292.183 367.55 294.484C373.399 296.785 379.53 298.647 384.662 302.271C389.794 305.896 393.875 311.81 393.275 318.081C392.775 323.318 389.15 327.868 388.667 333.106C387.789 342.629 396.967 349.551 402.623 357.262C410.543 368.062 411.857 383.318 405.897 395.322C399.034 409.129 386.574 412.244 373.496 417.441C372.885 417.692 372.264 417.929 371.634 418.152Z" fill="#1B1D32"/>
<path d="M273.018 240.07C277.503 237.435 282.717 236.249 287.896 236.041C293.103 235.886 298.306 236.467 303.351 237.766C313.569 240.376 322.632 246.305 329.115 254.623C332.322 258.799 334.727 263.533 336.209 268.585C337.672 273.656 337.965 278.961 337.913 284.149C337.86 289.337 337.491 294.519 337.661 299.636C337.719 302.161 338.121 304.665 338.855 307.081C339.616 309.441 340.934 311.619 342.884 313.042C344.834 314.465 347.275 315.121 349.778 315.419C352.282 315.718 354.902 315.733 357.513 316.081C362.684 316.778 367.939 318.007 372.445 320.97C374.658 322.449 376.649 324.51 377.618 327.118C378.587 329.727 378.42 332.561 377.747 335.152C376.965 337.787 375.481 339.971 374.444 342.263C373.4 344.565 372.749 347.025 372.518 349.541C372.041 354.601 373.337 359.674 375.138 364.473C376.939 369.271 379.029 374.081 380.267 379.164C380.902 381.704 381.216 384.313 381.201 386.931C381.162 389.548 380.702 392.142 379.84 394.613C378.123 399.554 374.971 403.871 370.787 407.012C374.871 403.799 377.904 399.442 379.497 394.496C381.134 389.592 380.917 384.27 379.565 379.336C378.271 374.359 376.113 369.649 374.263 364.798C372.412 359.946 370.954 354.762 371.385 349.442C371.594 346.789 372.246 344.191 373.314 341.754C374.394 339.33 375.835 337.163 376.52 334.792C377.12 332.397 377.281 329.85 376.391 327.584C375.501 325.318 373.756 323.468 371.707 322.097C367.508 319.345 362.382 318.139 357.361 317.492C354.837 317.164 352.264 317.161 349.626 316.866C346.988 316.57 344.263 315.926 342.014 314.231C339.766 312.536 338.299 310.079 337.494 307.532C336.728 304.987 336.313 302.349 336.261 299.692C336.109 294.454 336.507 289.284 336.578 284.134C336.648 278.984 336.384 273.84 334.988 268.934C333.561 264.02 331.266 259.4 328.213 255.294C321.956 247.064 313.148 241.14 303.167 238.448C298.201 237.05 293.063 236.36 287.905 236.398C282.767 236.483 277.564 237.552 273.018 240.07Z" fill="#73B8D4"/>
<path d="M338.308 354.87C338.788 366.581 336.077 375.364 325.37 381.155C316.845 385.766 306.633 387.28 297.226 387.511C281.446 387.9 263.851 383.831 252.061 372.747C249.918 370.735 247.863 368.27 247.708 365.334C247.567 362.667 249.034 360.152 249.172 357.485C249.388 352.985 245.89 349.258 244.326 345.033C242.259 339.453 243.665 333.223 245.521 327.569C247.377 321.916 249.699 316.207 249.42 310.264C249.06 302.555 244.426 295.822 240.716 289.053C237.007 282.284 234.079 274.051 237.25 267.005C239.337 262.367 244.32 258.807 249.409 258.236C254.787 257.651 259.618 263.784 263.063 267.168C267.705 271.731 272.859 275.741 278.422 279.119C286.104 283.783 294.542 287.22 301.767 292.563C306.141 295.784 310.843 300.234 312.919 305.383C315.261 311.186 311.162 316.801 316.139 322.142C319.36 325.584 324.287 326.756 328.175 329.42C336.484 335.123 337.927 345.627 338.308 354.87Z" fill="#10132B"/>
<path d="M251.163 420.365C262.242 403.291 269.136 382.338 259.51 363.059C258.535 361.106 257.361 358.96 255.288 358.284C250.832 356.802 244.787 358.395 240.911 360.67C227.467 368.557 219.246 383.4 211.689 396.604C203.843 410.323 197.03 424.604 189.146 438.303C185.952 443.866 182.729 449.472 181.013 455.641C179.514 461.042 179.347 467.231 181.397 472.516C190.247 495.372 214.585 467.375 221.995 458.917C232.625 446.779 242.373 433.895 251.163 420.365V420.365Z" fill="#7D8BBB"/>
<path d="M351.415 401.265C354.6 387.78 356.251 373.982 349.035 364.798C345.776 360.649 339.959 357.771 335.216 355.707C325.947 351.702 316.479 346.315 306.548 344.582C296.087 342.741 284.453 341.608 274.027 344.24C267.405 345.911 261.21 349.006 255.29 352.346C250.152 355.245 243.849 357.739 241.355 363.129C235.276 376.265 229.98 389.749 225.495 403.51C221.771 414.964 217.684 426.967 223.551 438.572C225.451 442.334 228.212 445.552 230.387 449.144C232.809 453.146 233.713 456.906 234.029 461.522C234.756 472.062 234.472 482.622 234.442 493.171C234.442 496.21 234.474 499.372 235.804 502.103C238.439 507.493 245.559 507.566 250.697 507.557L301.495 507.469C308.539 507.469 313.923 508.319 320.525 509.68C326.087 510.825 330.868 508.014 333.541 502.835C336.068 497.931 336.261 492.207 336.533 486.698C337.591 465.245 340.629 443.937 345.609 423.044C347.023 417.124 349.494 409.392 351.415 401.265Z" fill="#90A0D7"/>
<path d="M312.196 362.037C316.181 355.333 317.088 346.954 311.865 340.492C309.476 337.538 305.254 337.207 301.645 337.14C294.528 337.009 287.423 337.762 280.492 339.383C273.896 340.926 267.168 343.54 264.311 350.215C262.188 355.163 262.929 360.889 265.725 365.416C268.317 369.564 272.428 372.535 277.181 373.692C284.772 375.499 293.661 375.256 300.895 372.228C305.445 370.296 309.517 366.546 312.196 362.037Z" fill="#7D8BBB"/>
<path d="M357.414 463.089C357.361 452.745 357.309 442.4 357.256 432.056C357.239 428.455 359.575 406.544 353.974 406.793C353.37 406.86 352.798 407.1 352.326 407.484C349.539 409.477 348.107 412.812 346.807 415.974C342.726 425.907 339.298 441.808 330.804 448.764C322.168 455.831 308.891 458.812 298.158 460.51C285.624 462.492 272.886 462.638 260.224 463.408C252.026 463.906 242.995 465.086 237.613 471.284C233.769 475.707 231.814 482.341 229.761 487.749C227.967 492.474 226.541 498.086 230.18 502.364C231.732 504.191 233.889 505.388 236.056 506.41C243.961 510.137 252.597 512.013 261.216 513.457C285.335 517.494 309.918 518.331 334.344 517.169C339.567 516.92 345.229 516.399 349.082 512.865C351.948 510.23 353.298 506.363 354.261 502.595C357.528 489.766 357.47 476.334 357.414 463.089Z" fill="#7D8BBB"/>
<path d="M241.926 286.497C232.686 296.003 241.068 319.231 255.803 315.87C271.636 312.258 269.256 287.583 254.925 283.531C249.354 281.953 244.901 283.437 241.926 286.497Z" fill="#355C8C"/>
<path d="M368.053 416.591C377.313 417.762 387.083 416.96 395.342 412.63C405.882 407.12 411.151 397.014 411.359 385.403C411.517 376.983 409.896 368.203 404.804 361.486C399.277 354.185 390.014 349.694 386.574 341.206C384.349 335.708 384.881 328.225 389.285 323.971C392.086 321.263 394.279 318.209 393.919 314.152C393.389 308.179 389.021 302.441 384.141 299.221C376.985 294.492 368.085 292.762 359.712 291.696C354.041 290.976 348.391 289.384 346.637 283.276C345.691 279.983 345.879 276.505 345.7 273.12C345.323 265.901 344.793 258.678 343.715 251.523C342.471 243.276 337.116 235.298 331.144 229.615C330.287 228.799 329.398 228.018 328.477 227.273C313.077 214.798 284.562 210.38 267.581 221.942C264.706 223.882 262.243 226.371 260.334 229.267C258.425 232.163 257.107 235.407 256.456 238.814C255.592 243.422 254.345 244.414 249.842 245.811C241.662 248.349 232.379 250.153 225.882 256.151C220.8 260.836 218.463 267.953 219.148 274.771C220.012 283.475 226.099 287.653 230.455 294.542C234.905 301.586 231.407 310.448 226.239 316.26C222.26 320.736 216.613 324.006 214.365 329.557C212.295 334.663 213.665 340.568 216.165 345.481C217.178 347.472 218.37 349.372 219.263 351.415C220.605 354.547 221.235 357.938 221.107 361.343C220.979 364.748 220.096 368.082 218.522 371.104" stroke="#1B1D32" stroke-width="4" stroke-miterlimit="10"/>
<path d="M394.306 430.076C397.138 435.186 399.941 440.311 402.717 445.452C408.326 455.904 418.743 479.121 402.067 484.865C393.667 487.754 388.86 484.929 383.306 478.807C362.273 455.617 344.41 429.738 330.186 401.848C324.917 391.481 310.864 364.47 327.915 358.298C330.618 357.338 333.492 356.949 336.354 357.159C339.216 357.368 342.003 358.17 344.538 359.513C346.842 360.752 348.886 362.423 350.838 364.165C363.135 375.132 371.894 389.285 379.685 403.636C384.498 412.493 389.428 421.267 394.306 430.076Z" fill="#90A0D7"/>
<path d="M297.745 365.457C302.819 363.829 307 360.676 308.578 355.661C309.998 351.111 307.758 345.999 307.36 341.4C306.976 336.999 306.928 332.575 307.216 328.167C307.483 324.094 307.872 319.849 307.245 315.789C306.888 313.467 305.615 313.865 303.267 312.943C300.919 312.021 298.29 312.012 295.734 312.018C290.511 312.018 276.894 311.652 273.668 316.234C272.186 318.339 272.069 320.985 271.999 323.491C271.914 326.516 271.378 330.433 270.884 334.652C270.664 336.531 270.799 338.402 270.512 340.267C270.19 342.357 269.396 344.366 268.702 346.359C266.068 353.927 268.536 361.124 276.719 364.59C282.591 367.079 290.973 367.632 297.745 365.457Z" fill="#FFC9B8"/>
<path d="M307.219 315.789C306.865 313.467 305.588 313.865 303.24 312.943C300.892 312.021 298.263 312.012 295.707 312.018C290.484 312.018 276.868 311.652 273.641 316.234C272.16 318.339 272.043 320.985 271.973 323.491C271.888 326.516 271.352 330.433 270.857 334.652C270.638 336.531 270.772 338.402 270.485 340.267C270.197 341.857 269.761 343.416 269.183 344.925C274.32 346.841 279.911 347.189 285.247 345.923C294.762 343.581 301.967 337.658 307.108 329.958C307.134 329.373 307.152 328.761 307.19 328.161C307.456 324.094 307.846 319.849 307.219 315.789Z" fill="#F6AE9B"/>
<path d="M314.801 285.97C314.76 278.996 313.797 272.38 312.002 266.884C304.259 243.17 274.689 237.315 256.883 254.339C237.027 273.314 244.628 318.684 265.54 334.634C268.361 336.75 271.623 338.202 275.083 338.884C278.543 339.566 282.112 339.459 285.524 338.572C306.074 333.047 314.933 307.758 314.801 285.97Z" fill="#FFC9B8"/>
<path d="M310.919 286.556C320.016 281.578 322.818 294.167 321.251 300.444C320.604 303.032 319.582 305.559 317.975 307.687C315.812 310.557 309.62 315.314 306.054 312.176C304.435 310.753 304.268 308.332 304.218 306.177C304.083 300.401 304.751 289.928 310.919 286.556Z" fill="#F8A17A"/>
<path d="M281.285 328.047C279.032 328.047 276.781 327.881 274.552 327.552L274.953 324.823C282.955 326.05 291.141 324.907 298.5 321.535C300.289 320.727 301.995 319.746 303.594 318.608C306.271 316.662 308.517 314.186 310.193 311.333L312.574 312.726C310.703 315.909 308.197 318.672 305.21 320.842C303.464 322.085 301.601 323.156 299.648 324.039C293.891 326.692 287.625 328.06 281.285 328.047Z" fill="#355C8C"/>
<path d="M266.586 322.648C269.912 319.793 277.31 320.036 279.761 323.002C281.567 325.198 281.017 327.979 279.026 329.844C276.684 332.04 273.756 331.914 270.828 331.252C267.134 330.421 262.578 326.088 266.586 322.648Z" fill="#1A3151"/>
<path d="M314.848 267.862C306.698 242.907 275.565 236.741 256.819 254.656C252.676 258.614 249.687 263.673 247.699 269.352C248.135 270.033 248.619 270.683 249.145 271.296C251.716 274.277 255.267 276.221 258.839 277.875C269.276 282.7 280.524 285.531 291.825 287.648C292.657 287.803 293.494 287.958 294.331 288.122C297.443 288.737 300.529 289.504 303.246 291.102C310.925 295.628 307.638 305.585 313.25 309.951C313.714 310.31 314.233 310.591 314.787 310.782C316.834 303.345 317.847 295.66 317.797 287.946C317.75 280.612 316.737 273.644 314.848 267.862Z" fill="#F7AE9B"/>
<path d="M295.136 285.27C298.111 286.371 301.035 287.612 303.462 289.636C310.322 295.33 305.474 304.631 310.331 309.837C314.634 314.448 321.163 308.355 322.885 304.095C326.041 296.249 325.853 287.516 325.622 279.061C325.493 274.347 325.353 269.563 323.971 265.055C322.463 260.136 319.526 255.748 316.028 251.974C305.93 241.08 290.695 235.415 275.942 236.346C264.404 237.072 244.168 246.765 253.212 261.442C255.261 264.794 258.481 267.28 261.734 269.481C271.267 275.922 281.92 280.498 292.738 284.389C293.535 284.688 294.337 284.975 295.136 285.27Z" fill="#10132B"/>
<path d="M314.726 282.972C301.885 286.266 296.922 310.457 311.248 315.273C326.641 320.449 337.477 298.152 327.373 287.229C323.444 282.969 318.871 281.912 314.726 282.972Z" fill="#355C8C"/>
<path d="M318.948 286.075C310.083 287.501 304.623 306.332 313.757 311.517C323.574 317.08 332.787 300.316 327.011 290.657C324.759 286.889 321.8 285.619 318.948 286.075Z" fill="#1A3151"/>
<path d="M320.736 284.664L317.311 284.269C319.635 264.191 318.643 238.539 300.737 230.347C292.247 226.468 267.971 222.149 257.282 236.586C255.996 238.029 255.136 239.241 255.136 239.241C261.764 218.788 293.02 223.025 302.172 227.211C321.963 236.264 323.19 263.453 320.736 284.664Z" fill="#355C8C"/>
<path d="M256.464 474.202H186.048V487.989H256.464V474.202Z" fill="#B8D1CE"/>
<path d="M198.131 475.537L180.36 385.072C180.13 383.916 179.505 382.875 178.594 382.128C177.682 381.38 176.539 380.972 175.36 380.973H57.222C56.421 380.973 55.6316 381.164 54.919 381.53C54.2063 381.895 53.5908 382.425 53.1232 383.075L53.1086 383.061L47.6543 389.501L52.4938 388.439L69.9925 477.505C70.2229 478.661 70.8473 479.702 71.7591 480.449C72.671 481.196 73.8139 481.604 74.993 481.603H193.134C193.885 481.603 194.626 481.436 195.306 481.116C195.985 480.795 196.585 480.328 197.062 479.748C197.54 479.169 197.883 478.49 198.068 477.762C198.253 477.034 198.275 476.275 198.131 475.537V475.537Z" fill="#B8D1CE"/>
<path d="M69.591 487.986H187.732C188.485 487.986 189.229 487.819 189.911 487.497C190.592 487.175 191.193 486.706 191.671 486.123C192.149 485.541 192.492 484.859 192.675 484.128C192.858 483.398 192.877 482.635 192.729 481.896L174.958 391.431C174.728 390.274 174.103 389.234 173.192 388.486C172.28 387.739 171.137 387.331 169.958 387.332H51.82C51.0674 387.332 50.3242 387.498 49.6436 387.819C48.963 388.141 48.3621 388.609 47.8839 389.19C47.4058 389.771 47.0624 390.451 46.8783 391.18C46.6943 391.91 46.6742 392.672 46.8195 393.41L64.5905 483.875C64.8185 485.034 65.4419 486.077 66.354 486.827C67.2661 487.577 68.4103 487.986 69.591 487.986V487.986Z" fill="#9DAFBD"/>
<path d="M106.752 435.413C107.841 441.518 113.673 446.462 119.774 446.462C125.876 446.462 129.872 441.515 128.692 435.413C127.512 429.312 121.683 424.364 115.67 424.364C109.656 424.364 105.66 429.312 106.752 435.413Z" fill="white"/>
<path d="M445.853 433.973C447.156 431.283 446.922 428.451 446.102 425.887C445.312 423.252 443.903 421.003 442.378 418.532C440.853 416.062 439.263 413.441 438.3 410.244C437.337 407.047 437.603 403.388 438.499 400.322C440.44 394.069 444.413 389.464 447.153 384.75C448.526 382.364 449.648 379.943 450.081 377.261C450.652 374.51 450.309 371.648 449.103 369.11C451.363 371.089 452.461 374.295 452.616 377.402C452.771 380.508 451.966 383.722 450.763 386.521C448.386 392.198 444.826 396.809 443.444 401.792C442.656 404.26 442.463 406.649 443.022 409.041C443.488 411.494 444.779 413.968 445.924 416.653C447.147 419.288 448.318 422.303 448.579 425.418C448.842 428.492 448.14 431.962 445.853 433.973Z" fill="white"/>
<path d="M467.074 448.784C458.654 448.784 451.829 455.708 451.829 464.251C451.829 472.794 458.654 479.718 467.074 479.718C475.494 479.718 482.318 472.794 482.318 464.251C482.318 455.708 475.494 448.784 467.074 448.784ZM467.074 474.202C461.657 474.202 457.266 469.746 457.266 464.248C457.266 458.75 461.657 454.294 467.074 454.294C472.49 454.294 476.881 458.75 476.881 464.248C476.881 469.746 472.49 474.202 467.074 474.202Z" fill="#9B87FF"/>
<path d="M429.514 437.396H464.622V480.365C464.622 482.306 463.851 484.168 462.479 485.541C461.106 486.913 459.244 487.684 457.303 487.684H436.833C434.892 487.684 433.03 486.913 431.657 485.541C430.285 484.168 429.514 482.306 429.514 480.365V437.396Z" fill="#7163B9"/>
<path opacity="0.2" d="M434.76 468.611C434.258 468.609 433.776 468.409 433.421 468.053C433.065 467.698 432.865 467.216 432.863 466.713V442.238C432.865 441.735 433.065 441.254 433.421 440.898C433.776 440.543 434.258 440.342 434.76 440.341C435.263 440.342 435.745 440.543 436.1 440.898C436.456 441.254 436.656 441.735 436.658 442.238V466.713C436.656 467.216 436.456 467.698 436.1 468.053C435.745 468.409 435.263 468.609 434.76 468.611V468.611Z" fill="white"/>
<path d="M456.513 437.396V478.793C456.513 481.151 455.577 483.413 453.909 485.08C452.242 486.748 449.98 487.684 447.622 487.684H455.729C458.087 487.684 460.349 486.748 462.016 485.08C463.683 483.413 464.62 481.151 464.62 478.793V437.396H456.513Z" fill="#594EA9"/>
<path d="M370.219 262.464H490.052C496.682 262.464 502.056 257.089 502.056 250.46V187.123C502.056 180.493 496.682 175.119 490.052 175.119H370.219C363.59 175.119 358.216 180.493 358.216 187.123V250.46C358.216 257.089 363.59 262.464 370.219 262.464Z" fill="#FFC895"/>
<path d="M377.146 285.455V245.316L408.581 262.464L377.146 285.455Z" fill="#FFC895"/>
<path d="M448.696 215.103H382.759C381.304 215.103 380.124 216.282 380.124 217.737V220.088C380.124 221.544 381.304 222.723 382.759 222.723H448.696C450.151 222.723 451.331 221.544 451.331 220.088V217.737C451.331 216.282 450.151 215.103 448.696 215.103Z" fill="white"/>
<path d="M477.511 215.103H459.442C457.986 215.103 456.807 216.282 456.807 217.737V220.088C456.807 221.544 457.986 222.723 459.442 222.723H477.511C478.966 222.723 480.146 221.544 480.146 220.088V217.737C480.146 216.282 478.966 215.103 477.511 215.103Z" fill="white"/>
<path d="M411.573 205.421H477.511C478.966 205.421 480.146 204.241 480.146 202.786V200.435C480.146 198.98 478.966 197.8 477.511 197.8H411.573C410.118 197.8 408.938 198.98 408.938 200.435V202.786C408.938 204.241 410.118 205.421 411.573 205.421Z" fill="white"/>
<path d="M382.756 205.421H400.826C402.281 205.421 403.461 204.241 403.461 202.786V200.435C403.461 198.98 402.281 197.8 400.826 197.8H382.756C381.301 197.8 380.121 198.98 380.121 200.435V202.786C380.121 204.241 381.301 205.421 382.756 205.421Z" fill="white"/>
<path d="M427.5 230.924H382.759C381.304 230.924 380.124 232.104 380.124 233.559V235.91C380.124 237.365 381.304 238.545 382.759 238.545H427.5C428.955 238.545 430.135 237.365 430.135 235.91V233.559C430.135 232.104 428.955 230.924 427.5 230.924Z" fill="white"/>
<path d="M496.146 287.206C492.925 287.188 489.798 286.772 487.591 283.613C483.261 277.41 476.647 271.841 469.234 278.15C464.957 281.789 468.175 289.275 464.495 292.874C461.239 296.056 457.102 295.532 455.436 300.813C452.989 308.586 460.706 315.396 463.183 322.118C465.262 327.76 460.586 329.909 458.499 334.303C456.88 337.69 457.711 341.33 459.477 344.55C462.589 350.262 469.489 354.861 467.891 362.26C466.556 368.434 465.317 373.935 470.763 378.614C474.495 381.834 481.425 384.744 480.898 390.681C480.711 392.784 479.259 394.572 478.849 396.645C478.22 399.924 480.342 403.112 482.807 405.361C488.417 410.478 493.347 415.315 497.545 421.756C499.34 424.508 506.53 430.72 503.655 434.483C508.878 427.643 514.397 421.015 519.143 413.825C523.045 407.911 528.927 399.263 524.925 391.981C523.681 389.715 521.362 388.029 520.729 385.523C519.585 380.997 524.029 376.801 525.683 372.951C528.277 366.906 526.374 359.885 521.801 355.35C519.637 353.204 517.292 350.842 516.973 347.811C516.628 344.503 518.701 341.417 519.643 338.364C520.492 335.515 521.07 332.592 521.368 329.634C521.59 327.57 521.678 325.459 521.192 323.439C520.27 319.6 516.8 317.466 514.253 314.74C508.161 308.256 511.364 300.629 508.691 293.093C506.305 286.327 501.114 287.238 496.146 287.206Z" fill="url(#paint0_linear)"/>
<path d="M505.355 435.194C507.141 412.384 505.501 389.392 501.722 366.927C498.116 345.495 493.385 323.992 486.21 303.678C483.853 296.957 481.163 290.388 478.152 284" stroke="white" stroke-miterlimit="10"/>
<path d="M462 314.585C472.084 318.556 481.662 323.971 490.494 330.693C492.733 332.396 493.978 332.919 495.842 335.108" stroke="white" stroke-miterlimit="10"/>
<path d="M500.615 359.548C490.912 352.568 480.027 347.883 468.635 345.784" stroke="white" stroke-miterlimit="10"/>
<path d="M504.44 388.975C495.389 380.252 484.535 374.178 472.854 371.298" stroke="white" stroke-miterlimit="10"/>
<path d="M495.344 334.358C496.053 322.254 498.733 310.394 503.251 299.358" stroke="white" stroke-miterlimit="10"/>
<path d="M500.494 358.554C505.087 347.618 511.643 337.849 519.758 329.851" stroke="white" stroke-miterlimit="10"/>
<path d="M505.037 389.811C505.671 386.437 506.774 383.194 508.306 380.199C510.087 376.722 512.415 373.639 514.788 370.636C516.496 368.473 518.233 366.337 519.999 364.23" stroke="white" stroke-miterlimit="10"/>
<path d="M535.707 334.47C538.049 334.903 540.371 335.035 542.412 333.047C546.411 329.147 551.979 326.021 556.485 331.624C559.085 334.845 555.715 339.839 557.887 342.96C559.808 345.721 562.882 345.911 563.359 349.987C564.059 355.965 557.518 359.835 554.79 364.37C552.5 368.176 555.595 370.381 556.511 373.859C557.217 376.541 556.11 379.058 554.383 381.178C551.335 384.89 545.693 387.271 545.828 392.86C545.942 397.523 546.08 401.684 541.481 404.324C538.327 406.134 532.897 407.296 532.46 411.676C532.305 413.225 533.113 414.726 533.113 416.284C533.113 418.749 531.137 420.769 529.035 422.06C524.257 424.988 520.015 427.816 516.074 431.906C514.391 433.663 508.316 437.176 509.879 440.291C507.036 434.608 503.951 429.034 501.506 423.161C499.495 418.33 496.424 411.245 500.335 406.517C501.553 405.053 503.465 404.143 504.273 402.418C505.737 399.295 503.087 395.635 502.419 392.614C501.374 387.871 503.728 383.04 507.672 380.382C509.537 379.123 511.565 377.747 512.218 375.58C512.927 373.238 511.849 370.703 511.589 368.358C511.367 366.174 511.352 363.974 511.545 361.788C511.668 360.26 511.899 358.717 512.529 357.317C513.729 354.659 516.534 353.591 518.768 351.969C524.084 348.107 522.817 342.132 525.794 337.037C528.461 332.423 532.1 333.802 535.707 334.47Z" fill="url(#paint1_linear)"/>
<path d="M507.955 444.763C509.611 426.779 513.972 409.22 519.934 392.421C525.622 376.398 532.199 360.502 540.53 345.93C543.272 341.107 546.254 336.457 549.463 332" stroke="white" stroke-miterlimit="10"/>
<path d="M558 358.387C549.583 359.802 541.368 362.421 533.561 366.177C531.584 367.129 530.54 367.328 528.787 368.718" stroke="white" stroke-miterlimit="10"/>
<path d="M521.784 386.881C530.306 383.069 539.446 381.232 548.636 381.484" stroke="white" stroke-miterlimit="10"/>
<path d="M514.847 409.082C523.091 403.811 532.393 400.891 541.913 400.585" stroke="white" stroke-miterlimit="10"/>
<path d="M529.29 368.217C530.356 358.716 529.85 349.08 527.796 339.779" stroke="white" stroke-miterlimit="10"/>
<path d="M522.014 386.129C519.885 376.89 516.065 368.233 510.789 360.692" stroke="white" stroke-miterlimit="10"/>
<path d="M514.276 409.633C514.231 406.915 513.802 404.22 513.006 401.648C512.079 398.658 510.67 395.885 509.218 393.162C508.172 391.201 507.099 389.259 506 387.335" stroke="white" stroke-miterlimit="10"/>
<path d="M485.597 439.14H533.4L525.015 486.982H493.984L485.597 439.14Z" fill="#FB8284"/>
<path d="M479.744 439.14H539.252V425.711H479.744V439.14Z" fill="#FFA6A7"/>
<path opacity="0.1" d="M532.29 445.485H486.709L485.597 439.14H533.4L532.29 445.485Z" fill="#231F20"/>
<path d="M312.288 466.555C313.722 466.311 315.159 466.075 316.597 465.847C323.594 464.75 330.558 463.447 337.489 461.938C351.211 458.955 365.009 456.393 378.983 455.07C380.463 454.929 381.944 454.804 383.427 454.692C389.69 454.218 396.254 454.066 401.986 457.061C407.718 460.056 412.277 467.141 410.877 473.968C409.894 478.767 406.225 482.377 402.147 484.198C398.069 486.019 393.581 486.335 389.18 486.631L346.392 489.508C339.331 489.979 332.27 490.467 325.21 490.972C318.477 491.441 311.623 492.395 304.86 492.386C302 492.386 298.806 491.848 296.405 489.939C293.064 487.286 291.053 481.639 290.731 477.224C290.564 474.931 291.024 472.15 292.78 470.73C293.72 469.972 294.915 469.738 296.065 469.527C301.47 468.52 306.863 467.48 312.288 466.555Z" fill="#90A0D7"/>
<path d="M296.282 488.287C292.833 488.999 290.134 492.029 286.705 493.042C284.255 493.765 281.635 493.379 279.281 492.497C277.117 491.686 274.916 491.25 272.693 490.539C270.963 489.985 268.624 488.817 266.765 489.204C261.89 490.22 257.027 493.689 252.61 495.937C251.617 496.444 250.528 496.965 249.433 496.757C248.338 496.549 247.425 495.22 248.048 494.295C246.778 495.484 245.094 497.858 243.042 496.93C242.202 496.552 241.698 495.443 242.164 494.649C241.458 495.422 240.717 496.221 239.745 496.605C238.773 496.988 237.497 496.821 236.923 495.946C236.676 495.517 236.546 495.03 236.548 494.535C236.463 492.843 236.976 491.171 237.681 489.631C241.162 482.034 249.032 476.401 255.73 471.875C256.902 471.075 258.122 470.261 259.49 469.846C260.713 469.471 262.01 469.43 263.296 469.424C271.618 469.398 279.888 470.743 287.774 473.406C289.478 473.991 291.352 473.491 293.044 473.172C294.3 472.937 295.614 472.703 296.85 473.06C298.223 473.461 299.289 474.551 300.126 475.71C301.666 477.844 302.84 480.672 302.658 483.354C302.518 485.404 302.366 487.588 299.968 488.015C298.996 488.188 297.997 488.082 297.017 488.185C296.765 488.199 296.525 488.238 296.282 488.287Z" fill="#FFC9B8"/>
<path d="M548.882 506.176H42.3579C37.1993 506.176 33.0156 502.188 33.0156 497.27C33.0156 492.351 37.1993 488.364 42.3579 488.364H548.882C554.04 488.364 558.224 492.351 558.224 497.27C558.224 502.188 554.04 506.176 548.882 506.176Z" fill="#1A3151"/>
<path d="M153.601 186.941H134.674C130.794 186.95 127.075 188.495 124.332 191.238C121.589 193.981 120.044 197.7 120.035 201.58V201.58C120.04 203.949 120.619 206.281 121.723 208.377C122.828 210.473 124.425 212.27 126.377 213.612V223.906L136.916 216.206H153.604C157.484 216.198 161.202 214.653 163.945 211.909C166.689 209.166 168.234 205.448 168.242 201.568C168.231 197.69 166.684 193.974 163.94 191.233C161.197 188.492 157.479 186.949 153.601 186.941V186.941Z" fill="#4E8FB7"/>
<path d="M133.54 203.787C134.766 203.787 135.76 202.793 135.76 201.568C135.76 200.342 134.766 199.349 133.54 199.349C132.315 199.349 131.321 200.342 131.321 201.568C131.321 202.793 132.315 203.787 133.54 203.787Z" fill="white"/>
<path d="M144.138 203.787C145.364 203.787 146.357 202.793 146.357 201.568C146.357 200.342 145.364 199.349 144.138 199.349C142.913 199.349 141.919 200.342 141.919 201.568C141.919 202.793 142.913 203.787 144.138 203.787Z" fill="white"/>
<path d="M154.737 203.787C155.962 203.787 156.956 202.793 156.956 201.568C156.956 200.342 155.962 199.349 154.737 199.349C153.511 199.349 152.518 200.342 152.518 201.568C152.518 202.793 153.511 203.787 154.737 203.787Z" fill="white"/>
<path d="M439.624 315.068C436.696 310.076 429.342 307.57 422.224 315.888C415.107 307.567 407.741 310.076 404.825 315.068C397.635 327.364 422.224 341.845 422.224 341.845C422.224 341.845 446.811 327.37 439.624 315.068Z" fill="#F1CCD0"/>
<path d="M273.533 160.569H236.949C235.008 160.569 233.436 162.142 233.436 164.082V186.154C233.436 188.094 235.008 189.667 236.949 189.667H273.533C275.473 189.667 277.046 188.094 277.046 186.154V164.082C277.046 162.142 275.473 160.569 273.533 160.569Z" fill="#96D5E2"/>
<path d="M234.142 161.502L253.245 180.017C253.788 180.528 254.506 180.813 255.252 180.813C255.998 180.813 256.715 180.528 257.259 180.017L276.353 161.502" stroke="white" stroke-width="2" stroke-miterlimit="10"/>
<path d="M234.142 188.73L249.808 176.694" stroke="white" stroke-width="2" stroke-miterlimit="10"/>
<path d="M276.344 188.73L260.678 176.694" stroke="white" stroke-width="2" stroke-miterlimit="10"/>
<path d="M199.363 268.225H156.01C154.07 268.225 152.497 269.798 152.497 271.739V299.704C152.497 301.644 154.07 303.217 156.01 303.217H199.363C201.304 303.217 202.877 301.644 202.877 299.704V271.739C202.877 269.798 201.304 268.225 199.363 268.225Z" fill="#1A3151"/>
<path d="M177.683 314.275L186.516 302.362H168.851L177.683 314.275Z" fill="#1A3151"/>
<path d="M190.938 290.221H188.76V284.254L188.78 283.274L188.815 282.202C188.454 282.565 188.202 282.802 188.06 282.913L186.889 283.865L185.838 282.553L189.161 279.918H190.953L190.938 290.221Z" fill="white"/>
<path d="M174.782 279.564H167.633C166.168 279.568 164.764 280.152 163.729 281.187C162.693 282.223 162.109 283.627 162.105 285.092V285.092C162.107 285.987 162.326 286.868 162.743 287.66C163.16 288.452 163.763 289.131 164.5 289.638V293.529L168.479 290.619H174.782C176.247 290.615 177.651 290.032 178.687 288.996C179.722 287.96 180.306 286.556 180.31 285.092V285.092C180.306 283.627 179.722 282.223 178.687 281.187C177.651 280.152 176.247 279.568 174.782 279.564V279.564Z" fill="white"/>
<defs>
<linearGradient id="paint0_linear" x1="475.5" y1="275" x2="514" y2="425" gradientUnits="userSpaceOnUse">
<stop stop-color="#63CA88"/>
<stop offset="1" stop-color="#009A8D"/>
</linearGradient>
<linearGradient id="paint1_linear" x1="530.93" y1="328.58" x2="504.5" y2="433" gradientUnits="userSpaceOnUse">
<stop stop-color="#FFFBF0"/>
<stop offset="1" stop-color="#053675"/>
</linearGradient>
</defs>
</svg>
