<svg width="108" height="78" viewBox="0 0 108 78" fill="none" xmlns="http://www.w3.org/2000/svg">
<path d="M50.3588 41.847H69.2953C70.6596 41.847 71.7698 40.7369 71.7698 39.3724V20.436C71.7698 19.0716 70.6598 17.9614 69.2953 17.9614H50.3588C48.9945 17.9614 47.8843 19.0715 47.8843 20.436V39.3724C47.8843 40.7369 48.9943 41.847 50.3588 41.847Z" fill="#69CBF7"/>
<path d="M97.5653 17.9609H78.6289C77.2645 17.9609 76.1543 19.071 76.1543 20.4355V39.3719C76.1543 40.7363 77.2643 41.8465 78.6289 41.8465H97.5653C98.9297 41.8465 100.04 40.7364 100.04 39.3719V20.4355C100.04 19.0711 98.9298 17.9609 97.5653 17.9609Z" fill="#4BA0E0"/>
<path d="M69.3329 46.1655H50.3964C49.0321 46.1655 47.9219 47.2756 47.9219 48.6401V67.5765C47.9219 68.9409 49.0319 70.0511 50.3964 70.0511H69.3329C70.6972 70.0511 71.8074 68.941 71.8074 67.5765V48.6401C71.8074 47.2756 70.6974 46.1655 69.3329 46.1655Z" fill="#69CBF7"/>
<path d="M59.1914 10H47.973C43.5766 10 40 13.5766 40 17.9729V29.2426C40 30.3428 40.892 31.2347 41.9922 31.2347C43.0924 31.2347 43.9844 30.3428 43.9844 29.2426V17.9729C43.9844 15.7736 45.7736 13.9844 47.973 13.9844H59.1914C60.2916 13.9844 61.1836 13.0924 61.1836 11.9922C61.1836 10.892 60.2916 10 59.1914 10Z" fill="#D9EFFF"/>
<path d="M59.1914 74.0156H47.973C45.7736 74.0156 43.9844 72.2263 43.9844 70.0271V58.7944C43.9844 57.6942 43.0924 56.8022 41.9922 56.8022C40.892 56.8022 40 57.6942 40 58.7944V70.0271C40 74.4233 43.5766 77.9999 47.973 77.9999H59.1914C60.2916 77.9999 61.1836 77.108 61.1836 76.0077C61.1836 74.9075 60.2916 74.0156 59.1914 74.0156Z" fill="#D9EFFF"/>
<path d="M106.008 56.8022C104.907 56.8022 104.015 57.6942 104.015 58.7944V70.0271C104.015 72.2264 102.226 74.0156 100.027 74.0156H88.8164C87.7162 74.0156 86.8242 74.9075 86.8242 76.0077C86.8242 77.108 87.7162 77.9999 88.8164 77.9999H100.027C104.423 77.9999 108 74.4233 108 70.0271V58.7944C108 57.6941 107.108 56.8022 106.008 56.8022Z" fill="#B3E2FF"/>
<path d="M100.027 10H88.8164C87.7162 10 86.8242 10.892 86.8242 11.9922C86.8242 13.0924 87.7162 13.9844 88.8164 13.9844H100.027C102.226 13.9844 104.015 15.7736 104.015 17.9729V29.2426C104.015 30.3428 104.907 31.2347 106.008 31.2347C107.108 31.2347 108 30.3428 108 29.2426V17.9729C108 13.5766 104.423 10 100.027 10Z" fill="#B3E2FF"/>
<path d="M89.04 68.0588C89.04 69.1591 89.932 70.051 91.0322 70.051H97.603C98.9674 70.051 100.078 68.941 100.078 67.5765V61.3955C100.078 60.2953 99.1856 59.4033 98.0854 59.4033C96.9852 59.4033 96.0932 60.2953 96.0932 61.3955V66.0667H91.0322C89.9319 66.0667 89.04 66.9586 89.04 68.0588Z" fill="#B3E2FF"/>
<path d="M85.9717 54.7549C85.9717 53.6547 85.0797 52.7627 83.9795 52.7627H79.1878C77.8021 52.7627 76.6748 53.89 76.6748 55.2758V61.3955C76.6748 62.4957 77.5668 63.3877 78.667 63.3877C79.7672 63.3877 80.6592 62.4957 80.6592 61.3955V56.7471H83.9795C85.0797 56.7471 85.9717 55.8552 85.9717 54.7549Z" fill="#B3E2FF"/>
<path d="M78.1465 50.6323H90.2655V59.4034H85.202C84.1018 59.4034 83.2098 60.2954 83.2098 61.3956C83.2098 62.4958 84.1018 63.3878 85.202 63.3878H92.1125C93.2911 63.3878 94.2498 62.429 94.2498 61.2506V49.161C94.2498 47.7753 93.1224 46.6479 91.7367 46.6479H78.1465C77.0463 46.6479 76.1543 47.5399 76.1543 48.6401C76.1543 49.7404 77.0463 50.6323 78.1465 50.6323Z" fill="#B3E2FF"/>
<path d="M98.0483 56.7472C99.1486 56.7472 100.041 55.8552 100.041 54.755V48.6401C100.041 47.5399 99.1486 46.6479 98.0483 46.6479C96.9481 46.6479 96.0562 47.5399 96.0562 48.6401V54.755C96.0562 55.8553 96.9481 56.7472 98.0483 56.7472Z" fill="#B3E2FF"/>
<path d="M87.6978 68.0586C87.6978 66.9584 86.8059 66.0664 85.7057 66.0664H78.1465C77.0463 66.0664 76.1543 66.9584 76.1543 68.0586C76.1543 69.1588 77.0463 70.0508 78.1465 70.0508H85.7057C86.8059 70.0508 87.6978 69.1589 87.6978 68.0586Z" fill="#B3E2FF"/>
<path d="M62.943 24.438H56.7143C55.4171 24.438 54.3618 25.4933 54.3618 26.7905V33.0191C54.3618 34.3165 55.4171 35.3718 56.7143 35.3718H62.943C64.2402 35.3718 65.2955 34.3165 65.2955 33.0191V26.7905C65.2955 25.4933 64.2402 24.438 62.943 24.438Z" fill="white"/>
<path d="M91.2115 24.438H84.9829C83.6857 24.438 82.6304 25.4933 82.6304 26.7905V33.0191C82.6304 34.3165 83.6857 35.3718 84.9829 35.3718H91.2115C92.5088 35.3718 93.5642 34.3165 93.5642 33.0191V26.7905C93.5642 25.4933 92.5088 24.438 91.2115 24.438Z" fill="#D9EFFF"/>
<path d="M62.9415 52.6421H56.7129C55.4157 52.6421 54.3604 53.6974 54.3604 54.9947V61.2234C54.3604 62.5207 55.4157 63.576 56.7129 63.576H62.9415C64.2387 63.576 65.294 62.5207 65.294 61.2234V54.9947C65.294 53.6976 64.2387 52.6421 62.9415 52.6421Z" fill="white"/>
<path d="M21.1572 41.7567C6.30323 40.2758 15.9404 26.4651 21.1572 19.7905C11.7493 21.5182 6.90727 25.9759 2.46634 31.7608C-2.16252 37.7905 0.11388 43.4844 6.05567 43.8546C11.9975 44.2248 17.6468 43.7526 21.1572 41.7567Z" fill="url(#paint0_linear)"/>
<path fill-rule="evenodd" clip-rule="evenodd" d="M37.4243 16.1943C38.4838 27.9008 32.4905 40.0942 11.0825 43.9708C13.8303 43.9708 17.0436 43.9682 20.1765 43.9654C20.1677 43.967 20.1588 43.9686 20.15 43.9702C23.5472 43.9702 28.1011 43.9663 32.3057 43.9627L32.3126 43.9627L34.8374 43.9605L35.1221 43.9612C36.6002 43.9647 37.9169 43.9678 41.1362 43.9573C42.2772 43.9573 43.3241 43.9611 44.2875 43.9645L44.2894 43.9645C51.2561 43.9894 53.8551 43.9987 56.1057 42.4657C60.2057 39.6729 54.2302 31.978 45.517 20.7576C42.6396 17.0523 39.4637 12.9625 36.2535 8.53783C36.1164 8.30605 35.9783 8.0731 35.8392 7.83897C35.3284 6.81133 34.7773 5.75813 34.184 4.67884C34.4251 5.18619 34.6561 5.70198 34.8761 6.22518C34.5701 5.71489 34.2597 5.19924 33.9449 4.67822C34.2222 5.27443 34.5013 5.87721 34.7798 6.48542C34.356 5.88867 33.9322 5.28624 33.5092 4.67822C33.9609 8.63313 35.5427 12.5053 37.4243 16.1943Z" fill="url(#paint1_linear)"/>
<path d="M37.021 21.4676C19.3958 14.4275 6.73829 25.7737 2.8225 31.7214C2.31537 32.1873 15.4305 13.8959 18.0205 10.2485C22.8752 3.41163 25.267 0.507393 28.5152 0.507374C35.0118 0.507373 38.1361 13.8028 37.021 21.4676Z" fill="url(#paint2_linear)"/>
<defs>
<linearGradient id="paint0_linear" x1="15.9675" y1="19.0253" x2="15.6167" y2="40.8029" gradientUnits="userSpaceOnUse">
<stop stop-color="#DA6F37"/>
<stop offset="0.903961" stop-color="#FFC895"/>
</linearGradient>
<linearGradient id="paint1_linear" x1="35.0926" y1="19.0316" x2="27.3135" y2="44.1284" gradientUnits="userSpaceOnUse">
<stop stop-color="#C8E381"/>
<stop offset="1" stop-color="#1C7249"/>
</linearGradient>
<linearGradient id="paint2_linear" x1="35.147" y1="7.9745" x2="8.03588" y2="25.7154" gradientUnits="userSpaceOnUse">
<stop stop-color="#2F3590"/>
<stop offset="0.181863" stop-color="#347CBF"/>
<stop offset="0.375389" stop-color="#3598D1"/>
<stop offset="0.701814" stop-color="#37B0E1"/>
</linearGradient>
</defs>
</svg>
