<svg width="124" height="80" viewBox="0 0 124 80" fill="none" xmlns="http://www.w3.org/2000/svg">
<path d="M49 74.6222V20.9565C49 18.4577 51.0256 16.4321 53.5238 16.4321H119.117C121.615 16.4321 123.641 18.4577 123.641 20.9565V74.6222C123.641 77.1205 121.615 79.146 119.117 79.146H53.5238C51.0256 79.146 49 77.1205 49 74.6222Z" fill="url(#paint0_linear)"/>
<path d="M49 20.9565V74.6222C49 77.1205 51.0256 79.146 53.5238 79.146H119.117C121.615 79.146 123.641 77.1205 123.641 74.6222V71.7829L63.5783 16.4321H53.5238C51.0256 16.4321 49 18.4577 49 20.9565Z" fill="url(#paint1_linear)"/>
<path d="M62.9951 67.5461V13.5515C62.9951 11.038 61.526 9 59.7131 9H55.3869C51.8594 9 49 12.9654 49 17.8573V75.4769C49 73.6108 50.0911 72.0977 51.4368 72.0977H59.7131C61.526 72.0977 62.9951 70.0602 62.9951 67.5461Z" fill="url(#paint2_linear)"/>
<path d="M103.499 57.7217H117.212V60.0941H103.499V57.7217Z" fill="#A1B5D8"/>
<path d="M103.498 63.5835H117.212V65.9559H103.498V63.5835Z" fill="#A1B5D8"/>
<path d="M103.498 69.4463H114.418V71.8187H103.498V69.4463Z" fill="#A1B5D8"/>
<path d="M75.5371 24.793H83.8615V42.3285H75.5371V24.793Z" fill="url(#paint3_linear)"/>
<path d="M85.8203 31.6011H94.1447V42.3286H85.8203V31.6011Z" fill="url(#paint4_linear)"/>
<path d="M96.1033 25.1709H104.428V42.3283H96.1033V25.1709Z" fill="#FB8284"/>
<path d="M106.386 18.8242H114.71V42.3283H106.386V18.8242Z" fill="#23416E"/>
<path d="M74.0627 46.0962H116.185V47.1207H74.0627V46.0962Z" fill="url(#paint5_linear)"/>
<path d="M75.9425 46.6083C75.9425 47.6459 75.1008 48.4875 74.0627 48.4875C73.0245 48.4875 72.1829 47.6459 72.1829 46.6083C72.1829 45.5702 73.0245 44.7285 74.0627 44.7285C75.1008 44.7285 75.9425 45.5702 75.9425 46.6083Z" fill="url(#paint6_radial)"/>
<path d="M118.065 46.6083C118.065 47.6459 117.223 48.4875 116.185 48.4875C115.147 48.4875 114.306 47.6459 114.306 46.6083C114.306 45.5702 115.147 44.7285 116.185 44.7285C117.223 44.7285 118.065 45.5702 118.065 46.6083Z" fill="url(#paint7_radial)"/>
<path d="M100.07 62.811C100.07 70.5113 93.827 76.7538 86.1262 76.7538C78.4259 76.7538 72.1829 70.5113 72.1829 62.811C72.1829 55.1101 78.4259 48.8677 86.1262 48.8677C93.827 48.8677 100.07 55.1101 100.07 62.811Z" fill="#23416E"/>
<path d="M76.2666 52.9519L95.9854 72.6701C98.5087 70.1468 100.07 66.6611 100.07 62.811C100.07 59.2872 98.7621 56.0697 96.6061 53.6147C96.5936 53.6022 96.5811 53.5897 96.5686 53.5777C96.437 53.4405 96.3026 53.3061 96.1654 53.1745C93.621 50.5265 90.0528 48.8677 86.1263 48.8677C86.1206 48.8677 86.1149 48.8677 86.1092 48.8677C85.9982 48.8677 85.8877 48.8694 85.7772 48.8722C82.562 48.9525 79.4784 50.1438 77.0479 52.2281C77.0394 52.2355 77.0308 52.2429 77.0228 52.2497C76.9511 52.3118 76.8799 52.3744 76.8093 52.4382C76.7939 52.4519 76.7785 52.4655 76.7632 52.4792C76.6965 52.5396 76.6305 52.6011 76.565 52.6632C76.5473 52.6797 76.5291 52.6962 76.5115 52.7133C76.4289 52.7913 76.3475 52.871 76.2672 52.9519C76.2666 52.9519 76.2666 52.9519 76.2666 52.9519Z" fill="url(#paint8_linear)"/>
<path d="M86.1263 62.811L76.2666 52.9519C78.8804 50.338 82.4299 48.8677 86.1263 48.8677C93.7753 48.8677 100.07 55.162 100.07 62.811H86.1263Z" fill="url(#paint9_radial)"/>
<path d="M86.1263 62.811L76.2666 52.9519C78.8804 50.338 82.4299 48.8677 86.1263 48.8677C87.218 48.8677 88.3056 48.9958 89.3671 49.2492L86.1263 62.811Z" fill="#FB8284"/>
<path d="M21.1572 41.7567C6.30323 40.2758 15.9404 26.4651 21.1572 19.7905C11.7493 21.5182 6.90727 25.9759 2.46634 31.7608C-2.16252 37.7905 0.11388 43.4844 6.05567 43.8546C11.9975 44.2248 17.6468 43.7526 21.1572 41.7567Z" fill="url(#paint10_linear)"/>
<path fill-rule="evenodd" clip-rule="evenodd" d="M37.4241 16.1943C38.4835 27.9008 32.4903 40.0942 11.0823 43.9708C13.8301 43.9708 17.0434 43.9682 20.1762 43.9654C20.1674 43.967 20.1586 43.9686 20.1498 43.9702C23.547 43.9702 28.1009 43.9663 32.3054 43.9627L32.3123 43.9627L34.8371 43.9605L35.1218 43.9612C36.5999 43.9647 37.9166 43.9678 41.1359 43.9573C42.277 43.9573 43.3239 43.9611 44.2873 43.9645L44.2891 43.9645C51.2558 43.9894 53.8548 43.9987 56.1054 42.4657C60.2055 39.6729 54.2299 31.978 45.5167 20.7576C42.6394 17.0523 39.4634 12.9625 36.2532 8.53783C36.1161 8.30605 35.9781 8.0731 35.839 7.83897C35.3282 6.81133 34.7771 5.75813 34.1837 4.67884C34.4248 5.18619 34.6559 5.70198 34.8758 6.22518C34.5699 5.71489 34.2595 5.19924 33.9447 4.67822C34.222 5.27443 34.5011 5.87721 34.7796 6.48542C34.3557 5.88867 33.932 5.28624 33.509 4.67822C33.9606 8.63313 35.5424 12.5053 37.4241 16.1943Z" fill="url(#paint11_linear)"/>
<path d="M37.0212 21.4676C19.396 14.4275 6.73853 25.7737 2.82274 31.7214C2.31562 32.1873 15.4308 13.8959 18.0207 10.2485C22.8755 3.41163 25.2673 0.507393 28.5154 0.507374C35.0121 0.507373 38.1364 13.8028 37.0212 21.4676Z" fill="url(#paint12_linear)"/>
<defs>
<linearGradient id="paint0_linear" x1="76.4072" y1="-15.4914" x2="128.889" y2="105.8" gradientUnits="userSpaceOnUse">
<stop stop-color="#FFFCF8"/>
<stop offset="0.1875" stop-color="#FAF8F6"/>
<stop offset="0.4041" stop-color="#ECEEF2"/>
<stop offset="0.6353" stop-color="#D5DCEA"/>
<stop offset="0.875" stop-color="#B5C4DF"/>
<stop offset="1" stop-color="#A1B5D8"/>
</linearGradient>
<linearGradient id="paint1_linear" x1="85.1347" y1="53.0112" x2="7.32337" y2="36.4051" gradientUnits="userSpaceOnUse">
<stop stop-color="#A1B5D8" stop-opacity="0"/>
<stop offset="0.0343" stop-color="#9FB3D5" stop-opacity="0.035294"/>
<stop offset="0.4515" stop-color="#8898AF" stop-opacity="0.45098"/>
<stop offset="0.788" stop-color="#798898" stop-opacity="0.788235"/>
<stop offset="1" stop-color="#748290"/>
</linearGradient>
<linearGradient id="paint2_linear" x1="55.6254" y1="42.2386" x2="45.9772" y2="42.2386" gradientUnits="userSpaceOnUse">
<stop stop-color="#FFFCF8"/>
<stop offset="0.1875" stop-color="#FAF8F6"/>
<stop offset="0.4041" stop-color="#ECEEF2"/>
<stop offset="0.6353" stop-color="#D5DCEA"/>
<stop offset="0.875" stop-color="#B5C4DF"/>
<stop offset="1" stop-color="#A1B5D8"/>
</linearGradient>
<linearGradient id="paint3_linear" x1="79.6995" y1="28.2637" x2="79.6995" y2="41.0966" gradientUnits="userSpaceOnUse">
<stop stop-color="#00E7B2"/>
<stop offset="0.2459" stop-color="#05E5B1"/>
<stop offset="0.5301" stop-color="#13DDAC"/>
<stop offset="0.8322" stop-color="#2AD1A5"/>
<stop offset="1" stop-color="#3AC9A0"/>
</linearGradient>
<linearGradient id="paint4_linear" x1="89.9823" y1="33.724" x2="89.9823" y2="41.575" gradientUnits="userSpaceOnUse">
<stop stop-color="#FFC738"/>
<stop offset="0.4286" stop-color="#FFBB23"/>
<stop offset="1" stop-color="#FFA700"/>
</linearGradient>
<linearGradient id="paint5_linear" x1="95.124" y1="46.0963" x2="95.124" y2="47.1205" gradientUnits="userSpaceOnUse">
<stop stop-color="#FFFCF8"/>
<stop offset="0.1875" stop-color="#FAF8F6"/>
<stop offset="0.4041" stop-color="#ECEEF2"/>
<stop offset="0.6353" stop-color="#D5DCEA"/>
<stop offset="0.875" stop-color="#B5C4DF"/>
<stop offset="1" stop-color="#A1B5D8"/>
</linearGradient>
<radialGradient id="paint6_radial" cx="0" cy="0" r="1" gradientUnits="userSpaceOnUse" gradientTransform="translate(72.3077 44.0113) scale(4.2168)">
<stop stop-color="#FFFCF8"/>
<stop offset="0.2239" stop-color="#FBF9F7"/>
<stop offset="0.4254" stop-color="#F0F1F3"/>
<stop offset="0.6183" stop-color="#DEE3ED"/>
<stop offset="0.8059" stop-color="#C4D0E4"/>
<stop offset="0.9882" stop-color="#A3B7D9"/>
<stop offset="1" stop-color="#A1B5D8"/>
</radialGradient>
<radialGradient id="paint7_radial" cx="0" cy="0" r="1" gradientUnits="userSpaceOnUse" gradientTransform="translate(114.43 44.0113) scale(4.2168)">
<stop stop-color="#FFFCF8"/>
<stop offset="0.2239" stop-color="#FBF9F7"/>
<stop offset="0.4254" stop-color="#F0F1F3"/>
<stop offset="0.6183" stop-color="#DEE3ED"/>
<stop offset="0.8059" stop-color="#C4D0E4"/>
<stop offset="0.9882" stop-color="#A3B7D9"/>
<stop offset="1" stop-color="#A1B5D8"/>
</radialGradient>
<linearGradient id="paint8_linear" x1="89.5063" y1="66.007" x2="88.0497" y2="56.5738" gradientUnits="userSpaceOnUse">
<stop stop-color="#131830" stop-opacity="0"/>
<stop offset="1" stop-color="#131830"/>
</linearGradient>
<radialGradient id="paint9_radial" cx="0" cy="0" r="1" gradientUnits="userSpaceOnUse" gradientTransform="translate(82.3873 56.9994) scale(16.5109)">
<stop stop-color="#00E7B2"/>
<stop offset="0.3524" stop-color="#03E6B1"/>
<stop offset="0.5753" stop-color="#0BE1AF"/>
<stop offset="0.7622" stop-color="#1ADAAA"/>
<stop offset="0.9283" stop-color="#2FCFA4"/>
<stop offset="1" stop-color="#3AC9A0"/>
</radialGradient>
<linearGradient id="paint10_linear" x1="15.9675" y1="19.0253" x2="15.6167" y2="40.8029" gradientUnits="userSpaceOnUse">
<stop stop-color="#DA6F37"/>
<stop offset="0.903961" stop-color="#FFC895"/>
</linearGradient>
<linearGradient id="paint11_linear" x1="35.0924" y1="19.0316" x2="27.3133" y2="44.1284" gradientUnits="userSpaceOnUse">
<stop stop-color="#C8E381"/>
<stop offset="1" stop-color="#1C7249"/>
</linearGradient>
<linearGradient id="paint12_linear" x1="35.1472" y1="7.9745" x2="8.03613" y2="25.7154" gradientUnits="userSpaceOnUse">
<stop stop-color="#2F3590"/>
<stop offset="0.181863" stop-color="#347CBF"/>
<stop offset="0.375389" stop-color="#3598D1"/>
<stop offset="0.701814" stop-color="#37B0E1"/>
</linearGradient>
</defs>
</svg>
