<svg width="119" height="79" viewBox="0 0 119 79" fill="none" xmlns="http://www.w3.org/2000/svg">
<g clip-path="url(#clip0)">
<path d="M113.04 72.3884H80.8507C77.5592 72.3884 74.8906 69.7198 74.8906 66.4283V13.5226C74.8906 10.2311 77.5592 7.5625 80.8507 7.5625H113.04C116.332 7.5625 119 10.2311 119 13.5226V66.4283C119 69.7198 116.332 72.3884 113.04 72.3884Z" fill="#23416E"/>
<path d="M74.8906 61.0576V66.4283C74.8906 69.7198 77.5592 72.3884 80.8507 72.3884H113.04C116.332 72.3884 119 69.7198 119 66.4283V61.0576H74.8906Z" fill="url(#paint0_linear)"/>
<path d="M110.567 61.0578H83.3234C81.6744 61.0578 80.3379 59.7213 80.3379 58.0723V16.1633C80.3379 14.5142 81.6744 13.1777 83.3234 13.1777H110.567C112.216 13.1777 113.552 14.5142 113.552 16.1633V58.0723C113.552 59.7213 112.215 61.0578 110.567 61.0578Z" fill="#FB8284"/>
<path d="M100.332 66.7234C100.332 68.5933 98.8155 70.1094 96.9451 70.1094C95.0752 70.1094 93.5591 68.5933 93.5591 66.7234C93.5591 64.853 95.0752 63.3369 96.9451 63.3369C98.8155 63.3369 100.332 64.853 100.332 66.7234Z" fill="url(#paint1_linear)"/>
<path d="M96.0547 42.7632H111.072V44.9714H96.0547V42.7632Z" fill="url(#paint2_linear)"/>
<path d="M96.0547 48.2207H111.072V50.429H96.0547V48.2207Z" fill="url(#paint3_linear)"/>
<path d="M96.0547 53.6782H108.013V55.8865H96.0547V53.6782Z" fill="url(#paint4_linear)"/>
<path d="M92.452 30.4735C91.9092 29.7649 91.0567 29.3057 90.0948 29.3057H80.3379V58.0723C80.3379 59.7213 81.6744 61.0578 83.3234 61.0578H110.567C112.215 61.0578 113.552 59.7213 113.552 58.0723V51.5733L92.452 30.4735Z" fill="url(#paint5_linear)"/>
<path d="M90.0951 78.3239H54.8521C53.2112 78.3239 51.8813 76.9935 51.8813 75.3527V32.2769C51.8813 30.6361 53.2112 29.3057 54.8521 29.3057H90.0956C91.7359 29.3057 93.0663 30.6361 93.0663 32.2769V75.3527C93.0663 76.9935 91.7359 78.3239 90.0951 78.3239Z" fill="url(#paint6_linear)"/>
<path d="M54.8521 78.3236H90.0956C91.7359 78.3236 93.0663 76.9932 93.0663 75.3524V72.2817L87.4133 66.6287C86.8695 66.0305 86.0862 65.6553 85.2144 65.6553H51.8813V75.3529C51.8813 76.9932 53.2112 78.3236 54.8521 78.3236Z" fill="url(#paint7_linear)"/>
<path d="M85.2143 65.6553H49.9707C48.3299 65.6553 47 66.9852 47 68.626V72.5421C47 75.7352 49.5884 78.3236 52.781 78.3236H90.3911C89.1727 78.3236 88.185 77.3359 88.185 76.1176V68.626C88.185 66.9852 86.8551 65.6553 85.2143 65.6553Z" fill="url(#paint8_linear)"/>
<path d="M56.7173 54.3105H88.2299V56.0332H56.7173V54.3105Z" fill="#A1B5D8"/>
<path d="M56.7173 61.0942H81.8106V62.8169H56.7173V61.0942Z" fill="#A1B5D8"/>
<path d="M59.2068 49.9185L58.0308 48.7424L66.5078 40.2654L72.5421 46.2996L84.5858 34.2559L85.7619 35.4319L72.5421 48.6518L66.5078 42.6181L59.2068 49.9185Z" fill="url(#paint9_linear)"/>
<path d="M67.9002 40.1498C67.553 39.7757 67.0587 39.54 66.5077 39.54C65.4574 39.54 64.606 40.3915 64.606 41.4418C64.606 41.9927 64.8416 42.4871 65.2157 42.8343L70.2337 47.8523C70.5809 48.2264 71.0758 48.462 71.6262 48.462C72.6765 48.462 73.528 47.6106 73.528 46.5603C73.528 46.0093 73.2928 45.515 72.9188 45.1678L67.9002 40.1498Z" fill="url(#paint10_linear)"/>
<path d="M60.0115 48.0384C59.6644 47.6643 59.1694 47.4292 58.619 47.4292C57.5687 47.4292 56.7173 48.2806 56.7173 49.3309C56.7173 49.8813 56.9524 50.3763 57.3265 50.7234L62.345 55.7415C62.6922 56.1155 63.1866 56.3512 63.7375 56.3512C64.7878 56.3512 65.6393 55.4998 65.6393 54.4495C65.6393 53.8985 65.4036 53.4041 65.0295 53.0569L60.0115 48.0384Z" fill="url(#paint11_linear)"/>
<path d="M60.5208 49.3309C60.5208 50.3812 59.6693 51.2327 58.619 51.2327C57.5687 51.2327 56.7173 50.3812 56.7173 49.3309C56.7173 48.2806 57.5687 47.4292 58.619 47.4292C59.6693 47.4292 60.5208 48.2806 60.5208 49.3309Z" fill="url(#paint12_linear)"/>
<path d="M68.4094 41.4418C68.4094 42.4921 67.558 43.3435 66.5077 43.3435C65.4574 43.3435 64.606 42.4921 64.606 41.4418C64.606 40.3915 65.4574 39.54 66.5077 39.54C67.558 39.54 68.4094 40.3915 68.4094 41.4418Z" fill="url(#paint13_linear)"/>
<path d="M73.8353 46.1307C73.4876 45.7566 72.9932 45.5215 72.4423 45.5215C71.392 45.5215 70.5405 46.3729 70.5405 47.4232C70.5405 47.9736 70.7762 48.4686 71.1503 48.8157L76.1683 53.8337C76.516 54.2078 77.0104 54.4435 77.5608 54.4435C78.6116 54.4435 79.4631 53.592 79.4631 52.5417C79.4631 51.9908 79.2274 51.4964 78.8533 51.1492L73.8353 46.1307Z" fill="url(#paint14_linear)"/>
<path d="M74.3445 47.4232C74.3445 48.4735 73.4931 49.325 72.4423 49.325C71.392 49.325 70.5405 48.4735 70.5405 47.4232C70.5405 46.3729 71.392 45.5215 72.4423 45.5215C73.4931 45.5215 74.3445 46.3729 74.3445 47.4232Z" fill="url(#paint15_linear)"/>
<path d="M86.5228 33.7156C86.1756 33.3416 85.6812 33.1064 85.1302 33.1064C84.08 33.1064 83.2285 33.9579 83.2285 35.0082C83.2285 35.5586 83.4642 36.0535 83.8383 36.4007L88.8563 41.4187C89.2034 41.7928 89.6978 42.0284 90.2488 42.0284C91.2991 42.0284 92.1505 41.177 92.1505 40.1267C92.1505 39.5757 91.9149 39.0814 91.5408 38.7342L86.5228 33.7156Z" fill="url(#paint16_linear)"/>
<path d="M87.032 35.0082C87.032 36.0585 86.1805 36.9099 85.1302 36.9099C84.08 36.9099 83.2285 36.0585 83.2285 35.0082C83.2285 33.9579 84.08 33.1064 85.1302 33.1064C86.1805 33.1064 87.032 33.9579 87.032 35.0082Z" fill="url(#paint17_linear)"/>
</g>
<path d="M21.1572 41.7567C6.30323 40.2758 15.9404 26.4651 21.1572 19.7905C11.7493 21.5182 6.90727 25.9759 2.46634 31.7608C-2.16252 37.7905 0.11388 43.4844 6.05567 43.8546C11.9975 44.2248 17.6468 43.7526 21.1572 41.7567Z" fill="url(#paint18_linear)"/>
<path fill-rule="evenodd" clip-rule="evenodd" d="M37.4243 16.1943C38.4838 27.9008 32.4905 40.0942 11.0825 43.9708C13.8303 43.9708 17.0436 43.9682 20.1765 43.9654C20.1677 43.967 20.1588 43.9686 20.15 43.9702C23.5472 43.9702 28.1011 43.9663 32.3057 43.9627L32.3126 43.9627L34.8374 43.9605L35.1221 43.9612C36.6002 43.9647 37.9169 43.9678 41.1362 43.9573C42.2772 43.9573 43.3241 43.9611 44.2875 43.9645L44.2894 43.9645C51.2561 43.9894 53.8551 43.9987 56.1057 42.4657C60.2057 39.6729 54.2302 31.978 45.517 20.7576C42.6396 17.0523 39.4637 12.9625 36.2535 8.53783C36.1164 8.30605 35.9783 8.0731 35.8392 7.83897C35.3284 6.81133 34.7773 5.75813 34.184 4.67884C34.4251 5.18619 34.6561 5.70198 34.8761 6.22518C34.5701 5.71489 34.2597 5.19924 33.9449 4.67822C34.2222 5.27443 34.5013 5.87721 34.7798 6.48542C34.356 5.88867 33.9322 5.28624 33.5092 4.67822C33.9609 8.63313 35.5427 12.5053 37.4243 16.1943Z" fill="url(#paint19_linear)"/>
<path d="M37.021 21.4676C19.3958 14.4275 6.73829 25.7737 2.8225 31.7214C2.31537 32.1873 15.4305 13.8959 18.0205 10.2485C22.8752 3.41163 25.267 0.507393 28.5152 0.507374C35.0118 0.507373 38.1361 13.8028 37.021 21.4676Z" fill="url(#paint20_linear)"/>
<defs>
<linearGradient id="paint0_linear" x1="96.9453" y1="66.1831" x2="96.9453" y2="71.4856" gradientUnits="userSpaceOnUse">
<stop stop-color="#131830" stop-opacity="0"/>
<stop offset="1" stop-color="#131830"/>
</linearGradient>
<linearGradient id="paint1_linear" x1="98.2213" y1="67.9992" x2="92.5599" y2="62.3379" gradientUnits="userSpaceOnUse">
<stop stop-color="#3B395F"/>
<stop offset="0.0633" stop-color="#37355A"/>
<stop offset="0.4033" stop-color="#232543"/>
<stop offset="0.7232" stop-color="#171B35"/>
<stop offset="1" stop-color="#131830"/>
</linearGradient>
<linearGradient id="paint2_linear" x1="101.557" y1="41.8608" x2="113.221" y2="53.5246" gradientUnits="userSpaceOnUse">
<stop stop-color="#FFFCF8"/>
<stop offset="0.1875" stop-color="#FAF8F6"/>
<stop offset="0.4041" stop-color="#ECEEF2"/>
<stop offset="0.6353" stop-color="#D5DCEA"/>
<stop offset="0.875" stop-color="#B5C4DF"/>
<stop offset="1" stop-color="#A1B5D8"/>
</linearGradient>
<linearGradient id="paint3_linear" x1="99.1356" y1="44.8969" x2="110.8" y2="56.5607" gradientUnits="userSpaceOnUse">
<stop stop-color="#FFFCF8"/>
<stop offset="0.1875" stop-color="#FAF8F6"/>
<stop offset="0.4041" stop-color="#ECEEF2"/>
<stop offset="0.6353" stop-color="#D5DCEA"/>
<stop offset="0.875" stop-color="#B5C4DF"/>
<stop offset="1" stop-color="#A1B5D8"/>
</linearGradient>
<linearGradient id="paint4_linear" x1="95.9404" y1="48.6886" x2="107.646" y2="60.3943" gradientUnits="userSpaceOnUse">
<stop stop-color="#FFFCF8"/>
<stop offset="0.1875" stop-color="#FAF8F6"/>
<stop offset="0.4041" stop-color="#ECEEF2"/>
<stop offset="0.6353" stop-color="#D5DCEA"/>
<stop offset="0.875" stop-color="#B5C4DF"/>
<stop offset="1" stop-color="#A1B5D8"/>
</linearGradient>
<linearGradient id="paint5_linear" x1="100.168" y1="58.6456" x2="83.0925" y2="41.5702" gradientUnits="userSpaceOnUse">
<stop stop-color="#E4003D" stop-opacity="0"/>
<stop offset="0.5838" stop-color="#BD294B" stop-opacity="0.584314"/>
<stop offset="1" stop-color="#A64153"/>
</linearGradient>
<linearGradient id="paint6_linear" x1="50" y1="16.5" x2="96.7526" y2="90.3114" gradientUnits="userSpaceOnUse">
<stop stop-color="#FFFCF8"/>
<stop offset="0.1875" stop-color="#FAF8F6"/>
<stop offset="0.4041" stop-color="#ECEEF2"/>
<stop offset="0.680783" stop-color="#D5DCEA"/>
<stop offset="0.875" stop-color="#B5C4DF"/>
<stop offset="1" stop-color="#A1B5D8"/>
</linearGradient>
<linearGradient id="paint7_linear" x1="83.7013" y1="85.6574" x2="70.4344" y2="72.3905" gradientUnits="userSpaceOnUse">
<stop stop-color="#A1B5D8" stop-opacity="0"/>
<stop offset="0.0343" stop-color="#9FB3D5" stop-opacity="0.035294"/>
<stop offset="0.4515" stop-color="#8898AF" stop-opacity="0.45098"/>
<stop offset="0.788" stop-color="#798898" stop-opacity="0.788235"/>
<stop offset="1" stop-color="#748290"/>
</linearGradient>
<linearGradient id="paint8_linear" x1="68.6954" y1="72.3262" x2="68.6954" y2="81.0597" gradientUnits="userSpaceOnUse">
<stop stop-color="#FFFCF8"/>
<stop offset="0.1875" stop-color="#FAF8F6"/>
<stop offset="0.4041" stop-color="#ECEEF2"/>
<stop offset="0.6353" stop-color="#D5DCEA"/>
<stop offset="0.875" stop-color="#B5C4DF"/>
<stop offset="1" stop-color="#A1B5D8"/>
</linearGradient>
<linearGradient id="paint9_linear" x1="58.0308" y1="42.0872" x2="85.762" y2="42.0872" gradientUnits="userSpaceOnUse">
<stop stop-color="#3B395F"/>
<stop offset="0.0633" stop-color="#37355A"/>
<stop offset="0.4033" stop-color="#232543"/>
<stop offset="0.7232" stop-color="#171B35"/>
<stop offset="1" stop-color="#131830"/>
</linearGradient>
<linearGradient id="paint10_linear" x1="69.9593" y1="44.8933" x2="62.9665" y2="37.9006" gradientUnits="userSpaceOnUse">
<stop stop-color="#A1B5D8" stop-opacity="0"/>
<stop offset="1" stop-color="#748290"/>
</linearGradient>
<linearGradient id="paint11_linear" x1="62.0703" y1="52.7822" x2="55.0776" y2="45.7894" gradientUnits="userSpaceOnUse">
<stop stop-color="#A1B5D8" stop-opacity="0"/>
<stop offset="1" stop-color="#748290"/>
</linearGradient>
<linearGradient id="paint12_linear" x1="56.9507" y1="47.3536" x2="59.4864" y2="50.359" gradientUnits="userSpaceOnUse">
<stop stop-color="#FFC738"/>
<stop offset="0.4286" stop-color="#FFBB23"/>
<stop offset="1" stop-color="#FFA700"/>
</linearGradient>
<linearGradient id="paint13_linear" x1="64.8396" y1="39.4647" x2="67.3754" y2="42.4701" gradientUnits="userSpaceOnUse">
<stop stop-color="#FFC738"/>
<stop offset="0.4286" stop-color="#FFBB23"/>
<stop offset="1" stop-color="#FFA700"/>
</linearGradient>
<linearGradient id="paint14_linear" x1="75.8939" y1="50.8745" x2="68.9012" y2="43.8818" gradientUnits="userSpaceOnUse">
<stop stop-color="#A1B5D8" stop-opacity="0"/>
<stop offset="1" stop-color="#748290"/>
</linearGradient>
<linearGradient id="paint15_linear" x1="70.7743" y1="45.446" x2="73.31" y2="48.4513" gradientUnits="userSpaceOnUse">
<stop stop-color="#FFC738"/>
<stop offset="0.4286" stop-color="#FFBB23"/>
<stop offset="1" stop-color="#FFA700"/>
</linearGradient>
<linearGradient id="paint16_linear" x1="88.5817" y1="38.4596" x2="81.589" y2="31.4669" gradientUnits="userSpaceOnUse">
<stop stop-color="#A1B5D8" stop-opacity="0"/>
<stop offset="1" stop-color="#748290"/>
</linearGradient>
<linearGradient id="paint17_linear" x1="83.4621" y1="33.0311" x2="85.9979" y2="36.0364" gradientUnits="userSpaceOnUse">
<stop stop-color="#FFC738"/>
<stop offset="0.4286" stop-color="#FFBB23"/>
<stop offset="1" stop-color="#FFA700"/>
</linearGradient>
<linearGradient id="paint18_linear" x1="15.9675" y1="19.0253" x2="15.6167" y2="40.8029" gradientUnits="userSpaceOnUse">
<stop stop-color="#DA6F37"/>
<stop offset="0.903961" stop-color="#FFC895"/>
</linearGradient>
<linearGradient id="paint19_linear" x1="35.0926" y1="19.0316" x2="27.3135" y2="44.1284" gradientUnits="userSpaceOnUse">
<stop stop-color="#C8E381"/>
<stop offset="1" stop-color="#1C7249"/>
</linearGradient>
<linearGradient id="paint20_linear" x1="35.147" y1="7.9745" x2="8.03588" y2="25.7154" gradientUnits="userSpaceOnUse">
<stop stop-color="#2F3590"/>
<stop offset="0.181863" stop-color="#347CBF"/>
<stop offset="0.375389" stop-color="#3598D1"/>
<stop offset="0.701814" stop-color="#37B0E1"/>
</linearGradient>
<clipPath id="clip0">
<rect x="47" y="7" width="72" height="72" fill="white"/>
</clipPath>
</defs>
</svg>
