<svg width="26" height="31" viewBox="0 0 26 31" fill="none" xmlns="http://www.w3.org/2000/svg">
<path fill-rule="evenodd" clip-rule="evenodd" d="M12.5302 30.0725C12.5302 30.0725 25.0604 21.8709 25.0604 12.3024C25.0604 9.03958 23.7402 5.91042 21.3904 3.60328C19.0405 1.29614 15.8534 0 12.5302 0C9.20698 0 6.01988 1.29614 3.67001 3.60328C1.32014 5.91042 0 9.03958 0 12.3024C0 21.8709 12.5302 30.0725 12.5302 30.0725ZM17.5422 11.5302C17.5422 14.2983 15.2982 16.5423 12.5301 16.5423C9.76205 16.5423 7.51807 14.2983 7.51807 11.5302C7.51807 8.76211 9.76205 6.51813 12.5301 6.51813C15.2982 6.51813 17.5422 8.76211 17.5422 11.5302Z" fill="#2D6B84"/>
</svg>
