<svg width="27" height="21" viewBox="0 0 27 21" fill="none" xmlns="http://www.w3.org/2000/svg">
<path fill-rule="evenodd" clip-rule="evenodd" d="M23.4565 0.149902H2.60628C1.34311 0.149902 0.282328 1.06063 0.0481238 2.25789C0.131235 2.26584 0.213493 2.29475 0.286774 2.34604L13.0314 11.2673L25.7761 2.34604C25.8494 2.29476 25.9316 2.26587 26.0147 2.2579C25.7805 1.06064 24.7197 0.149902 23.4565 0.149902ZM26.0628 3.36602L13.3182 12.2873C13.146 12.4078 12.9169 12.4078 12.7447 12.2873L0 3.36596V18.3939C0 19.8273 1.17283 21.0001 2.60628 21.0001H23.4565C24.89 21.0001 26.0628 19.8273 26.0628 18.3939V3.36602Z" fill="#2D6B84"/>
</svg>
