<svg width="26" height="26" viewBox="0 0 26 26" fill="none" xmlns="http://www.w3.org/2000/svg">
<path d="M25.9992 19.466V23.38C26.0007 23.7434 25.9261 24.1031 25.7802 24.436C25.6344 24.7689 25.4205 25.0678 25.1522 25.3134C24.8839 25.559 24.5672 25.7461 24.2223 25.8625C23.8774 25.9789 23.5119 26.0221 23.1493 25.9894C19.1266 25.5532 15.2626 24.1813 11.8676 21.984C8.70898 19.9809 6.03104 17.3083 4.02394 14.1559C1.81462 10.7523 0.439714 6.8771 0.0106108 2.84434C-0.0220573 2.48355 0.0209054 2.11992 0.136763 1.77661C0.252621 1.43331 0.438835 1.11783 0.68355 0.850285C0.928265 0.582737 1.22612 0.368973 1.55815 0.222604C1.89018 0.0762346 2.24911 0.00046764 2.61208 0.000126492H6.5339C7.16833 -0.00610525 7.78338 0.218111 8.26442 0.630983C8.74546 1.04386 9.05965 1.61721 9.14845 2.24418C9.31398 3.49676 9.62096 4.72664 10.0635 5.91034C10.2394 6.37732 10.2775 6.88483 10.1732 7.37273C10.069 7.86064 9.82674 8.30849 9.47527 8.66322L7.81503 10.3202C9.67601 13.5865 12.3858 16.291 15.6587 18.1483L17.3189 16.4913C17.6743 16.1405 18.1231 15.8988 18.612 15.7947C19.1008 15.6907 19.6093 15.7287 20.0772 15.9042C21.2633 16.3459 22.4956 16.6523 23.7507 16.8175C24.3857 16.9069 24.9657 17.2261 25.3802 17.7145C25.7948 18.2028 26.0151 18.8261 25.9992 19.466Z" fill="#2D6B84"/>
</svg>
