<svg width="469" height="417" viewBox="0 0 469 417" fill="none" xmlns="http://www.w3.org/2000/svg">
<path d="M7.04553 171.441C13.9996 168.106 20.9199 190.288 20.9199 190.288C32.738 205.946 49.2549 185.117 47.6386 208.524C44.8118 249.49 94.6557 221.404 71.6621 264.171C48.6685 306.938 91.9605 288.352 77.6765 322.834C63.3924 357.316 81.909 398.443 60.404 381.541C60.404 381.541 41.4701 339.909 21.9461 327.029C2.422 314.149 33.644 298.88 27.5356 281.386C18.6645 255.973 -2.7165 256.972 12.699 229.667C28.1145 202.361 -16.5908 182.776 7.04553 171.441Z" fill="#294D83"/>
<path d="M67.2149 365.892C57.8927 359.322 46.9879 313.497 46.3338 286.234C45.9993 272.257 41.8795 266.437 38.2445 261.299C34.7713 256.399 31.7716 252.147 33.5158 242.411C36.8575 223.802 28.0728 215.769 27.9863 215.69L29.0013 214.529C29.3771 214.872 38.5377 223.157 35.0156 242.686C33.3842 251.786 36.0756 255.589 39.4812 260.402C43.056 265.457 47.5066 271.748 47.8525 286.192C48.5516 315.473 59.7007 358.718 68.0757 364.625L67.2149 365.892Z" fill="white"/>
<path d="M51.2607 187.741C40.977 187.492 48.5833 204.801 48.867 219.309C49.1507 233.818 7.1051 238.909 34.2839 266.84C61.4627 294.771 16.7405 284.622 37.1897 310.031C57.639 335.441 57.172 369.693 66.9263 357.942C76.6805 346.192 59.7395 311.371 71.1051 303.001C82.4707 294.631 82.9423 288.914 66.5908 281.102C50.2394 273.291 92.1885 247.139 73.3801 226.907C54.5716 206.675 63.1432 188.032 51.2607 187.741Z" fill="url(#paint0_linear)"/>
<path d="M70.7037 369.287C69.3795 369.277 68.0598 369.133 66.7643 368.858C63.1707 368.13 60.8176 366.219 59.7651 363.204C57.2541 355.997 63.073 344.293 67.798 338.65C67.877 338.556 75.7858 328.85 74.9401 315.431C74.7972 313.169 74.5642 311.096 74.3612 309.257C73.7673 303.942 73.3387 300.097 75.6129 297.534C77.6202 295.272 81.4957 294.296 88.5663 294.262C100.971 294.205 105.858 289.053 109.816 284.914C111.488 283.158 113.071 281.495 114.992 280.447C121.172 277.055 127.72 276.565 130.561 279.264C131.911 280.545 133.05 283.056 130.813 287.741C128.772 292.019 126.122 294.729 123.995 296.908C121.13 299.837 119.239 301.771 120.236 305.63C120.469 306.535 120.736 307.451 120.987 308.367C122.901 314.926 125.066 322.359 113.872 327.402C111.496 328.473 109.331 329.325 107.421 330.078C99.6064 333.154 94.8889 335.009 89.5662 346.287C88.5362 348.465 87.6266 350.535 86.747 352.536C82.5557 362.069 79.3794 369.287 70.7037 369.287ZM115.729 281.804C114.018 282.743 112.586 284.243 110.928 285.985C106.794 290.334 101.629 295.747 88.5701 295.811C82.0671 295.841 78.4209 296.69 76.7594 298.567C74.9401 300.617 75.3385 304.172 75.8873 309.091C76.0941 310.945 76.3309 313.049 76.4737 315.34C77.3571 329.408 69.3317 339.238 68.9558 339.649C64.2796 345.235 58.9795 356.347 61.1935 362.698C62.0543 365.167 64.024 366.732 67.0462 367.342C77.5713 369.48 80.4996 362.864 85.3186 351.888C86.2019 349.879 87.1154 347.802 88.1566 345.601C93.7424 333.78 98.9523 331.726 106.842 328.639C108.722 327.885 110.883 327.048 113.233 326C123.201 321.507 121.401 315.34 119.499 308.808C119.228 307.873 118.954 306.923 118.721 306.019C117.522 301.318 119.886 298.895 122.882 295.841C125.036 293.636 127.479 291.137 129.411 287.089C130.422 284.967 131.257 282.083 129.486 280.402C127.156 278.19 121.239 278.8 115.717 281.819L115.729 281.804Z" fill="url(#paint1_linear)"/>
<path d="M66.9105 378.21L65.373 378.127C65.4482 376.676 67.3916 342.495 81.078 332.488C96.0951 321.511 100.828 309.717 103.083 301.801C105.741 292.472 119.247 289.977 119.837 289.875L120.104 291.383C119.972 291.405 106.947 293.81 104.564 302.208C102.248 310.346 97.3844 322.465 81.9839 333.72C68.9027 343.313 66.9443 377.863 66.9105 378.21Z" fill="url(#paint2_linear)"/>
<path d="M67.6998 371.447C66.4781 366.242 56.047 320.444 65.779 314.907C74.3719 310.029 74.1577 291.051 72.8195 273.131C71.6317 257.266 91.9488 249.852 92.8172 249.546L93.3321 251.001C93.1329 251.073 73.2593 258.333 74.3569 273.014C75.7327 291.416 75.8793 310.945 66.5383 316.253C59.1369 320.455 65.9519 357.263 69.2034 371.093L67.6998 371.447Z" fill="white"/>
<path d="M83.8393 358L69.9462 410.843H38.9084L25.019 358H83.8393Z" fill="url(#paint3_linear)"/>
<path d="M192.216 253.81H197.49V305.34H248.875V310.629H192.216V253.81Z" fill="url(#paint4_linear)"/>
<path d="M349.754 202.071V199.772H372.105V177.355H374.398V202.071H349.754Z" fill="url(#paint5_linear)"/>
<path d="M288.464 113.887H285.641H246.367V113.883V106.982V100.076H239.481V106.982H232.598V113.883H239.481V113.887H232.598V120.789V127.694V134.596V134.6H239.481V134.596H246.706V127.694H239.481V120.789H246.367H285.641V167.416H292.527V113.887H288.464Z" fill="url(#paint6_linear)"/>
<path d="M232.591 100.076H218.822V106.982H232.591V100.076Z" fill="url(#paint7_linear)"/>
<path d="M285.641 106.982H271.872V113.884H285.641V106.982Z" fill="url(#paint8_linear)"/>
<path d="M271.872 100.076H258.103V106.982H271.872V100.076Z" fill="url(#paint9_linear)"/>
<path d="M278.759 61.8623H271.872V74.1994H278.759V61.8623Z" fill="url(#paint10_linear)"/>
<path d="M291.772 54.8101H284.889V68.768H291.772V54.8101Z" fill="url(#paint11_linear)"/>
<path d="M299.414 106.982H292.527V113.884H299.414V106.982Z" fill="url(#paint12_linear)"/>
<path d="M313.07 113.209H306.184V131.43H313.07V113.209Z" fill="url(#paint13_linear)"/>
<path d="M292.524 100.076H285.641V106.982H292.524V100.076Z" fill="url(#paint14_linear)"/>
<path d="M306.296 100.076V93.1709H299.41H292.527V100.076H299.41H306.296Z" fill="url(#paint15_linear)"/>
<path d="M319.502 134.6H306.184V131.43H299.297V149.877H306.184V141.502H312.691V148.407H319.577V141.615H326.384V127.012H319.502V134.6Z" fill="url(#paint16_linear)"/>
<path d="M340.153 174.321H333.271V181.223H340.153V174.321Z" fill="url(#paint17_linear)"/>
<path d="M278.507 161.505H271.62V167.416V174.321V189.12H278.507V174.321H285.641V167.416H278.507V161.505Z" fill="url(#paint18_linear)"/>
<path d="M258.869 141.219H219.024V188.128H265.808V181.223H265.76V148.136H265.816V141.219H258.869ZM258.869 181.223H225.915V148.136H258.869V181.223Z" fill="url(#paint19_linear)"/>
<path d="M353.922 181.223H340.153V188.125H353.922V181.223Z" fill="url(#paint20_linear)"/>
<path d="M313.968 181.298V188.204H320.855V181.298V174.396H313.968V181.298Z" fill="url(#paint21_linear)"/>
<path d="M307.537 181.223H285.641V188.125H307.537V181.223Z" fill="url(#paint22_linear)"/>
<path d="M333.271 120.11H326.384V127.012H333.271V120.11Z" fill="url(#paint23_linear)"/>
<path d="M340.153 113.209H333.271V120.114H340.153V113.209Z" fill="url(#paint24_linear)"/>
<path d="M352.739 99.3979H338.688V106.303H352.739V99.3979Z" fill="url(#paint25_linear)"/>
<path d="M359.339 127.807V120.902V114H352.457V120.902H345.57V127.807H352.457H359.339Z" fill="url(#paint26_linear)"/>
<path d="M345.574 127.808H338.688V134.713H345.574V127.808Z" fill="url(#paint27_linear)"/>
<path d="M352.453 134.709H345.57V141.614H352.453V134.709Z" fill="url(#paint28_linear)"/>
<path d="M352.457 162.324V174.322H359.339V154.024H352.457V148.517H345.57V162.324H352.457Z" fill="url(#paint29_linear)"/>
<path d="M326.385 160.514H307.537V167.416H326.385V174.321H333.271V167.416V148.516H345.57V141.614H326.385V148.516V160.514Z" fill="#EDB84E"/>
<path d="M307.537 167.416H292.527V174.321H307.537V167.416Z" fill="url(#paint30_linear)"/>
<path d="M264.433 127.389V134.6H271.62V148.407H278.507V134.596H271.62V127.389H264.433Z" fill="url(#paint31_linear)"/>
<path d="M252.716 154.344H232.121V174.996H252.716V154.344Z" fill="url(#paint32_linear)"/>
<path d="M258.87 93.1708H265.812V86.2654H265.76V53.1478H265.816V46.2612H219.028V93.1708H258.873H258.87ZM225.915 53.1478H258.87V86.2503H225.915V53.1478Z" fill="#EDB84E"/>
<path d="M252.716 59.3896H232.121V80.0457H252.716V59.3896Z" fill="url(#paint33_linear)"/>
<path d="M360.11 53.1478V46.2612H313.322V61.8626H298.32V68.7681H291.772V79.6313H285.641V74.1997H278.758V79.6313H271.872V100.076H278.758V86.5368H298.658V68.7681H313.318V93.1709H326.381V106.296H313.123V113.201H333.271V93.1709H360.11V86.2654H360.054V53.1478H360.11ZM353.171 86.2503H320.205V53.1478H353.16L353.171 86.2503Z" fill="#EDB84E"/>
<path d="M347.01 59.3896H326.415V80.0457H347.01V59.3896Z" fill="url(#paint34_linear)"/>
<path d="M306.721 14.8099H305.879L308.443 9.61572H309.285L306.721 14.8099Z" fill="#EFC35D"/>
<path d="M320.362 14.335H279.706V14.9795H320.362V14.335Z" fill="#EFC35D"/>
<path d="M301.425 16.4307H279.706V20.1699H301.425V16.4307Z" fill="#EFC35D"/>
<path d="M325.693 82.3867H57.0884V344.998H325.693V82.3867Z" fill="#EFF3F8"/>
<path d="M374.398 57.9158H372.105V35.5033H349.754V33.2002H374.398V57.9158Z" fill="url(#paint35_linear)"/>
<path d="M231.144 33.2002V35.5033H208.793V57.9158H206.5V33.2002H231.144Z" fill="url(#paint36_linear)"/>
<path d="M79.642 214.292H78.3076V324.632H79.642V214.292Z" fill="#DEDEDE"/>
<path d="M123.096 214.292H121.761V324.632H123.096V214.292Z" fill="#DEDEDE"/>
<path d="M166.546 214.292H165.211V324.632H166.546V214.292Z" fill="#DEDEDE"/>
<path d="M209.999 214.292H208.665V324.632H209.999V214.292Z" fill="#DEDEDE"/>
<path d="M253.453 214.292H252.119V324.632H253.453V214.292Z" fill="#DEDEDE"/>
<path d="M296.907 214.292H295.572V324.632H296.907V214.292Z" fill="#DEDEDE"/>
<path d="M94.0879 324.628C94.0879 324.628 113.409 253.795 138.756 261.303C164.102 268.812 155.987 301.484 176.872 301.484C194.43 301.484 194.433 246.305 216.874 246.931C239.315 247.556 237.331 288.393 262.422 262.14C287.513 235.886 283.359 232.784 296.253 232.784V324.643L94.0879 324.628Z" fill="#23416E"/>
<path d="M78.9731 324.628C78.9731 324.628 89.3103 280.877 107.59 287.127C125.87 293.377 114.845 317.96 135.11 317.96C155.374 317.96 151.22 266.147 174.071 269.762C196.922 273.376 183.927 302.962 200.192 303.81C216.457 304.658 217.668 237.47 255.498 240.214C293.328 242.958 296.237 324.647 296.237 324.647L78.9731 324.628Z" fill="#B4C4E5"/>
<path d="M189.839 140.89C187.43 133.699 183.615 127.061 178.618 121.366C173.62 115.67 167.54 111.032 160.733 107.721C153.926 104.41 146.529 102.493 138.975 102.083C131.421 101.673 123.861 102.778 116.737 105.333C109.614 107.888 103.07 111.842 97.4888 116.963C91.9075 122.085 87.4007 128.271 84.2321 135.16C81.0635 142.048 79.2967 149.502 79.035 157.083C78.7734 164.665 80.0221 172.223 82.7083 179.315C83.1368 180.521 83.6067 181.712 84.1104 182.873C90.0457 196.376 100.967 207.047 114.581 212.647C128.195 218.248 143.443 218.341 157.125 212.908C170.806 207.476 181.857 196.939 187.957 183.511C194.056 170.083 194.731 154.807 189.839 140.89ZM150.64 200.382C140.453 204.049 129.257 203.691 119.324 199.38C109.391 195.07 101.466 187.131 97.1577 177.174C96.7818 176.302 96.431 175.413 96.1052 174.505C93.2637 166.539 92.8418 157.906 94.8929 149.699C96.9441 141.492 101.376 134.08 107.629 128.398C113.881 122.717 121.673 119.023 130.019 117.782C138.366 116.542 146.891 117.811 154.518 121.43C162.145 125.048 168.531 130.853 172.868 138.111C177.204 145.368 179.298 153.753 178.882 162.203C178.467 170.654 175.563 178.791 170.536 185.586C165.509 192.381 158.585 197.529 150.64 200.378V200.382Z" fill="#96D5E2"/>
<path d="M95.167 146.858L81.5708 142.599C85.1078 131.27 92.0759 121.327 101.507 114.152C110.938 106.977 122.364 102.925 134.196 102.561L134.614 116.85C125.743 117.127 117.179 120.167 110.11 125.547C103.042 130.927 97.8187 138.381 95.167 146.873V146.858Z" fill="#385988"/>
<path d="M96.7716 176.677L83.7129 182.377C83.2092 181.216 82.7431 180.025 82.3109 178.818C78.1245 167.151 77.8604 154.431 81.5591 142.599L95.1552 146.854C92.3841 155.719 92.5794 165.25 95.7115 173.994C96.0423 174.911 96.3957 175.805 96.7716 176.677Z" fill="#4772B0"/>
<path d="M92.5353 196.579C88.912 192.308 85.9402 187.522 83.7168 182.377L96.7754 176.677C98.4369 180.538 100.66 184.13 103.372 187.337L92.5353 196.579Z" fill="#5886C7"/>
<path d="M238.716 110.58H216.365C216.003 110.579 215.656 110.434 215.4 110.177C215.145 109.92 215.001 109.571 215.001 109.208V104.368C215.001 104.005 215.145 103.657 215.401 103.401C215.657 103.144 216.004 103 216.365 103H238.716C238.896 103 239.074 103.035 239.24 103.103C239.406 103.172 239.556 103.272 239.684 103.399C239.811 103.527 239.912 103.678 239.98 103.844C240.049 104.01 240.085 104.188 240.085 104.368V109.208C240.085 109.572 239.94 109.921 239.684 110.178C239.427 110.436 239.079 110.58 238.716 110.58Z" fill="#777790"/>
<path d="M216.472 120.71H238.823C239.185 120.71 239.532 120.854 239.788 121.111C240.044 121.367 240.188 121.715 240.188 122.078V126.918C240.188 127.281 240.044 127.629 239.788 127.886C239.532 128.142 239.185 128.286 238.823 128.286H216.472C216.109 128.286 215.761 128.142 215.505 127.885C215.248 127.627 215.104 127.278 215.104 126.914V122.082C215.104 121.902 215.139 121.723 215.207 121.556C215.276 121.39 215.376 121.238 215.504 121.111C215.631 120.983 215.782 120.882 215.948 120.813C216.114 120.745 216.292 120.709 216.472 120.71Z" fill="#DEDEDE"/>
<path d="M238.823 146.47H216.472C216.11 146.469 215.763 146.324 215.507 146.067C215.252 145.809 215.108 145.461 215.108 145.098V140.258C215.108 139.895 215.252 139.547 215.508 139.29C215.763 139.034 216.111 138.89 216.472 138.89H238.823C239.003 138.888 239.182 138.922 239.349 138.991C239.516 139.059 239.667 139.159 239.795 139.286C239.923 139.414 240.025 139.565 240.094 139.732C240.163 139.898 240.199 140.077 240.199 140.258V145.098C240.199 145.279 240.163 145.458 240.094 145.625C240.025 145.792 239.923 145.943 239.796 146.071C239.668 146.198 239.516 146.299 239.349 146.368C239.182 146.436 239.004 146.471 238.823 146.47Z" fill="#DEDEDE"/>
<path d="M216.469 157.065H238.823C239.185 157.065 239.532 157.21 239.788 157.466C240.044 157.723 240.188 158.071 240.188 158.434V163.274C240.188 163.637 240.043 163.986 239.787 164.244C239.53 164.501 239.182 164.646 238.819 164.646H216.472C216.109 164.646 215.761 164.501 215.505 164.244C215.248 163.986 215.104 163.637 215.104 163.274V158.434C215.104 158.071 215.248 157.723 215.504 157.466C215.76 157.21 216.107 157.065 216.469 157.065Z" fill="#DEDEDE"/>
<path d="M216.472 175.241H238.823C239.186 175.241 239.534 175.386 239.791 175.643C240.047 175.9 240.191 176.249 240.191 176.613V181.453C240.191 181.816 240.048 182.164 239.792 182.421C239.536 182.677 239.189 182.821 238.827 182.821H216.472C216.109 182.821 215.761 182.677 215.505 182.42C215.248 182.162 215.104 181.813 215.104 181.449V176.613C215.104 176.249 215.248 175.9 215.505 175.643C215.761 175.386 216.109 175.241 216.472 175.241Z" fill="#DEDEDE"/>
<path d="M216.472 193.417H238.823C239.185 193.417 239.532 193.561 239.788 193.818C240.044 194.074 240.188 194.422 240.188 194.785V199.625C240.188 199.988 240.044 200.336 239.788 200.593C239.532 200.849 239.185 200.993 238.823 200.993H216.472C216.109 200.993 215.761 200.849 215.505 200.592C215.248 200.334 215.104 199.985 215.104 199.621V194.789C215.104 194.425 215.248 194.076 215.505 193.819C215.761 193.562 216.109 193.417 216.472 193.417Z" fill="#DEDEDE"/>
<path d="M296.131 103H252.23C251.551 103 251.001 103.552 251.001 104.233V109.348C251.001 110.028 251.551 110.58 252.23 110.58H296.131C296.81 110.58 297.36 110.028 297.36 109.348V104.233C297.36 103.552 296.81 103 296.131 103Z" fill="#777790"/>
<path d="M295.677 120.71H251.777C251.098 120.71 250.547 121.262 250.547 121.943V127.058C250.547 127.738 251.098 128.29 251.777 128.29H295.677C296.356 128.29 296.907 127.738 296.907 127.058V121.943C296.907 121.262 296.356 120.71 295.677 120.71Z" fill="#DEDEDE"/>
<path d="M295.677 138.89H251.777C251.098 138.89 250.547 139.441 250.547 140.122V145.237C250.547 145.918 251.098 146.47 251.777 146.47H295.677C296.356 146.47 296.907 145.918 296.907 145.237V140.122C296.907 139.441 296.356 138.89 295.677 138.89Z" fill="#DEDEDE"/>
<path d="M295.677 157.065H251.777C251.098 157.065 250.547 157.617 250.547 158.298V163.413C250.547 164.094 251.098 164.646 251.777 164.646H295.677C296.356 164.646 296.907 164.094 296.907 163.413V158.298C296.907 157.617 296.356 157.065 295.677 157.065Z" fill="#DEDEDE"/>
<path d="M295.677 175.241H251.777C251.098 175.241 250.547 175.793 250.547 176.474V181.589C250.547 182.27 251.098 182.821 251.777 182.821H295.677C296.356 182.821 296.907 182.27 296.907 181.589V176.474C296.907 175.793 296.356 175.241 295.677 175.241Z" fill="#DEDEDE"/>
<path d="M295.674 201.001H251.777C251.45 201 251.138 200.869 250.907 200.638C250.677 200.406 250.547 200.092 250.547 199.765V194.653C250.547 194.327 250.677 194.013 250.907 193.782C251.138 193.551 251.451 193.421 251.777 193.421H295.674C296 193.421 296.312 193.551 296.543 193.782C296.773 194.013 296.903 194.327 296.903 194.653V199.776C296.9 200.101 296.769 200.412 296.539 200.642C296.309 200.871 295.998 201 295.674 201.001Z" fill="#DEDEDE"/>
<path d="M389.354 106.982H388.418V21.885H327.023V31.2632H257.073V30.3246H326.087V20.9502H389.354V106.982Z" fill="url(#paint37_linear)"/>
<path d="M32.0725 138.071H29.9224V59.1823H168.816V6.33594H170.966V61.3384H32.0725V138.071Z" fill="url(#paint38_linear)"/>
<path d="M135.425 16.7324H93.5991V19.6725H135.425V16.7324Z" fill="#F0CA5E"/>
<path d="M135.425 22.2734H93.5991V34.6369H135.425V22.2734Z" fill="#EDB84E"/>
<path d="M155.074 38.7905H130.396V40.6375H155.074V38.7905Z" fill="#F0CA5E"/>
<path d="M155.074 41.4443H130.396V46.4463H155.074V41.4443Z" fill="#F0CA5E"/>
<path d="M136.346 0H134.504V34.6328H136.346V0Z" fill="#F0CA5E"/>
<path d="M129.14 181.822C130.734 181.193 134.602 182.154 137.312 186.561C142.657 195.14 146.454 204.596 148.529 214.495L171.65 231.68L169.106 239.652C169.106 239.652 138.331 225.83 134.993 221.337C132.783 218.366 131.32 215.023 129.986 211.612C127.092 202.565 124.791 193.756 124.374 191.506C123.611 187.367 123.276 184.137 129.14 181.822Z" fill="#A689BC"/>
<path d="M136.827 394.78C140.857 400.92 145.18 406.322 143.323 407.645C142.195 408.455 140.282 409.028 138.188 409.122C134.388 409.36 129.869 408.263 127.685 405.164C125.31 401.829 124.073 398.349 119.273 395.364C119.035 395.191 118.809 395.002 118.596 394.799L136.827 394.78Z" fill="#171716"/>
<path d="M103.786 394.78C107.955 402.364 118.585 410.988 115.815 414.889C113.751 417.844 104.704 417.792 100.948 414.135C99.9334 413.11 99.3959 411.874 98.8621 410.607C98.0427 408.689 97.1894 406.661 94.3138 405.504C93.7086 405.221 91.8065 403.943 91.2803 402.564C89.8444 399.069 90.3293 396.909 91.175 394.787L103.786 394.78Z" fill="#171716"/>
<path d="M133.617 369.547C129.651 371.357 125.46 371.3 121.483 369.864C119.559 360.165 116.852 347.659 118.1 337.945C118.476 335.182 119.337 332.464 119.48 329.698C119.623 326.682 119.337 318.114 118.672 315.159C117.544 310.157 115.912 303.244 114.289 295.856H138.632C139.383 304.797 140.252 315.834 140.252 321.07C140.252 328.231 137.019 354.002 134.027 367.433C133.854 368.145 133.726 368.842 133.617 369.547Z" fill="#1E1E1F"/>
<path d="M93.9751 387.807C91.8127 387.506 89.7299 386.784 87.8442 385.681C86.6376 381.429 85.6302 377.2 85.322 373.31C85.2769 372.345 85.2468 371.674 85.2468 371.497C85.0551 361.579 85.9572 351.383 90.6146 342.612C89.0433 328.918 87.8555 309.623 86.6714 295.872H112.499C112.559 302.012 112.353 308.138 112.101 314.278C111.909 319.898 111.477 331.195 111.24 336.815C111.15 339.491 111.048 342.152 110.488 344.73C109.864 347.689 108.011 350.305 107.481 353.309C105.602 364.689 103.891 375.88 102.831 386.593C100.023 387.577 97.1777 388.244 93.9751 387.807Z" fill="#1E1E1F"/>
<path d="M99.0161 188.539C99.027 190.692 99.8861 192.754 101.406 194.275C102.926 195.796 104.984 196.652 107.132 196.658L126.622 206.082C129.005 206.082 128.952 195.652 130.449 193.997C129.856 193.362 129.52 192.53 129.505 191.66C129.479 189.583 128.904 188.166 127.907 186.247C127.253 184.985 126.675 183.435 125.784 182.331C125.235 181.649 124.633 181.072 124.081 180.416L122.089 180.39L120.961 180.363L109.308 180.126C109.124 180.232 108.966 180.337 108.812 180.416V180.443C100.719 185.23 104.7 181.894 99.0161 188.539Z" fill="#292C36"/>
<path d="M108.759 176.538L108.811 179.244V180.428L108.864 184.42C109.278 185.066 109.761 185.665 110.304 186.206L110.33 186.233C110.549 186.453 110.785 186.655 111.037 186.836C111.758 187.446 112.596 187.903 113.499 188.178C114.546 188.514 115.626 188.733 116.72 188.834C117.165 188.859 117.61 188.859 118.055 188.834C118.517 188.842 118.977 188.771 119.415 188.623C119.831 188.528 120.223 188.351 120.57 188.103C120.917 187.854 121.21 187.539 121.434 187.175C121.522 187.067 121.601 186.953 121.671 186.832C121.97 186.27 122.19 185.668 122.325 185.046L122.088 180.372L122.009 178.506L121.851 175.328L120.645 175.434L108.759 176.538Z" fill="#E9AE93"/>
<path d="M83.2582 403.249C84.6753 405.816 86.4495 408.575 88.9229 409.876C91.8023 411.383 95.4523 411.598 98.6286 411.383C105.338 410.965 111.759 408.164 117.799 405.401C120.374 404.222 122.904 402.963 125.456 401.73C128.354 400.328 131.151 399.778 134.339 399.544C138.519 399.242 142.823 398.862 145.492 395.209C146.575 393.62 147.432 391.887 148.036 390.06C148.036 386.781 148.036 382.209 147.98 376.698C147.661 345.239 145.638 283.011 133.651 253.12C131.429 247.567 130.591 240.715 132.324 234.8C133.076 232.203 143.011 211.698 138.068 198.867C134.861 190.552 133.076 183.141 132.756 182.772C129.697 181.176 126.33 180.264 122.885 180.1L124.284 200.978L106.274 181.864C106.274 181.864 94.9974 186.786 91.8812 192.652C91.7572 192.878 91.6331 193.123 91.5279 193.349V193.383C91.5279 193.402 91.5279 193.424 91.5053 193.443C91.4139 193.658 91.3349 193.879 91.2685 194.103C91.2172 194.254 91.1819 194.411 91.1633 194.57C91.1167 194.676 91.0924 194.79 91.0919 194.906C91.0574 195.123 91.0398 195.342 91.0392 195.562C91.0392 195.81 91.0392 196.052 91.058 196.281C91.0768 196.511 91.058 196.82 91.0919 197.069C91.4677 203.081 93.0615 212.701 93.5653 223.432C93.8034 227.963 93.7783 232.504 93.4901 237.032C93.2165 241.479 92.5537 245.894 91.5091 250.225C85.9421 272.686 82.0215 371.832 83.2582 403.249Z" fill="#A689BC"/>
<path d="M93.4902 237.051L94.0691 238.461C94.8773 240.428 101.437 247.997 102.876 249.558C105.211 252.083 116.856 249.84 122.145 249.935C124.167 249.972 126.231 249.935 128.159 250.594C130.087 251.254 131.854 252.698 132.256 254.684L130.061 241.446C121.06 240.871 112.438 237.606 105.305 232.072C101.835 229.369 98.734 226.135 94.881 224.02C94.459 223.789 94.016 223.598 93.5579 223.451C93.7985 227.982 93.7759 232.523 93.4902 237.051Z" fill="#A689BC"/>
<path d="M113.687 217.262C119.702 220.417 127.949 219.478 132.328 214.246C136.399 209.395 136.437 202.237 134.707 196.153C133.64 192.384 131.997 188.814 130.362 185.26C129.659 183.73 128.84 182.082 127.31 181.381C124.998 180.322 122.423 181.928 120.247 183.266C117.032 185.212 113.542 186.658 109.895 187.555C107.639 188.113 102.117 187.593 101.305 190.164C100.929 191.295 101.598 192.919 101.82 194.027C102.196 195.961 102.377 197.902 102.64 199.851C103.057 203.271 104.148 206.575 105.85 209.568C107.693 212.818 110.408 215.483 113.687 217.262Z" fill="#9177A6"/>
<path d="M147.977 376.709C147.657 345.25 145.635 283.022 133.651 253.131C131.426 247.579 130.591 240.726 132.32 234.812C132.648 233.681 134.677 229.252 136.485 223.534C132.46 227.65 123.28 228.755 118.157 229.855C117.168 230.349 117.664 232.336 117.664 232.336C132.99 240.764 130.516 259.098 132.001 272.984C134.967 298.265 137.44 322.559 139.417 347.84C139.91 359.736 139.91 371.636 135.463 383.038C133.978 387.004 126.066 390.954 124.588 384.527C121.622 372.631 123.6 360.731 117.172 349.826H115.195C113.217 357.263 116.183 364.697 117.172 372.133C118.653 384.527 116.676 405.345 100.362 402.371C91.4643 400.882 95.9112 388.492 92.9453 381.549C92.4492 380.558 90.4719 379.567 89.9795 380.064C85.995 387.166 89.5322 397.837 83.2134 402.13C83.2134 402.507 83.2397 402.884 83.2547 403.261C84.6756 405.828 86.4499 408.591 88.9195 409.887C91.8026 411.395 95.4488 411.606 98.6289 411.395C105.339 410.973 111.759 408.176 117.8 405.413C120.371 404.233 122.908 402.974 125.453 401.745C128.355 400.343 131.148 399.793 134.343 399.559C138.519 399.258 142.827 398.877 145.492 395.221C146.576 393.634 147.433 391.902 148.037 390.076C148.037 386.792 148.029 382.213 147.977 376.709Z" fill="#9177A6"/>
<path d="M104.771 154.348H130.242C130.242 154.555 130.242 154.762 130.242 154.973C130.242 165.614 129.291 176.489 123.288 180.552C118.777 183.59 110.838 179.599 107.421 177.081C106.477 176.387 105.541 174.491 104.756 172.241L104.771 154.348Z" fill="#E9C2B0"/>
<g style="mix-blend-mode:multiply" opacity="0.3">
<g style="mix-blend-mode:multiply" opacity="0.3">
<path d="M130.241 154.348H104.774V166.734C111.029 163.096 117.807 159.949 124.58 161.939C132.474 164.419 126.065 173.835 122.107 178.298C120.558 180.243 118.551 180.963 116.356 181.276C118.889 181.86 121.404 181.838 123.306 180.552C129.32 176.489 130.26 165.618 130.26 154.973C130.26 154.762 130.249 154.544 130.241 154.348Z" fill="#E9C2B0"/>
</g>
</g>
<path d="M106.643 162.693H103.26C103.406 161.469 103.705 160.268 104.151 159.12C105.282 156.312 107.142 153.859 109.537 152.014C112.379 149.79 116.021 148.392 119.592 148.89C121.796 149.243 123.874 150.151 125.633 151.528C127.382 152.909 128.947 154.509 130.29 156.289L130.272 161.227C130.13 160.62 129.87 160.047 129.505 159.542C129.14 159.037 128.679 158.61 128.148 158.287C127.081 157.645 125.898 157.222 124.667 157.043C120.945 156.339 117.095 156.868 113.698 158.55C110.491 160.183 107.987 162.933 106.658 166.285L106.643 162.693Z" fill="#292C36"/>
<path d="M108.38 158.916C109.823 157.235 111.834 156.127 113.924 155.399C117.915 154.024 122.235 153.934 126.28 155.143C127.3 155.421 128.271 155.854 129.159 156.428C129.355 156.564 129.576 156.726 129.794 156.911C130.008 157.535 130.178 158.174 130.302 158.822C130.382 159.298 130.425 159.779 130.43 160.262C130.235 160.693 130.119 161.155 130.088 161.626C130.028 160.94 129.452 160.307 128.877 159.934C128.282 159.587 127.628 159.352 126.949 159.24C123.333 158.515 119.596 158.668 116.051 159.687C112.506 160.706 109.255 162.562 106.572 165.098C106.121 162.908 106.936 160.597 108.38 158.916Z" fill="#F1CCD0"/>
<path d="M89.3555 191.683C91.3364 188.611 94.8135 188.015 96.1667 188.347C104.579 190.405 104.775 201.449 106.075 206.063C107.579 211.363 112.74 215.166 116.912 215.716C120.705 216.21 123.78 215.626 126.212 214.416C127.93 213.533 129.443 212.298 130.654 210.791C131.865 209.283 132.746 207.538 133.241 205.667C133.533 204.632 133.686 203.562 133.696 202.486C133.696 192.81 130.851 189.195 128.298 184.977C126.107 181.344 126.708 176.738 126.708 176.738C126.708 176.738 124.216 180.164 122.141 181.042C121.077 181.478 119.924 181.654 118.778 181.555C117.632 181.456 116.526 181.085 115.552 180.473C110.041 176.873 108.41 173.047 108.007 168.351C107.868 166.711 107.695 163.59 107.571 162.214C108.853 158.912 110.537 157.917 113.687 156.296C117.082 154.609 120.933 154.08 124.656 154.789C126.028 155.017 127.289 155.685 128.252 156.69C129.215 157.696 129.829 158.987 130.001 160.371C130 160.777 130.028 161.183 130.084 161.585C130.081 161.63 130.081 161.675 130.084 161.72C130.888 160.431 131.14 155.912 130.505 153.876C129.159 149.568 128.389 145.49 124.434 142.546C118.296 137.958 109.763 138.019 104.369 143.612L104.294 143.695C104.061 143.944 103.827 144.197 103.613 144.449C103.583 144.483 103.557 144.525 103.531 144.559C100.287 148.369 99.2115 151.653 98.268 155.32C97.2305 159.285 96.6704 163.36 95.8697 167.382C94.1895 175.75 93.058 183.99 89.3555 191.683Z" fill="#009A96"/>
<path d="M89.3555 191.683C91.3364 188.611 94.8135 188.015 96.1667 188.347C104.579 190.405 104.775 201.449 106.075 206.063C107.579 211.363 112.74 215.166 116.912 215.716C120.705 216.21 123.78 215.626 126.212 214.416C127.93 213.533 129.443 212.298 130.654 210.791C131.865 209.283 132.746 207.538 133.241 205.667C133.533 204.632 133.686 203.562 133.696 202.486C133.696 192.81 130.851 189.195 128.298 184.977C126.107 181.344 126.708 176.738 126.708 176.738C126.708 176.738 124.216 180.164 122.141 181.042C121.077 181.478 119.924 181.654 118.778 181.555C117.632 181.456 116.526 181.085 115.552 180.473C110.041 176.873 108.41 173.047 108.007 168.351C107.868 166.711 107.695 163.59 107.571 162.214C108.853 158.912 110.537 157.917 113.687 156.296C117.082 154.609 120.933 154.08 124.656 154.789C126.028 155.017 127.289 155.685 128.252 156.69C129.215 157.696 129.829 158.987 130.001 160.371C130 160.777 130.028 161.183 130.084 161.585C130.081 161.63 130.081 161.675 130.084 161.72C130.888 160.431 131.14 155.912 130.505 153.876C129.159 149.568 128.389 145.49 124.434 142.546C118.296 137.958 109.763 138.019 104.369 143.612L104.294 143.695C104.061 143.944 103.827 144.197 103.613 144.449C103.583 144.483 103.557 144.525 103.531 144.559C100.287 148.369 99.2115 151.653 98.268 155.32C97.2305 159.285 96.6704 163.36 95.8697 167.382C94.1895 175.75 93.058 183.99 89.3555 191.683Z" fill="#EDB84E"/>
<path d="M107.763 165.852C107.567 165.47 107.394 165.078 107.244 164.676C107.135 164.37 107.049 164.061 106.966 163.752C106.3 159.287 107.309 154.733 109.797 150.97C108.271 155.777 107.583 160.811 107.763 165.852Z" fill="#FF9900"/>
<path d="M107.714 164.838C106.064 160.017 104.88 155.037 103.7 150.096C103.282 148.354 102.865 146.586 102.948 144.8C102.83 147.721 102.891 150.646 103.132 153.56C103.268 155.863 103.683 158.142 104.369 160.345C105.063 162.562 106.34 164.551 108.064 166.104L107.714 164.838Z" fill="#FF9900"/>
<path d="M107.977 196.591C109.154 201.291 112.834 204.883 116.48 208.069C119.416 210.628 122.547 213.146 126.208 214.42C127.925 213.537 129.439 212.302 130.65 210.794C131.861 209.287 132.742 207.542 133.237 205.671C129.429 208.517 123.919 208.585 119.495 206.689C114.754 204.646 111.071 200.726 107.977 196.591Z" fill="#FF9900"/>
<path d="M100.741 160.978C100.741 160.952 100.786 160.959 100.786 160.978C100.7 165.942 100.64 170.884 101.425 175.807C102.128 180.205 102.929 185.019 106.402 188.136C109.567 190.993 114.48 193.281 118.743 193.413C123.22 193.545 126.396 190.594 130.358 189.097C130.674 188.977 130.813 189.395 130.651 189.602C127.926 193.063 123.201 195.562 118.743 195.23C114.39 194.906 109.672 192.509 106.312 189.795C102.391 186.628 101.455 182.256 100.767 177.446C99.9893 172 99.7374 166.398 100.741 160.978Z" fill="#FF9900"/>
<path d="M104.662 174.585C107.007 177.955 109.469 181.777 113.123 183.858C117.427 186.304 121.927 185.366 125.862 182.693C126.152 182.497 126.46 182.927 126.238 183.168C123.171 186.338 118.047 187.005 114.067 185.305C109.488 183.353 106.755 178.856 104.5 174.679C104.49 174.658 104.489 174.634 104.496 174.612C104.503 174.59 104.518 174.571 104.538 174.559C104.559 174.547 104.582 174.544 104.605 174.548C104.628 174.553 104.648 174.566 104.662 174.585Z" fill="#FF9900"/>
<path d="M101.452 178.124C101.625 184.344 105.211 190.186 110.206 193.877C115.202 197.567 121.416 199.346 127.599 199.776C123.179 199.901 118.768 199.329 114.525 198.079C109.996 196.745 105.402 194.363 103.249 190.164C102.083 187.876 101.745 185.264 101.471 182.716C101.22 180.454 101.011 178.192 100.843 175.931L101.452 178.124Z" fill="#EFC45E"/>
<path d="M136.854 246.693C134.538 243.934 134.974 238.276 135.786 236.467C138.026 235.702 140.324 235.12 142.657 234.726C146.864 234.009 151.705 233.798 154.276 235.63C159.757 239.539 158.411 242.038 156.378 244.134C153.303 247.308 140.725 243.312 136.854 246.693Z" fill="#BD825A"/>
<path d="M94.5842 188.011C96.2456 187.593 100.474 188.848 102.076 193.771C106.072 206.063 108.688 221.48 109.797 230.42C110.011 232.151 139.323 234.035 139.323 234.035L142.53 247.028L109.267 247.824C108.54 247.976 107.797 248.03 107.056 247.982C106.021 248.059 104.988 247.795 104.117 247.228C100.662 245.162 97.9409 240.066 96.7907 237.888C91.904 228.532 88.8367 201.185 88.6112 196.983C88.3856 192.78 88.4683 189.549 94.5842 188.011Z" fill="#A689BC"/>
<g style="mix-blend-mode:multiply" opacity="0.3">
<path d="M109.011 224.653C109.331 226.768 109.601 228.717 109.812 230.424C109.846 230.707 110.673 230.997 112.018 231.28C110.248 232.637 108.504 234.039 106.602 235.128C106.827 231.532 107.797 228.046 109.011 224.653Z" fill="#16181D"/>
</g>
<g style="mix-blend-mode:multiply" opacity="0.3">
<path d="M94.5842 188.012C94.9348 187.936 95.2955 187.918 95.6518 187.959C94.1219 188.92 92.9829 190.175 92.4717 191.728C88.2354 206.828 91.0583 225.701 101.411 237.971C110.725 248.646 127.986 243.391 141.759 243.938L142.511 247.04L109.248 247.835C108.522 247.988 107.778 248.041 107.038 247.993C106.002 248.071 104.97 247.806 104.098 247.24C100.644 245.174 97.9222 240.078 96.772 237.899C91.8853 228.544 88.818 201.197 88.5924 196.994C88.3669 192.791 88.4684 189.55 94.5842 188.012Z" fill="#9177A6"/>
</g>
<path d="M138.451 239.524L173.361 218.792C173.537 218.663 173.743 218.583 173.96 218.56C174.176 218.537 174.395 218.572 174.594 218.66L176.338 219.656C176.14 219.565 175.92 219.529 175.704 219.552C175.487 219.576 175.28 219.657 175.105 219.787L173.289 220.884C173.338 220.896 173.385 220.914 173.429 220.937L174.462 221.529L175.169 221.928C175.275 222.002 175.36 222.103 175.415 222.22C175.47 222.337 175.492 222.467 175.481 222.596L175.778 244.058C175.762 244.419 175.662 244.771 175.485 245.085C175.308 245.4 175.059 245.668 174.759 245.868L173.936 245.385L174.759 245.852L141.241 265.74C141.133 265.818 141.007 265.866 140.875 265.879C140.743 265.892 140.61 265.87 140.489 265.815L138.778 264.842L138.808 266.961C138.79 267.175 138.828 267.39 138.919 267.585C139.01 267.78 139.151 267.947 139.327 268.069L138.459 267.575L137.579 267.097C137.399 266.972 137.256 266.802 137.165 266.603C137.074 266.404 137.038 266.184 137.061 265.966L136.737 242.532C136.768 241.931 136.94 241.346 137.237 240.823C137.535 240.301 137.951 239.856 138.451 239.524Z" fill="#F7F7F7"/>
<path d="M143.217 238.039V238.389C143.27 238.366 143.316 238.328 143.35 238.28C143.384 238.232 143.404 238.176 143.409 238.118V237.768C143.404 237.826 143.384 237.882 143.35 237.929C143.316 237.977 143.27 238.015 143.217 238.039Z" fill="#17191F"/>
<path d="M142.037 238.725V239.071L143.221 238.389L143.217 238.039L142.037 238.725Z" fill="#131419"/>
<path d="M140.924 238.457V238.808C140.926 238.872 140.952 238.934 140.996 238.981V238.63C140.952 238.583 140.926 238.522 140.924 238.457Z" fill="#17191F"/>
<path d="M140.996 238.63V238.977C141.029 239.015 141.068 239.046 141.112 239.071C141.211 239.126 141.319 239.161 141.432 239.173V238.822C141.319 238.81 141.211 238.776 141.112 238.721C141.068 238.696 141.029 238.664 140.996 238.626V238.63Z" fill="#1D2027"/>
<path d="M141.436 238.826V239.177C141.642 239.206 141.852 239.171 142.037 239.075V238.725C141.852 238.82 141.642 238.855 141.436 238.826Z" fill="#17191F"/>
<path d="M141.118 238.19C141.062 238.21 141.014 238.246 140.981 238.294C140.947 238.343 140.929 238.4 140.929 238.459C140.929 238.518 140.947 238.576 140.981 238.624C141.014 238.672 141.062 238.709 141.118 238.729C141.26 238.801 141.418 238.839 141.578 238.839C141.738 238.839 141.896 238.801 142.038 238.729L143.223 238.043C143.278 238.024 143.327 237.988 143.361 237.94C143.395 237.892 143.414 237.834 143.414 237.775C143.414 237.716 143.395 237.658 143.361 237.61C143.327 237.562 143.278 237.526 143.223 237.507C143.079 237.435 142.921 237.397 142.76 237.397C142.6 237.397 142.441 237.435 142.298 237.507L141.118 238.19Z" fill="#1E2129"/>
<path d="M140.191 240.515L175.105 219.784C176.056 219.218 176.841 219.659 176.856 220.756L177.18 244.198C177.152 244.798 176.984 245.384 176.69 245.908C176.395 246.432 175.982 246.879 175.484 247.213L140.571 267.945C139.624 268.506 138.834 268.069 138.819 266.965L138.496 243.531C138.524 242.93 138.692 242.345 138.986 241.821C139.281 241.297 139.693 240.85 140.191 240.515Z" fill="#DEE0E4"/>
<path d="M141.271 244.205C141.299 243.673 141.453 243.155 141.719 242.693C141.985 242.232 142.355 241.839 142.8 241.548C143.646 241.058 144.33 241.454 144.33 242.434C144.301 242.966 144.148 243.484 143.882 243.946C143.616 244.408 143.246 244.8 142.8 245.091C141.955 245.581 141.271 245.182 141.271 244.205Z" fill="#0B0B0B"/>
<path d="M138.184 249.558L137.241 249.011V245.962L138.184 246.508V249.558Z" fill="#0B0B0B"/>
<path d="M138.184 253.651L137.241 253.105V250.055L138.184 250.602V253.651Z" fill="#0B0B0B"/>
<path d="M144.593 236.339C144.742 236.263 144.907 236.223 145.074 236.223C145.241 236.223 145.406 236.263 145.555 236.339C145.614 236.358 145.665 236.395 145.701 236.446C145.737 236.496 145.756 236.556 145.756 236.617C145.756 236.679 145.737 236.739 145.701 236.789C145.665 236.839 145.614 236.877 145.555 236.896C145.406 236.972 145.241 237.012 145.074 237.012C144.907 237.012 144.742 236.972 144.593 236.896C144.535 236.877 144.484 236.839 144.448 236.789C144.412 236.739 144.393 236.679 144.393 236.617C144.393 236.556 144.412 236.496 144.448 236.446C144.484 236.395 144.535 236.358 144.593 236.339Z" fill="#0B0B0B"/>
<path d="M146.845 234.993C146.994 234.917 147.159 234.878 147.326 234.878C147.493 234.878 147.658 234.917 147.807 234.993C147.866 235.013 147.917 235.05 147.953 235.1C147.989 235.15 148.008 235.211 148.008 235.272C148.008 235.334 147.989 235.394 147.953 235.444C147.917 235.494 147.866 235.532 147.807 235.551C147.658 235.627 147.493 235.667 147.326 235.667C147.159 235.667 146.994 235.627 146.845 235.551C146.787 235.532 146.736 235.494 146.7 235.444C146.664 235.394 146.645 235.334 146.645 235.272C146.645 235.211 146.664 235.15 146.7 235.1C146.736 235.05 146.787 235.013 146.845 234.993Z" fill="#0B0B0B"/>
<path d="M149.033 233.708L149.886 234.205L151.754 233.12L150.901 232.626L149.033 233.708Z" fill="#0B0B0B"/>
<path d="M171.992 233.7C172.368 233.38 172.744 233.082 172.951 232.848C172.466 232.829 171.872 232.739 171.695 232.279C171.648 232.112 171.65 231.935 171.703 231.769C171.755 231.604 171.854 231.457 171.989 231.348C172.261 231.137 172.573 230.984 172.906 230.899C174.346 230.421 176.03 229.554 177.447 229.094C178.995 229.471 180.003 233.349 180.149 234.254C180.356 235.52 180.386 237.518 179.368 238.495C178.845 238.596 178.315 238.679 177.695 238.8C177.251 238.875 176.834 238.936 176.432 238.966C176.202 238.856 176.007 238.502 175.977 238.483C175.941 238.294 175.949 238.1 175.999 237.914C176.018 237.853 176.022 237.788 176.012 237.725C176.002 237.662 175.978 237.602 175.942 237.549C175.906 237.496 175.859 237.452 175.804 237.42C175.749 237.388 175.687 237.369 175.624 237.364C174.951 237.254 173.504 237.39 173.658 236.109C173.661 236.026 173.631 235.946 173.576 235.885C173.52 235.825 173.443 235.788 173.361 235.784C172.041 235.683 171.94 234.672 171.992 233.7Z" fill="#BD825A"/>
<path d="M126.539 209.565L157.201 191.729V210.79L139.756 220.937L145.8 228.555L133.786 224.409L126.539 228.623V209.565Z" fill="#F1CCD0"/>
<path d="M149.77 157.548L186.07 178.66V202.482L174.052 195.494L160.054 199.203L168.827 192.452L149.77 181.37V157.548Z" fill="#009A96"/>
<path d="M259.245 203.745L255.922 201.106C255.922 201.106 253.25 203.134 253.787 204.19C254.659 205.901 256.693 207.168 256.693 207.168L259.245 203.745Z" fill="#F89D7F"/>
<path d="M286.272 238.223C290.434 241.288 291.798 230.492 290.603 229.293C287.246 225.927 268.444 210.013 259.655 203.213C259.655 203.213 258.99 202.158 257.227 204.495C255.464 206.832 256.738 208.34 256.738 208.34L286.272 238.223Z" fill="#313745"/>
<path d="M254.957 205.596C254.957 205.596 255.9 205.283 257.043 202.957C258.186 200.631 256.81 197.989 255.599 196.04C254.799 194.672 249.927 192.938 247.401 189.945C244.875 186.952 245.225 192.098 246.322 194.144C247.42 196.191 248.623 197.733 249.224 198.879C249.826 200.025 250.623 200.511 251.104 201.14C251.585 201.77 254.957 205.596 254.957 205.596Z" fill="#F89D7F"/>
<path d="M246.706 189.278C246.963 189.477 247.196 189.704 247.401 189.957C249.927 192.95 254.799 194.684 255.599 196.052C256.475 197.458 257.561 199.226 257.479 201.009C257.479 201.009 256.618 199.768 255.52 198.136C254.254 196.252 253.141 196.459 251.385 196.323C247.717 196.041 246.706 189.278 246.706 189.278Z" fill="#CC8169"/>
<path d="M247.871 197.277C247.871 197.277 244.954 194.585 244.15 193.549C243.345 192.512 242.646 189.889 241.973 188.649C241.3 187.409 242.856 187.518 243.774 188.487C244.691 189.455 245.104 191.611 245.277 191.834C245.45 192.056 247.939 193.85 248.807 194.521C249.675 195.192 249.074 197.921 247.871 197.277Z" fill="#F89D7F"/>
<path d="M253.355 200.658C253.355 200.658 248.728 198.208 247.288 196.889C246.427 196.056 246.563 193.308 246.341 191.698C246.213 190.609 248.22 189.572 249.998 188.272C251.46 187.209 251.197 189.026 250.75 189.946C250.303 190.865 248.871 191.687 248.728 192.17C248.585 192.652 250.119 195.298 250.231 195.607C250.344 195.916 253.355 200.658 253.355 200.658Z" fill="#F89D7F"/>
<path d="M254.829 201.484C254.829 201.484 250.171 199.222 248.732 197.914C247.871 197.081 248.036 194.145 247.814 192.539C247.687 191.45 249.694 190.5 250.795 189.06C251.897 187.62 252.509 189.652 252.058 190.568C251.607 191.483 250.355 192.531 250.179 193.014C250.002 193.496 251.57 196.142 251.682 196.451C251.795 196.761 254.829 201.484 254.829 201.484Z" fill="#F89D7F"/>
<path d="M257.182 202.72C257.182 202.72 252.739 200.665 251.329 199.523C250.483 198.788 250.468 196.217 250.183 194.725C250.01 193.715 251.649 192.787 252.596 191.389C253.543 189.991 254.223 191.856 253.848 192.727C253.472 193.598 252.551 194.585 252.427 195.045C252.303 195.505 253.885 197.895 254.009 198.178C254.133 198.46 257.182 202.72 257.182 202.72Z" fill="#F89D7F"/>
<path d="M309.179 200.5C311.536 198.34 315.088 198.11 317.483 200.097C319.005 201.363 318.81 204.507 317.607 207.277C316.724 209.316 314.863 211.243 313.412 212.931C308.149 219.147 292.144 237.945 292.133 237.956C291.442 238.708 290.494 239.171 289.478 239.254C288.462 239.337 287.452 239.034 286.648 238.405C285.032 237.063 283.216 235.555 285.239 232.276C285.246 232.287 308.924 200.677 309.179 200.5Z" fill="#313745"/>
<path d="M300.624 404.169C300.624 404.169 296.114 408.583 294.384 409.488C292.655 410.392 293.52 416.273 293.52 416.273C293.52 416.273 299.361 416.514 302.301 416.273C305.24 416.031 308.646 416.095 307.939 412.126L307.417 409.518L306.18 402.778L300.624 404.169Z" fill="#121621"/>
<path d="M303.127 392.691C305.06 398.402 306.206 402.424 305.898 403.332C304.541 407.324 300.635 404.21 300.635 404.21C299.941 400.293 298.924 396.44 297.594 392.691H303.127Z" fill="#F58E6C"/>
<path d="M83.8391 358C83.8391 358 53.2599 363.756 53.2599 410.839H38.9082L25 358H83.8391Z" fill="url(#paint39_linear)"/>
<path d="M300.68 403.822C300.68 403.822 299.015 406.461 298.455 407.535C297.436 409.488 303.891 409.638 304.409 409.114C305.856 407.644 306.289 405.096 306.266 403.803C306.236 400.513 300.68 403.822 300.68 403.822Z" fill="#F58E6C"/>
<path d="M305.154 399.088C305.154 399.088 309.157 401.014 308.199 404.256C307.24 407.497 306.593 411.176 306.593 411.176C306.593 411.176 305.605 404.263 305.154 399.088Z" fill="#121621"/>
<path d="M308.27 403.147L308.559 411.636H308.044L307.153 405.304L308.27 403.147Z" fill="#121621"/>
<path d="M326.963 404.169C326.963 404.169 322.452 408.583 320.723 409.488C318.994 410.392 319.859 416.273 319.859 416.273C319.859 416.273 325.7 416.514 328.64 416.273C331.579 416.031 334.985 416.095 334.278 412.126L333.756 409.518L332.519 402.778L326.963 404.169Z" fill="#121621"/>
<path d="M329.467 392.691C331.399 398.402 332.545 402.424 332.237 403.332C330.88 407.324 326.975 404.21 326.975 404.21C326.28 400.293 325.263 396.44 323.934 392.691H329.467Z" fill="#F58E6C"/>
<path d="M327.031 403.822C327.031 403.822 325.366 406.461 324.806 407.535C323.787 409.488 330.241 409.638 330.76 409.114C332.207 407.644 332.639 405.096 332.617 403.803C332.575 400.513 327.031 403.822 327.031 403.822Z" fill="#F58E6C"/>
<path d="M331.493 399.088C331.493 399.088 335.496 401.014 334.538 404.256C333.579 407.497 332.932 411.176 332.932 411.176C332.932 411.176 331.917 404.263 331.493 399.088Z" fill="#121621"/>
<path d="M334.609 403.147L334.898 411.636H334.387L333.493 405.304L334.609 403.147Z" fill="#121621"/>
<path d="M299.342 265.74C299.342 265.74 285.81 317.421 286.915 340.245C288.02 363.068 293.681 398.817 293.681 398.817C293.681 398.817 314.837 402.526 336.105 395.873C336.105 395.873 323.926 380.991 319.302 347.139C317.19 331.685 319.092 303.297 320.077 301.677C325.493 292.762 332.455 281.616 321.622 265.736L299.342 265.74Z" fill="#292F3B"/>
<path d="M305.462 399.766C305.462 399.766 293.952 358.466 296.298 347.09C297.448 341.519 300.835 367.444 305.462 378.481C313.1 396.683 322.975 398.835 322.975 398.835C322.975 398.835 313.247 400.449 305.462 399.766Z" fill="#B7AEAE"/>
<path d="M320.566 355.073C320.566 355.073 306.973 314.274 309.481 316.011C311.988 317.749 318.671 340.75 318.671 340.75L320.566 355.073Z" fill="#B7AEAE"/>
<path d="M296.159 214.247C297.234 211.985 300.388 208.087 302.515 205.577C303.756 201.389 305.522 196.994 305.522 196.994C314.063 198.347 316.574 191.178 317.784 192.411C318.408 193.044 322.569 198.898 324.212 202.064C327.099 207.628 326.742 212.618 325.892 219.128C324.52 229.66 321.25 238.043 320.302 248.201C319.818 253.41 319.803 266.049 319.351 266.961C317.246 271.243 301.136 268.695 301.136 268.695C301.733 258.412 299.805 241.499 300.211 227.609C294.794 225.151 294.569 217.594 296.159 214.247Z" fill="#E6E6E6"/>
<path d="M309.548 207.292C310.127 206.915 316.9 189.621 317.682 189.678C318.418 189.734 319.109 190.057 319.626 190.586C320.55 191.529 324.869 197.707 326.508 200.865C329.748 207.107 329.335 212.746 328.459 219.467C327.801 224.526 326.719 229.083 325.674 233.493C324.486 238.495 321.915 243.546 321.422 248.774C321.204 251.13 321.351 252.818 323.197 258.574C325.531 265.849 327.595 271.71 327.162 272.592C325.584 275.808 314.382 276.739 305.545 275.344C299.617 274.405 295.298 273.316 295.298 273.316C299.872 255.159 299.102 233.135 299.241 227.635C297.383 226.328 295.983 224.467 295.241 222.317C294.61 220.56 294.315 218.699 294.369 216.832L309.548 207.292Z" fill="#B7AEAE"/>
<path d="M294.369 216.84C294.369 216.84 308.048 207.759 309.228 206.685C310.409 205.611 317.367 189.659 317.367 189.659C317.367 189.659 315.265 208.656 313.059 213.029C312.611 214.159 303.849 213.568 303.849 213.568L303.643 216.425L294.369 216.84Z" fill="#444D61"/>
<path d="M312.206 256.859C309.466 257.381 306.661 257.467 303.895 257.115C303.925 256.846 303.956 256.579 303.989 256.312C306.672 256.655 309.393 256.573 312.051 256.067C312.102 256.331 312.153 256.595 312.206 256.859Z" fill="#292F3B"/>
<path d="M329.718 281.432C328.572 283.836 328.346 284.715 328.215 286.467C328.14 287.414 328.474 287.76 329.485 288.473C330.752 289.366 332.801 289.57 332.913 289.038C333.372 286.927 330.966 286.347 331.41 285.868C333.936 283.007 330.865 279.027 329.718 281.432Z" fill="#D9896F"/>
<path d="M317.818 323.659L353.671 321.952C354.949 321.887 356.149 321.318 357.01 320.369C357.871 319.42 358.322 318.167 358.264 316.886L357.178 294.009C357.114 292.728 356.546 291.524 355.6 290.661C354.653 289.798 353.404 289.346 352.126 289.403L316.273 291.111C314.995 291.175 313.795 291.744 312.934 292.694C312.073 293.643 311.622 294.895 311.68 296.177L312.766 319.072C312.835 320.35 313.405 321.549 314.351 322.408C315.297 323.267 316.543 323.717 317.818 323.659Z" fill="#733533"/>
<path d="M316.442 294.598L352.295 292.879C353.573 292.821 354.822 293.274 355.769 294.137C356.715 295 357.283 296.204 357.347 297.485L357.599 302.811C357.641 303.709 357.326 304.586 356.723 305.251C356.121 305.916 355.28 306.314 354.385 306.358L315.638 308.205C314.743 308.247 313.868 307.931 313.204 307.327C312.541 306.723 312.144 305.88 312.1 304.982L311.849 299.664C311.791 298.382 312.242 297.13 313.103 296.18C313.964 295.231 315.164 294.662 316.442 294.598Z" fill="#562826"/>
<path d="M316.292 307.413L353.656 305.634C354.93 305.565 356.126 304.994 356.983 304.045C357.839 303.096 358.288 301.847 358.23 300.568L357.892 293.459C357.828 292.178 357.26 290.974 356.314 290.111C355.367 289.248 354.118 288.796 352.84 288.853L315.495 290.617C314.217 290.682 313.017 291.251 312.156 292.2C311.295 293.149 310.844 294.401 310.901 295.683L311.24 302.792C311.3 304.076 311.866 305.284 312.813 306.15C313.76 307.016 315.011 307.471 316.292 307.413Z" fill="#733533"/>
<path d="M342.259 289.358L342.097 285.966C342.079 285.583 341.91 285.223 341.629 284.964C341.347 284.705 340.975 284.568 340.594 284.583L327.328 285.216C326.946 285.234 326.588 285.403 326.329 285.685C326.071 285.968 325.934 286.341 325.949 286.724L326.11 290.116L324.663 290.184L324.501 286.791C324.468 286.023 324.738 285.272 325.255 284.703C325.771 284.134 326.49 283.792 327.257 283.753L340.522 283.12C341.289 283.086 342.037 283.358 342.605 283.875C343.172 284.393 343.513 285.115 343.552 285.883L343.713 289.275L342.259 289.358Z" fill="#1A1A1A"/>
<path d="M332.524 309.353L337.68 309.107C338.213 309.082 338.624 308.628 338.599 308.094L338.463 305.236C338.438 304.702 337.985 304.289 337.452 304.315L332.297 304.56C331.764 304.586 331.353 305.039 331.378 305.574L331.514 308.431C331.539 308.966 331.991 309.378 332.524 309.353Z" fill="#999999"/>
<path d="M338.127 308.124L337.991 305.262C337.978 304.996 337.753 304.791 337.488 304.803L332.329 305.049C332.063 305.062 331.858 305.288 331.871 305.554L332.007 308.415C332.019 308.681 332.244 308.887 332.51 308.874L337.669 308.629C337.934 308.616 338.139 308.39 338.127 308.124Z" fill="#B3B3B3"/>
<path d="M329.576 284.435C329.839 285.755 331.2 285.679 336.342 287.884C336.534 287.967 337.977 281.676 336.207 279.264C334.275 276.606 328.463 278.876 329.576 284.435Z" fill="#F89D7F"/>
<path d="M334.549 284.5L336.052 287.922C336.173 288.196 336.18 288.507 336.072 288.786C335.964 289.065 335.75 289.29 335.477 289.411C335.204 289.531 334.894 289.538 334.616 289.43C334.338 289.322 334.114 289.108 333.993 288.834L332.489 285.412C332.369 285.138 332.362 284.827 332.47 284.548C332.577 284.269 332.791 284.044 333.064 283.923C333.337 283.802 333.647 283.795 333.925 283.903C334.204 284.012 334.428 284.226 334.549 284.5Z" fill="#F89D7F"/>
<path d="M332.53 285.385L334.034 288.808C334.154 289.082 334.161 289.392 334.053 289.671C333.945 289.95 333.732 290.175 333.459 290.297C333.186 290.417 332.876 290.424 332.598 290.316C332.319 290.208 332.095 289.993 331.974 289.72L329.696 284.82C329.448 284.251 330.478 285.069 331.042 284.82C331.314 284.697 331.624 284.688 331.903 284.794C332.182 284.9 332.407 285.113 332.53 285.385Z" fill="#F89D7F"/>
<path d="M336.053 283.169L337.556 286.592C337.677 286.865 337.684 287.176 337.576 287.455C337.468 287.734 337.254 287.959 336.981 288.08C336.708 288.201 336.398 288.208 336.12 288.1C335.842 287.992 335.617 287.777 335.496 287.504L333.993 284.081C333.873 283.807 333.866 283.497 333.974 283.218C334.081 282.938 334.295 282.714 334.568 282.592C334.841 282.472 335.151 282.465 335.429 282.573C335.708 282.681 335.932 282.895 336.053 283.169Z" fill="#F89D7F"/>
<path d="M337.556 282.049L338.789 284.85C338.888 285.074 338.893 285.328 338.805 285.556C338.717 285.785 338.542 285.968 338.319 286.068C338.096 286.166 337.842 286.172 337.615 286.084C337.387 285.996 337.204 285.82 337.105 285.596L335.872 282.796C335.669 282.332 335.695 279.69 336.161 279.486C336.18 279.482 336.485 279.286 337.556 282.049Z" fill="#F89D7F"/>
<path d="M315.378 205.773C315.404 204.286 315.967 202.859 316.962 201.756C317.958 200.653 319.318 199.95 320.791 199.776C322.76 199.55 324.926 201.736 326.102 204.374C326.978 206.316 327.098 208.86 327.339 210.978C328.226 218.683 330.895 242.004 330.895 242.019C330.944 243.012 330.615 243.987 329.975 244.746C329.334 245.505 328.429 245.99 327.444 246.105C325.354 246.346 323.005 246.618 322.016 243.09C322.016 243.067 315.318 206.067 315.378 205.773Z" fill="#444D61"/>
<path d="M322.201 243.678C321.992 242.602 322.194 241.487 322.766 240.553C323.338 239.619 324.239 238.934 325.291 238.634C325.85 238.464 326.438 238.406 327.02 238.464C327.602 238.522 328.167 238.694 328.683 238.971C329.198 239.248 329.655 239.624 330.025 240.078C330.396 240.532 330.673 241.054 330.842 241.616C331.083 242.411 335.729 267.738 337.21 277.877C337.21 277.877 336.898 279.174 334.248 279.641C332.511 279.94 330.742 280.017 328.986 279.871L322.201 243.678Z" fill="#444D61"/>
<path d="M307.323 191.6L324.516 180.876C324.516 180.876 324.843 186.47 324.494 190.239C324.343 191.837 328.58 197.22 328.655 199.195C328.73 201.17 329.068 206.564 328.572 207.865C328.076 209.165 323.381 207.608 322.22 207.265C321.058 206.922 321.378 206.738 318.836 206.632C316.295 206.526 311.694 212.331 304.928 212.557C299.557 212.738 300.042 203.76 298.749 198.765C297.527 194.099 304.259 190.925 307.323 191.6Z" fill="#2C2F38"/>
<path d="M302.857 199.776C304.646 200.933 303.774 205.807 307.518 203.236C310.27 201.352 315.66 197.895 317.265 196.406C318.302 195.441 318.081 192.26 318.844 191.227C321.565 187.835 325.73 184.465 326.602 183.002C326.978 182.369 325.241 178.766 325.343 176.338C325.523 172.026 323.918 165.513 323.715 163.492C323.512 161.472 324.527 160.058 323.512 158.004C322.497 155.95 320.062 152.614 317.197 151.491C314.709 150.514 312.386 149.497 310.397 149.229C310.191 149.097 308.398 149.003 307.898 149.074C305.417 149.451 302.128 151.11 300.718 152.343C299.308 153.575 297.846 156.587 297.433 158.656C297.309 159.267 296.346 160.722 296.305 163.715C296.215 169.881 297.147 178.415 297.463 179.753C297.651 180.56 299.94 187.914 299.184 196.761C298.981 199.022 301.526 199.022 302.857 199.776Z" fill="#2F426C"/>
<path d="M297.275 168.622C297.234 163.285 299.35 157.691 304.534 157.804C311.8 157.981 316.186 163.39 315.882 168.735C315.577 174.08 315.581 182.305 314.615 183.741C313.225 185.614 311.545 187.252 309.638 188.592C308.511 189.346 305.552 191.084 304.195 190.94C303.443 190.865 299.527 187.767 298.591 183.025C297.497 177.491 297.294 171.506 297.275 168.622Z" fill="#F89D7F"/>
<path d="M297.433 165.987C297.433 165.987 295.602 157.695 303.583 157.028C307.567 156.688 314.69 160.103 316.435 165.422L315.732 172.056C315.732 172.056 315.585 166.353 312.909 164.291C304.21 157.589 297.79 163.394 297.433 165.987Z" fill="#1D1F25"/>
<path d="M299.91 176.753C299.196 176.783 299.106 176.466 299.106 176.466C299.012 175.993 298.955 175.513 298.936 175.03C298.888 173.813 299.263 173.191 299.76 173.172C300.256 173.153 300.684 173.741 300.733 174.955C300.753 175.437 300.736 175.919 300.681 176.398C300.681 176.398 300.624 176.723 299.91 176.753Z" fill="#211B37"/>
<path d="M299.591 174.521C299.633 174.496 299.665 174.458 299.682 174.412C299.699 174.366 299.7 174.315 299.685 174.269C299.655 174.163 299.568 174.107 299.489 174.141C299.447 174.166 299.415 174.204 299.398 174.25C299.381 174.296 299.38 174.347 299.395 174.393C299.414 174.495 299.5 174.552 299.591 174.521Z" fill="white"/>
<path d="M299.485 173.255C299.485 173.255 298.436 173.443 298.136 173.126C298.136 173.126 298.632 173.741 299.203 173.658L299.485 173.255Z" fill="#211B37"/>
<path d="M309.529 175.987C310.462 175.95 310.548 175.61 310.548 175.61C310.625 175.131 310.652 174.644 310.631 174.159C310.582 172.938 310.029 172.35 309.379 172.38C308.729 172.41 308.229 173.036 308.278 174.265C308.296 174.75 308.365 175.233 308.481 175.705C308.481 175.705 308.612 176.029 309.529 175.987Z" fill="#211B37"/>
<path d="M309.156 173.611C309.182 173.504 309.118 173.395 309.011 173.368C308.904 173.341 308.796 173.406 308.769 173.513C308.742 173.62 308.807 173.729 308.914 173.756C309.021 173.783 309.129 173.718 309.156 173.611Z" fill="white"/>
<path d="M309.661 172.425C309.661 172.425 311.044 172.512 311.405 172.169C311.06 172.548 310.579 172.776 310.067 172.802L309.661 172.425Z" fill="#211B37"/>
<path d="M306.815 170.676L306.556 169.791C306.556 169.791 309.755 169.791 312.052 170.725L312.492 171.317C310.616 170.977 308.72 170.763 306.815 170.676Z" fill="#211B37"/>
<path d="M301.316 171.197L301.451 170.3C300.271 170.396 299.133 170.784 298.14 171.431L298.004 171.906C299.083 171.564 300.192 171.327 301.316 171.197Z" fill="#211B37"/>
<path d="M309.364 182.471C309.364 182.471 306.267 183.315 304.44 183.326C303.276 183.328 302.114 183.245 300.963 183.078C300.639 183.078 302.181 186.534 304.41 186.444C307.838 186.304 309.59 182.463 309.364 182.471Z" fill="white"/>
<path d="M125.582 168.962C126.296 168.992 126.387 168.676 126.387 168.676C126.481 168.202 126.537 167.722 126.556 167.24C126.605 166.022 126.229 165.4 125.733 165.381C125.236 165.362 124.808 165.95 124.759 167.164C124.739 167.646 124.756 168.129 124.812 168.608C124.812 168.608 124.868 168.932 125.582 168.962Z" fill="#211B37"/>
<path d="M125.901 166.731C125.859 166.706 125.827 166.667 125.81 166.621C125.793 166.575 125.792 166.525 125.807 166.478C125.838 166.373 125.924 166.316 126.003 166.35C126.045 166.375 126.077 166.414 126.094 166.46C126.111 166.506 126.112 166.556 126.097 166.603C126.078 166.704 125.992 166.761 125.901 166.731Z" fill="white"/>
<path d="M126.007 165.464C126.007 165.464 127.056 165.653 127.356 165.336C127.356 165.336 126.86 165.95 126.289 165.867L126.007 165.464Z" fill="#211B37"/>
<path d="M115.963 168.197C115.03 168.159 114.944 167.82 114.944 167.82C114.867 167.34 114.84 166.854 114.861 166.369C114.91 165.147 115.463 164.559 116.113 164.589C116.763 164.62 117.263 165.245 117.214 166.474C117.196 166.96 117.128 167.442 117.011 167.914C117.011 167.914 116.88 168.238 115.963 168.197Z" fill="#211B37"/>
<path d="M116.337 165.82C116.31 165.713 116.374 165.605 116.481 165.578C116.588 165.551 116.696 165.616 116.723 165.723C116.75 165.83 116.685 165.938 116.578 165.965C116.472 165.992 116.363 165.927 116.337 165.82Z" fill="white"/>
<path d="M115.831 164.635C115.831 164.635 114.448 164.721 114.087 164.378C114.433 164.758 114.913 164.985 115.425 165.012L115.831 164.635Z" fill="#211B37"/>
<path d="M118.677 162.886L118.936 162C118.936 162 115.737 162 113.44 162.935L113.001 163.527C114.876 163.187 116.773 162.973 118.677 162.886Z" fill="#211B37"/>
<path d="M124.176 163.406L124.041 162.509C125.221 162.605 126.359 162.994 127.352 163.64L127.488 164.115C126.409 163.773 125.3 163.536 124.176 163.406Z" fill="#211B37"/>
<path d="M116.128 174.68C116.128 174.68 119.226 175.525 121.052 175.536C122.216 175.538 123.378 175.455 124.529 175.287C124.853 175.287 123.312 178.744 121.082 178.653C117.654 178.514 115.903 174.673 116.128 174.68Z" fill="white"/>
<path d="M460.766 140C464.843 133.55 467.488 126.277 468.516 118.684C469.545 111.092 468.932 103.363 466.722 96.0355C464.512 88.7077 460.757 81.9566 455.718 76.2516C450.679 70.5466 444.476 66.0246 437.542 63L417.001 111.51L460.766 140Z" fill="#61A4B6"/>
<path d="M434.001 161.205L417.229 111.502L418.966 59.055C418.382 59.0183 417.816 59 417.229 59C403.377 59.0016 390.093 64.5336 380.299 74.3793C370.505 84.225 365.002 97.578 365.001 111.502C365.001 140.483 388.397 164 417.229 164C422.935 164.007 428.603 163.063 434.001 161.205Z" fill="#23416E"/>
<path d="M433.789 161C445.019 157.169 454.618 149.582 461.001 139.492L417.001 111L433.789 161Z" fill="#F1CCD0"/>
<path d="M438.001 63.1833C431.922 60.5996 425.393 59.1796 418.769 59L417.001 111L438.001 63.1833Z" fill="#C8D5D6"/>
<defs>
<linearGradient id="paint0_linear" x1="31.3855" y1="193.628" x2="57" y2="358.5" gradientUnits="userSpaceOnUse">
<stop stop-color="#7ED988"/>
<stop offset="1" stop-color="#0A988A"/>
</linearGradient>
<linearGradient id="paint1_linear" x1="11534.6" y1="79006.7" x2="25680.3" y2="79006.7" gradientUnits="userSpaceOnUse">
<stop stop-color="#81D3E4"/>
<stop offset="1" stop-color="#6076FA"/>
</linearGradient>
<linearGradient id="paint2_linear" x1="9585.75" y1="78573.1" x2="17555.1" y2="78573.1" gradientUnits="userSpaceOnUse">
<stop stop-color="#81D3E4"/>
<stop offset="1" stop-color="#6076FA"/>
</linearGradient>
<linearGradient id="paint3_linear" x1="25.019" y1="384.419" x2="83.8393" y2="384.419" gradientUnits="userSpaceOnUse">
<stop stop-color="#E59148"/>
<stop offset="1" stop-color="#F1CC52"/>
</linearGradient>
<linearGradient id="paint4_linear" x1="220.547" y1="253.81" x2="220.547" y2="310.629" gradientUnits="userSpaceOnUse">
<stop stop-color="#E79D5A"/>
<stop offset="1" stop-color="#F2D05F"/>
</linearGradient>
<linearGradient id="paint5_linear" x1="423193" y1="161066" x2="424809" y2="161066" gradientUnits="userSpaceOnUse">
<stop stop-color="#E79D5A"/>
<stop offset="1" stop-color="#F2D05F"/>
</linearGradient>
<linearGradient id="paint6_linear" x1="63077.9" y1="23994.2" x2="31712.8" y2="23994.2" gradientUnits="userSpaceOnUse">
<stop stop-color="#E79D5A"/>
<stop offset="1" stop-color="#F2D05F"/>
</linearGradient>
<linearGradient id="paint7_linear" x1="14657.8" y1="1996.74" x2="7451.59" y2="1996.74" gradientUnits="userSpaceOnUse">
<stop stop-color="#E79D5A"/>
<stop offset="1" stop-color="#F2D05F"/>
</linearGradient>
<linearGradient id="paint8_linear" x1="14711.1" y1="2129.04" x2="7504.49" y2="2129.04" gradientUnits="userSpaceOnUse">
<stop stop-color="#E79D5A"/>
<stop offset="1" stop-color="#F2D05F"/>
</linearGradient>
<linearGradient id="paint9_linear" x1="14696.9" y1="1996.73" x2="7490.98" y2="1996.73" gradientUnits="userSpaceOnUse">
<stop stop-color="#E79D5A"/>
<stop offset="1" stop-color="#F2D05F"/>
</linearGradient>
<linearGradient id="paint10_linear" x1="7493.55" y1="2288.59" x2="3889.18" y2="2288.59" gradientUnits="userSpaceOnUse">
<stop stop-color="#E79D5A"/>
<stop offset="1" stop-color="#F2D05F"/>
</linearGradient>
<linearGradient id="paint11_linear" x1="7502.32" y1="2342.79" x2="3900.35" y2="2342.79" gradientUnits="userSpaceOnUse">
<stop stop-color="#E79D5A"/>
<stop offset="1" stop-color="#F2D05F"/>
</linearGradient>
<linearGradient id="paint12_linear" x1="7514.03" y1="2129.04" x2="3909.89" y2="2129.04" gradientUnits="userSpaceOnUse">
<stop stop-color="#E79D5A"/>
<stop offset="1" stop-color="#F2D05F"/>
</linearGradient>
<linearGradient id="paint13_linear" x1="7527.69" y1="6026.13" x2="3923.48" y2="6026.13" gradientUnits="userSpaceOnUse">
<stop stop-color="#E79D5A"/>
<stop offset="1" stop-color="#F2D05F"/>
</linearGradient>
<linearGradient id="paint14_linear" x1="7503.17" y1="1996.73" x2="3901.12" y2="1996.73" gradientUnits="userSpaceOnUse">
<stop stop-color="#E79D5A"/>
<stop offset="1" stop-color="#F2D05F"/>
</linearGradient>
<linearGradient id="paint15_linear" x1="14731.4" y1="1863.32" x2="7525.27" y2="1863.32" gradientUnits="userSpaceOnUse">
<stop stop-color="#E79D5A"/>
<stop offset="1" stop-color="#F2D05F"/>
</linearGradient>
<linearGradient id="paint16_linear" x1="28704.4" y1="8525.07" x2="14527.9" y2="8525.07" gradientUnits="userSpaceOnUse">
<stop stop-color="#E79D5A"/>
<stop offset="1" stop-color="#F2D05F"/>
</linearGradient>
<linearGradient id="paint17_linear" x1="7550.8" y1="3429.36" x2="3948.82" y2="3429.36" gradientUnits="userSpaceOnUse">
<stop stop-color="#E79D5A"/>
<stop offset="1" stop-color="#F2D05F"/>
</linearGradient>
<linearGradient id="paint18_linear" x1="14974.8" y1="13004.9" x2="7636.68" y2="13004.9" gradientUnits="userSpaceOnUse">
<stop stop-color="#E79D5A"/>
<stop offset="1" stop-color="#F2D05F"/>
</linearGradient>
<linearGradient id="paint19_linear" x1="49287.5" y1="20634.6" x2="24798.2" y2="20634.6" gradientUnits="userSpaceOnUse">
<stop stop-color="#E79D5A"/>
<stop offset="1" stop-color="#F2D05F"/>
</linearGradient>
<linearGradient id="paint20_linear" x1="14779.1" y1="3562.63" x2="7572.93" y2="3562.63" gradientUnits="userSpaceOnUse">
<stop stop-color="#E79D5A"/>
<stop offset="1" stop-color="#F2D05F"/>
</linearGradient>
<linearGradient id="paint21_linear" x1="7535.54" y1="6815.36" x2="3931.36" y2="6815.36" gradientUnits="userSpaceOnUse">
<stop stop-color="#E79D5A"/>
<stop offset="1" stop-color="#F2D05F"/>
</linearGradient>
<linearGradient id="paint22_linear" x1="23247.1" y1="3562.63" x2="11787.4" y2="3562.63" gradientUnits="userSpaceOnUse">
<stop stop-color="#E79D5A"/>
<stop offset="1" stop-color="#F2D05F"/>
</linearGradient>
<linearGradient id="paint23_linear" x1="7547.86" y1="2382.55" x2="3943.66" y2="2382.55" gradientUnits="userSpaceOnUse">
<stop stop-color="#E79D5A"/>
<stop offset="1" stop-color="#F2D05F"/>
</linearGradient>
<linearGradient id="paint24_linear" x1="7550.8" y1="2250.38" x2="3948.82" y2="2250.38" gradientUnits="userSpaceOnUse">
<stop stop-color="#E79D5A"/>
<stop offset="1" stop-color="#F2D05F"/>
</linearGradient>
<linearGradient id="paint25_linear" x1="15073.5" y1="1983.62" x2="7719.99" y2="1983.62" gradientUnits="userSpaceOnUse">
<stop stop-color="#E79D5A"/>
<stop offset="1" stop-color="#F2D05F"/>
</linearGradient>
<linearGradient id="paint26_linear" x1="14784.6" y1="4542.65" x2="7578.29" y2="4542.65" gradientUnits="userSpaceOnUse">
<stop stop-color="#E79D5A"/>
<stop offset="1" stop-color="#F2D05F"/>
</linearGradient>
<linearGradient id="paint27_linear" x1="7560.23" y1="2532.42" x2="3956.07" y2="2532.42" gradientUnits="userSpaceOnUse">
<stop stop-color="#E79D5A"/>
<stop offset="1" stop-color="#F2D05F"/>
</linearGradient>
<linearGradient id="paint28_linear" x1="7563.1" y1="2665.82" x2="3961.05" y2="2665.82" gradientUnits="userSpaceOnUse">
<stop stop-color="#E79D5A"/>
<stop offset="1" stop-color="#F2D05F"/>
</linearGradient>
<linearGradient id="paint29_linear" x1="14784.6" y1="11199.3" x2="7578.29" y2="11199.3" gradientUnits="userSpaceOnUse">
<stop stop-color="#E79D5A"/>
<stop offset="1" stop-color="#F2D05F"/>
</linearGradient>
<linearGradient id="paint30_linear" x1="16032.4" y1="3297.73" x2="8176.86" y2="3297.73" gradientUnits="userSpaceOnUse">
<stop stop-color="#E79D5A"/>
<stop offset="1" stop-color="#F2D05F"/>
</linearGradient>
<linearGradient id="paint31_linear" x1="15022.8" y1="7816.59" x2="7657.14" y2="7816.59" gradientUnits="userSpaceOnUse">
<stop stop-color="#E79D5A"/>
<stop offset="1" stop-color="#F2D05F"/>
</linearGradient>
<linearGradient id="paint32_linear" x1="21829.5" y1="9176.72" x2="11050.7" y2="9176.72" gradientUnits="userSpaceOnUse">
<stop stop-color="#E79D5A"/>
<stop offset="1" stop-color="#F2D05F"/>
</linearGradient>
<linearGradient id="paint33_linear" x1="21829.5" y1="3879.73" x2="11050.7" y2="3879.73" gradientUnits="userSpaceOnUse">
<stop stop-color="#E79D5A"/>
<stop offset="1" stop-color="#F2D05F"/>
</linearGradient>
<linearGradient id="paint34_linear" x1="21923.9" y1="3879.73" x2="11144.9" y2="3879.73" gradientUnits="userSpaceOnUse">
<stop stop-color="#E79D5A"/>
<stop offset="1" stop-color="#F2D05F"/>
</linearGradient>
<linearGradient id="paint35_linear" x1="304427" y1="-115747" x2="304427" y2="-117367" gradientUnits="userSpaceOnUse">
<stop stop-color="#E79D5A"/>
<stop offset="1" stop-color="#F2D05F"/>
</linearGradient>
<linearGradient id="paint36_linear" x1="20636.3" y1="8138.77" x2="19020.4" y2="8138.77" gradientUnits="userSpaceOnUse">
<stop stop-color="#E79D5A"/>
<stop offset="1" stop-color="#F2D05F"/>
</linearGradient>
<linearGradient id="paint37_linear" x1="137273" y1="14620.5" x2="90723.2" y2="14620.5" gradientUnits="userSpaceOnUse">
<stop stop-color="#E79D5A"/>
<stop offset="1" stop-color="#F2D05F"/>
</linearGradient>
<linearGradient id="paint38_linear" x1="64179.5" y1="25240.2" x2="11257" y2="25240.2" gradientUnits="userSpaceOnUse">
<stop stop-color="#E79D5A"/>
<stop offset="1" stop-color="#F2D05F"/>
</linearGradient>
<linearGradient id="paint39_linear" x1="25.0188" y1="384.419" x2="83.8391" y2="384.419" gradientUnits="userSpaceOnUse">
<stop stop-color="#B37239"/>
<stop offset="1" stop-color="#F1CC52"/>
</linearGradient>
</defs>
</svg>
