<svg width="98" height="75" viewBox="0 0 98 75" fill="none" xmlns="http://www.w3.org/2000/svg">
<path d="M54.9912 74.9772C103.494 66.0723 60.6384 38.4672 57.1565 7.979C80.7585 41.9021 105.66 65.6483 95.6992 72.4329C91.3292 75.4095 86.1891 74.9772 70.1658 74.9772C61.6919 75.0046 60.9463 74.9772 54.9912 74.9772Z" fill="url(#paint0_linear)"/>
<path d="M36.0877 71.2239C10.7514 68.698 27.1894 45.1411 36.0877 33.7563C20.0406 36.7032 11.7817 44.3068 4.20682 54.1741C-3.6886 64.4589 0.194246 74.1708 10.3291 74.8022C20.464 75.4337 30.1 74.6284 36.0877 71.2239Z" fill="url(#paint1_linear)"/>
<path d="M34.3696 74.9991C83.5918 66.0688 69.7657 33.4942 57.8996 7.979C82.9502 49.4411 91.7222 70.9592 70.627 74.9761C62.7163 74.9761 45.137 74.9991 34.3696 74.9991Z" fill="url(#paint2_linear)"/>
<path d="M18.9033 74.9991C67.9394 66.1194 69.5607 31.658 58.3073 7.979C81.5294 50.2204 66.8624 69.0368 52.3967 74.9763C44.5159 74.9763 29.63 74.9991 18.9033 74.9991Z" fill="url(#paint3_linear)"/>
<path d="M63.1471 36.6168C33.0838 24.6087 11.4941 43.9619 4.81492 54.1068C3.94992 54.9015 26.3204 23.7018 30.738 17.4805C39.0187 5.81891 43.0984 0.86517 48.6388 0.865137C59.7201 0.865137 65.0492 23.5432 63.1471 36.6168Z" fill="url(#paint4_linear)"/>
<defs>
<linearGradient id="paint0_linear" x1="76.6617" y1="7.93635" x2="72.9244" y2="75.3674" gradientUnits="userSpaceOnUse">
<stop stop-color="#E2382C"/>
<stop offset="0.404449" stop-color="#F7DB44"/>
<stop offset="0.591247" stop-color="#FBFF49"/>
<stop offset="0.781933" stop-color="#FCE033"/>
<stop offset="1" stop-color="#FF9900"/>
</linearGradient>
<linearGradient id="paint1_linear" x1="27.2356" y1="32.4511" x2="27.0258" y2="75.1809" gradientUnits="userSpaceOnUse">
<stop stop-color="#303492"/>
<stop offset="0.9999" stop-color="#33A7DF"/>
<stop offset="1" stop-color="#C4C4C4" stop-opacity="0"/>
</linearGradient>
<linearGradient id="paint2_linear" x1="73.5013" y1="32.431" x2="58.9985" y2="75.2541" gradientUnits="userSpaceOnUse">
<stop stop-color="#BEFFEE"/>
<stop offset="0.515625" stop-color="#23D2DD"/>
<stop offset="1" stop-color="#274A76"/>
</linearGradient>
<linearGradient id="paint3_linear" x1="59.8572" y1="32.4612" x2="46.5888" y2="75.268" gradientUnits="userSpaceOnUse">
<stop stop-color="#AFE02E"/>
<stop offset="1" stop-color="#11623B"/>
</linearGradient>
<linearGradient id="paint4_linear" x1="59.9506" y1="13.6018" x2="13.7074" y2="43.8623" gradientUnits="userSpaceOnUse">
<stop stop-color="#2F3590"/>
<stop offset="0.181863" stop-color="#347CBF"/>
<stop offset="0.375389" stop-color="#3598D1"/>
<stop offset="0.701814" stop-color="#37B0E1"/>
</linearGradient>
</defs>
</svg>
