<svg width="662" height="549" viewBox="0 0 662 549" fill="none" xmlns="http://www.w3.org/2000/svg">
<path d="M500.593 39.4197C486.37 33.6702 431.537 11.5175 367.427 29.4675C353.792 33.2857 289.687 51.2357 267.686 100.644C238.576 166.018 314.28 216.623 296.449 287.403C281.116 348.265 189.373 333.901 163.578 399.142C150.11 433.199 156.027 478.24 178.99 504.104C250.66 584.824 563.448 563.285 642.564 385.419C700.162 255.948 615.218 85.7329 500.593 39.4197Z" fill="#FAF9FF"/>
<path opacity="0.33" d="M490.984 456.094C581.882 393.686 631.486 307.48 623.679 225.491C618.015 166.017 582.111 106.317 525.173 61.6971C471.164 19.3747 405.637 -3.52379 349.883 0.442152C292.785 4.50777 256.821 27.3012 236.706 45.7087C202.207 77.2742 184.874 112.144 187.886 143.907C191.109 177.906 215.362 196.847 241.045 216.901C264.093 234.901 287.924 253.515 296.376 284.265C303.929 311.74 287.639 331.648 270.392 352.725C252.945 374.045 234.906 396.089 239.326 428.002C244.002 461.755 270.139 496 300.131 507.675C310.487 511.703 322.629 513.65 336.045 513.65C379.887 513.65 437.406 492.877 490.984 456.094ZM349.995 1.82703C405.365 -2.11755 470.495 20.6652 524.22 62.7615C580.86 107.147 616.573 166.504 622.202 225.614C629.964 307.115 580.581 392.857 490.106 454.98C420.53 502.749 344.401 523.414 300.686 506.397C271.151 494.905 245.401 461.127 240.789 427.827C236.446 396.484 254.302 374.67 271.562 353.573C289.035 332.218 305.538 312.043 297.806 283.918C289.234 252.735 265.214 233.977 241.979 215.836C216.555 195.973 192.524 177.21 189.352 143.786C186.38 112.457 203.561 77.972 237.731 46.702C257.678 28.4565 293.339 5.86061 349.993 1.82703L349.938 1.13459L349.995 1.82703Z" fill="#CAD0EC"/>
<path d="M254.668 157.261C295.225 143.099 316.637 98.7014 302.501 58.0968L341.281 44.556C362.892 106.603 330.173 174.446 268.199 196.092C250.112 202.431 230.759 204.277 211.802 201.472L217.766 160.784C230.17 162.619 242.833 161.41 254.668 157.261Z" fill="#A13579"/>
<path d="M71.9859 172.365L112.503 179.102C111.846 183.205 111.516 187.353 111.516 191.507C111.516 234.511 146.337 269.374 189.29 269.374C219.249 269.374 245.248 252.41 258.239 227.555L294.647 246.589C274.799 284.568 235.071 310.493 189.29 310.493C123.656 310.493 70.4479 257.223 70.4479 191.509C70.448 185.097 70.9623 178.695 71.9859 172.365Z" fill="#23416E"/>
<path d="M78.5732 224.587C74.9015 212.804 73.0395 200.532 73.051 188.19" stroke="#D6DAE3" stroke-width="4.1" stroke-miterlimit="10" stroke-linecap="round"/>
<path d="M91.0078 255.449C89.9517 253.815 88.9347 252.154 87.9568 250.465" stroke="#D6DAE3" stroke-width="4.1" stroke-miterlimit="10" stroke-linecap="round"/>
<path d="M175.91 312.22C158.629 310.417 141.939 304.907 126.976 296.066" stroke="#D6DAE3" stroke-width="4.1" stroke-miterlimit="10" stroke-linecap="round"/>
<path style="mix-blend-mode:multiply" opacity="0.2" d="M83.8492 440.758C75.7022 440.758 69.0978 440.099 69.0978 439.286C69.0978 438.473 75.7022 437.813 83.8492 437.813C91.9962 437.813 98.6006 438.473 98.6006 439.286C98.6006 440.099 91.9962 440.758 83.8492 440.758Z" fill="url(#paint0_linear)"/>
<path d="M112.501 179.1L71.984 172.363C77.5205 138.102 97.6644 108.744 125.82 90.9028L147.752 125.672C129.294 137.366 116.096 156.627 112.501 179.1Z" fill="#FFC895"/>
<path d="M303.079 84.9088C302.938 76.5044 301.599 68.1633 299.104 60.1377" stroke="#EAC8D4" stroke-width="4.1" stroke-miterlimit="10" stroke-linecap="round"/>
<path d="M348.471 65.6113C351.45 87.7342 348.859 110.252 340.934 131.117" stroke="#EAC8D4" stroke-width="4.1" stroke-miterlimit="10" stroke-linecap="round"/>
<path d="M147.752 125.672L125.82 90.906C144.804 78.8673 166.82 72.4922 189.292 72.527V113.646C174.585 113.622 160.176 117.794 147.752 125.672Z" fill="#B4C4E5"/>
<path style="mix-blend-mode:multiply" opacity="0.2" d="M314.283 435.537C279.088 435.537 250.557 433.277 250.557 430.489C250.557 427.701 279.088 425.441 314.283 425.441C349.478 425.441 378.009 427.701 378.009 430.489C378.009 433.277 349.478 435.537 314.283 435.537Z" fill="url(#paint1_linear)"/>
<path d="M283.86 283.224H344.5C345.386 283.221 346.236 282.867 346.863 282.239C347.489 281.612 347.843 280.761 347.846 279.873C347.843 278.986 347.489 278.135 346.863 277.508C346.236 276.88 345.386 276.526 344.5 276.523H283.86C282.973 276.526 282.124 276.88 281.497 277.508C280.87 278.135 280.517 278.986 280.514 279.873C280.517 280.761 280.87 281.612 281.497 282.239C282.124 282.867 282.973 283.221 283.86 283.224Z" fill="#1F3248"/>
<path d="M364.646 431.609C364.715 431.61 364.784 431.606 364.852 431.597C365.071 431.57 365.283 431.501 365.475 431.392C365.667 431.283 365.836 431.138 365.972 430.964C366.108 430.789 366.208 430.59 366.267 430.377C366.326 430.164 366.343 429.942 366.315 429.722L347.825 279.665C347.771 279.222 347.543 278.819 347.191 278.544C346.84 278.27 346.394 278.146 345.952 278.201C345.51 278.255 345.107 278.483 344.833 278.835C344.559 279.187 344.435 279.633 344.49 280.076L362.98 430.134C363.03 430.541 363.227 430.915 363.534 431.187C363.841 431.459 364.236 431.609 364.646 431.609Z" fill="#1F3248"/>
<path d="M263.711 431.61C264.121 431.609 264.517 431.459 264.824 431.187C265.131 430.915 265.328 430.54 265.377 430.132L283.868 280.074C283.922 279.632 283.799 279.185 283.525 278.834C283.25 278.482 282.848 278.254 282.405 278.199C281.963 278.145 281.517 278.268 281.166 278.543C280.815 278.817 280.587 279.22 280.532 279.663L262.042 429.721C262.015 429.94 262.031 430.163 262.09 430.376C262.149 430.589 262.249 430.788 262.385 430.962C262.521 431.136 262.69 431.282 262.882 431.39C263.074 431.499 263.286 431.569 263.505 431.595C263.574 431.605 263.642 431.61 263.711 431.61Z" fill="#1F3248"/>
<path d="M275.425 338.21H353.141C353.587 338.21 354.015 338.033 354.33 337.717C354.645 337.401 354.822 336.973 354.822 336.527C354.822 336.08 354.645 335.652 354.33 335.337C354.015 335.021 353.587 334.844 353.141 334.844H275.426C274.981 334.844 274.553 335.021 274.238 335.337C273.923 335.652 273.745 336.08 273.745 336.527C273.745 336.973 273.923 337.401 274.238 337.717C274.553 338.033 274.981 338.21 275.426 338.21H275.425Z" fill="#1F3248"/>
<path d="M268.835 388.791H359.375C359.821 388.791 360.249 388.614 360.564 388.298C360.879 387.983 361.056 387.555 361.056 387.108C361.056 386.662 360.879 386.234 360.564 385.918C360.249 385.603 359.821 385.425 359.375 385.425H268.836C268.39 385.425 267.963 385.603 267.648 385.918C267.332 386.234 267.155 386.662 267.155 387.108C267.155 387.555 267.332 387.983 267.648 388.298C267.963 388.614 268.39 388.791 268.836 388.791H268.835Z" fill="#1F3248"/>
<path d="M237.714 252.422C234.091 253.821 231.508 257.717 230.809 257.623C230.702 257.591 229.876 257.383 229.239 257.223C229.396 259.656 229.627 262.091 229.643 264.521C230.432 264.444 231.207 264.368 231.966 264.291C233.134 264.556 233.894 265.616 235.833 265.471C236.287 265.439 236.76 265.416 237.241 265.395C238.063 263.818 238.376 262.013 238.504 260.263C238.706 257.45 238.36 255.015 237.714 252.422Z" fill="#E9C2B0"/>
<path d="M237.715 252.422C234.091 253.821 231.508 257.717 230.809 257.623C230.664 257.579 229.172 257.207 228.66 257.078V264.619C229.787 264.514 230.895 264.403 231.965 264.295C233.133 264.56 233.892 265.619 235.832 265.475C236.285 265.443 236.758 265.42 237.24 265.398C238.062 263.821 238.374 262.016 238.502 260.267C238.707 257.45 238.36 255.015 237.715 252.422Z" fill="#E9C2B0"/>
<path d="M199.494 258.501C195.152 258.958 200.226 265.954 201.272 270.176C202.294 274.286 219.051 266.999 230.662 265.877C230.648 263.444 230.805 258.191 230.648 255.758C230.237 255.654 199.494 258.501 199.494 258.501Z" fill="#B9BEC7"/>
<g style="mix-blend-mode:multiply">
<path d="M199.493 258.501C195.15 258.958 200.226 265.954 201.271 270.176C201.839 272.458 207.261 271.225 213.955 269.485C212.888 265.32 211.048 261.012 210.677 257.474C204.61 258.027 199.493 258.501 199.493 258.501Z" fill="#E6E8ED"/>
</g>
<path d="M182.347 421.446C182.253 421.857 182.114 422.256 181.931 422.635C180.921 424.686 178.962 426.144 176.942 427.214C174.359 428.604 171.574 429.577 168.687 430.097C166.554 430.484 161.384 432.653 161.026 432.922C160.344 433.428 159.453 433.428 158.621 433.428C155.385 433.397 152.86 433.189 153.127 429.355C153.307 426.943 153.931 424.584 154.967 422.399C155.211 421.886 155.52 421.407 155.888 420.975C156.573 420.208 157.349 419.529 158.199 418.952C159.977 417.614 162.237 415.57 164.643 416.104C165.919 416.371 166.573 416.907 167.967 416.816C169.559 416.702 171.138 416.453 172.688 416.072C174.11 415.745 175.479 415.328 176.933 415.211C178.356 415.122 179.872 415.419 181.001 416.341C181.269 416.58 181.508 416.849 181.712 417.144C182.553 418.354 182.733 419.988 182.347 421.446Z" fill="#171716"/>
<path d="M208.091 426.365C208.125 427.373 207.911 428.374 207.467 429.279C206.606 431.004 205.121 432.282 203.457 433.322C203.13 433.5 202.833 433.678 202.508 433.856C199.927 435.243 197.14 436.205 194.253 436.704C192.12 437.09 186.919 439.29 186.564 439.552C185.911 440.057 185.02 440.057 184.188 440.057C180.952 440.027 178.428 439.79 178.666 435.963C178.814 433.649 179.527 431.118 180.506 429.007C181.011 427.907 181.872 427.049 182.817 426.301C183.121 426.037 183.438 425.789 183.767 425.557C185.545 424.219 187.805 422.198 190.21 422.709C191.487 423.006 192.111 423.542 193.506 423.453C195.111 423.346 196.701 423.087 198.257 422.681C199.653 422.353 201.048 421.937 202.474 421.848C203.929 421.759 205.443 422.026 206.542 422.948C206.827 423.178 207.077 423.448 207.285 423.751C207.356 423.853 207.415 423.963 207.463 424.078C207.854 424.779 208.069 425.563 208.091 426.365Z" fill="#171716"/>
<path d="M208.217 431.119C205.216 433.869 201.472 435.089 197.338 435.012C192.776 434.932 188.434 433.387 184.084 432.164C182.375 431.689 180.706 431.158 178.912 431.149C177.118 431.14 175.338 431.561 173.578 431.897C169.402 432.7 165.641 432.394 162.126 429.855C159.447 427.924 157.209 425.453 154.481 423.582C153.161 422.691 151.657 422.109 150.081 421.881C149.352 418.993 149.203 409.039 149.233 401.102C149.245 395.461 149.347 390.838 149.386 390.49C149.699 387.43 150.259 381.808 151.192 374.04C153.185 357.333 154.377 324.672 161.079 292.169C163.335 281.238 159.6 259.687 158.293 250.468C158.125 249.424 158.05 248.367 158.069 247.31C158.348 241.375 161.767 235.458 174.652 237.11L192.696 242.069C194.778 243.237 199.986 243.97 204.194 246.144C204.411 246.254 204.622 246.368 204.834 246.487C207.463 247.981 205.223 250.614 205.758 253.873C205.758 253.873 204.158 279.477 204.029 288.74C203.927 296.003 206.423 327.955 206.31 328.019C205.902 338.457 211.003 396.85 208.217 431.119Z" fill="#EEEFF0"/>
<g style="mix-blend-mode:multiply">
<path d="M208.218 431.119C205.216 433.869 201.472 435.088 197.338 435.012C192.776 434.932 188.435 433.387 184.084 432.164C182.375 431.689 180.706 431.158 178.912 431.149C177.118 431.14 175.338 431.56 173.578 431.897C169.402 432.7 165.642 432.393 162.127 429.855C159.447 427.924 157.209 425.453 154.482 423.582C153.162 422.69 151.657 422.109 150.081 421.881C149.352 418.993 149.203 409.039 149.233 401.102C150.179 402.996 150.833 405.155 151.297 407.142C157.5 385.005 158.754 361.832 159.975 338.875C166.453 358.841 167.533 380.169 163.106 400.689C162.08 405.422 160.754 410.269 161.615 415.033C162.475 419.796 166.33 424.456 171.162 424.312C177.687 424.116 180.923 415.946 180.265 409.447C179.607 402.948 176.784 396.486 178.103 390.085C182.559 391.673 184.441 397.072 184.326 401.805C184.21 406.538 182.726 411.195 182.994 415.919C183.263 420.643 186.136 425.83 190.838 426.327C194.231 426.683 197.477 424.387 199.195 421.437C200.912 418.488 201.39 414.985 201.671 411.581C202.583 400.435 201.744 389.224 200.9 378.072L197.477 332.698C196.929 325.423 196.145 317.568 191.288 312.141C187.336 307.717 181.41 305.733 175.762 303.935C183.529 303.401 190.559 297.206 192.054 289.557C193.55 281.908 189.388 273.507 182.388 270.085C186.338 271.219 190.294 267.857 191.989 264.101C193.683 260.345 194.003 256.091 195.694 252.335C197.225 248.93 200.608 245.848 204.173 246.142C204.39 246.252 204.601 246.366 204.813 246.486C207.442 247.979 205.202 250.612 205.737 253.871C205.737 253.871 204.137 279.475 204.007 288.738C203.906 296.001 206.402 327.953 206.288 328.017C205.903 338.457 211.004 396.85 208.218 431.119Z" fill="#E6E8ED"/>
</g>
<g style="mix-blend-mode:multiply">
<path d="M167.802 257.511C170.177 259.227 172.615 260.975 175.429 261.792C178.546 262.696 181.938 262.376 184.987 261.258C188.036 260.14 190.762 258.273 193.187 256.114C195.698 253.88 197.987 251.188 198.816 247.925C199.01 247.16 199.12 246.35 198.919 245.586C198.718 244.823 198.155 244.118 197.388 243.936C196.622 243.755 195.806 244.125 195.237 244.673C194.668 245.221 194.282 245.93 193.864 246.603C191.419 250.498 187.645 253.373 183.243 254.695C179.915 255.681 176.231 255.701 173.045 254.323C171.361 253.595 169.845 252.5 168.161 251.786C167.13 251.352 160.788 249.262 161.243 251.786C161.421 252.788 163.473 254.164 164.218 254.789C165.368 255.752 166.586 256.633 167.802 257.511Z" fill="#E6E8ED"/>
</g>
<path d="M176.58 237.032C176.567 241.19 183.851 242.305 189.406 242.876C189.417 242.877 189.428 242.88 189.438 242.885C190.117 242.277 190.718 241.587 191.228 240.831L191.381 232.465L176.759 231.187L176.469 236.897C176.496 236.94 176.58 236.997 176.58 237.032Z" fill="#BD825A"/>
<path d="M197.715 205.146C197.087 208.848 197.487 212.636 197.679 216.385C197.871 220.134 197.839 224.009 196.417 227.485C194.995 230.962 191.898 233.975 188.159 234.283C187.27 234.356 186.338 234.269 185.541 233.86C183.972 233.051 178.271 234.064 177.694 232.395C176.216 228.122 179.71 220.798 180.462 216.346C181.111 212.504 183.417 209.083 186.329 206.502C188.801 204.318 191.701 202.675 194.844 201.676L197.715 205.146Z" fill="#BD825A"/>
<path d="M196.079 228.24C196.004 228.17 193.234 229.745 192.205 230.342C191.94 230.495 191.762 230.596 191.759 230.918C191.763 231.073 191.79 231.227 191.837 231.374C191.803 231.434 191.783 231.5 191.779 231.568C191.775 231.637 191.786 231.705 191.813 231.768C191.839 231.832 191.879 231.888 191.931 231.933C191.982 231.978 192.043 232.011 192.109 232.029C192.143 232.09 192.179 232.15 192.219 232.207C192.252 232.254 192.296 232.292 192.347 232.316C192.399 232.34 192.456 232.35 192.513 232.344C193.265 232.205 193.974 231.454 194.418 230.865C194.692 230.509 195.702 229.085 195.818 228.745C195.839 228.677 196.083 228.234 196.079 228.24Z" fill="#0D0D0D"/>
<path d="M200.647 244.828C199.468 244.342 198.654 244.146 198.048 244.32C197.628 244.447 197.301 244.749 197.013 245.26C196.718 245.787 196.523 246.364 196.437 246.962C195.877 247.977 195.548 249.224 195.135 250.146C194.424 251.722 193.445 252.701 192.239 253.37C192.051 253.475 191.859 253.566 191.661 253.655C191.439 254.643 190.788 255.497 189.581 256.104C189.377 256.205 189.167 256.293 188.952 256.368C187.864 256.743 186.689 256.83 185.648 257.379C184.447 258.012 183.433 258.936 182.306 259.68C182.144 259.789 181.979 259.89 181.812 259.992C179.828 261.165 177.525 261.681 175.28 260.85C173.562 260.216 172.705 258.764 171.724 257.434C171.148 256.642 170.527 255.894 169.661 255.387C168.947 254.989 168.186 254.683 167.394 254.477C167.074 254.439 166.752 254.423 166.429 254.429C166.241 254.306 166.045 254.185 165.857 254.063C164.856 253.783 163.881 253.45 163.021 252.816C162.783 252.644 162.559 252.452 162.352 252.243C161.976 251.858 161.64 251.436 161.348 250.983C159.001 248.795 158.665 246.118 159.561 242.147C160.016 240.121 163.599 226.753 164.361 220.348C164.697 217.536 164.811 214.631 165.323 211.854C165.485 210.977 165.696 210.109 165.956 209.255C166.255 208.275 166.649 207.326 167.131 206.421C168.852 203.228 171.798 200.818 175.048 199.212C180.45 196.542 187.156 196.062 192.408 199.011C194.6 200.266 196.409 202.097 197.639 204.305C198.247 205.38 198.707 206.533 199.006 207.732C199.094 208.069 199.164 208.406 199.216 208.743C199.701 209.811 200.076 210.93 200.037 212.093C199.989 213.728 198.823 215.452 197.192 215.517H197.148C196.572 215.806 196.259 216.099 195.751 216.667C195.463 217.027 195.11 217.329 194.711 217.557C194.156 217.855 193.605 217.824 193.023 217.995C191.638 218.394 191.096 219.61 190.611 220.874C190.417 221.459 190.268 222.058 190.164 222.666C190.317 228.476 194.149 232.321 196.145 235.221C198.179 238.183 200.206 241.266 200.647 244.828Z" fill="#DEE0E4"/>
<path d="M199.006 207.733C198.736 208.008 198.473 208.267 198.224 208.498C195.361 211.179 191.898 212.733 188.13 213.699C180.507 215.657 172.003 216.638 165.332 211.844C165.494 210.967 165.705 210.099 165.965 209.246L166.022 209.29C172.017 214.027 180.48 212.316 187.264 210.563C190.481 209.737 193.469 208.494 195.912 206.187C196.537 205.6 197.117 204.967 197.648 204.293C198.254 205.373 198.711 206.53 199.006 207.733Z" fill="#0D0D0D"/>
<g style="mix-blend-mode:multiply">
<path d="M198.048 244.319C197.629 244.445 197.302 244.748 197.014 245.259C196.719 245.786 196.523 246.363 196.438 246.96C195.877 247.975 195.549 249.223 195.136 250.145C194.425 251.72 193.445 252.699 192.24 253.369C192.974 252.231 193.28 250.791 193.367 249.413C193.595 245.675 192.507 241.976 191.161 238.482C189.815 234.988 188.186 231.583 187.249 227.957C186.312 224.331 186.113 220.367 187.605 216.92C186.373 225.643 189.265 234.838 195.25 241.279C196.187 242.295 197.197 243.244 198.048 244.319Z" fill="#E6E8ED"/>
</g>
<g style="mix-blend-mode:multiply">
<path d="M171.73 257.431C171.154 256.639 170.534 255.891 169.668 255.384C168.954 254.986 168.192 254.68 167.401 254.474C167.081 254.436 166.758 254.42 166.436 254.426C166.247 254.303 166.052 254.182 165.863 254.059C164.862 253.78 163.888 253.447 163.027 252.813C163.352 252.8 163.673 252.74 163.98 252.635C165.077 252.279 165.964 251.444 166.663 250.522C168.797 247.71 169.382 244.022 169.52 240.492C169.659 236.962 169.428 233.384 170.201 229.936C170.8 227.266 171.979 224.774 173.16 222.303C169.384 233.643 168.888 245.821 171.73 257.431Z" fill="#E6E8ED"/>
</g>
<g style="mix-blend-mode:multiply">
<path d="M188.95 256.368C187.862 256.743 186.687 256.83 185.647 257.379C184.445 258.012 183.432 258.936 182.304 259.68C182.143 259.789 181.977 259.89 181.81 259.992C182.159 259.192 182.434 258.362 182.631 257.512C183.06 255.57 182.941 253.557 182.859 251.572C182.583 245.02 182.799 238.168 185.83 232.348C184.367 236.43 183.902 240.804 184.475 245.103C185.029 249.167 186.565 253.033 188.95 256.368Z" fill="#E6E8ED"/>
</g>
<path d="M209.108 296.19C204.526 297.247 200.009 294.554 198.567 290.159V290.095C198.503 289.871 198.439 289.614 198.375 289.358L196.005 278.452C194.883 268.316 193.409 257.826 198.825 249.102C199.711 247.72 201.103 246.741 202.702 246.375C203.788 246.178 204.903 246.222 205.97 246.504C207.162 247.7 207.984 249.215 208.34 250.866L213.37 278.324L213.916 281.275L214.844 286.375C215.932 291.25 213.94 295.067 209.108 296.19Z" fill="#F7F7F7"/>
<path d="M247.12 256.392C246.976 255.285 244.162 255.68 243.458 255.827C241.913 256.121 240.371 256.431 238.818 256.732C240.638 256.336 242.425 255.8 244.164 255.13C244.566 254.984 245.351 254.706 245.239 254.151C245.037 253.045 240.464 254.176 239.55 254.386C238.992 254.501 238.441 254.626 237.886 254.742C237.29 255.349 237.015 255.948 236.965 257.056C236.911 258.389 237.139 259.718 237.632 260.958C237.962 261.8 238.506 262.586 239.031 263.377C240.987 262.807 242.276 262.401 244.349 261.821C244.717 261.71 245.104 261.588 245.337 261.274C246.199 260.174 241.47 260.842 239.963 260.562C241.902 260.376 243.822 260.022 245.702 259.505C246.146 259.384 247.024 259.001 246.724 258.325C246.479 257.757 245.598 257.775 245.154 257.826L242.288 258.099C243.777 257.92 245.242 257.578 246.656 257.077C246.799 257.031 246.923 256.939 247.007 256.815C247.091 256.691 247.131 256.542 247.12 256.392Z" fill="#E9C2B0"/>
<path d="M238.702 262.097L238.89 261.983C238.893 262.057 238.877 262.131 238.842 262.197C238.807 262.263 238.756 262.319 238.693 262.359L238.515 262.472C238.577 262.432 238.627 262.376 238.66 262.31C238.693 262.244 238.708 262.171 238.704 262.097H238.702Z" fill="#154902"/>
<path d="M239.12 266.541C239.004 266.468 238.901 266.518 238.894 266.66L238.86 267.581C238.861 267.657 238.88 267.732 238.916 267.799C238.951 267.867 239.003 267.925 239.065 267.969L239.851 268.46C239.972 268.535 240.073 268.487 240.08 268.344L240.114 267.422C240.112 267.345 240.092 267.27 240.056 267.202C240.019 267.134 239.967 267.076 239.904 267.032L239.12 266.541Z" fill="#9CB5CC"/>
<path d="M239.066 250.86L239.057 251.088L241.106 252.368L241.113 252.14L239.066 250.86Z" fill="#9CB5CC"/>
<path d="M236.651 249.764C236.418 249.62 236.224 249.721 236.213 249.993L235.696 263.748C235.699 263.896 235.736 264.041 235.806 264.172C235.875 264.303 235.975 264.416 236.096 264.501L242.928 268.773C243.16 268.917 243.355 268.81 243.364 268.543L243.881 254.789C243.879 254.64 243.842 254.495 243.772 254.364C243.703 254.233 243.603 254.12 243.481 254.036L236.651 249.764Z" fill="#283033"/>
<path d="M236.9 248.703C236.353 248.362 235.889 248.611 235.865 249.248L235.275 264.936C235.282 265.286 235.372 265.63 235.537 265.939C235.701 266.248 235.936 266.514 236.223 266.716L242.659 270.742C243.201 271.082 243.671 270.84 243.695 270.197L244.286 254.51C244.277 254.16 244.188 253.816 244.023 253.507C243.858 253.198 243.624 252.932 243.338 252.73L236.9 248.703ZM235.913 263.533L236.404 250.492C236.415 250.234 236.598 250.136 236.818 250.275L243.297 254.328C243.412 254.409 243.507 254.515 243.573 254.639C243.639 254.762 243.675 254.9 243.678 255.04L243.187 268.081C243.178 268.334 242.993 268.437 242.773 268.3L236.294 264.247C236.179 264.166 236.085 264.06 236.019 263.936C235.954 263.812 235.918 263.675 235.915 263.535L235.913 263.533ZM238.859 267.581L238.893 266.66C238.893 266.518 239.002 266.468 239.119 266.541L239.903 267.032C239.966 267.076 240.018 267.134 240.055 267.202C240.091 267.27 240.111 267.345 240.113 267.422L240.079 268.344C240.079 268.487 239.971 268.535 239.85 268.46L239.064 267.969C239.002 267.925 238.951 267.867 238.915 267.799C238.88 267.732 238.86 267.657 238.859 267.581ZM241.112 252.141V252.368L239.064 251.087L239.073 250.859L241.119 252.139L241.112 252.141Z" fill="#F8F9FC"/>
<path d="M237.176 248.079C237.304 248.015 237.452 248.001 237.59 248.04C237.697 248.068 237.798 248.113 237.891 248.173L244.327 252.2C244.51 252.319 244.67 252.469 244.8 252.645C245.1 253.027 245.267 253.497 245.274 253.983L244.684 269.671C244.692 269.796 244.666 269.92 244.61 270.032C244.554 270.144 244.47 270.239 244.366 270.308L243.374 270.842C243.478 270.773 243.563 270.678 243.619 270.565C243.675 270.453 243.7 270.328 243.692 270.203L244.282 254.516C244.274 254.029 244.107 253.559 243.806 253.177C243.676 253.002 243.517 252.851 243.335 252.732L236.897 248.706C236.804 248.647 236.703 248.602 236.596 248.574C236.458 248.534 236.309 248.547 236.18 248.611L237.176 248.079Z" fill="#D7E7F7"/>
<path d="M236.463 254.315C236.461 254.294 236.465 254.273 236.476 254.254C236.486 254.235 236.501 254.219 236.52 254.209C236.539 254.199 236.56 254.194 236.582 254.196C236.603 254.198 236.624 254.206 236.64 254.219L239.807 256.199L242.974 258.18C243.024 258.216 243.065 258.262 243.094 258.317C243.123 258.371 243.139 258.432 243.141 258.493L242.933 264.488C242.935 264.51 242.931 264.532 242.921 264.551C242.911 264.571 242.896 264.587 242.876 264.597C242.857 264.608 242.835 264.612 242.814 264.61C242.792 264.607 242.771 264.599 242.755 264.584L239.588 262.605L236.422 260.624C236.372 260.588 236.33 260.541 236.301 260.486C236.272 260.431 236.256 260.371 236.255 260.309L236.463 254.315Z" fill="#83CFF2"/>
<path d="M236.57 251.263C236.568 251.242 236.572 251.22 236.582 251.201C236.592 251.181 236.608 251.166 236.627 251.155C236.646 251.145 236.667 251.14 236.689 251.142C236.71 251.144 236.731 251.152 236.748 251.165L239.914 253.146L243.081 255.126C243.131 255.162 243.172 255.208 243.201 255.263C243.23 255.317 243.246 255.377 243.248 255.439L243.177 257.497C243.18 257.519 243.176 257.541 243.167 257.561C243.157 257.58 243.141 257.597 243.122 257.607C243.103 257.618 243.08 257.622 243.058 257.62C243.037 257.618 243.016 257.609 242.999 257.595L239.833 255.614L236.666 253.632C236.616 253.596 236.575 253.549 236.546 253.494C236.517 253.44 236.501 253.379 236.499 253.317L236.57 251.263Z" fill="#F8F9FC"/>
<path d="M236.223 261.22C236.222 261.199 236.226 261.177 236.236 261.158C236.247 261.14 236.262 261.124 236.281 261.114C236.3 261.104 236.321 261.099 236.343 261.101C236.364 261.103 236.384 261.111 236.401 261.124L239.568 263.103L242.743 265.083C242.793 265.119 242.835 265.166 242.864 265.221C242.893 265.275 242.909 265.336 242.91 265.398L242.839 267.456C242.842 267.477 242.838 267.499 242.828 267.519C242.818 267.538 242.802 267.554 242.783 267.564C242.764 267.575 242.742 267.579 242.72 267.577C242.698 267.575 242.678 267.566 242.661 267.552L239.495 265.571L236.328 263.589C236.278 263.554 236.237 263.507 236.208 263.452C236.179 263.398 236.163 263.338 236.161 263.276L236.223 261.22Z" fill="#F8F9FC"/>
<path d="M234.209 253.355L238.453 250.137C238.453 250.137 239.084 249.549 239.207 250.035C239.278 250.318 239.274 251.903 237.742 253.095C237.285 253.451 235.873 254.733 235.873 254.733C235.873 254.733 235.402 257.853 234.479 259.539C234.479 259.539 233.084 262.132 232.168 261.604C231.007 260.927 231.364 259.468 231.364 259.468L232.111 257.394C232.111 257.394 233.923 253.882 234.209 253.355Z" fill="#E9C2B0"/>
<path d="M240.886 261.49C241.123 261.175 241.295 260.799 241.064 260.493C240.353 259.546 236.568 262.789 235.812 263.419C234.463 264.487 232.752 265.532 231.424 266.623C231.483 266.465 229.378 267.786 228.811 268.314C227.913 269.151 228.398 270.094 227.852 270.883L223.349 273.516C224.096 275.18 226.171 275.853 227.794 277.271C228.149 277.579 229.152 278.188 229.554 278.477L232.365 276.052C233.407 275.504 234.92 275.029 235.921 274.272C242.552 269.247 239.476 268.108 237.354 265.299C237.083 264.952 240.703 261.648 240.886 261.49Z" fill="#E9D3C8"/>
<path d="M232.271 277.866C225.127 285.342 216.7 292.749 210.646 296.792C206.064 299.839 200.203 296.792 198.793 291.147C198.697 290.791 198.633 290.435 198.569 290.152V290.088C198.025 286.432 200.811 287.489 203.95 283.993C203.95 283.993 206.642 282.391 210.173 280.273C211.199 279.664 212.287 278.989 213.373 278.315C218.307 275.331 223.817 271.996 226.221 270.328C226.445 270.616 227.151 271.451 227.983 272.444C229.611 274.409 231.791 277.04 232.271 277.866Z" fill="#F7F7F7"/>
<path d="M227.986 272.453C224.923 274.682 221.723 276.718 218.407 278.548C216.869 279.413 215.299 280.216 213.921 281.275C213.313 281.692 212.745 282.165 212.223 282.686C210.557 284.386 209.435 286.567 208.571 288.781C208.859 285.894 209.757 283.103 210.172 280.282C210.385 278.946 210.438 277.589 210.332 276.241C210.14 274.156 209.466 272.198 208.858 270.21C207.155 264.71 205.912 259.077 205.142 253.371C204.854 251.03 204.566 248.527 203.06 246.731C202.958 246.597 202.838 246.477 202.704 246.375C203.79 246.178 204.905 246.222 205.972 246.504C207.164 247.7 207.986 249.215 208.342 250.866L213.372 278.324C218.306 275.34 223.815 272.004 226.219 270.336C226.44 270.625 227.145 271.458 227.986 272.453Z" fill="#EEEFF0"/>
<path d="M271.61 158.768L266.94 157.024L262.922 155.628C262.535 155.494 262.119 155.474 261.722 155.571C260.249 155.927 258.772 156.025 257.343 156.575C256.391 156.942 255.947 157.202 256.926 158.01C257.222 158.264 257.587 158.423 257.974 158.467C258.361 158.511 258.753 158.437 259.097 158.255C258.815 158.392 258.439 158.572 258.386 158.919C258.278 159.608 259.03 159.524 259.453 159.516L262.154 159.457C262.701 159.445 263.236 159.619 263.672 159.95L266.796 162.323C267.175 162.612 267.624 162.796 268.097 162.857L271.274 163.255L271.61 158.768Z" fill="#E9C2B0"/>
<path d="M333.467 103.411C337.718 119.965 332.631 137.497 334.286 154.512C335.408 152.228 336.526 149.943 337.641 147.659C338.471 145.965 339.301 144.273 340.13 142.582C341.019 140.758 341.921 138.93 342.65 137.028C344.961 130.992 345.521 124.435 345.85 117.982C346.008 114.765 346.111 111.52 345.605 108.339C345.098 105.159 343.937 102.013 341.825 99.5816C341.825 99.5692 341.805 99.562 341.798 99.5496C340.198 97.7286 337.805 96.3046 335.44 96.8332L333.524 98.0027C332.467 99.5389 333.003 101.606 333.467 103.411Z" fill="#90A0D7"/>
<g style="mix-blend-mode:multiply" opacity="0.5">
<path d="M333.467 103.41C337.718 119.965 332.631 137.496 334.286 154.512C335.408 152.227 336.526 149.943 337.641 147.659C337.419 146.731 337.197 145.798 337.028 144.878C335.55 136.977 337.65 128.906 339.599 121.107C341.362 114.048 343.005 106.646 341.789 99.5423C340.189 97.7213 337.796 96.2972 335.431 96.8259L333.515 97.9954C332.467 99.5387 333.003 101.605 333.467 103.41Z" fill="#212227"/>
</g>
<path d="M341.79 273.65C341.79 273.65 342.135 278.412 340.341 279.674C339.852 280.03 338.083 279.779 336.173 278.896C334.929 278.321 333.684 277.212 332.427 276.741C328.727 275.35 326.916 272.794 325.796 270.332C323.415 265.097 329.239 267.796 332.936 270.112C336.806 272.525 341.79 273.65 341.79 273.65Z" fill="#171716"/>
<path d="M322.824 276.339C322.824 276.339 325.031 280.572 323.891 282.446C323.571 282.98 321.862 283.443 319.759 283.391C318.397 283.361 316.811 282.84 315.472 282.905C311.52 283.11 308.841 281.481 306.835 279.676C302.568 275.815 308.999 275.972 313.303 276.622C317.805 277.3 322.824 276.339 322.824 276.339Z" fill="#171716"/>
<path d="M337.444 186.845L333.636 219.403C333.63 219.449 333.63 219.495 333.636 219.54C334.08 224.421 336.848 239.425 334.751 249.623C334.464 251.076 333.298 257.891 333.15 259.554C333.07 260.481 332.926 262.383 333.806 264.478C333.97 264.857 334.873 265.836 336.2 269.043C336.603 270.019 329.749 271.525 328.91 271.92C322.588 274.891 321.857 270.916 321.871 270.909C322.355 270.64 324.056 268.061 324.385 265.473C324.712 262.724 324.919 260.102 324.718 257.048C324.657 255.971 320.474 223.049 320.33 221.904C320.328 221.884 320.328 221.863 320.33 221.842L320.392 181.715C320.392 181.634 320.411 181.556 320.448 181.484C320.484 181.413 320.536 181.351 320.601 181.304C320.665 181.256 320.74 181.225 320.819 181.212C320.898 181.199 320.979 181.205 321.055 181.229L337.112 186.263C337.228 186.303 337.325 186.385 337.386 186.492C337.447 186.598 337.468 186.724 337.444 186.845Z" fill="#192227"/>
<path d="M320.629 269.659L322.94 269.463C322.838 269.627 322.798 269.822 322.829 270.012C322.86 270.202 322.959 270.375 323.107 270.498C323.266 270.644 323.435 270.778 323.614 270.898C324.047 271.213 324.54 271.435 325.063 271.55C325.972 271.732 326.917 271.587 327.73 271.14C329.796 270.072 331.986 270.232 334.276 268.944C334.961 268.559 336.015 267.97 336.084 268.219C336.413 269.431 336.579 270.594 336.536 270.939C336.411 272.395 336.228 273.939 335.313 274.471C334.742 274.807 333.373 275.028 332.102 274.158C331.078 273.445 329.762 273.052 329.195 273.244C327.911 273.727 327.655 275.752 325.685 275.503C322.841 275.147 322.841 275.147 321.24 274.101C320.474 273.61 319.738 273.075 319.034 272.498C318.678 272.208 318.076 271.786 317.85 271.199C317.139 269.392 319.966 269.702 320.629 269.659Z" fill="#181F26"/>
<path d="M334.127 121.568C333.962 122.234 333.799 122.902 333.646 123.571C332.803 127.24 332.348 131.065 332.019 134.81C331.61 139.465 331.649 144.116 332.502 148.719C333.279 152.913 334.533 156.991 335.541 161.132C336.311 164.295 337.089 167.454 337.874 170.609C336.842 162.118 335.865 155.843 335.061 153.388C332.383 145.2 332.725 139.91 333.39 128.509C333.514 126.255 333.82 123.872 334.127 121.568Z" fill="#292C36"/>
<path d="M291.991 272.794C292.509 274.368 293.048 275.913 294.251 277.1C295.329 278.168 296.779 278.802 298.147 279.393C305.303 282.483 312.37 280.45 319.382 278.069C322.538 277.001 325.717 275.902 329.015 275.336C332.588 274.726 336.105 274.998 339.707 275.11C343.309 275.222 348.584 275.26 350.599 271.562C350.771 271.244 350.919 270.914 351.042 270.573C350.912 259.86 349.239 236.791 346.881 214.943C344.557 193.392 341.579 161.337 338.751 155.187C337.026 151.449 334.402 144.798 334.985 137.354C335.974 124.782 344.38 109.904 340.557 98.7273C339.668 96.1142 327.697 95.0355 325.687 96.4132L310.08 101.346C309.817 101.453 309.548 101.542 309.273 101.611C308.867 101.723 308.414 101.819 307.934 101.924C305.372 102.483 300.922 102.941 299.953 106.748C299.578 108.218 299.667 110.321 299.93 112.733C300.035 113.197 300.141 113.648 300.246 114.08C301.688 120.031 304.117 126.184 304.645 132.31C305 136.438 304.961 140.558 304.3 144.652C303.639 148.747 302.522 152.755 301.571 156.791C300.351 161.953 299.172 167.115 297.928 172.277C295.257 198.873 292.507 252.452 291.991 272.794Z" fill="#90A0D7"/>
<path d="M335.209 96.0093C336.569 96.5202 337.546 97.7715 338.053 99.1315C338.56 100.491 338.677 101.965 338.764 103.418C338.985 107.234 339.047 111.108 338.185 114.833C337.322 118.559 335.447 122.16 332.398 124.462C329.348 126.763 325.025 127.545 321.607 125.839C319.463 124.771 317.84 122.847 316.711 120.732C315.582 118.618 314.903 116.296 314.231 113.997L311.111 103.316C310.92 102.665 310.73 101.964 310.947 101.321C311.313 100.233 312.625 99.8328 313.763 99.6886C317.081 99.2685 320.438 99.7011 323.78 99.8239C327.123 99.9467 330.604 99.7278 333.546 98.1364L335.209 96.0093Z" fill="#515B7C"/>
<g style="mix-blend-mode:multiply" opacity="0.2">
<path d="M291.991 272.794C292.509 274.368 293.048 275.913 294.251 277.1C295.329 278.168 296.779 278.802 298.147 279.393C305.303 282.483 312.37 280.45 319.382 278.069C322.538 277.001 325.717 275.902 329.015 275.336C332.588 274.726 336.105 274.998 339.707 275.11C343.309 275.222 348.584 275.26 350.599 271.563C350.771 271.244 350.919 270.914 351.042 270.573C350.912 259.861 349.239 236.791 346.881 214.943C343.759 221.759 343.996 229.999 344.97 237.599C346.129 246.678 348.095 256.023 345.642 264.834C345.426 258.283 345.211 251.73 344.995 245.173C344.957 244.105 344.78 242.826 343.798 242.416C342.237 241.761 341.103 244.018 341.048 245.718C340.925 249.378 341.691 253.043 341.331 256.687C340.97 260.33 339.067 264.209 335.575 265.3C331.787 266.488 327.657 263.796 325.847 260.257C324.037 256.719 323.973 252.575 323.948 248.6C323.88 237.624 323.812 226.647 323.743 215.669C321.386 231.484 319.03 247.299 316.676 263.114C316.07 267.187 314.857 272.015 310.955 273.309C307.415 274.485 303.69 271.903 301.489 268.887C295.035 260.04 296.184 247.957 297.622 237.101C299.894 219.934 302.175 191.076 304.451 173.909C305.417 166.599 307.209 158.106 313.874 154.986C315.896 154.037 318.726 152.908 318.319 150.713C318.077 149.393 316.701 148.67 315.638 147.848C312.694 145.569 311.616 141.493 311.995 137.787C312.374 134.081 313.988 130.626 315.576 127.254C314.08 118.636 311.993 110.131 309.33 101.8L309.266 101.602C308.86 101.714 308.407 101.81 307.927 101.915C305.365 102.474 300.915 102.932 299.946 106.739C299.571 108.21 299.66 110.312 299.923 112.724C300.028 113.188 300.134 113.639 300.239 114.071C301.681 120.022 304.11 126.176 304.638 132.301C304.993 136.429 304.954 140.549 304.293 144.644C303.631 148.738 302.515 152.746 301.564 156.782C300.344 161.944 299.165 167.106 297.921 172.268C295.257 198.873 292.507 252.452 291.991 272.794Z" fill="#515B7C"/>
</g>
<path d="M305.337 73.0788C305.572 71.4269 306.546 69.7145 307.293 68.246L308.996 66.3965C309.013 66.8213 309.029 67.2462 309.044 67.671C309.613 67.0195 310.614 66.9946 311.464 67.1548C314.081 67.6479 316.3 69.3692 318.188 71.2489C320.412 73.465 322.329 75.966 324.233 78.4581L327.017 82.0769C327.401 82.5789 327.885 83.0613 328.084 83.6789C328.252 84.265 328.297 84.8796 328.215 85.4839C327.86 88.9692 326.082 92.2036 327.483 95.6907C328.267 97.6293 329.717 99.2237 331.572 100.187C331.696 100.235 331.803 100.319 331.878 100.429C331.983 100.625 331.86 100.86 331.739 101.047C331.417 101.546 331.089 102.041 330.756 102.531C330.434 103.052 330.038 103.523 329.581 103.931C329.097 104.294 328.556 104.576 327.981 104.764C323.002 106.597 317.457 105.894 312.321 104.586C312.1 104.552 311.896 104.449 311.738 104.292C311.638 104.151 311.577 103.988 311.56 103.817C311.144 101.389 311.56 98.8858 311.709 96.4187H311.604C311.097 96.4365 310.507 96.5736 310.105 96.2638C302.482 90.4128 304.476 79.0152 304.443 78.1074C304.448 77.8041 304.502 77.5036 304.603 77.2174C304.847 76.3504 305.025 75.4662 305.136 74.5722C305.205 74.072 305.266 73.5861 305.337 73.0788Z" fill="#E9C2B0"/>
<path d="M312.318 104.571C312.097 104.537 311.893 104.435 311.735 104.277C311.636 104.137 311.574 103.973 311.557 103.802C311.201 101.741 311.448 99.6242 311.623 97.522C313.164 100.025 314.508 102.593 315.408 105.263C314.371 105.068 313.336 104.833 312.318 104.571Z" fill="#E9C2B0"/>
<g style="mix-blend-mode:multiply" opacity="0.3">
<path d="M304.438 78.0932C304.443 77.7898 304.497 77.4893 304.598 77.2031C304.842 76.3362 305.02 75.4519 305.131 74.558C305.197 74.0792 305.257 73.5932 305.33 73.0859C305.565 71.434 306.539 69.7216 307.286 68.2531L308.996 66.3965C309.012 66.8213 309.028 67.2462 309.044 67.671C309.613 67.0195 310.614 66.9946 311.464 67.1548C314.081 67.6479 316.3 69.3692 318.188 71.2489C320.412 73.465 322.329 75.966 324.233 78.4598L327.017 82.0769C327.401 82.5789 327.885 83.0613 328.084 83.6789C328.252 84.265 328.297 84.8796 328.215 85.4839C327.977 87.7731 327.138 89.9536 326.982 92.1698C318.981 91.1017 311.98 87.3636 305.986 81.3613C305.193 84.5351 304.799 88.1041 307.176 90.881C308.456 92.7127 309.757 94.5675 310.968 96.4561C310.672 96.4921 310.373 96.4228 310.123 96.2603C302.482 90.4004 304.48 79.0028 304.438 78.0932Z" fill="#E9C2B0"/>
</g>
<path d="M311.549 84.7304C309.825 82.1651 307.621 79.9592 305.058 78.235C304.836 78.0623 304.625 77.8762 304.426 77.6778C304.445 77.0522 304.558 76.4329 304.761 75.8408C306.52 76.6425 308.189 77.6307 309.739 78.7886C310.596 79.4294 311.437 80.1503 311.917 81.1026C312.546 82.3611 312.464 83.8421 312.367 85.2466L311.549 84.7304Z" fill="#515B7C"/>
<path d="M295.166 136.47C295.423 139.651 296.346 142.512 298.865 144.53C302.327 147.033 305.03 145.431 306.943 142.515C308.104 140.746 308.975 138.498 309.553 136.383C310.827 131.719 310.714 126.721 311.839 122.109C312.077 121.133 312.219 113.479 311.336 110.813C310.555 108.452 309.526 105.898 307.659 104.185C306.079 102.733 304.407 102.48 302.692 102.761C302.572 102.813 302.453 102.868 302.336 102.939C300.297 104.066 299.079 107.033 298.592 109.17C297.962 111.914 298.323 114.647 298.121 117.408C297.927 119.99 297.543 122.57 297.13 125.145C296.952 126.247 296.775 127.347 296.588 128.446C296.453 129.259 296.314 130.067 296.172 130.881C295.994 131.949 295.8 133.026 295.605 134.097C295.582 134.229 295.557 134.355 295.534 134.485C295.416 135.142 295.288 135.808 295.166 136.47Z" fill="#90A0D7"/>
<path d="M271.644 164.12C272.202 163.997 272.652 163.677 273.087 163.364C276.842 160.676 292.237 152.185 295.937 150.312C298.647 148.943 307.656 144.26 303.728 136.889C303.582 136.618 303.419 136.341 303.237 136.061C302.171 133.213 297.495 132.373 291.628 136.442C291.224 136.798 290.826 137.163 290.42 137.524C290.196 137.724 289.971 137.923 289.743 138.119C289.199 138.598 288.655 139.075 288.105 139.543C287.668 139.929 287.227 140.308 286.788 140.691C285.508 141.796 284.225 142.899 282.939 144.002C281.214 145.485 272.074 153.614 269.391 156.348C268.216 157.541 267.272 159.113 267.57 160.895C267.869 162.676 269.9 164.517 271.644 164.12Z" fill="#90A0D7"/>
<path d="M311.028 83.4212C311.073 85.1852 310.44 88.7916 309.794 91.4937C309.318 93.4891 308.836 94.9968 308.608 94.906C308.854 95.2852 310.148 96.8641 310.507 97.4444C310.548 97.5019 310.578 97.5664 310.596 97.6348C310.596 97.706 310.596 97.779 310.582 97.8502C310.571 97.97 310.553 98.0889 310.527 98.2062C310.484 98.4219 310.419 98.6325 310.333 98.8346C310.23 99.0793 310.102 99.3125 309.951 99.5306C309.601 100.036 309.169 100.479 308.672 100.841C307.969 101.37 307.221 101.836 306.438 102.236C306.646 102.329 308.898 102.291 313.194 108.466C316.461 113.185 316.509 118.832 320.435 123.02C321.669 124.337 323.082 125.63 324.848 125.991C326.613 126.352 328.491 125.69 330.057 124.745C333.805 122.482 336.429 118.607 337.683 114.408C338.936 110.209 338.902 105.706 338.147 101.389C337.924 100.127 337.638 98.8577 337.043 97.722C336.447 96.5864 335.51 95.586 334.31 95.1428C334.086 95.0641 333.856 95.0046 333.622 94.9648C332.805 94.8333 331.972 94.8508 331.161 95.0164C331.076 95.0271 330.994 95.0431 330.912 95.0573L330.827 94.9274C330.759 94.8241 330.697 94.7191 330.637 94.6194C329.83 93.1954 329.819 91.4705 330.18 89.8525C330.251 89.5285 330.336 89.2117 330.436 88.9002C330.63 88.2825 330.863 87.6826 331.113 87.0881C331.663 86.1162 332.685 85.13 333.09 84.0958C334.484 80.4592 335.569 76.5431 334.129 72.926C332.688 69.309 327.273 61.2507 313.946 62.5715C307.511 63.207 303.648 73.6078 304.476 76.1354C307.424 77.8995 309.008 80.0622 310.993 82.9762C311.01 83.1233 311.019 83.2713 311.019 83.4194L311.028 83.4212Z" fill="#009A96"/>
<path d="M310.507 91.7105L310.695 89.0601L310.507 91.7105Z" fill="#212227"/>
<path d="M311.29 74.1577C311.442 74.7255 311.325 75.5123 311.329 76.1015C311.329 76.7684 311.325 77.4354 311.316 78.1023C311.289 79.4539 311.224 80.8044 311.122 82.1537C311.101 82.4456 310.806 83.5617 311.238 83.6382C311.62 83.7041 311.666 82.5257 311.709 82.2462C311.908 80.9803 311.983 79.6979 311.933 78.4174C311.877 76.978 311.661 75.5493 311.29 74.1577Z" fill="#136966"/>
<path d="M313.478 80.5588C314.342 79.0226 314.939 77.3547 315.423 75.6548C314.953 77.2995 313.769 78.9977 312.85 80.4235C312.361 81.1818 311.7 81.8921 311.266 82.6788C311.188 82.8212 310.971 83.2484 311.115 83.4104C311.293 83.6205 311.565 83.1772 311.71 83.0206C312.393 82.271 312.986 81.4449 313.478 80.5588Z" fill="#136966"/>
<path d="M310.582 97.8512C310.571 97.9709 310.553 98.0899 310.527 98.2072C312.779 98.4311 315.054 98.2502 317.244 97.6732C320.6 96.7583 323.704 94.7023 325.552 91.751C321.427 95.4698 316.058 97.5026 310.507 97.4471C310.548 97.5046 310.578 97.5692 310.596 97.6376C310.592 97.707 310.589 97.78 310.582 97.8512Z" fill="#136966"/>
<path d="M313.945 102.567C317.602 103.655 321.516 103.499 325.074 102.122C328.633 100.745 331.635 98.2264 333.611 94.9592C332.794 94.8277 331.961 94.8452 331.15 95.0108C331.065 95.0215 330.983 95.0375 330.901 95.0517L330.816 94.9218C329.344 97.4601 326.785 99.3256 324.042 100.44C320.845 101.745 317.373 102.161 313.945 102.567Z" fill="#136966"/>
<path d="M332.173 106.625C328.272 109.817 322.425 110.381 317.987 107.996C319.614 110.023 322.499 110.548 325.099 110.378C327.655 110.21 330.237 109.472 332.241 107.871C333.874 106.567 335.313 104.416 335.331 102.259C334.767 102.57 334.55 103.834 334.182 104.416C333.635 105.256 332.957 106.001 332.173 106.625Z" fill="#136966"/>
<path d="M314.815 108.647C315.797 110.37 317.154 111.85 318.785 112.976C320.416 114.102 322.28 114.846 324.237 115.153C326.195 115.46 328.196 115.321 330.093 114.748C331.99 114.175 333.734 113.181 335.195 111.841C332.311 114.62 328.425 116.505 324.424 116.398C320.424 116.291 316.409 113.957 314.863 110.26L314.815 108.647Z" fill="#136966"/>
<path d="M324.975 122.913C327.286 122.913 329.379 121.525 331.071 119.943C333.168 117.984 335.047 115.573 336.236 112.949C334.858 115.015 333.721 117.043 331.875 118.761C329.895 120.619 327.543 122.035 324.975 122.913Z" fill="#136966"/>
<path d="M309.794 91.4948C310.505 89.2946 310.96 87.0162 311.341 84.7306L311.485 83.8228C311.511 83.6732 311.679 83.1606 311.586 83.0413C311.408 82.8064 311.188 83.109 311.028 83.4134C311.072 85.1845 310.439 88.7926 309.794 91.4948Z" fill="#136966"/>
<path d="M325.711 96.8515C323.972 98.532 321.815 99.7152 319.464 100.278C320.566 100.258 321.556 99.6177 322.431 98.9466C323.815 97.8828 325.087 96.6824 326.231 95.3634C327.297 94.1298 328.634 92.6203 329.23 91.0806C328.51 93.2629 327.372 95.2441 325.711 96.8515Z" fill="#136966"/>
<g style="mix-blend-mode:multiply" opacity="0.5">
<path d="M294.365 135.393C294.706 136.094 295.03 136.806 295.375 137.506C295.649 138.063 295.94 138.62 296.264 139.154C296.902 140.222 297.667 141.224 298.68 141.979C298.313 140.044 297.69 138.167 296.827 136.397C299.005 138.031 301.244 139.699 303.855 140.464C302.952 140.197 301.758 138.772 301.034 138.159C300.109 137.372 299.208 136.557 298.353 135.697L298.28 135.621C297.478 134.798 296.77 133.875 295.992 133.027C296.036 133.85 296.074 134.67 296.109 135.494C295.526 135.462 294.945 135.427 294.365 135.393Z" fill="#212227"/>
</g>
<path d="M63.427 424.397C64.9445 421.042 67.2321 414.949 66.0801 408.976C62.8096 392.013 45.7575 392.68 47.4466 386.673C48.2514 383.809 54.776 381.938 60.119 383.185C73.6215 386.338 68.5763 395.161 73.2552 394.366C78.9678 393.395 72.5298 367.914 87.7737 357.491C95.5913 352.144 108.53 353.047 112.028 358.954C114.851 363.716 111.335 371.386 110.595 372.909C106.888 380.548 95.9819 385.058 96.2396 391.219C96.7207 402.753 107.836 381.269 120.121 393.335C126.525 399.625 124.189 405.273 122.171 406.705C118.798 409.1 115.337 402.986 105.878 403.428C99.2606 403.739 93.2166 407.864 93.4416 410.08C93.703 412.669 102.878 410.716 107.257 416.759C109.8 420.271 109.786 425.853 108.016 427.211C106.766 428.168 105.003 426.695 101.076 425.323C98.8757 424.553 88.5445 420.938 83.2373 425.273C82.2548 426.075 80.019 428.313 79.6172 433.908L63.427 424.397Z" fill="#2CAC8A"/>
<path d="M56.1062 466.979C55.443 461.005 53.5478 450.537 46.7099 443.084C27.2897 421.917 2.83617 436.945 0.137283 427.096C-1.14993 422.4 6.81693 414.375 15.7332 411.718C38.2701 404.998 38.4675 421.586 44.6511 416.597C52.1984 410.509 20.7914 379.972 34.1845 352.706C41.0526 338.725 60.8213 329.302 71.0496 334.727C79.2903 339.097 80.7464 352.795 80.974 355.554C82.1154 369.365 69.9954 384.725 75.6829 393.182C86.3273 409.016 84.1316 369.597 112.562 376.428C127.383 379.988 128.821 389.866 127.092 393.549C124.201 399.704 113.853 393.957 100.352 402.399C90.9073 408.304 85.5948 419.101 87.8279 422.037C90.4432 425.465 102.229 415.136 113.862 420.022C120.618 422.87 125.418 430.729 123.984 434.104C122.974 436.482 119.114 435.869 112.168 437.18C108.274 437.915 89.9952 441.363 85.938 451.849C85.1877 453.789 83.8347 458.791 88.0715 466.992L56.1062 466.979Z" fill="#61A4B6"/>
<path d="M51.8001 472.52C51.8001 474.924 52.2788 477.304 53.208 479.52C54.1372 481.737 55.4984 483.746 57.212 485.43C58.9256 487.114 60.9572 488.439 63.1882 489.327C65.4191 490.216 67.8045 490.65 70.2051 490.606C80.1508 490.428 87.9346 481.883 87.9346 471.915V461.578C87.9346 460.425 87.4772 459.32 86.6629 458.505C85.8487 457.689 84.7444 457.231 83.5929 457.231H56.1418C55.5716 457.231 55.007 457.344 54.4803 457.562C53.9535 457.781 53.4749 458.101 53.0717 458.505C52.6686 458.908 52.3488 459.387 52.1306 459.915C51.9124 460.442 51.8001 461.007 51.8001 461.578V472.52Z" fill="#385D78"/>
<path d="M221.35 102.976C221.35 91.7679 222.219 86.9896 223.959 82.7633C225.698 78.537 229.285 74.8452 234.722 71.698C236.352 70.7222 238.364 69.6098 240.756 68.3609C243.216 67.0699 245.56 65.5725 247.765 63.8849C250.019 62.1832 251.975 60.1224 253.557 57.7852C255.132 55.4539 255.921 52.7688 255.922 49.7298C255.922 47.4518 255.488 45.4444 254.618 43.7076C253.789 42.0213 252.623 40.5219 251.192 39.3014C249.73 38.0835 248.039 37.1705 246.218 36.6163C244.345 36.0255 242.393 35.724 240.429 35.7221C238.195 35.6923 235.977 36.1076 233.906 36.9435C232.004 37.7299 230.221 38.7757 228.607 40.0508C227.035 41.2937 225.612 42.7136 224.367 44.282C223.22 45.7103 222.158 47.2049 221.188 48.7581L207 38.9942C208.359 35.7168 210.261 32.6912 212.627 30.0445C214.942 27.4577 217.636 25.2353 220.617 23.4528C223.643 21.6472 226.909 20.2774 230.319 19.3839C233.831 18.4579 237.449 17.9927 241.082 18.0001C245.224 18.0026 249.344 18.6058 253.312 19.791C257.27 20.9516 260.957 22.8877 264.157 25.486C267.363 28.0904 269.972 31.4267 271.984 35.4948C273.997 39.5629 275.002 44.4119 275 50.042C275 53.5156 274.593 56.5804 273.777 59.2364C272.998 61.8202 271.816 64.265 270.272 66.4801C268.742 68.6583 266.933 70.6274 264.891 72.3374C262.676 74.1817 260.334 75.8677 257.882 77.383C255.713 78.6852 253.539 79.9341 251.359 81.1297C249.257 82.2778 247.265 83.6155 245.407 85.1262C243.658 86.5409 242.168 88.2482 241.004 90.1718C239.863 92.0701 239.292 94.3781 239.292 102.981L221.35 102.976ZM221.676 135V112.542H239.773V135H221.676Z" fill="url(#paint2_linear)"/>
<defs>
<linearGradient id="paint0_linear" x1="98.6006" y1="439.286" x2="69.096" y2="439.286" gradientUnits="userSpaceOnUse">
<stop stop-color="#9DCEEB"/>
<stop offset="0.03" stop-color="#A0D0EC"/>
<stop offset="0.44" stop-color="#C2E1F2"/>
<stop offset="0.78" stop-color="#D7ECF6"/>
<stop offset="1" stop-color="#DFF0F8"/>
</linearGradient>
<linearGradient id="paint1_linear" x1="-202550" y1="24842.7" x2="-293916" y2="24842.7" gradientUnits="userSpaceOnUse">
<stop stop-color="#9DCEEB"/>
<stop offset="0.03" stop-color="#A0D0EC"/>
<stop offset="0.44" stop-color="#C2E1F2"/>
<stop offset="0.78" stop-color="#D7ECF6"/>
<stop offset="1" stop-color="#DFF0F8"/>
</linearGradient>
<linearGradient id="paint2_linear" x1="206.998" y1="76.4963" x2="275" y2="76.4963" gradientUnits="userSpaceOnUse">
<stop stop-color="#E79D5A"/>
<stop offset="1" stop-color="#F2D05F"/>
</linearGradient>
</defs>
</svg>
