<svg width="263" height="220" viewBox="0 0 263 220" fill="none" xmlns="http://www.w3.org/2000/svg">
<g clip-path="url(#clip0)">
<g style="mix-blend-mode:multiply" opacity="0.3">
<g style="mix-blend-mode:multiply" opacity="0.3">
<path d="M259.216 79.0254L241.99 155.162" stroke="#C5C5C5" stroke-width="3.98" stroke-linecap="round" stroke-linejoin="round"/>
</g>
<g style="mix-blend-mode:multiply" opacity="0.3">
<path d="M5.15527 66.7702L101.95 4.63672" stroke="#C5C5C5" stroke-width="3.98" stroke-linecap="round" stroke-linejoin="round"/>
</g>
<g style="mix-blend-mode:multiply" opacity="0.3">
<path d="M101.95 4.63672L198.039 17.7626" stroke="#C5C5C5" stroke-width="3.98" stroke-linecap="round" stroke-linejoin="round"/>
</g>
<g style="mix-blend-mode:multiply" opacity="0.3">
<path d="M198.04 17.7627L259.216 79.0255" stroke="#C5C5C5" stroke-width="3.98" stroke-linecap="round" stroke-linejoin="round"/>
</g>
<g style="mix-blend-mode:multiply" opacity="0.3">
<path d="M241.99 155.162L155.381 212.045" stroke="#C5C5C5" stroke-width="3.98" stroke-linecap="round" stroke-linejoin="round"/>
</g>
<g style="mix-blend-mode:multiply" opacity="0.3">
<path d="M155.38 212.045L49.3499 198.042" stroke="#C5C5C5" stroke-width="3.98" stroke-linecap="round" stroke-linejoin="round"/>
</g>
<g style="mix-blend-mode:multiply" opacity="0.3">
<path d="M49.3498 198.042L12.3999 136.779" stroke="#C5C5C5" stroke-width="3.98" stroke-linecap="round" stroke-linejoin="round"/>
</g>
<g style="mix-blend-mode:multiply" opacity="0.3">
<path d="M12.4002 136.779L5.15527 66.77" stroke="#C5C5C5" stroke-width="3.98" stroke-linecap="round" stroke-linejoin="round"/>
</g>
<g style="mix-blend-mode:multiply" opacity="0.3">
<path d="M12.3999 136.779L89.9188 101.774" stroke="#C5C5C5" stroke-width="3.98" stroke-linecap="round" stroke-linejoin="round"/>
</g>
<g style="mix-blend-mode:multiply" opacity="0.3">
<path d="M49.3499 198.042L89.9189 101.774" stroke="#C5C5C5" stroke-width="3.98" stroke-linecap="round" stroke-linejoin="round"/>
</g>
<g style="mix-blend-mode:multiply" opacity="0.3">
<path d="M155.381 212.045L89.9189 101.774" stroke="#C5C5C5" stroke-width="3.98" stroke-linecap="round" stroke-linejoin="round"/>
</g>
<g style="mix-blend-mode:multiply" opacity="0.3">
<path d="M155.381 212.045L198.039 17.7627" stroke="#C5C5C5" stroke-width="3.98" stroke-linecap="round" stroke-linejoin="round"/>
</g>
<g style="mix-blend-mode:multiply" opacity="0.3">
<path d="M89.9189 101.774L131.134 71.585" stroke="#C5C5C5" stroke-width="3.98" stroke-linecap="round" stroke-linejoin="round"/>
</g>
<g style="mix-blend-mode:multiply" opacity="0.3">
<path d="M131.134 71.5852L101.95 4.63672" stroke="#C5C5C5" stroke-width="3.98" stroke-linecap="round" stroke-linejoin="round"/>
</g>
<g style="mix-blend-mode:multiply" opacity="0.3">
<path d="M131.134 71.5853L198.039 17.7627" stroke="#C5C5C5" stroke-width="3.98" stroke-linecap="round" stroke-linejoin="round"/>
</g>
<g style="mix-blend-mode:multiply" opacity="0.3">
<path d="M241.99 155.162L176.713 112.717" stroke="#C5C5C5" stroke-width="3.98" stroke-linecap="round" stroke-linejoin="round"/>
</g>
<g style="mix-blend-mode:multiply" opacity="0.3">
<path d="M176.713 112.717L89.9189 101.774" stroke="#C5C5C5" stroke-width="3.98" stroke-linecap="round" stroke-linejoin="round"/>
</g>
<g style="mix-blend-mode:multiply" opacity="0.3">
<path d="M5.15527 66.77L131.134 71.585" stroke="#C5C5C5" stroke-width="3.98" stroke-linecap="round" stroke-linejoin="round"/>
</g>
<g style="mix-blend-mode:multiply" opacity="0.3">
<path d="M259.216 79.0254L176.713 112.717" stroke="#C5C5C5" stroke-width="3.98" stroke-linecap="round" stroke-linejoin="round"/>
</g>
<g style="mix-blend-mode:multiply" opacity="0.3">
<path d="M12.3999 133.936L101.95 4.63672" stroke="#C5C5C5" stroke-width="3.98" stroke-linecap="round" stroke-linejoin="round"/>
</g>
<g style="mix-blend-mode:multiply" opacity="0.3">
<path d="M89.9188 100.317L53.5491 66.77" stroke="#C5C5C5" stroke-width="3.98" stroke-linecap="round" stroke-linejoin="round"/>
</g>
<g style="mix-blend-mode:multiply" opacity="0.3">
<path d="M178.104 119.28C181.425 119.28 184.116 116.587 184.116 113.265C184.116 109.943 181.425 107.25 178.104 107.25C174.784 107.25 172.092 109.943 172.092 113.265C172.092 116.587 174.784 119.28 178.104 119.28Z" fill="#C5C5C5"/>
<path d="M178.104 119.28C181.425 119.28 184.116 116.587 184.116 113.265C184.116 109.943 181.425 107.25 178.104 107.25C174.784 107.25 172.092 109.943 172.092 113.265C172.092 116.587 174.784 119.28 178.104 119.28Z" stroke="#C5C5C5" stroke-width="1.13" stroke-miterlimit="10"/>
</g>
<g style="mix-blend-mode:multiply" opacity="0.3">
<path d="M89.9189 107.79C93.2393 107.79 95.9311 105.097 95.9311 101.775C95.9311 98.4525 93.2393 95.7593 89.9189 95.7593C86.5985 95.7593 83.9067 98.4525 83.9067 101.775C83.9067 105.097 86.5985 107.79 89.9189 107.79Z" fill="#C5C5C5"/>
<path d="M89.9189 107.79C93.2393 107.79 95.9311 105.097 95.9311 101.775C95.9311 98.4525 93.2393 95.7593 89.9189 95.7593C86.5985 95.7593 83.9067 98.4525 83.9067 101.775C83.9067 105.097 86.5985 107.79 89.9189 107.79Z" stroke="#C5C5C5" stroke-width="1.13" stroke-miterlimit="10"/>
</g>
<g style="mix-blend-mode:multiply" opacity="0.3">
<path d="M49.3501 204.057C52.6705 204.057 55.3623 201.364 55.3623 198.042C55.3623 194.72 52.6705 192.026 49.3501 192.026C46.0296 192.026 43.3379 194.72 43.3379 198.042C43.3379 201.364 46.0296 204.057 49.3501 204.057Z" fill="#C5C5C5"/>
<path d="M49.3501 204.057C52.6705 204.057 55.3623 201.364 55.3623 198.042C55.3623 194.72 52.6705 192.026 49.3501 192.026C46.0296 192.026 43.3379 194.72 43.3379 198.042C43.3379 201.364 46.0296 204.057 49.3501 204.057Z" stroke="#C5C5C5" stroke-width="1.13" stroke-miterlimit="10"/>
</g>
<g style="mix-blend-mode:multiply" opacity="0.3">
<path d="M153.047 216.893C156.367 216.893 159.059 214.2 159.059 210.878C159.059 207.556 156.367 204.862 153.047 204.862C149.726 204.862 147.035 207.556 147.035 210.878C147.035 214.2 149.726 216.893 153.047 216.893Z" fill="#C5C5C5"/>
<path d="M153.047 216.893C156.367 216.893 159.059 214.2 159.059 210.878C159.059 207.556 156.367 204.862 153.047 204.862C149.726 204.862 147.035 207.556 147.035 210.878C147.035 214.2 149.726 216.893 153.047 216.893Z" stroke="#C5C5C5" stroke-width="1.13" stroke-miterlimit="10"/>
</g>
<g style="mix-blend-mode:multiply" opacity="0.3">
<path d="M241.99 161.177C245.311 161.177 248.002 158.484 248.002 155.162C248.002 151.84 245.311 149.146 241.99 149.146C238.67 149.146 235.978 151.84 235.978 155.162C235.978 158.484 238.67 161.177 241.99 161.177Z" fill="#C5C5C5"/>
<path d="M241.99 161.177C245.311 161.177 248.002 158.484 248.002 155.162C248.002 151.84 245.311 149.146 241.99 149.146C238.67 149.146 235.978 151.84 235.978 155.162C235.978 158.484 238.67 161.177 241.99 161.177Z" stroke="#C5C5C5" stroke-width="1.13" stroke-miterlimit="10"/>
</g>
<g style="mix-blend-mode:multiply" opacity="0.3">
<path d="M256.619 85.0407C259.939 85.0407 262.631 82.3475 262.631 79.0252C262.631 75.703 259.939 73.0098 256.619 73.0098C253.298 73.0098 250.607 75.703 250.607 79.0252C250.607 82.3475 253.298 85.0407 256.619 85.0407Z" fill="#C5C5C5"/>
<path d="M256.619 85.0407C259.939 85.0407 262.631 82.3475 262.631 79.0252C262.631 75.703 259.939 73.0098 256.619 73.0098C253.298 73.0098 250.607 75.703 250.607 79.0252C250.607 82.3475 253.298 85.0407 256.619 85.0407Z" stroke="#C5C5C5" stroke-width="1.13" stroke-miterlimit="10"/>
</g>
<g style="mix-blend-mode:multiply" opacity="0.3">
<path d="M198.039 23.778C201.36 23.778 204.051 21.0848 204.051 17.7625C204.051 14.4403 201.36 11.7471 198.039 11.7471C194.719 11.7471 192.027 14.4403 192.027 17.7625C192.027 21.0848 194.719 23.778 198.039 23.778Z" fill="#C5C5C5"/>
<path d="M198.039 23.778C201.36 23.778 204.051 21.0848 204.051 17.7625C204.051 14.4403 201.36 11.7471 198.039 11.7471C194.719 11.7471 192.027 14.4403 192.027 17.7625C192.027 21.0848 194.719 23.778 198.039 23.778Z" stroke="#C5C5C5" stroke-width="1.13" stroke-miterlimit="10"/>
</g>
<g style="mix-blend-mode:multiply" opacity="0.3">
<path d="M128.662 78.801C131.982 78.801 134.674 76.1077 134.674 72.7855C134.674 69.4632 131.982 66.77 128.662 66.77C125.341 66.77 122.65 69.4632 122.65 72.7855C122.65 76.1077 125.341 78.801 128.662 78.801Z" fill="#C5C5C5"/>
<path d="M128.662 78.801C131.982 78.801 134.674 76.1077 134.674 72.7855C134.674 69.4632 131.982 66.77 128.662 66.77C125.341 66.77 122.65 69.4632 122.65 72.7855C122.65 76.1077 125.341 78.801 128.662 78.801Z" stroke="#C5C5C5" stroke-width="1.13" stroke-miterlimit="10"/>
</g>
<g style="mix-blend-mode:multiply" opacity="0.3">
<path d="M57.175 75.3053C60.4955 75.3053 63.1872 72.6121 63.1872 69.2899C63.1872 65.9676 60.4955 63.2744 57.175 63.2744C53.8546 63.2744 51.1628 65.9676 51.1628 69.2899C51.1628 72.6121 53.8546 75.3053 57.175 75.3053Z" fill="#C5C5C5"/>
<path d="M57.175 75.3053C60.4955 75.3053 63.1872 72.6121 63.1872 69.2899C63.1872 65.9676 60.4955 63.2744 57.175 63.2744C53.8546 63.2744 51.1628 65.9676 51.1628 69.2899C51.1628 72.6121 53.8546 75.3053 57.175 75.3053Z" stroke="#C5C5C5" stroke-width="1.13" stroke-miterlimit="10"/>
</g>
<g style="mix-blend-mode:multiply" opacity="0.3">
<path d="M101.95 12.4001C105.27 12.4001 107.962 9.70686 107.962 6.38461C107.962 3.06236 105.27 0.369141 101.95 0.369141C98.6295 0.369141 95.9377 3.06236 95.9377 6.38461C95.9377 9.70686 98.6295 12.4001 101.95 12.4001Z" fill="#C5C5C5"/>
<path d="M101.95 12.4001C105.27 12.4001 107.962 9.70686 107.962 6.38461C107.962 3.06236 105.27 0.369141 101.95 0.369141C98.6295 0.369141 95.9377 3.06236 95.9377 6.38461C95.9377 9.70686 98.6295 12.4001 101.95 12.4001Z" stroke="#C5C5C5" stroke-width="1.13" stroke-miterlimit="10"/>
</g>
<g style="mix-blend-mode:multiply" opacity="0.3">
<path d="M6.38791 71.5851C9.70835 71.5851 12.4001 68.8919 12.4001 65.5697C12.4001 62.2474 9.70835 59.5542 6.38791 59.5542C3.06748 59.5542 0.375732 62.2474 0.375732 65.5697C0.375732 68.8919 3.06748 71.5851 6.38791 71.5851Z" fill="#C5C5C5"/>
<path d="M6.38791 71.5851C9.70835 71.5851 12.4001 68.8919 12.4001 65.5697C12.4001 62.2474 9.70835 59.5542 6.38791 59.5542C3.06748 59.5542 0.375732 62.2474 0.375732 65.5697C0.375732 68.8919 3.06748 71.5851 6.38791 71.5851Z" stroke="#C5C5C5" stroke-width="1.13" stroke-miterlimit="10"/>
</g>
<g style="mix-blend-mode:multiply" opacity="0.3">
<path d="M14.3318 142.761C17.6522 142.761 20.3439 140.068 20.3439 136.746C20.3439 133.424 17.6522 130.73 14.3318 130.73C11.0113 130.73 8.31958 133.424 8.31958 136.746C8.31958 140.068 11.0113 142.761 14.3318 142.761Z" fill="#C5C5C5"/>
<path d="M14.3318 142.761C17.6522 142.761 20.3439 140.068 20.3439 136.746C20.3439 133.424 17.6522 130.73 14.3318 130.73C11.0113 130.73 8.31958 133.424 8.31958 136.746C8.31958 140.068 11.0113 142.761 14.3318 142.761Z" stroke="#C5C5C5" stroke-width="1.13" stroke-miterlimit="10"/>
</g>
</g>
<path d="M120.138 77.6008C120.138 77.6667 120.138 77.7261 120.138 77.792H66.0813V150.624H155.578V77.7854H148.136C148.136 77.7195 148.136 77.6601 148.136 77.5942C148.136 76.3801 147.654 75.2158 146.796 74.3573C145.938 73.4989 144.774 73.0166 143.561 73.0166H124.707C124.106 73.0175 123.511 73.1367 122.956 73.3676C122.402 73.5984 121.898 73.9363 121.474 74.362C121.049 74.7877 120.713 75.2928 120.484 75.8485C120.255 76.4042 120.137 76.9996 120.138 77.6008Z" fill="#FFC895"/>
<path d="M158.248 81.6045H70.3926V156.541H158.248V81.6045Z" fill="white"/>
<g style="mix-blend-mode:multiply">
<path d="M163.206 161.111V88.2793H158.248V81.6042H155.611V77.7918H148.136C148.136 77.7258 148.136 77.6665 148.136 77.6005C148.136 76.3865 147.654 75.2221 146.796 74.3637C145.938 73.5052 144.774 73.0229 143.561 73.0229H141.932C142.668 76.9579 143.043 80.9518 143.053 84.955C143.053 121.852 112.287 152.636 75.4093 152.636C73.7283 152.636 72.0604 152.55 70.4058 152.425V156.534H73.7019V161.111H163.206Z" fill="#B1B1B0"/>
</g>
<path d="M207.051 34.0874H138.03C130.919 34.0874 125.155 39.8548 125.155 46.9692V148.23C125.155 155.344 130.919 161.111 138.03 161.111H207.051C214.162 161.111 219.926 155.344 219.926 148.23V46.9692C219.926 39.8548 214.162 34.0874 207.051 34.0874Z" fill="#E7E7E7"/>
<path d="M209.563 51.7251H135.353V55.3001H209.563V51.7251Z" fill="#B1B1B0"/>
<path d="M209.563 62.8193H135.353V66.3943H209.563V62.8193Z" fill="#B1B1B0"/>
<path d="M209.563 73.9136H135.353V77.4886H209.563V73.9136Z" fill="#B1B1B0"/>
<path d="M209.563 85.001H135.353V88.576H209.563V85.001Z" fill="#B1B1B0"/>
<path d="M200.05 121.707C200.05 114.406 197.151 107.404 191.992 102.242C186.832 97.0795 179.834 94.1792 172.537 94.1792C165.24 94.1792 158.242 97.0795 153.083 102.242C147.923 107.404 145.024 114.406 145.024 121.707H200.05Z" fill="#FB8284"/>
<path d="M145.031 121.661C145.031 121.727 145.031 121.786 145.031 121.852C145.031 129.154 147.93 136.157 153.09 141.32C158.25 146.483 165.249 149.384 172.547 149.384C179.845 149.384 186.843 146.483 192.004 141.32C197.164 136.157 200.063 129.154 200.063 121.852C200.063 121.786 200.063 121.727 200.063 121.661H145.031Z" fill="#273F5E"/>
<path d="M200.05 121.661H172.481L189.555 143.487C192.831 140.913 195.479 137.627 197.299 133.877C199.118 130.128 200.061 126.014 200.057 121.846C200.057 121.786 200.05 121.727 200.05 121.661Z" fill="#733533"/>
<path d="M172.415 121.694H200.05C200.009 117.097 198.824 112.582 196.601 108.558C194.379 104.535 191.189 101.128 187.32 98.6479L172.415 121.694Z" fill="#96D5E2"/>
<path d="M148.637 108.173C146.285 112.292 145.043 116.951 145.031 121.694H172.54L148.637 108.173Z" fill="#386539"/>
<g style="mix-blend-mode:multiply">
<path d="M209.229 32.8862H198.728C201.038 41.6048 202.208 50.5864 202.208 59.6063C202.208 103.977 174.046 142.754 134.901 158.763C136.557 159.518 138.355 159.912 140.175 159.917H209.196C212.611 159.917 215.886 158.56 218.3 156.144C220.715 153.728 222.071 150.452 222.071 147.035V45.768C222.071 42.3573 220.719 39.0857 218.312 36.6709C215.904 34.256 212.638 32.895 209.229 32.8862Z" fill="#FBFDFE"/>
</g>
<path d="M127.759 88.0883C127.759 88.1543 127.759 88.2136 127.759 88.2796H73.7019V161.112H163.206V88.2796H155.763C155.763 88.2136 155.763 88.1543 155.763 88.0883C155.763 86.8743 155.281 85.7099 154.423 84.8515C153.565 83.993 152.401 83.5107 151.188 83.5107H132.334C131.12 83.5107 129.957 83.993 129.099 84.8515C128.241 85.7099 127.759 86.8743 127.759 88.0883Z" fill="#FFC895"/>
<path opacity="0.67" d="M112.685 160.78C122.846 148.215 120.904 129.787 108.346 119.62C95.7884 109.452 77.3704 111.396 67.2086 123.961C57.0467 136.525 58.989 154.953 71.5468 165.121C84.1047 175.288 102.523 173.345 112.685 160.78Z" fill="#C1DAF4"/>
<path d="M112.069 115.019C106.663 110.638 100.079 107.96 93.1509 107.323C86.2229 106.687 79.2617 108.12 73.148 111.443C67.0344 114.765 62.0429 119.827 58.805 125.988C55.5672 132.149 54.2285 139.133 54.9582 146.056C55.6879 152.978 58.4533 159.529 62.9045 164.879C67.3557 170.229 73.2928 174.138 79.9646 176.111C86.6365 178.084 93.7434 178.033 100.386 175.964C107.029 173.895 112.91 169.902 117.284 164.489C123.145 157.235 125.888 147.95 124.91 138.674C123.932 129.398 119.314 120.89 112.069 115.019ZM112.682 160.782C109.043 165.282 104.152 168.601 98.6279 170.319C93.1036 172.038 87.1939 172.079 81.6464 170.437C76.0988 168.795 71.1624 165.544 67.4616 161.095C63.7607 156.646 61.4616 151.198 60.8549 145.442C60.2482 139.685 61.3612 133.878 64.0532 128.755C66.7452 123.631 70.8953 119.421 75.9785 116.658C81.0618 113.894 86.85 112.701 92.6111 113.229C98.3722 113.757 103.848 115.982 108.345 119.623C114.374 124.506 118.219 131.585 119.032 139.304C119.846 147.022 117.562 154.748 112.682 160.782Z" fill="#192641"/>
<path d="M63.8267 162.259C63.7344 162.365 63.6355 162.464 63.5432 162.569L27.4108 207.23C26.7615 208.03 26.276 208.95 25.9821 209.938C25.6882 210.925 25.5916 211.961 25.6978 212.986C25.804 214.011 26.111 215.005 26.6011 215.912C27.0913 216.818 27.7551 217.619 28.5545 218.268C29.354 218.918 30.2736 219.404 31.2607 219.698C32.2478 219.992 33.2831 220.089 34.3075 219.982C35.332 219.876 36.3255 219.569 37.2313 219.079C38.1371 218.588 38.9375 217.924 39.5868 217.124L75.7258 172.437C75.8115 172.325 75.8906 172.213 75.9763 172.1L63.8267 162.259Z" fill="#192641"/>
<path d="M55.7891 172.149L49.4651 179.968L61.6463 189.831L67.9703 182.011L55.7891 172.149Z" fill="#C1DAF4"/>
<path d="M48.566 181.078L46.3894 183.77L58.5724 193.63L60.749 190.938L48.566 181.078Z" fill="#C1DAF4"/>
<path style="mix-blend-mode:multiply" d="M145.031 189.006C192.587 189.006 231.139 182.94 231.139 175.458C231.139 167.975 192.587 161.91 145.031 161.91C97.474 161.91 58.9219 167.975 58.9219 175.458C58.9219 182.94 97.474 189.006 145.031 189.006Z" fill="url(#paint0_radial)"/>
</g>
<defs>
<radialGradient id="paint0_radial" cx="0" cy="0" r="1" gradientUnits="userSpaceOnUse" gradientTransform="translate(139.108 194.949) scale(85.7432 13.7877)">
<stop stop-color="#9B9B9B"/>
<stop offset="0.19" stop-color="#A8A8A8"/>
<stop offset="0.55" stop-color="#CBCBCB"/>
<stop offset="1" stop-color="white"/>
</radialGradient>
<clipPath id="clip0">
<rect width="263" height="220" fill="white"/>
</clipPath>
</defs>
</svg>
