<svg width="421" height="423" viewBox="0 0 421 423" fill="none" xmlns="http://www.w3.org/2000/svg">
<g clip-path="url(#clip0)">
<g opacity="0.4">
<path opacity="0.4" d="M199.279 384.399C197.662 384.399 196 384.343 194.37 384.278L194.411 383.278C196.028 383.342 197.67 383.387 199.287 383.399L199.279 384.399ZM204.2 384.355L204.176 383.355C205.793 383.314 207.443 383.25 209.048 383.161L209.105 384.161C207.479 384.262 205.817 384.327 204.2 384.355ZM189.481 383.988C187.864 383.867 186.214 383.722 184.593 383.548L184.698 382.552C186.315 382.725 187.933 382.871 189.55 382.992L189.481 383.988ZM214.006 383.806L213.917 382.81C215.534 382.669 217.152 382.495 218.769 382.302L218.89 383.294C217.257 383.5 215.615 383.673 213.994 383.814L214.006 383.806ZM179.72 382.943C178.103 382.717 176.485 382.463 174.868 382.181L175.042 381.197C176.639 381.475 178.277 381.729 179.858 381.951L179.72 382.943ZM223.751 382.621L223.597 381.632C225.194 381.386 226.812 381.108 228.401 380.806L228.587 381.79C226.973 382.1 225.348 382.383 223.739 382.629L223.751 382.621ZM170.048 381.265C168.431 380.931 166.837 380.572 165.256 380.189L165.495 379.217C167.064 379.596 168.661 379.959 170.25 380.289L170.048 381.265ZM233.399 380.798L233.18 379.822C234.757 379.471 236.35 379.083 237.919 378.68L238.17 379.648C236.581 380.064 234.976 380.451 233.386 380.806L233.399 380.798ZM160.509 378.95C158.944 378.515 157.363 378.047 155.803 377.559L156.102 376.603C157.65 377.091 159.223 377.555 160.776 377.987L160.509 378.95ZM242.905 378.341L242.622 377.382C244.175 376.926 245.74 376.438 247.276 375.93L247.592 376.881C246.031 377.398 244.454 377.902 242.893 378.349L242.905 378.341ZM151.116 376.006C149.567 375.462 148.015 374.889 146.498 374.3L146.862 373.369C148.366 373.953 149.911 374.526 151.448 375.062L151.116 376.006ZM252.205 375.26L251.857 374.32C253.378 373.76 254.91 373.171 256.407 372.562L256.783 373.49C255.286 374.111 253.746 374.708 252.213 375.268L252.205 375.26ZM141.933 372.437C140.425 371.792 138.913 371.118 137.441 370.42L137.865 369.513C139.329 370.195 140.829 370.868 142.313 371.505L141.933 372.437ZM261.287 371.574L260.883 370.658C262.363 370.001 263.843 369.311 265.29 368.61L265.727 369.509C264.275 370.239 262.783 370.925 261.295 371.586L261.287 371.574ZM133.033 368.287C131.586 367.553 130.122 366.779 128.686 365.988L129.172 365.113C130.599 365.895 132.051 366.666 133.49 367.396L133.033 368.287ZM270.11 367.315L269.641 366.428C271.064 365.677 272.5 364.895 273.907 364.092L274.404 364.964C272.985 365.774 271.538 366.565 270.11 367.319V367.315ZM124.42 363.548C123.017 362.717 121.61 361.846 120.239 360.971L120.781 360.128C122.144 360.999 123.543 361.862 124.934 362.689L124.42 363.548ZM278.602 362.475L278.076 361.624C279.455 360.781 280.834 359.902 282.184 359.015L282.738 359.85C281.396 360.741 280.005 361.628 278.602 362.475ZM116.139 358.261C114.797 357.341 113.45 356.381 112.136 355.417L112.731 354.611C114.037 355.57 115.371 356.522 116.705 357.434L116.139 358.261ZM286.798 357.087L286.22 356.28C287.534 355.353 288.856 354.385 290.146 353.405L290.753 354.211C289.455 355.175 288.124 356.151 286.798 357.087ZM108.234 352.441C106.952 351.433 105.67 350.388 104.429 349.339L105.076 348.573C106.309 349.614 107.583 350.65 108.857 351.654L108.234 352.441ZM294.614 351.17L293.967 350.392C295.225 349.372 296.482 348.323 297.699 347.266L298.359 348.021C297.141 349.085 295.876 350.142 294.61 351.17H294.614ZM100.729 346.121C99.5161 345.032 98.3031 343.911 97.1385 342.782L97.834 342.06C99.0026 343.181 100.2 344.298 101.4 345.379L100.729 346.121ZM302.026 344.754L301.343 344.024C302.527 342.927 303.712 341.793 304.865 340.66L305.572 341.37C304.412 342.507 303.219 343.649 302.022 344.754H302.026ZM93.657 339.325C92.5208 338.16 91.3886 336.958 90.2928 335.76L91.0368 335.086C92.1245 336.296 93.2486 337.47 94.3768 338.627L93.657 339.325ZM309.001 337.865L308.273 337.176C309.385 336.002 310.493 334.796 311.569 333.586L312.321 334.252C311.237 335.47 310.121 336.683 309.001 337.865ZM87.0498 332.086C85.9945 330.852 84.9431 329.581 83.9282 328.311L84.7127 327.686C85.7235 328.948 86.7668 330.21 87.8141 331.436L87.0498 332.086ZM315.511 330.533L314.743 329.908C315.778 328.666 316.805 327.387 317.796 326.113L318.605 326.726C317.59 327.996 316.555 329.279 315.515 330.533H315.511ZM80.9319 324.435C79.9534 323.128 78.991 321.793 78.065 320.466L78.8737 319.894C79.7916 321.212 80.75 322.539 81.7042 323.838L80.9319 324.435ZM321.524 322.789L320.715 322.201C321.666 320.89 322.608 319.547 323.514 318.212L324.346 318.772C323.441 320.12 322.491 321.471 321.536 322.789H321.524ZM75.3316 316.405C74.446 315.042 73.5726 313.65 72.7356 312.259L73.5928 311.759C74.4258 313.138 75.2952 314.526 76.1726 315.877L75.3316 316.405ZM327.035 314.663L326.186 314.13C327.052 312.759 327.901 311.36 328.718 309.964L329.583 310.468C328.742 311.872 327.905 313.283 327.035 314.663ZM70.269 308.028C69.4603 306.613 68.6961 305.165 67.9521 303.721L68.8457 303.261C69.5857 304.693 70.362 306.133 71.1465 307.536L70.269 308.028ZM331.977 306.189L331.107 305.709C331.876 304.29 332.632 302.834 333.356 301.382L334.253 301.829C333.525 303.289 332.765 304.761 331.977 306.189ZM65.7726 299.333C65.073 297.865 64.3937 296.369 63.7508 294.896L64.6727 294.493C65.3157 295.965 65.9909 297.449 66.6945 298.909L65.7726 299.333ZM336.364 297.393L335.45 296.99C336.125 295.518 336.785 294.017 337.407 292.521L338.333 292.924C337.719 294.417 337.051 295.925 336.372 297.405L336.364 297.393ZM61.8665 290.383C61.264 288.871 60.6817 287.33 60.1318 285.802L61.078 285.463C61.6239 286.979 62.2021 288.512 62.8006 290.016L61.8665 290.383ZM340.153 288.339L339.215 287.984C339.793 286.467 340.351 284.923 340.873 283.394L341.823 283.717C341.309 285.261 340.747 286.818 340.169 288.347L340.153 288.339ZM58.5669 281.172C58.0696 279.623 57.5884 278.046 57.1436 276.485L58.11 276.211C58.5548 277.764 59.0279 279.329 59.5253 280.865L58.5669 281.172ZM343.351 279.05L342.393 278.76C342.866 277.215 343.319 275.642 343.735 274.086L344.706 274.344C344.281 275.909 343.824 277.478 343.351 279.05ZM55.8739 271.755C55.4696 270.178 55.1057 268.572 54.766 266.983L55.7486 266.774C56.0882 268.351 56.4603 269.948 56.8525 271.513L55.8739 271.755ZM345.899 269.593L344.92 269.367C345.288 267.794 345.636 266.193 345.951 264.612L346.934 264.805C346.622 266.399 346.271 268.008 345.899 269.593ZM53.8158 262.176C53.5287 260.563 53.2618 258.949 53.007 257.336L54.0018 257.191C54.2363 258.804 54.4991 260.417 54.7862 261.99L53.8158 262.176ZM347.819 259.986L346.829 259.825C347.092 258.232 347.33 256.598 347.54 255.013L348.535 255.142C348.325 256.755 348.082 258.385 347.815 259.986H347.819ZM52.3924 252.472C52.2105 250.859 52.0528 249.222 51.9234 247.596L52.9221 247.516C53.0515 249.129 53.2092 250.742 53.3912 252.355L52.3924 252.472ZM349.093 250.262L348.094 250.165C348.252 248.552 348.385 246.939 348.499 245.326L349.502 245.39C349.384 247.024 349.251 248.665 349.093 250.278V250.262ZM51.612 242.728C51.5352 241.115 51.4826 239.461 51.4624 237.832H52.4652C52.4895 239.445 52.538 241.083 52.6148 242.696L51.612 242.728ZM349.732 240.506L348.729 240.474C348.782 238.861 348.806 237.223 348.806 235.61C348.806 234.142 348.786 232.646 348.741 231.173L349.744 231.145C349.789 232.629 349.809 234.134 349.809 235.614C349.809 237.231 349.768 238.881 349.728 240.506H349.732ZM52.4692 232.952H51.4664C51.4948 231.339 51.5514 229.677 51.6322 228.06L52.635 228.108C52.5663 229.697 52.4976 231.335 52.4692 232.952ZM348.515 226.314C348.414 224.7 348.288 223.087 348.135 221.474L349.134 221.381C349.287 222.994 349.417 224.644 349.518 226.261L348.515 226.314ZM52.9707 223.236L51.9719 223.156C52.1053 221.542 52.2711 219.897 52.4571 218.284L53.4518 218.401C53.2537 220.002 53.092 221.627 52.9707 223.236ZM347.605 216.626C347.399 215.013 347.164 213.4 346.906 211.81L347.896 211.649C348.155 213.262 348.394 214.876 348.6 216.489L347.605 216.626ZM54.0948 213.573L53.1041 213.424C53.3467 211.81 53.6176 210.197 53.9128 208.584L54.8994 208.766C54.5881 210.367 54.3212 211.98 54.0826 213.573H54.0948ZM346.04 207.023C345.729 205.442 345.389 203.841 345.021 202.264L346 202.038C346.368 203.623 346.711 205.237 347.023 206.83L346.04 207.023ZM55.8416 204.006L54.863 203.793C55.2108 202.2 55.5909 200.598 55.9872 199.026L56.9617 199.272C56.5613 200.849 56.2055 202.425 55.8416 204.006ZM343.845 197.553C343.44 195.997 342.983 194.42 342.514 192.875L343.477 192.585C343.95 194.141 344.399 195.726 344.815 197.295L343.845 197.553ZM58.2273 194.577L57.2649 194.299C57.7178 192.738 58.199 191.161 58.7044 189.616L59.6587 189.927C59.1614 191.459 58.6802 193.024 58.2273 194.577ZM341.026 188.237C340.509 186.712 339.959 185.168 339.389 183.655L340.327 183.305C340.901 184.829 341.455 186.382 341.976 187.918L341.026 188.237ZM61.2438 185.313L60.3016 184.974C60.8597 183.442 61.446 181.897 62.0525 180.385L62.9825 180.756C62.3881 182.252 61.8018 183.788 61.2478 185.309L61.2438 185.313ZM337.597 179.13C336.979 177.638 336.328 176.142 335.664 174.694L336.578 174.291C337.245 175.763 337.901 177.271 338.523 178.771L337.597 179.13ZM64.879 176.247L63.9611 175.843C64.6161 174.351 65.3076 172.851 66.0152 171.383L66.921 171.81C66.2174 173.282 65.534 174.77 64.879 176.247ZM333.594 170.294C332.878 168.85 332.13 167.394 331.37 165.978L332.256 165.506C333.02 166.934 333.776 168.398 334.496 169.85L333.594 170.294ZM69.1085 167.471L68.2189 167.007C68.971 165.563 69.7595 164.111 70.5602 162.691L71.4336 163.183C70.633 164.587 69.8525 166.031 69.1045 167.462L69.1085 167.471ZM328.997 161.727C328.188 160.328 327.343 158.928 326.49 157.565L327.343 157.037C328.2 158.412 329.049 159.82 329.866 161.227L328.997 161.727ZM73.9002 158.969L73.0429 158.448C73.8921 157.057 74.7736 155.662 75.6631 154.298L76.5042 154.847C75.6146 156.206 74.7412 157.593 73.8961 158.977L73.9002 158.969ZM323.849 153.492C322.951 152.153 322.017 150.81 321.071 149.499L321.88 148.914C322.83 150.233 323.772 151.588 324.674 152.947L323.849 153.492ZM79.2538 150.838L78.4451 150.265C79.3832 148.934 80.3537 147.599 81.3322 146.301L82.1409 146.902C81.1341 148.176 80.1717 149.499 79.2538 150.838ZM318.18 145.595C317.193 144.316 316.158 143.038 315.147 141.792L315.924 141.155C316.959 142.409 317.986 143.699 318.977 144.986L318.18 145.595ZM85.121 143.038L84.3406 142.409C85.3637 141.142 86.419 139.872 87.4825 138.642L88.2427 139.295C87.1711 140.521 86.1279 141.784 85.1049 143.042L85.121 143.038ZM311.989 138.089C310.922 136.879 309.822 135.67 308.71 134.488L309.442 133.802C310.558 134.988 311.67 136.222 312.741 137.432L311.989 138.089ZM91.4816 135.67L90.7416 134.992C91.8455 133.782 92.9817 132.6 94.122 131.439L94.8377 132.141C93.6894 133.286 92.5612 134.476 91.4654 135.661L91.4816 135.67ZM305.289 130.999C304.141 129.858 302.964 128.72 301.779 127.619L302.463 126.889C303.652 127.999 304.84 129.144 305.993 130.293L305.289 130.999ZM98.2829 128.716L97.5914 127.995C98.7721 126.873 99.9812 125.752 101.194 124.671L101.861 125.417C100.685 126.49 99.4717 127.603 98.295 128.716H98.2829ZM298.164 124.357C296.951 123.292 295.69 122.235 294.44 121.211L295.075 120.436C296.333 121.465 297.594 122.53 298.824 123.602L298.164 124.357ZM105.549 122.235L104.906 121.469C106.156 120.428 107.437 119.392 108.719 118.388L109.338 119.194C108.076 120.186 106.799 121.199 105.561 122.235H105.549ZM290.615 118.202C289.325 117.218 288.003 116.242 286.693 115.306L287.275 114.5C288.597 115.444 289.928 116.424 291.226 117.416L290.615 118.202ZM113.22 116.242L112.625 115.435C113.94 114.48 115.286 113.528 116.633 112.612L117.199 113.419C115.876 114.347 114.538 115.29 113.22 116.242ZM282.686 112.524C281.339 111.628 279.956 110.741 278.577 109.89L279.107 109.039C280.494 109.898 281.885 110.789 283.244 111.689L282.686 112.524ZM121.279 110.765L120.741 109.922C122.116 109.051 123.523 108.192 124.922 107.369L125.431 108.232C124.04 109.047 122.645 109.902 121.279 110.765ZM274.384 107.393C272.973 106.587 271.554 105.78 270.11 105.034L270.583 104.151C272.019 104.913 273.466 105.712 274.886 106.526L274.384 107.393ZM129.661 105.829L129.18 104.949C130.607 104.171 132.067 103.409 133.519 102.679L133.971 103.574C132.528 104.3 131.08 105.058 129.665 105.833L129.661 105.829ZM265.755 102.816C264.3 102.106 262.812 101.408 261.332 100.743L261.736 99.8314C263.228 100.501 264.724 101.203 266.184 101.916L265.755 102.816ZM138.347 101.457L137.942 100.549C139.414 99.8677 140.918 99.2022 142.418 98.569L142.823 99.4885C141.306 100.122 139.81 100.783 138.351 101.461L138.347 101.457ZM256.823 98.8191C255.323 98.206 253.79 97.6091 252.27 97.0445L252.622 96.1048C254.15 96.6734 255.695 97.2744 257.207 97.8914L256.823 98.8191ZM147.279 97.6696L146.919 96.7339C148.443 96.1491 149.992 95.5805 151.529 95.0481L151.86 95.9918C150.352 96.5282 148.803 97.0888 147.299 97.6736L147.279 97.6696ZM247.656 95.4151C246.12 94.9029 244.559 94.4109 243.006 93.9471L243.293 92.9872C244.854 93.451 246.431 93.9471 247.976 94.4633L247.656 95.4151ZM156.49 94.4714L156.191 93.5155C157.748 93.0315 159.333 92.5677 160.902 92.1362L161.168 93.1001C159.632 93.5317 158.059 93.9914 156.51 94.4754L156.49 94.4714ZM238.312 92.6363C236.747 92.233 235.154 91.8297 233.573 91.4788L233.795 90.5028C235.384 90.8617 236.989 91.2529 238.566 91.6684L238.312 92.6363ZM165.891 91.8861L165.657 90.9142C167.242 90.5351 168.855 90.1761 170.448 89.8494L170.651 90.8295C169.09 91.1481 167.488 91.5151 165.912 91.8902L165.891 91.8861ZM228.801 90.4786C227.248 90.1801 225.631 89.8978 224.014 89.6437L224.171 88.6556C225.789 88.9097 227.406 89.1961 229.023 89.5026L228.801 90.4786ZM175.426 89.9301L175.256 88.942C176.874 88.6677 178.491 88.4177 180.108 88.1959L180.246 89.188C178.677 89.4139 177.056 89.6639 175.466 89.9382L175.426 89.9301ZM219.149 88.9581C217.532 88.7565 215.914 88.583 214.297 88.4338L214.39 87.4376C216.007 87.5869 217.661 87.7643 219.27 87.966L219.149 88.9581ZM185.086 88.6072L184.981 87.6111C186.598 87.4417 188.244 87.3005 189.874 87.1835L189.946 88.1797C188.365 88.3047 186.732 88.4459 185.127 88.6113L185.086 88.6072ZM209.436 88.0668C207.819 87.97 206.181 87.9014 204.564 87.8611L204.592 86.8609C206.21 86.9053 207.868 86.9738 209.497 87.0706L209.436 88.0668ZM194.855 87.9216L194.815 86.9214C196.432 86.8609 198.094 86.8246 199.72 86.8125V87.8127C198.114 87.8248 196.473 87.8611 194.855 87.9216Z" fill="#A4A7AA"/>
</g>
<path d="M202.393 415.007V413.797C204.35 413.797 206.327 413.728 208.268 413.647L208.321 414.857C206.351 414.946 204.362 415.007 202.393 415.007ZM196.473 414.97C194.633 414.93 192.773 414.857 190.945 414.761L191.01 413.551C192.826 413.647 194.673 413.716 196.501 413.756L196.473 414.97ZM213.828 414.543L213.739 413.333C215.559 413.2 217.402 413.038 219.214 412.853L219.339 414.063C217.516 414.252 215.664 414.414 213.828 414.547V414.543ZM185.422 414.385C183.457 414.22 181.475 414.023 179.53 413.797L179.672 412.587C181.605 412.813 183.574 412.99 185.523 413.172L185.422 414.385ZM225.215 413.353L225.049 412.143C226.99 411.877 228.943 411.578 230.859 411.252L231.062 412.462C229.141 412.792 227.172 413.095 225.227 413.361L225.215 413.353ZM173.663 413.014C171.839 412.74 170.004 412.438 168.204 412.111L168.423 410.925C170.206 411.252 172.034 411.55 173.845 411.824L173.663 413.014ZM236.508 411.445L236.27 410.264C238.053 409.905 239.86 409.509 241.64 409.094L241.914 410.268C240.123 410.695 238.308 411.09 236.508 411.453V411.445ZM162.778 411.042C160.857 410.639 158.916 410.183 157.012 409.711L157.303 408.542C159.195 409.013 161.12 409.457 163.033 409.864L162.778 411.042ZM247.652 408.828L247.337 407.662C249.225 407.154 251.126 406.606 252.998 406.049L253.354 407.203C251.469 407.747 249.557 408.316 247.656 408.828H247.652ZM151.29 408.191C149.523 407.691 147.74 407.154 145.993 406.577L146.361 405.428C148.096 405.98 149.867 406.513 151.618 407.009L151.29 408.191ZM258.61 405.497L258.206 404.355C259.929 403.77 261.671 403.145 263.382 402.508L263.806 403.637C262.1 404.283 260.345 404.924 258.61 405.497ZM140.716 404.835C138.864 404.182 136.992 403.488 135.152 402.77L135.593 401.645C137.421 402.359 139.281 403.048 141.12 403.694L140.716 404.835ZM269.302 401.471L268.841 400.354C270.64 399.612 272.451 398.83 274.223 398.031L274.72 399.132C272.961 399.939 271.141 400.725 269.326 401.471H269.302ZM129.645 400.524C127.959 399.802 126.252 399.04 124.582 398.261L125.096 397.168C126.754 397.943 128.448 398.697 130.122 399.415L129.645 400.524ZM279.71 396.785L279.176 395.7C280.793 394.894 282.451 394.067 284.061 393.216L284.627 394.284C283.05 395.139 281.38 395.982 279.738 396.785H279.71ZM119.584 395.845C117.826 394.958 116.058 394.034 114.328 393.091L114.959 392.018C116.673 392.954 118.424 393.873 120.171 394.752L119.584 395.845ZM289.79 391.441L289.188 390.393C290.882 389.425 292.58 388.42 294.234 387.4L294.869 388.428C293.243 389.457 291.541 390.469 289.831 391.441H289.79ZM109.18 390.163C107.599 389.231 106.006 388.259 104.453 387.279L105.1 386.259C106.645 387.235 108.222 388.199 109.795 389.126L109.18 390.163ZM299.527 385.464L298.86 384.456C300.376 383.46 301.901 382.439 303.397 381.37L304.092 382.359C302.629 383.419 301.092 384.464 299.568 385.468L299.527 385.464ZM99.8235 384.254C98.2061 383.153 96.5644 382.012 94.9713 380.858L95.6829 379.882C97.264 381.028 98.8854 382.161 100.503 383.254L99.8235 384.254ZM308.876 378.89L308.148 377.926C309.701 376.757 311.258 375.543 312.778 374.321L313.538 375.26C312.042 376.486 310.473 377.708 308.928 378.886L308.876 378.89ZM90.2403 377.309C88.7887 376.184 87.337 375.018 85.9218 373.853L86.6941 372.925C88.0972 374.087 89.5246 375.24 90.9843 376.357L90.2403 377.309ZM317.824 371.723L317.016 370.808C318.394 369.626 319.777 368.388 321.128 367.178L321.937 368.069C320.602 369.299 319.211 370.534 317.824 371.723ZM81.7528 370.263C80.281 368.973 78.8091 367.634 77.3737 366.287L78.2026 365.399C79.63 366.738 81.0897 368.065 82.5535 369.348L81.7528 370.263ZM326.263 364.012L325.418 363.149C326.813 361.79 328.204 360.39 329.559 358.983L330.432 359.818C329.065 361.233 327.666 362.645 326.263 364.008V364.012ZM73.136 362.169C71.8461 360.874 70.5522 359.539 69.2946 358.2L70.1761 357.394C71.4256 358.725 72.7114 360.052 73.9932 361.338L73.136 362.169ZM334.201 355.776L333.303 354.97C334.516 353.623 335.729 352.235 336.942 350.844L337.864 351.626C336.651 353.022 335.426 354.421 334.201 355.776ZM65.5664 354.107C64.2725 352.639 62.9786 351.126 61.7291 349.614L62.6753 348.864C63.9167 350.368 65.1985 351.868 66.4884 353.328L65.5664 354.107ZM341.601 347.049L340.65 346.299C341.863 344.774 343.076 343.209 344.233 341.64L345.203 342.358C344.035 343.943 342.822 345.52 341.605 347.057L341.601 347.049ZM58.0414 345C56.9213 343.548 55.8093 342.06 54.7337 340.564L55.7163 339.858C56.7798 341.33 57.8877 342.806 58.9997 344.246L58.0414 345ZM348.434 337.873L347.439 337.184C348.479 335.692 349.51 334.159 350.509 332.63L351.523 333.288C350.525 334.837 349.485 336.361 348.438 337.882L348.434 337.873ZM51.5676 336.067C50.4678 334.453 49.3801 332.784 48.3328 331.13L49.3558 330.485C50.395 332.126 51.4746 333.776 52.5664 335.389L51.5676 336.067ZM354.681 328.295L353.646 327.67C354.657 326.004 355.668 324.294 356.61 322.592L357.666 323.181C356.699 324.887 355.696 326.609 354.681 328.295ZM45.288 326.097C44.362 324.52 43.4481 322.907 42.5707 321.301L43.6341 320.725C44.5035 322.338 45.4133 323.923 46.3312 325.488L45.288 326.097ZM360.282 318.309L359.21 317.752C360.051 316.139 360.88 314.49 361.677 312.84L362.769 313.364C361.98 315.022 361.143 316.688 360.282 318.309ZM39.9868 316.425C39.1013 314.679 38.236 312.896 37.4111 311.126L38.5069 310.618C39.3156 312.376 40.189 314.147 41.0665 315.881L39.9868 316.425ZM365.268 307.992L364.16 307.504C364.968 305.714 365.724 303.874 366.448 302.088L367.572 302.539C366.84 304.354 366.064 306.189 365.268 307.992ZM35.0133 305.746C34.2975 304.064 33.598 302.35 32.9349 300.652L34.063 300.212C34.7221 301.898 35.4176 303.6 36.1293 305.274L35.0133 305.746ZM369.582 297.369L368.446 296.966C369.077 295.252 369.687 293.501 370.261 291.775L371.41 292.154C370.795 293.884 370.197 295.627 369.582 297.369ZM31.0263 295.473C30.3712 293.622 29.7364 291.739 29.146 289.876L30.2985 289.513C30.8888 291.364 31.5115 293.235 32.1666 295.074L31.0263 295.473ZM373.185 286.508L372.024 286.165C372.578 284.298 373.104 282.394 373.597 280.519L374.77 280.821C374.252 282.721 373.719 284.628 373.165 286.508H373.185ZM27.4599 284.217C26.9625 282.451 26.4894 280.656 26.0446 278.881L27.2213 278.591C27.658 280.353 28.1311 282.14 28.6244 283.89L27.4599 284.217ZM376.052 275.461L374.871 275.195C375.275 273.429 375.655 271.622 376.003 269.831L377.192 270.061C376.86 271.86 376.456 273.675 376.052 275.461ZM24.7669 273.505C24.3625 271.589 23.9581 269.641 23.6185 267.714L24.8113 267.5C25.1591 269.416 25.5432 271.351 25.9516 273.255L24.7669 273.505ZM378.227 264.229L377.014 264.039C377.325 262.112 377.604 260.16 377.851 258.236L379.064 258.389C378.822 260.333 378.538 262.301 378.227 264.241V264.229ZM22.644 261.886C22.3771 260.075 22.1345 258.232 21.9242 256.413L23.1373 256.276C23.3476 258.083 23.5861 259.906 23.853 261.712L22.644 261.886ZM379.691 252.912L378.478 252.795C378.652 250.988 378.801 249.165 378.919 247.33L380.132 247.407C380.002 249.246 379.853 251.093 379.691 252.912ZM21.3945 250.924C21.2287 248.972 21.0953 246.992 20.9902 245.031L22.2032 244.967C22.3043 246.911 22.4378 248.879 22.6076 250.819L21.3945 250.924ZM380.411 241.515L379.198 241.474C379.262 239.534 379.295 237.562 379.295 235.61H380.508C380.5 237.574 380.471 239.567 380.411 241.515ZM20.7799 239.131C20.7556 237.969 20.7476 236.784 20.7476 235.61C20.7476 234.943 20.7476 234.271 20.7476 233.594H21.9606C21.9606 234.255 21.9606 234.916 21.9606 235.578C21.9606 236.743 21.9606 237.921 21.993 239.075L20.7799 239.131ZM379.287 233.727C379.266 231.771 379.214 229.802 379.129 227.871L380.342 227.818C380.427 229.762 380.479 231.746 380.5 233.715L379.287 233.727ZM22.1102 228.145L20.8972 228.096C20.978 226.136 21.0913 224.156 21.2368 222.2L22.4499 222.289C22.3043 224.241 22.1911 226.201 22.1102 228.145ZM378.809 222.394C378.676 220.583 378.514 218.764 378.324 216.933L379.537 216.808C379.727 218.631 379.893 220.482 380.027 222.305L378.809 222.394ZM22.9756 216.449L21.7625 216.32C21.9566 214.501 22.1668 212.658 22.4337 210.843L23.6468 211.008C23.3961 212.811 23.1737 214.638 22.9796 216.449H22.9756ZM377.617 211.113C377.35 209.181 377.05 207.233 376.719 205.317L377.932 205.112C378.264 207.04 378.567 209.004 378.834 210.948L377.617 211.113ZM24.4838 205.588L23.2707 205.386C23.5983 203.45 23.9662 201.498 24.3585 199.582L25.5432 199.824C25.1712 201.728 24.8073 203.672 24.4838 205.588ZM375.716 199.941C375.352 198.159 374.956 196.356 374.539 194.585L375.716 194.307C376.12 196.09 376.525 197.905 376.901 199.699L375.716 199.941ZM26.8291 194.097L25.6524 193.819C26.081 192.036 26.5379 190.238 27.0191 188.471L28.1877 188.786C27.7106 190.54 27.2537 192.327 26.8291 194.097ZM373.092 188.887C372.582 187.007 372.032 185.112 371.474 183.24L372.631 182.885C373.205 184.757 373.759 186.664 374.273 188.56L373.092 188.887ZM29.7121 183.506L28.5557 183.156C29.1299 181.276 29.7445 179.381 30.3834 177.509L31.5277 177.913C30.8929 179.768 30.2823 181.651 29.7121 183.506ZM369.776 178.025C369.186 176.299 368.563 174.565 367.92 172.867L369.052 172.444C369.695 174.154 370.326 175.9 370.92 177.638L369.776 178.025ZM33.5374 172.379L32.4052 171.952C33.0602 170.234 33.7476 168.503 34.4552 166.809L35.5834 167.277C34.8636 168.963 34.1762 170.681 33.5293 172.387L33.5374 172.379ZM365.761 167.418C365.017 165.628 364.232 163.821 363.428 162.054L364.532 161.554C365.34 163.333 366.149 165.152 366.881 166.955L365.761 167.418ZM37.7548 162.236L36.6549 161.728C37.4637 159.937 38.3209 158.138 39.1903 156.376L40.2739 156.908C39.4086 158.671 38.5635 160.457 37.7548 162.236ZM361.091 157.118C360.282 155.505 359.449 153.847 358.596 152.246L359.667 151.681C360.524 153.294 361.37 154.94 362.178 156.585L361.091 157.118ZM42.9831 151.697L41.9156 151.129C42.785 149.515 43.6867 147.902 44.6046 146.289L45.6519 146.89C44.7259 148.471 43.8282 150.088 42.967 151.693L42.9831 151.697ZM355.765 147.124C354.799 145.442 353.792 143.752 352.765 142.095L353.796 141.461C354.831 143.131 355.846 144.833 356.82 146.527L355.765 147.124ZM48.4541 142.179L47.423 141.562C48.4541 139.892 49.5297 138.215 50.6174 136.581L51.6242 137.247C50.5446 138.852 49.4811 140.518 48.4541 142.175V142.179ZM349.789 137.481C348.786 135.968 347.743 134.448 346.691 132.96L347.682 132.262C348.741 133.758 349.789 135.291 350.8 136.811L349.789 137.481ZM54.9602 132.391L53.9735 131.689C55.037 130.197 56.1409 128.701 57.2529 127.253L58.2274 127.971C57.1154 129.423 56.0196 130.911 54.9602 132.391ZM343.226 128.225C342.053 126.676 340.836 125.123 339.587 123.607L340.529 122.849C341.766 124.373 342.992 125.938 344.168 127.495L343.226 128.225ZM61.6118 123.651L60.6535 122.893C61.8868 121.372 63.1646 119.844 64.4504 118.36L65.3643 119.166C64.1067 120.626 62.837 122.143 61.6118 123.651ZM336.089 119.404C334.896 118.021 333.663 116.646 332.45 115.307L333.344 114.5C334.581 115.847 335.814 117.235 337.015 118.626L336.089 119.404ZM69.3027 114.774L68.4131 113.968C69.6585 112.621 70.9444 111.274 72.2262 109.971L73.0915 110.818C71.8178 112.1 70.5441 113.435 69.3027 114.774ZM328.398 111.048C327.036 109.656 325.628 108.269 324.221 106.922L325.058 106.051C326.478 107.406 327.889 108.805 329.264 110.205L328.398 111.048ZM77.0017 106.95L76.1646 106.071C77.5799 104.716 79.0396 103.365 80.5034 102.038L81.3121 102.937C79.8564 104.264 78.4088 105.603 77.0017 106.95ZM320.194 103.187C318.835 101.977 317.44 100.767 316.053 99.5776L316.834 98.658C318.233 99.8397 319.636 101.078 321.003 102.288L320.194 103.187ZM85.7479 99.1178L84.9675 98.1942C86.3706 97.0166 87.798 95.847 89.2537 94.7096L90.0017 95.6574C88.5743 96.7947 87.1429 97.9482 85.7479 99.1178ZM311.504 95.8591C309.972 94.6491 308.399 93.4392 306.834 92.2898L307.554 91.3178C309.131 92.4833 310.712 93.6933 312.256 94.9113L311.504 95.8591ZM94.3647 92.3301L93.645 91.3621C95.226 90.1966 96.8434 89.0391 98.4528 87.93L99.1402 88.9221C97.543 90.0232 95.9377 91.1726 94.3688 92.3301H94.3647ZM302.358 89.1036C300.858 88.0671 299.321 87.0387 297.788 86.0465L298.448 85.0342C299.988 86.0344 301.537 87.0508 303.045 88.1155L302.358 89.1036ZM104.025 85.6795L103.37 84.6632C104.91 83.675 106.487 82.695 108.06 81.7513L108.683 82.7837C107.126 83.7113 105.557 84.6954 104.029 85.6674L104.025 85.6795ZM292.799 82.9289C291.125 81.9206 289.414 80.9124 287.708 79.9767L288.298 78.9241C290.017 79.8839 291.739 80.8801 293.425 81.8965L292.799 82.9289ZM113.426 80.0412L112.836 78.9886C114.546 78.0327 116.297 77.093 118.036 76.1936L118.594 77.2664C116.859 78.1457 115.128 79.0813 113.43 80.0291L113.426 80.0412ZM282.852 77.3713C281.234 76.5324 279.576 75.7056 277.926 74.9151L278.452 73.8262C280.114 74.6328 281.78 75.4394 283.414 76.2985L282.852 77.3713ZM123.838 74.6611L123.317 73.5721C124.97 72.7857 126.657 72.0154 128.335 71.2813L128.82 72.3864C127.166 73.1043 125.492 73.8706 123.85 74.649L123.838 74.6611ZM272.573 72.459C270.782 71.6524 268.934 70.9062 267.138 70.1763L267.591 69.055C269.419 69.785 271.259 70.5594 273.062 71.3499L272.573 72.459ZM133.878 70.265L133.438 69.1357C135.257 68.4017 137.117 67.6919 138.965 67.0183L139.37 68.1516C137.538 68.8211 135.69 69.5269 133.883 70.2529L133.878 70.265ZM262.023 68.196C260.305 67.5668 258.554 66.9619 256.815 66.3892L257.195 65.2438C258.942 65.8205 260.705 66.4335 262.452 67.0627L262.023 68.196ZM144.946 66.2319L144.57 65.0865C146.316 64.5178 148.092 63.9653 149.855 63.449L150.194 64.6065C148.427 65.1187 146.664 65.6672 144.93 66.2319H144.946ZM251.203 64.6186C249.33 64.0701 247.426 63.5418 245.542 63.0538L245.845 61.8842C247.745 62.3762 249.666 62.9046 251.55 63.4571L251.203 64.6186ZM155.491 63.1224L155.188 61.9528C157.089 61.4607 159.025 60.9888 160.942 60.5613L161.209 61.739C159.284 62.1867 157.359 62.6505 155.475 63.1425L155.491 63.1224ZM240.188 61.7834C238.409 61.3801 236.601 61.005 234.81 60.6581L235.04 59.4724C236.844 59.8192 238.68 60.2024 240.455 60.6057L240.188 61.7834ZM166.955 60.5734L166.728 59.3877C168.532 59.0449 170.368 58.7263 172.179 58.4359L172.369 59.6458C170.558 59.908 168.738 60.2226 166.943 60.5654L166.955 60.5734ZM229.02 59.6458C227.095 59.3393 225.134 59.061 223.197 58.815L223.346 57.6051C225.295 57.8511 227.269 58.1294 229.206 58.4399L229.02 59.6458ZM177.812 58.8392L177.658 57.6293C179.607 57.3832 181.589 57.1614 183.542 56.9799L183.655 58.1899C181.702 58.3794 179.737 58.5972 177.8 58.8432L177.812 58.8392ZM217.738 58.202C215.926 58.0285 214.099 57.8834 212.259 57.7664L212.336 56.5565C214.172 56.6734 216.028 56.8226 217.851 56.992L217.738 58.202ZM189.518 57.7382L189.445 56.5282C191.273 56.4153 193.133 56.3306 194.973 56.2741L195.009 57.4841C193.165 57.5446 191.321 57.6333 189.506 57.7422L189.518 57.7382ZM206.384 57.4881C204.479 57.4276 202.546 57.3994 200.638 57.3994H200.504V56.1895H200.638C202.558 56.1895 204.503 56.2217 206.42 56.2822L206.384 57.4881Z" fill="#CEE9F4"/>
<path d="M380.225 251.791C382.813 251.791 384.911 249.698 384.911 247.116C384.911 244.535 382.813 242.442 380.225 242.442C377.636 242.442 375.538 244.535 375.538 247.116C375.538 249.698 377.636 251.791 380.225 251.791Z" fill="#0D3D5F"/>
<g opacity="0.1">
<path opacity="0.1" d="M380.225 265.979C390.669 265.979 399.137 257.534 399.137 247.116C399.137 236.699 390.669 228.253 380.225 228.253C369.78 228.253 361.313 236.699 361.313 247.116C361.313 257.534 369.78 265.979 380.225 265.979Z" fill="#0D3D5F"/>
</g>
<path d="M328.645 162.663C331.233 162.663 333.331 160.57 333.331 157.989C333.331 155.407 331.233 153.314 328.645 153.314C326.057 153.314 323.958 155.407 323.958 157.989C323.958 160.57 326.057 162.663 328.645 162.663Z" fill="#0D3D5F"/>
<g opacity="0.1">
<path opacity="0.1" d="M328.645 172.016C336.412 172.016 342.709 165.736 342.709 157.989C342.709 150.242 336.412 143.961 328.645 143.961C320.878 143.961 314.582 150.242 314.582 157.989C314.582 165.736 320.878 172.016 328.645 172.016Z" fill="#FBDAA4"/>
</g>
<path d="M286.725 395.938C289.313 395.938 291.412 393.845 291.412 391.264C291.412 388.682 289.313 386.589 286.725 386.589C284.137 386.589 282.039 388.682 282.039 391.264C282.039 393.845 284.137 395.938 286.725 395.938Z" fill="#0D3D5F"/>
<g opacity="0.1">
<path opacity="0.1" d="M286.725 422.996C304.296 422.996 318.54 408.789 318.54 391.264C318.54 373.738 304.296 359.531 286.725 359.531C269.154 359.531 254.91 373.738 254.91 391.264C254.91 408.789 269.154 422.996 286.725 422.996Z" fill="#0D3D5F"/>
</g>
<path d="M134.481 375.034C137.069 375.034 139.167 372.942 139.167 370.36C139.167 367.778 137.069 365.686 134.481 365.686C131.893 365.686 129.794 367.778 129.794 370.36C129.794 372.942 131.893 375.034 134.481 375.034Z" fill="#0D3D5F"/>
<g opacity="0.1">
<path opacity="0.1" d="M134.481 384.387C142.248 384.387 148.545 378.107 148.545 370.36C148.545 362.613 142.248 356.333 134.481 356.333C126.714 356.333 120.417 362.613 120.417 370.36C120.417 378.107 126.714 384.387 134.481 384.387Z" fill="#0D3D5F"/>
</g>
<path d="M69.3877 361.83C71.976 361.83 74.0742 359.737 74.0742 357.156C74.0742 354.574 71.976 352.481 69.3877 352.481C66.7994 352.481 64.7012 354.574 64.7012 357.156C64.7012 359.737 66.7994 361.83 69.3877 361.83Z" fill="#0D3D5F"/>
<g opacity="0.1">
<path opacity="0.1" d="M69.3877 368.844C75.8595 368.844 81.106 363.611 81.106 357.156C81.106 350.701 75.8595 345.468 69.3877 345.468C62.9159 345.468 57.6694 350.701 57.6694 357.156C57.6694 363.611 62.9159 368.844 69.3877 368.844Z" fill="#0D3D5F"/>
</g>
<path d="M34.8232 173.666C37.4115 173.666 39.5097 171.573 39.5097 168.991C39.5097 166.41 37.4115 164.317 34.8232 164.317C32.2349 164.317 30.1367 166.41 30.1367 168.991C30.1367 171.573 32.2349 173.666 34.8232 173.666Z" fill="#0D3D5F"/>
<g opacity="0.1">
<path opacity="0.1" d="M34.8233 197.058C50.3641 197.058 62.9624 184.492 62.9624 168.991C62.9624 153.491 50.3641 140.925 34.8233 140.925C19.2824 140.925 6.68408 153.491 6.68408 168.991C6.68408 184.492 19.2824 197.058 34.8233 197.058Z" fill="#0D3D5F"/>
</g>
<path d="M148.548 101.041C151.137 101.041 153.235 98.9483 153.235 96.3667C153.235 93.7852 151.137 91.6924 148.548 91.6924C145.96 91.6924 143.862 93.7852 143.862 96.3667C143.862 98.9483 145.96 101.041 148.548 101.041Z" fill="#0D3D5F"/>
<g opacity="0.1">
<path opacity="0.1" d="M148.548 108.055C155.02 108.055 160.267 102.822 160.267 96.3671C160.267 89.9121 155.02 84.6792 148.548 84.6792C142.077 84.6792 136.83 89.9121 136.83 96.3671C136.83 102.822 142.077 108.055 148.548 108.055Z" fill="#0D3D5F"/>
</g>
<path d="M207.386 59.9601C209.975 59.9601 212.073 57.8673 212.073 55.2857C212.073 52.7041 209.975 50.6113 207.386 50.6113C204.798 50.6113 202.7 52.7041 202.7 55.2857C202.7 57.8673 204.798 59.9601 207.386 59.9601Z" fill="#0D3D5F"/>
<g opacity="0.1">
<path opacity="0.1" d="M207.386 72.8297C217.101 72.8297 224.976 64.975 224.976 55.2857C224.976 45.5964 217.101 37.7417 207.386 37.7417C197.672 37.7417 189.797 45.5964 189.797 55.2857C189.797 64.975 197.672 72.8297 207.386 72.8297Z" fill="#0D3D5F"/>
</g>
<path d="M207.386 59.9601C209.975 59.9601 212.073 57.8673 212.073 55.2857C212.073 52.7041 209.975 50.6113 207.386 50.6113C204.798 50.6113 202.7 52.7041 202.7 55.2857C202.7 57.8673 204.798 59.9601 207.386 59.9601Z" fill="#0D3D5F"/>
<g opacity="0.1">
<path opacity="0.1" d="M207.386 72.8297C217.101 72.8297 224.976 64.975 224.976 55.2857C224.976 45.5964 217.101 37.7417 207.386 37.7417C197.672 37.7417 189.797 45.5964 189.797 55.2857C189.797 64.975 197.672 72.8297 207.386 72.8297Z" fill="#0D3D5F"/>
</g>
<path d="M199.865 360.559C130.554 360.559 74.3689 304.523 74.3689 235.392C74.3689 166.261 130.55 110.221 199.865 110.221C209.537 110.217 219.177 111.325 228.595 113.524L230.523 104.953C221.268 102.937 209.727 101.517 199.865 101.517C125.734 101.517 65.6187 161.453 65.6187 235.392C65.6187 309.331 125.714 369.271 199.865 369.271C227.79 369.271 252.072 361.866 273.551 347.311L268.897 339.922C248.419 353.417 224.409 360.595 199.865 360.559Z" fill="#FFA272"/>
<path d="M169.805 152.992L161.002 128.858C135.901 138.002 114.818 155.651 101.437 178.723L123.733 191.573C134.079 173.722 150.387 160.066 169.805 152.992Z" fill="#CEE9F4"/>
<path d="M287.752 235.392C287.746 240.501 287.294 245.599 286.402 250.629L311.759 255.094C312.901 248.589 313.475 241.997 313.473 235.392C313.504 215.496 308.259 195.945 298.27 178.723L275.969 191.573C283.704 204.887 287.769 220.005 287.752 235.392Z" fill="#339684"/>
<path d="M238.724 128.853C213.615 119.783 186.112 119.783 161.003 128.853L169.806 152.987C189.225 145.935 210.516 145.938 229.933 152.995C249.351 160.052 265.652 173.712 275.97 191.572L298.29 178.723C284.909 155.65 263.826 137.999 238.724 128.853Z" fill="#263884"/>
<path d="M111.971 235.392C111.948 220.007 116.006 204.889 123.733 191.573L101.417 178.723C91.4263 195.945 86.1796 215.495 86.2091 235.392C86.2074 241.997 86.781 248.589 87.9236 255.094L113.301 250.629C112.417 245.598 111.972 240.5 111.971 235.392Z" fill="#2D6A85"/>
<path d="M286.402 250.625C282.801 270.905 272.155 289.273 256.332 302.506C240.508 315.739 220.519 322.991 199.869 322.991C179.22 322.991 159.23 315.739 143.407 302.506C127.584 289.273 116.938 270.905 113.337 250.625L87.9434 255.094C92.5926 281.33 106.358 305.095 126.825 322.216C147.291 339.338 173.149 348.722 199.861 348.722C226.573 348.722 252.432 339.338 272.898 322.216C293.364 305.095 307.13 281.33 311.779 255.094L286.402 250.625Z" fill="#334B6D"/>
<path d="M241.457 120.868L240.329 120.465L245.63 105.76L246.758 106.164L241.457 120.868Z" fill="#808082"/>
<path d="M244.842 122.151L243.726 121.711L249.468 107.164L250.584 107.603L244.842 122.151Z" fill="#808082"/>
<path d="M248.178 123.53L247.062 123.058L253.249 108.692L254.353 109.164L248.178 123.53Z" fill="#808082"/>
<path d="M251.486 125.026L250.398 124.522L256.993 110.346L258.081 110.85L251.486 125.026Z" fill="#808082"/>
<path d="M254.744 126.591L253.673 126.054L260.688 112.076L261.76 112.612L254.744 126.591Z" fill="#808082"/>
<path d="M257.951 128.253L256.896 127.684L264.324 113.919L265.379 114.488L257.951 128.253Z" fill="#808082"/>
<path d="M261.097 130.027L260.058 129.43L267.895 115.891L268.934 116.492L261.097 130.027Z" fill="#808082"/>
<path d="M264.206 131.883L263.188 131.254L271.42 117.944L272.443 118.573L264.206 131.883Z" fill="#808082"/>
<path d="M267.256 133.842L266.257 133.185L274.882 120.134L275.885 120.791L267.256 133.842Z" fill="#808082"/>
<path d="M270.248 135.883L269.269 135.198L278.274 122.405L279.253 123.094L270.248 135.883Z" fill="#808082"/>
<path d="M273.175 138.009L272.213 137.295L281.594 124.792L282.556 125.506L273.175 138.009Z" fill="#808082"/>
<path d="M276.03 140.223L275.092 139.481L284.841 127.24L285.779 127.982L276.03 140.223Z" fill="#808082"/>
<path d="M278.824 142.514L277.91 141.744L288.019 129.793L288.933 130.564L278.824 142.514Z" fill="#808082"/>
<path d="M281.549 144.889L280.656 144.083L291.104 132.435L291.998 133.242L281.549 144.889Z" fill="#808082"/>
<path d="M284.198 147.337L283.329 146.531L294.121 135.198L294.99 136.004L284.198 147.337Z" fill="#808082"/>
<path d="M286.778 149.866L285.933 149.019L297.052 138.009L297.898 138.86L286.778 149.866Z" fill="#808082"/>
<path d="M289.281 152.471L288.472 151.6L299.911 140.92L300.72 141.792L289.281 152.471Z" fill="#808082"/>
<path d="M291.707 155.153L290.898 154.254L302.653 143.913L303.461 144.808L291.707 155.153Z" fill="#808082"/>
<path d="M294.052 157.9L293.288 156.981L305.342 146.991L306.11 147.914L294.052 157.9Z" fill="#808082"/>
<path d="M296.321 160.719L295.585 159.779L307.93 150.148L308.67 151.092L296.321 160.719Z" fill="#808082"/>
<path d="M298.504 163.611L297.792 162.647L310.421 153.371L311.132 154.335L298.504 163.611Z" fill="#808082"/>
<path d="M300.59 166.547L299.911 165.563L312.806 156.69L313.485 157.675L300.59 166.547Z" fill="#808082"/>
<path d="M302.592 169.547L301.941 168.543L315.091 160.045L315.742 161.05L302.592 169.547Z" fill="#808082"/>
<path d="M304.509 172.617L303.886 171.592L317.283 163.49L317.905 164.51L304.509 172.617Z" fill="#808082"/>
<path d="M306.333 175.738L305.742 174.698L319.377 166.995L319.967 168.035L306.333 175.738Z" fill="#808082"/>
<path d="M308.055 178.901L307.493 177.86L321.35 170.56L321.912 171.617L308.055 178.901Z" fill="#808082"/>
<path d="M309.688 182.123L309.159 181.05L323.23 174.169L323.76 175.242L309.688 182.123Z" fill="#808082"/>
<path d="M311.225 185.397L310.728 184.308L324.997 177.855L325.495 178.944L311.225 185.397Z" fill="#808082"/>
<path d="M312.661 188.709L312.2 187.608L326.655 181.558L327.12 182.659L312.661 188.709Z" fill="#808082"/>
<path d="M313.999 192.065L313.57 190.948L328.2 185.35L328.633 186.467L313.999 192.065Z" fill="#808082"/>
<path d="M315.236 195.452L314.832 194.323L329.631 189.152L330.036 190.282L315.236 195.452Z" fill="#808082"/>
<path d="M316.369 198.888L316.009 197.747L330.946 193.032L331.31 194.17L316.369 198.888Z" fill="#808082"/>
<path d="M317.391 202.325L317.064 201.171L332.134 196.9L332.466 198.05L317.391 202.325Z" fill="#808082"/>
<path d="M318.321 205.821L318.03 204.664L333.226 200.849L333.517 202.01L318.321 205.821Z" fill="#808082"/>
<path d="M319.146 209.342L318.892 208.177L334.197 204.809L334.455 205.975L319.146 209.342Z" fill="#808082"/>
<path d="M319.846 212.879L319.624 211.706L335.017 208.794L335.24 209.968L319.846 212.879Z" fill="#808082"/>
<path d="M320.473 216.432L320.287 215.251L335.765 212.791L335.951 213.972L320.473 216.432Z" fill="#808082"/>
<path d="M320.982 220.018L320.829 218.832L336.372 216.816L336.526 218.002L320.982 220.018Z" fill="#808082"/>
<path d="M321.378 223.591L321.261 222.381L336.853 220.836L336.97 222.046L321.378 223.591Z" fill="#808082"/>
<path d="M321.678 227.197L321.593 225.987L337.225 224.898L337.31 226.108L321.678 227.197Z" fill="#808082"/>
<path d="M321.868 230.783L321.827 229.573L337.488 229.032L337.528 230.242L321.868 230.783Z" fill="#808082"/>
<path d="M321.953 234.404V233.194L337.625 233.013V234.223L321.953 234.404Z" fill="#808082"/>
<path d="M321.928 238.034L321.948 236.824L337.617 237.102L337.593 238.312L321.928 238.034Z" fill="#808082"/>
<path d="M321.799 241.635L321.856 240.425L337.513 241.179L337.456 242.389L321.799 241.635Z" fill="#808082"/>
<path d="M321.568 245.233L321.661 244.023L337.286 245.233L337.193 246.443L321.568 245.233Z" fill="#808082"/>
<path d="M321.225 248.843L321.35 247.633L336.934 249.294L336.809 250.484L321.225 248.843Z" fill="#808082"/>
<path d="M320.78 252.4L320.942 251.214L336.465 253.335L336.304 254.521L320.78 252.4Z" fill="#808082"/>
<path d="M320.222 255.985L320.416 254.803L335.871 257.388L335.673 258.57L320.222 255.985Z" fill="#808082"/>
<path d="M319.559 259.534L319.794 258.36L335.159 261.405L334.925 262.575L319.559 259.534Z" fill="#808082"/>
<path d="M318.794 263.051L319.065 261.886L334.338 265.378L334.067 266.544L318.794 263.051Z" fill="#808082"/>
<path d="M317.913 266.588L318.216 265.431L333.38 269.387L333.076 270.545L317.913 266.588Z" fill="#808082"/>
<path d="M316.943 270.036L317.278 268.887L332.316 273.291L331.977 274.436L316.943 270.036Z" fill="#808082"/>
<path d="M315.863 273.481L316.235 272.343L331.132 277.183L330.76 278.32L315.863 273.481Z" fill="#808082"/>
<path d="M314.683 276.877L315.087 275.751L329.834 281.039L329.43 282.164L314.683 276.877Z" fill="#808082"/>
<path d="M313.396 280.256L313.837 279.143L328.422 284.87L327.982 285.983L313.396 280.256Z" fill="#808082"/>
<path d="M312.014 283.583L312.487 282.482L326.89 288.637L326.417 289.734L312.014 283.583Z" fill="#808082"/>
<path d="M310.546 286.883L311.051 285.798L325.248 292.4L324.743 293.485L310.546 286.883Z" fill="#808082"/>
<path d="M308.929 290.133L309.467 289.064L323.486 296.062L322.948 297.131L308.929 290.133Z" fill="#808082"/>
<path d="M307.271 293.328L307.837 292.275L321.637 299.688L321.059 300.736L307.271 293.328Z" fill="#808082"/>
<path d="M305.503 296.47L306.102 295.433L319.676 303.249L319.074 304.282L305.503 296.47Z" fill="#808082"/>
<path d="M303.635 299.571L304.266 298.555L317.61 306.766L316.979 307.782L303.635 299.571Z" fill="#808082"/>
<path d="M301.674 302.612L302.333 301.616L315.418 310.218L314.759 311.215L301.674 302.612Z" fill="#808082"/>
<path d="M299.628 305.597L300.316 304.621L313.142 313.602L312.455 314.582L299.628 305.597Z" fill="#808082"/>
<path d="M297.497 308.532L298.217 307.572L310.752 316.929L310.036 317.889L297.497 308.532Z" fill="#808082"/>
<path d="M295.281 311.356L296.025 310.42L308.297 320.14L307.553 321.075L295.281 311.356Z" fill="#808082"/>
<path d="M292.98 314.15L293.753 313.235L305.73 323.318L304.958 324.229L292.98 314.15Z" fill="#808082"/>
<path d="M290.603 316.865L291.412 315.974L303.09 326.395L302.281 327.286L290.603 316.865Z" fill="#808082"/>
<path d="M288.145 319.511L288.953 318.644L300.316 329.408L299.507 330.275L288.145 319.511Z" fill="#808082"/>
<path d="M285.609 322.08L286.459 321.237L297.502 332.328L296.648 333.171L285.609 322.08Z" fill="#808082"/>
<path d="M282.997 324.576L283.87 323.77L294.578 335.183L293.704 335.99L282.997 324.576Z" fill="#808082"/>
<path d="M280.312 326.996L281.214 326.189L291.581 337.914L290.68 338.72L280.312 326.996Z" fill="#808082"/>
<path d="M277.554 329.336L278.476 328.573L300.55 354.385L299.628 355.151L277.554 329.336Z" fill="#808082"/>
<path d="M268.897 339.922C248.419 353.417 224.409 360.595 199.865 360.56C130.554 360.56 74.369 304.524 74.369 235.392C74.3355 213.082 80.3097 191.172 91.6674 171.952C91.6674 171.952 84.7084 166.567 84.4132 167.064C72.0862 187.731 65.5973 211.34 65.6349 235.388C65.6349 309.331 125.73 369.267 199.881 369.267C227.806 369.267 252.088 361.862 273.567 347.307L268.897 339.922Z" fill="#23416E"/>
<path d="M371.774 55.7656H288.169C283.162 55.7656 278.361 57.7493 274.821 61.2804C271.28 64.8114 269.292 69.6005 269.292 74.5942C269.292 79.5878 271.28 84.3769 274.821 87.908C278.361 91.439 283.162 93.4227 288.169 93.4227H293.268L293.312 93.5034L298.973 103.247L304.614 93.5034L304.663 93.4227H371.786C376.792 93.4227 381.594 91.439 385.134 87.908C388.674 84.3769 390.663 79.5878 390.663 74.5942C390.663 69.6005 388.674 64.8114 385.134 61.2804C381.594 57.7493 376.792 55.7656 371.786 55.7656H371.774Z" fill="#1A3151"/>
<path d="M12.4745 101.021H75.9908C79.2998 101.021 82.4732 102.332 84.813 104.666C87.1528 107 88.4672 110.165 88.4672 113.465C88.4672 116.766 87.1528 119.931 84.813 122.264C82.4732 124.598 79.2998 125.909 75.9908 125.909H72.6225L72.5902 125.962L68.862 132.415L65.1339 125.962L65.1055 125.909H12.4745C9.16552 125.909 5.99209 124.598 3.65231 122.264C1.31252 119.931 -0.00195312 116.766 -0.00195312 113.465C-0.00195312 110.165 1.31252 107 3.65231 104.666C5.99209 102.332 9.16552 101.021 12.4745 101.021Z" fill="#CEE9F4"/>
<path d="M393.116 329.158H331.702C328.024 329.158 324.497 330.615 321.896 333.209C319.295 335.803 317.834 339.321 317.834 342.989C317.834 346.658 319.295 350.176 321.896 352.77C324.497 355.364 328.024 356.821 331.702 356.821H335.446L335.483 356.881L339.627 364.036L343.772 356.881L343.804 356.821H393.136C396.814 356.821 400.341 355.364 402.942 352.77C405.542 350.176 407.003 346.658 407.003 342.989C407.003 339.321 405.542 335.803 402.942 333.209C400.341 330.615 396.814 329.158 393.136 329.158H393.116Z" fill="#FFC895"/>
<path d="M190.316 234.399C168.33 232.208 182.594 211.766 190.316 201.886C176.391 204.443 169.224 211.042 162.651 219.604C155.799 228.529 159.169 236.957 167.963 237.505C176.758 238.053 185.12 237.354 190.316 234.399Z" fill="url(#paint0_linear)"/>
<path fill-rule="evenodd" clip-rule="evenodd" d="M214.393 196.565C215.961 213.892 207.089 231.939 175.403 237.677C179.472 237.677 184.23 237.673 188.869 237.669C188.854 237.671 188.839 237.674 188.825 237.677C193.856 237.677 200.601 237.671 206.827 237.666L210.562 237.662L210.985 237.663C213.173 237.669 215.122 237.673 219.887 237.658C221.577 237.658 223.127 237.663 224.554 237.668H224.554C234.866 237.705 238.713 237.719 242.044 235.45C248.113 231.316 239.268 219.926 226.371 203.319L226.371 203.318C222.113 197.835 217.413 191.782 212.662 185.234C212.459 184.892 212.256 184.548 212.05 184.203C211.293 182.68 210.476 181.118 209.597 179.519C209.954 180.271 210.297 181.035 210.623 181.811C210.17 181.055 209.71 180.291 209.243 179.519C209.654 180.402 210.067 181.294 210.48 182.195C209.852 181.311 209.224 180.419 208.598 179.519C209.266 185.373 211.608 191.105 214.393 196.565Z" fill="url(#paint1_linear)"/>
<path d="M213.797 204.369C187.709 193.948 168.974 210.742 163.178 219.546C162.427 220.236 181.84 193.161 185.673 187.763C192.859 177.643 196.399 173.344 201.207 173.344C210.823 173.344 215.447 193.024 213.797 204.369Z" fill="url(#paint2_linear)"/>
<path d="M157.312 273.792L157.292 264.125L152.53 272.125H151.329L146.567 264.25V273.792H144V259.208H146.215L151.971 268.875L157.623 259.208H159.838L159.859 273.792H157.312Z" fill="#3587C6"/>
<path d="M170.544 274C169.067 274 167.735 273.681 166.548 273.042C165.361 272.389 164.429 271.493 163.753 270.354C163.076 269.201 162.738 267.917 162.738 266.5C162.738 265.083 163.076 263.806 163.753 262.667C164.429 261.514 165.361 260.618 166.548 259.979C167.735 259.326 169.067 259 170.544 259C172.02 259 173.352 259.326 174.539 259.979C175.726 260.618 176.658 261.507 177.334 262.646C178.011 263.785 178.349 265.069 178.349 266.5C178.349 267.931 178.011 269.215 177.334 270.354C176.658 271.493 175.726 272.389 174.539 273.042C173.352 273.681 172.02 274 170.544 274ZM170.544 271.625C171.51 271.625 172.379 271.41 173.152 270.979C173.925 270.535 174.532 269.924 174.974 269.146C175.416 268.354 175.637 267.472 175.637 266.5C175.637 265.528 175.416 264.653 174.974 263.875C174.532 263.083 173.925 262.472 173.152 262.042C172.379 261.597 171.51 261.375 170.544 261.375C169.577 261.375 168.708 261.597 167.935 262.042C167.162 262.472 166.555 263.083 166.113 263.875C165.671 264.653 165.45 265.528 165.45 266.5C165.45 267.472 165.671 268.354 166.113 269.146C166.555 269.924 167.162 270.535 167.935 270.979C168.708 271.41 169.577 271.625 170.544 271.625Z" fill="#3587C6"/>
<path d="M194.079 259.208V273.792H191.388V267.542H183.893V273.792H181.202V259.208H183.893V265.229H191.388V259.208H194.079Z" fill="#3587C6"/>
<path d="M200.903 261.5H196.099V259.208H208.397V261.5H203.594V273.792H200.903V261.5Z" fill="#3587C6"/>
<path d="M219.089 270.417H211.842L210.414 273.792H207.64L214.161 259.208H216.811L223.354 273.792H220.538L219.089 270.417ZM218.198 268.292L215.466 261.917L212.753 268.292H218.198Z" fill="#3587C6"/>
<path d="M245.608 259.208L240.805 273.792H237.948L234.366 263L230.722 273.792H227.844L223.041 259.208H225.836L229.439 270.292L233.186 259.208H235.67L239.335 270.354L243.041 259.208H245.608Z" fill="#3587C6"/>
<path d="M256.735 270.417H249.489L248.06 273.792H245.286L251.808 259.208H254.458L261 273.792H258.184L256.735 270.417ZM255.845 268.292L253.112 261.917L250.4 268.292H255.845Z" fill="#3587C6"/>
</g>
<defs>
<linearGradient id="paint0_linear" x1="182.634" y1="200.754" x2="182.115" y2="232.988" gradientUnits="userSpaceOnUse">
<stop stop-color="#DA6F37"/>
<stop offset="0.903961" stop-color="#FFC895"/>
</linearGradient>
<linearGradient id="paint1_linear" x1="210.942" y1="200.763" x2="199.428" y2="237.91" gradientUnits="userSpaceOnUse">
<stop stop-color="#C8E381"/>
<stop offset="1" stop-color="#1C7249"/>
</linearGradient>
<linearGradient id="paint2_linear" x1="211.023" y1="184.397" x2="170.894" y2="210.656" gradientUnits="userSpaceOnUse">
<stop stop-color="#2F3590"/>
<stop offset="0.181863" stop-color="#347CBF"/>
<stop offset="0.375389" stop-color="#3598D1"/>
<stop offset="0.701814" stop-color="#37B0E1"/>
</linearGradient>
<clipPath id="clip0">
<rect width="421" height="423" fill="white"/>
</clipPath>
</defs>
</svg>
