<svg width="384" height="384" viewBox="0 0 384 384" fill="none" xmlns="http://www.w3.org/2000/svg">
<path d="M273.425 272.953L272.044 273C271.592 260.321 274.635 247.76 280.847 236.662C287.059 225.564 296.205 216.347 307.306 210L308 211.178C297.115 217.402 288.146 226.439 282.056 237.322C275.965 248.204 272.982 260.521 273.425 272.953Z" fill="#F1F1F1"/>
<path d="M255 233.748C247.272 252.898 245.65 274.281 250.388 294.537L248.709 295C243.88 274.339 245.539 252.53 253.427 233L255 233.748Z" fill="#F1F1F1"/>
<path d="M331 95.343L329 95C329.115 95.3314 329.228 95.6686 329.346 96L331 95.343Z" fill="#F04E3E"/>
<path d="M334.905 105C338.922 102.423 342.954 99.8728 347 97.3489L330.688 96L329 96.3202C331.066 99.137 333.035 102.03 334.905 105Z" fill="#5589A0"/>
<path d="M24.7853 191.95C24.7853 189.611 24.8465 187.307 24.9396 185C16.5721 188.631 8.25887 192.377 0 196.237C0.650043 227.731 9.06494 258.573 24.4913 286C29.5775 277.854 34.747 269.765 40 261.732C29.9445 239.857 24.7526 216.044 24.7853 191.95Z" fill="#CE9B97"/>
<path d="M88.1732 323C82.7116 329.31 77.3206 335.675 72 342.095C96.565 361.81 125.631 375.174 156.62 381C164.723 373.618 172.85 366.266 181 358.944C147.105 356.684 114.714 344.142 88.1732 323Z" fill="#286777"/>
<path d="M40.5966 262C35.3138 270.109 30.115 278.27 25 286.481C31.7257 298.475 39.7018 309.711 48.7931 320C57.169 316.689 65.5713 313.449 74 310.281C60.1388 296.288 48.8317 279.945 40.5966 262Z" fill="#8BBFB2"/>
<path d="M73.9761 310C65.6227 313.17 57.2973 316.412 49 319.726C56.0549 327.788 63.7572 335.239 72.027 342C77.2885 335.53 82.6128 329.113 88 322.749C83.0927 318.772 78.4106 314.515 73.9761 310Z" fill="#3F918E"/>
<path d="M191.86 358.987C188.014 358.987 184.21 358.847 180.423 358.592C172.252 365.921 164.111 373.279 156 380.665C167.823 382.883 179.829 384 191.86 384C285.602 384 363.701 317.33 381 229C372.074 230.428 363.161 231.931 354.259 233.508C335.748 305.647 270.048 358.987 191.86 358.987Z" fill="#1E3A64"/>
<path d="M382.907 188C376.409 193.143 369.955 198.315 363.547 203.516C362.098 204.684 360.658 205.854 359.227 207.026C358.506 215.453 357.092 223.805 355 232C363.218 230.538 371.448 229.146 379.691 227.825C381.893 216.545 383.002 205.079 383 193.587C383.003 191.708 382.965 189.854 382.907 188Z" fill="#307485"/>
<path d="M191.95 24.9357C205.157 24.9303 218.317 26.4889 231.156 29.5786C238.034 22.8446 244.982 16.1846 252 9.59856C232.624 3.22398 212.351 -0.0164036 191.95 6.24387e-05C126.412 6.24387e-05 68.5539 32.8716 34 83C44.8821 82.3182 55.7925 81.8312 66.7312 81.539C97.268 46.8442 142.042 24.9357 191.95 24.9357Z" fill="#FFC895"/>
<path d="M347.172 97C350.106 95.1378 353.048 93.2888 356 91.4532L355.709 91C347.469 92.5202 339.233 94.0679 331 95.6432L347.172 97Z" fill="#5589A0"/>
<path d="M329.144 96L331.093 95.5715C339.384 93.9363 347.686 92.3375 356 90.7749C332.473 52.6082 296.069 23.3103 252.881 9C245.846 15.6448 238.886 22.3563 232 29.1346C271.827 38.7867 306.177 63.3866 329.144 96Z" fill="#FD9C8A"/>
<path d="M67 82C55.9672 82.2958 44.9609 82.7823 33.9812 83.4595C11.7959 115.294 -0.0572169 153.058 0.000207669 191.721C0.000207669 193.151 0.0238199 194.576 0.0562868 196C8.43077 192.145 16.8603 188.406 25.345 184.782C26.8915 146.809 41.5994 110.518 67 82Z" fill="#FD9C8A"/>
<path d="M362.855 131.904C361.718 129.875 360.543 127.872 359.328 125.894C356.702 127.56 354.083 129.238 351.472 130.928L362.855 131.904Z" fill="#ACD9FA"/>
<path d="M335 104.893C350.883 130.978 359.261 160.956 359.21 191.515C359.21 196.397 358.988 201.226 358.577 206C360.132 204.741 361.678 203.481 363.215 202.22C370.096 196.633 377.025 191.063 384 185.51C383.089 154.85 374.802 124.863 359.843 98.1021L347.009 97C342.991 99.594 338.988 102.225 335 104.893Z" fill="#3F918E"/>
<path d="M289.242 92.0538L312 94C288.963 65.8629 256.719 46.7405 220.945 40C206.654 54.2894 192.672 68.8826 179 83.7797C215.877 85.8549 252.718 88.9382 289.242 92.0538Z" fill="#FD9C8A"/>
<path d="M179.292 84C160.22 104.773 141.789 126.107 124 148C146.76 140.589 169.696 133.78 192.806 127.573C233.533 116.57 274.656 107.221 316 98.8721C314.807 97.3085 313.586 95.7597 312.337 94.2255L289.572 92.2759C253.031 89.1596 216.174 86.0756 179.292 84Z" fill="#CE9B97"/>
<path d="M111 296C178.515 272.823 247.502 254.132 317.506 240.049C326.576 232.542 335.675 225.071 344.804 217.636C346.265 209.067 346.999 200.392 347 191.701C347.044 163.604 339.332 136.034 324.706 112C246.527 164.864 174.808 226.613 111 296Z" fill="#3F918E"/>
<path d="M192.885 127.656C169.829 133.882 146.913 140.681 124.139 148.054C97.5878 180.712 72.5415 214.513 49 249.456C57.5084 270.555 70.5812 289.521 87.2856 305C95.3728 302.073 103.483 299.21 111.618 296.411C175.329 226.964 246.94 165.161 325 112.252C322.224 107.682 319.213 103.259 315.977 99C274.663 107.34 233.577 116.67 192.885 127.656Z" fill="#8BBFB2"/>
<path d="M179.012 84C192.684 68.9295 206.68 54.1625 221 39.6989C211.518 37.9029 201.891 36.9994 192.243 37C150.12 37 111.93 53.9647 84 81.4879C115.565 81.1498 147.294 82.1968 179.012 84Z" fill="#FFC895"/>
<path d="M194 346C263.104 345.066 321.237 298.967 340 236C332.305 237.432 324.621 238.919 316.948 240.46C275.341 274.915 234.358 310.095 194 346Z" fill="#1E3A64"/>
<path d="M110.958 296.067C105.923 301.568 100.937 307.114 96 312.707C123.27 334.319 157.067 346.056 191.872 346C192.588 346 193.297 345.982 194.01 345.973C234.379 309.93 275.376 274.605 317 240C247.153 254.111 178.321 272.842 110.958 296.067Z" fill="#286777"/>
<path d="M179 83.5473C147.341 81.7677 115.659 80.7345 84.1329 81.0594C58.1437 106.363 41.0563 140.707 38 179C66.1002 167.325 94.7523 156.875 123.742 147.445C141.511 125.6 159.93 104.301 179 83.5473Z" fill="#FD9C8A"/>
<path d="M340.706 235.613C342.507 229.829 343.941 223.948 345 218C335.639 225.3 326.305 232.633 317 240C324.89 238.482 332.792 237.02 340.706 235.613Z" fill="#307485"/>
<path d="M38.4978 179.432C38.1718 183.514 38.006 187.633 38.0001 191.789C37.978 211.388 41.7315 230.81 49.0571 249C72.5041 214.238 97.485 180.571 124 148C95.0972 157.395 66.5282 167.804 38.4978 179.432Z" fill="#CE9B97"/>
<path d="M87 304.789C89.9735 307.65 93.0531 310.387 96.2388 313C101.105 307.286 106.026 301.62 111 296C102.977 298.865 94.9768 301.794 87 304.789Z" fill="#3F918E"/>
<path d="M192.5 131C122.084 131 65 191.503 65 191.503C65 191.503 122.075 252 192.5 252C262.925 252 320 191.497 320 191.497C320 191.497 262.908 131 192.5 131ZM192.5 241.517C182.614 241.519 172.95 238.587 164.73 233.092C156.509 227.598 150.101 219.787 146.317 210.649C142.533 201.51 141.542 191.453 143.469 181.751C145.397 172.049 150.156 163.136 157.146 156.141C164.136 149.145 173.041 144.381 182.737 142.45C192.433 140.52 202.483 141.51 211.616 145.295C220.75 149.08 228.556 155.491 234.048 163.716C239.541 171.941 242.472 181.611 242.472 191.503C242.472 204.766 237.208 217.486 227.836 226.865C218.465 236.244 205.754 241.515 192.5 241.517Z" fill="white"/>
<path d="M192.506 153C184.891 152.999 177.447 155.256 171.115 159.486C164.783 163.715 159.847 169.728 156.932 176.763C154.017 183.797 153.254 191.539 154.739 199.007C156.224 206.476 159.89 213.337 165.274 218.722C170.658 224.106 177.518 227.774 184.987 229.26C192.455 230.746 200.197 229.984 207.232 227.07C214.267 224.156 220.28 219.221 224.511 212.89C228.742 206.559 231 199.115 231 191.5C231 181.29 226.945 171.498 219.726 164.278C212.507 157.058 202.716 153.002 192.506 153ZM192.506 214.423C187.97 214.423 183.537 213.078 179.765 210.559C175.994 208.039 173.055 204.457 171.319 200.267C169.584 196.077 169.129 191.466 170.014 187.017C170.899 182.569 173.083 178.483 176.29 175.276C179.497 172.068 183.584 169.884 188.032 169C192.48 168.115 197.091 168.569 201.282 170.305C205.472 172.04 209.054 174.979 211.573 178.751C214.093 182.522 215.438 186.956 215.438 191.491C215.438 194.503 214.845 197.485 213.693 200.267C212.54 203.049 210.851 205.577 208.721 207.707C206.592 209.836 204.064 211.525 201.282 212.678C198.499 213.83 195.517 214.423 192.506 214.423Z" fill="white"/>
</svg>
