<svg width="17" height="16" viewBox="0 0 17 16" fill="none" xmlns="http://www.w3.org/2000/svg">
<path d="M3.69024 6.03516H0.563477V15.4154H3.69024V6.03516Z" fill="#22B5B5"/>
<path d="M11.507 5.25342C12.7509 5.25342 13.9439 5.74756 14.8235 6.62713C15.703 7.5067 16.1972 8.69966 16.1972 9.94356V15.4154H13.0704V9.94356C13.0704 9.52892 12.9057 9.13127 12.6125 8.83808C12.3193 8.54489 11.9217 8.38018 11.507 8.38018C11.0924 8.38018 10.6947 8.54489 10.4016 8.83808C10.1084 9.13127 9.94366 9.52892 9.94366 9.94356V15.4154H6.81689V9.94356C6.81689 8.69966 7.31103 7.5067 8.19061 6.62713C9.07018 5.74756 10.2631 5.25342 11.507 5.25342Z" fill="#22B5B5"/>
<path d="M2.12686 3.69024C2.99029 3.69024 3.69024 2.99029 3.69024 2.12686C3.69024 1.26343 2.99029 0.563477 2.12686 0.563477C1.26343 0.563477 0.563477 1.26343 0.563477 2.12686C0.563477 2.99029 1.26343 3.69024 2.12686 3.69024Z" fill="#22B5B5"/>
</svg>
