<svg width="18" height="16" viewBox="0 0 18 16" fill="none" xmlns="http://www.w3.org/2000/svg">
<path d="M17.7178 2.36592C17.0657 2.65489 16.3659 2.85086 15.6307 2.93835C16.3814 2.48882 16.956 1.77581 17.2284 0.928803C16.5242 1.3451 15.747 1.64738 14.9188 1.81124C14.2556 1.10376 13.3123 0.663086 12.266 0.663086C10.2586 0.663086 8.63108 2.29065 8.63108 4.29687C8.63108 4.58141 8.66318 4.85931 8.7252 5.12506C5.70481 4.97335 3.02653 3.52627 1.234 1.32738C0.920661 1.86327 0.742407 2.48769 0.742407 3.15424C0.742407 4.41534 1.38458 5.52806 2.35891 6.17907C1.76324 6.15915 1.203 5.99528 0.712529 5.72291V5.7683C0.712529 7.52873 1.96587 8.99795 3.62774 9.33234C3.32326 9.41428 3.00219 9.45967 2.67003 9.45967C2.43532 9.45967 2.20834 9.43642 1.98579 9.39213C2.44858 10.837 3.79051 11.8877 5.38043 11.9165C4.13705 12.8909 2.56927 13.4699 0.866435 13.4699C0.573041 13.4699 0.284047 13.4522 -0.000488281 13.4201C1.60826 14.4531 3.51816 15.0554 5.57088 15.0554C12.2572 15.0554 15.912 9.51726 15.912 4.71429L15.8998 4.24375C16.6139 3.7344 17.2317 3.09446 17.7178 2.36592Z" fill="#22B5B5"/>
</svg>
