<svg width="419" height="418" viewBox="0 0 419 418" fill="none" xmlns="http://www.w3.org/2000/svg">
<path d="M208.978 24.4228L208.976 22.4228C208.976 22.4228 208.977 22.4228 208.977 22.4228C233.345 22.3937 257.473 27.1546 279.993 36.4277L287.991 17.644C253.243 3.32005 215.253 -1.2843 178.09 4.3242L181.319 24.4615L179.659 26.7403C189.356 25.1961 199.159 24.4212 208.978 24.4228ZM208.978 24.4228C233.743 24.393 258.259 29.3646 281.055 39.0393L208.978 24.4228ZM355.346 62.659L355.348 62.6602C366.772 74.0865 376.827 86.8011 385.312 100.547L367.819 111.098C350.096 82.3995 324.946 59.0227 295.031 43.442L304.261 25.2073C323.108 34.9924 340.339 47.6234 355.346 62.659ZM375.89 125.533L394.037 116.182C410.895 149.776 418.287 187.327 415.421 224.804L395.091 223.051C395.445 218.425 395.622 213.743 395.622 209.007C395.648 180.015 388.886 151.428 375.89 125.533ZM413.195 242.55C407.137 279.643 391.052 314.375 366.683 342.988L351.311 329.666C373.15 303.952 387.588 272.783 393.077 239.496L413.195 242.55ZM67.1783 64.8182L63.8668 61.4464C90.6008 35.107 124.006 16.5475 160.493 7.76256L165.062 27.5454C132.352 35.4747 102.398 52.1143 78.383 75.6965L67.1783 64.8182ZM257.078 410.361L252.546 390.483C285.617 382.545 315.884 365.704 340.062 341.787L354.519 356.212C327.608 382.85 293.899 401.579 257.078 410.361ZM66.9257 88.0657C45.0065 113.692 30.477 144.803 24.8971 178.06L4.75329 174.985C10.9006 137.898 27.0835 103.2 51.5466 74.6551L66.9257 88.0657ZM137.595 381.437C168.795 394.312 202.895 398.517 236.288 393.609L239.455 413.731C202.291 419.28 164.317 414.606 129.608 400.211L137.595 381.437ZM2.6411 192.779L22.9555 194.553L24.408 209.005L22.408 209.001C22.408 209.002 22.408 209.002 22.408 209.003C22.3506 237.888 29.0356 266.378 41.9193 292.21L23.7682 301.454C6.98896 267.82 -0.314855 230.25 2.6411 192.779ZM113.418 392.579C80.1073 375.174 52.1245 349.081 32.4365 317.067L49.9468 306.589C67.6218 335.335 92.7408 358.767 122.643 374.405L113.418 392.579Z" fill="#CEE9F4" stroke="white" stroke-width="4"/>
<path d="M115.272 302.725C133.807 321.257 157.422 333.878 183.129 338.99C208.837 344.102 235.483 341.476 259.698 331.445C283.914 321.413 304.611 304.426 319.173 282.632C333.734 260.839 341.506 235.216 341.506 209.005C341.506 182.794 333.734 157.172 319.173 135.378C304.611 113.584 283.914 96.5973 259.698 86.5658C235.483 76.5344 208.837 73.9086 183.129 79.0207C157.422 84.1327 133.807 96.7529 115.272 115.285C90.4191 140.143 76.4575 173.855 76.4575 209.005C76.4575 244.156 90.4191 277.867 115.272 302.725Z" fill="white"/>
<path d="M96.9634 321.031C119.121 343.182 147.349 358.266 178.079 364.375C208.809 370.484 240.66 367.344 269.605 355.352C298.551 343.359 323.29 323.054 340.696 297.002C358.102 270.951 367.392 240.323 367.392 208.992C367.392 177.661 358.102 147.033 340.696 120.981C323.29 94.9298 298.551 74.6243 269.605 62.6322C240.66 50.6401 208.809 47.5001 178.079 53.6091C147.349 59.718 119.121 74.8015 96.9634 96.9523C96.9632 96.9526 96.963 96.9528 96.9628 96.953M96.9634 321.031L92.7208 325.274C61.8808 294.434 44.5552 252.606 44.5552 208.992C44.5552 165.378 61.8808 123.55 92.7208 92.7097L96.9628 96.953M96.9634 321.031C67.2487 291.317 50.5552 251.015 50.5552 208.992C50.5552 166.969 67.2485 126.668 96.9628 96.953M96.9634 321.031L96.9628 96.953M335.145 183.933C330.173 158.98 317.912 136.062 299.913 118.078C275.795 93.9812 243.096 80.4454 209.003 80.4454C174.91 80.4454 142.211 93.9812 118.093 118.078C100.094 136.062 87.8327 158.98 82.8608 183.933C77.8889 208.886 80.4295 234.754 90.1613 258.263C99.8931 281.772 116.379 301.866 137.533 316.004C158.687 330.142 183.559 337.689 209.003 337.689C234.447 337.689 259.319 330.142 280.473 316.004C301.627 301.866 318.113 281.772 327.844 258.263C337.576 234.754 340.117 208.886 335.145 183.933Z" fill="#1A3151" stroke="white" stroke-width="12"/>
<path d="M157.086 260.911C167.352 271.174 180.431 278.162 194.669 280.992C208.907 283.822 223.664 282.367 237.075 276.811C250.485 271.254 261.948 261.846 270.012 249.776C278.076 237.706 282.38 223.515 282.38 208.999C282.38 194.483 278.076 180.292 270.012 168.222C261.948 156.152 250.485 146.744 237.075 141.188C223.664 135.631 208.907 134.176 194.669 137.006C180.431 139.836 167.352 146.824 157.086 157.087C150.267 163.903 144.858 171.996 141.167 180.903C137.477 189.811 135.578 199.358 135.578 208.999C135.578 218.64 137.477 228.187 141.167 237.095C144.858 246.002 150.267 254.095 157.086 260.911Z" fill="#334B6D"/>
<path d="M136.632 281.364C150.941 295.678 169.174 305.426 189.025 309.377C208.875 313.327 229.451 311.303 248.151 303.559C266.85 295.814 282.834 282.699 294.079 265.87C305.324 249.042 311.326 229.257 311.326 209.017C311.326 188.778 305.324 168.992 294.079 152.164C282.834 135.336 266.85 122.22 248.151 114.476C229.451 106.732 208.875 104.707 189.025 108.658C169.174 112.608 150.941 122.357 136.632 136.671C117.448 155.86 106.67 181.883 106.67 209.017C106.67 236.151 117.448 262.175 136.632 281.364ZM256.997 160.999C266.491 170.492 272.956 182.588 275.576 195.756C278.195 208.924 276.851 222.573 271.713 234.977C266.575 247.382 257.874 257.984 246.711 265.443C235.548 272.902 222.423 276.883 208.997 276.883C195.571 276.883 182.446 272.902 171.283 265.443C160.119 257.984 151.419 247.382 146.281 234.977C141.143 222.573 139.799 208.924 142.418 195.756C145.037 182.588 151.503 170.492 160.997 160.999C173.73 148.274 190.995 141.127 208.997 141.127C226.998 141.127 244.263 148.274 256.997 160.999Z" fill="#CEE9F4"/>
<path d="M356.559 337.34C373.661 309.672 365.095 273.379 337.427 256.277C309.759 239.176 273.465 247.742 256.364 275.41C239.262 303.078 247.828 339.371 275.496 356.473C303.165 373.575 339.458 365.009 356.559 337.34Z" fill="#1876AA"/>
<path d="M306.451 348.61C298.091 348.61 289.918 346.131 282.967 341.486C276.016 336.841 270.598 330.239 267.399 322.515C264.201 314.791 263.364 306.291 264.996 298.092C266.628 289.892 270.655 282.361 276.567 276.45C282.48 270.54 290.012 266.515 298.212 264.885C306.412 263.256 314.911 264.095 322.634 267.296C330.358 270.497 336.958 275.916 341.601 282.869C346.244 289.821 348.721 297.994 348.719 306.355C348.719 311.905 347.625 317.401 345.501 322.528C343.377 327.655 340.263 332.314 336.338 336.238C332.413 340.162 327.753 343.274 322.625 345.397C317.497 347.52 312.001 348.612 306.451 348.61Z" fill="#F9F9F9"/>
<path d="M317.29 301.192H304.427V303.816H317.29V301.192Z" fill="#BDCDE0"/>
<path d="M302 297.771L299.106 301.633L297.794 299.426H295.096L299.13 305.753L304.992 297.771H302Z" fill="#BDCDE0"/>
<path d="M317.29 310.757H304.427V313.381H317.29V310.757Z" fill="#BDCDE0"/>
<path d="M302 307.348L299.106 311.198L297.794 308.991H295.096L299.13 315.33L304.992 307.348H302Z" fill="#BDCDE0"/>
<path d="M317.29 318.776H304.427V321.4H317.29V318.776Z" fill="#BDCDE0"/>
<path d="M318.026 290.217H315.573V294.312H318.026C318.284 294.312 318.532 294.414 318.715 294.595C318.899 294.777 319.004 295.023 319.007 295.281V323.852C319.007 324.112 318.903 324.362 318.719 324.546C318.535 324.73 318.286 324.833 318.026 324.833H294.887C294.627 324.833 294.377 324.73 294.193 324.546C294.009 324.362 293.906 324.112 293.906 323.852V295.293C293.909 295.035 294.014 294.789 294.198 294.608C294.381 294.426 294.629 294.325 294.887 294.325H297.756V290.217H294.887C293.541 290.217 292.249 290.752 291.297 291.704C290.345 292.656 289.811 293.947 289.811 295.293V323.864C289.811 325.211 290.345 326.502 291.297 327.454C292.249 328.406 293.541 328.941 294.887 328.941H318.026C319.371 328.937 320.661 328.402 321.612 327.45C322.563 326.499 323.099 325.21 323.102 323.864V295.293C323.099 293.948 322.563 292.659 321.612 291.707C320.661 290.756 319.371 290.22 318.026 290.217Z" fill="#BDCDE0"/>
<path d="M318.026 290.217H315.573V293.282H318.026C318.56 293.282 319.073 293.494 319.452 293.871C319.831 294.247 320.046 294.759 320.049 295.293V323.864C320.049 324.398 319.837 324.909 319.46 325.286C319.083 325.663 318.571 325.875 318.038 325.875H294.887C294.623 325.877 294.36 325.826 294.116 325.725C293.871 325.625 293.649 325.477 293.461 325.29C293.274 325.103 293.126 324.88 293.026 324.636C292.925 324.391 292.874 324.129 292.876 323.864V295.293C292.876 294.76 293.088 294.248 293.465 293.871C293.842 293.494 294.354 293.282 294.887 293.282H297.756V290.217H294.887C293.541 290.217 292.249 290.752 291.297 291.704C290.345 292.656 289.811 293.947 289.811 295.293V323.864C289.811 325.211 290.345 326.502 291.297 327.454C292.249 328.406 293.541 328.941 294.887 328.941H318.026C319.371 328.937 320.661 328.402 321.612 327.45C322.563 326.499 323.099 325.21 323.102 323.864V295.293C323.099 293.948 322.563 292.659 321.612 291.707C320.661 290.756 319.371 290.22 318.026 290.217Z" fill="#BDCDE0"/>
<path d="M319.878 288.28H293.073C292.882 288.278 292.693 288.314 292.517 288.387C292.341 288.459 292.18 288.565 292.046 288.7C291.911 288.835 291.805 288.995 291.732 289.171C291.66 289.347 291.624 289.536 291.626 289.727V295.048C291.624 295.125 291.638 295.201 291.666 295.273C291.694 295.344 291.736 295.409 291.79 295.464C291.844 295.519 291.908 295.562 291.979 295.592C292.049 295.622 292.125 295.637 292.202 295.637H320.785C320.862 295.637 320.938 295.622 321.008 295.592C321.079 295.562 321.143 295.519 321.197 295.464C321.251 295.409 321.293 295.344 321.321 295.273C321.349 295.201 321.363 295.125 321.361 295.048V289.727C321.361 289.534 321.323 289.342 321.248 289.164C321.173 288.986 321.063 288.825 320.925 288.69C320.786 288.555 320.622 288.45 320.443 288.379C320.263 288.309 320.071 288.275 319.878 288.28ZM299.804 293.761C299.445 293.761 299.094 293.654 298.795 293.454C298.496 293.254 298.264 292.97 298.127 292.638C297.99 292.305 297.954 291.94 298.025 291.588C298.097 291.235 298.271 290.912 298.526 290.659C298.781 290.405 299.105 290.233 299.458 290.165C299.811 290.096 300.176 290.134 300.508 290.273C300.839 290.412 301.121 290.647 301.319 290.947C301.517 291.247 301.622 291.599 301.619 291.958C301.619 292.196 301.572 292.432 301.481 292.651C301.39 292.871 301.256 293.07 301.087 293.237C300.918 293.405 300.718 293.537 300.498 293.627C300.278 293.717 300.042 293.763 299.804 293.761ZM313.097 293.761C312.737 293.761 312.386 293.654 312.087 293.454C311.788 293.254 311.556 292.97 311.419 292.638C311.282 292.305 311.247 291.94 311.318 291.588C311.389 291.235 311.563 290.912 311.818 290.659C312.073 290.405 312.397 290.233 312.75 290.165C313.103 290.096 313.468 290.134 313.8 290.273C314.131 290.412 314.414 290.647 314.612 290.947C314.81 291.247 314.914 291.599 314.911 291.958C314.911 292.196 314.864 292.432 314.773 292.651C314.682 292.871 314.548 293.07 314.379 293.237C314.211 293.405 314.01 293.537 313.79 293.627C313.57 293.717 313.334 293.763 313.097 293.761Z" fill="#BDCDE0"/>
<path d="M140.196 356.803C169.287 342.254 181.077 306.876 166.528 277.785C151.979 248.693 116.601 236.904 87.5092 251.453C58.4175 266.002 46.6283 301.379 61.1773 330.471C75.7263 359.563 111.104 371.352 140.196 356.803Z" fill="#FB8284"/>
<path d="M113.849 346.415C105.49 346.418 97.3178 343.941 90.3658 339.3C83.4139 334.658 77.9944 328.059 74.7927 320.337C71.5909 312.615 70.7507 304.117 72.3782 295.918C74.0058 287.719 78.028 280.186 83.9363 274.273C89.8446 268.359 97.3736 264.331 105.571 262.696C113.769 261.061 122.268 261.894 129.992 265.089C137.717 268.284 144.321 273.698 148.969 280.646C153.617 287.594 156.1 295.764 156.105 304.123C156.108 309.675 155.017 315.173 152.896 320.303C150.774 325.433 147.662 330.095 143.738 334.022C139.814 337.95 135.155 341.066 130.026 343.192C124.898 345.318 119.401 346.414 113.849 346.415Z" fill="#F9F9F9"/>
<path d="M135.196 304.871C134.338 302.308 132.744 297.747 132.646 297.514C132.528 297.16 132.303 296.852 132.002 296.632C131.701 296.412 131.339 296.292 130.966 296.288H123.437V291.984C123.434 291.511 123.244 291.059 122.908 290.726C122.573 290.392 122.119 290.206 121.647 290.206H94.8415C94.3689 290.206 93.9153 290.392 93.5799 290.726C93.2446 291.059 93.0545 291.511 93.0513 291.984V314.816C93.0545 315.288 93.2446 315.741 93.5799 316.074C93.9153 316.407 94.3689 316.594 94.8415 316.594H99.538V312.915H105.951V316.594H121.892V312.707H128.158V316.594H133.811C134.229 316.594 134.635 316.447 134.956 316.178C135.277 315.909 135.492 315.535 135.564 315.122C135.564 315.024 135.785 312.351 135.92 310.009C136.116 306.379 136.018 307.299 135.196 304.871ZM131.947 305.227H125.816C125.591 305.227 125.376 305.138 125.218 304.979C125.059 304.82 124.97 304.605 124.97 304.381V299.304C124.97 299.08 125.059 298.864 125.218 298.706C125.376 298.547 125.591 298.458 125.816 298.458H130.377C130.556 298.458 130.729 298.515 130.873 298.621C131.016 298.727 131.122 298.876 131.174 299.047L132.805 304.123C132.847 304.254 132.857 304.394 132.833 304.529C132.809 304.665 132.752 304.793 132.668 304.902C132.583 305.011 132.473 305.097 132.348 305.154C132.222 305.21 132.084 305.235 131.947 305.227Z" fill="#BDCDE0"/>
<path d="M102.837 310.708C101.509 310.708 100.235 311.235 99.2947 312.173C98.3545 313.111 97.8247 314.383 97.8215 315.711C97.8187 316.032 97.8475 316.353 97.9073 316.668C98.1469 317.791 98.7647 318.798 99.6574 319.52C100.55 320.243 101.664 320.637 102.812 320.637C103.961 320.637 105.074 320.243 105.967 319.52C106.86 318.798 107.477 317.791 107.717 316.668C107.781 316.353 107.814 316.033 107.815 315.711C107.812 314.39 107.287 313.123 106.355 312.186C105.423 311.249 104.158 310.718 102.837 310.708ZM102.837 318.066C102.381 318.066 101.934 317.934 101.551 317.686C101.168 317.438 100.865 317.084 100.679 316.668C100.55 316.365 100.483 316.04 100.482 315.711C100.459 315.389 100.502 315.065 100.61 314.76C100.717 314.455 100.886 314.175 101.107 313.938C101.327 313.701 101.594 313.512 101.89 313.383C102.187 313.254 102.507 313.187 102.831 313.187C103.154 313.187 103.474 313.254 103.771 313.383C104.067 313.512 104.334 313.701 104.554 313.938C104.775 314.175 104.944 314.455 105.051 314.76C105.159 315.065 105.202 315.389 105.179 315.711C105.181 316.042 105.11 316.368 104.97 316.668C104.788 317.082 104.489 317.435 104.111 317.683C103.732 317.931 103.289 318.064 102.837 318.066Z" fill="#BDCDE0"/>
<path d="M125.252 310.708C123.924 310.708 122.65 311.235 121.71 312.173C120.77 313.111 120.24 314.383 120.237 315.711C120.234 316.032 120.263 316.353 120.323 316.668C120.562 317.791 121.18 318.798 122.073 319.52C122.966 320.243 124.079 320.637 125.228 320.637C126.376 320.637 127.49 320.243 128.382 319.52C129.275 318.798 129.893 317.791 130.133 316.668C130.192 316.353 130.221 316.032 130.218 315.711C130.218 314.391 129.696 313.124 128.766 312.187C127.836 311.25 126.573 310.718 125.252 310.708ZM125.252 318.066C124.797 318.066 124.352 317.934 123.971 317.686C123.59 317.438 123.29 317.084 123.106 316.668C122.967 316.368 122.896 316.042 122.898 315.711C122.898 315.087 123.146 314.488 123.587 314.047C124.029 313.605 124.628 313.357 125.252 313.357C125.877 313.357 126.475 313.605 126.917 314.047C127.359 314.488 127.607 315.087 127.607 315.711C127.602 316.041 127.531 316.366 127.398 316.668C127.213 317.083 126.913 317.436 126.532 317.684C126.151 317.932 125.707 318.065 125.252 318.066Z" fill="#BDCDE0"/>
<path d="M140.184 161.983C169.276 147.434 181.065 112.056 166.516 82.9642C151.967 53.8725 116.589 42.0833 87.4975 56.6323C58.4058 71.1813 46.6166 106.559 61.1655 135.651C75.7145 164.742 111.092 176.532 140.184 161.983Z" fill="#FFC895"/>
<path d="M113.849 151.569C105.489 151.572 97.3148 149.094 90.362 144.451C83.4093 139.807 77.9898 133.206 74.7891 125.482C71.5885 117.758 70.7504 109.259 72.3809 101.058C74.0114 92.8581 78.0373 85.3256 83.9493 79.4136C89.8613 73.5017 97.3938 69.4758 105.594 67.8453C113.794 66.2148 122.294 67.0528 130.018 70.2535C137.742 73.4542 144.343 78.8736 148.986 85.8264C153.63 92.7791 156.107 100.953 156.105 109.314C156.105 120.521 151.653 131.268 143.728 139.193C135.804 147.117 125.056 151.569 113.849 151.569Z" fill="#F9F9F9"/>
<path d="M99.0363 106.174H92.9175V127.768H99.0363V106.174Z" fill="#BDCDE0"/>
<path d="M134.756 103.122H128.637V127.781H134.756V103.122Z" fill="#BDCDE0"/>
<path d="M107.975 90.8467H101.856V127.768H107.975V90.8467Z" fill="#BDCDE0"/>
<path d="M116.901 99.0747H110.782V127.768H116.901V99.0747Z" fill="#BDCDE0"/>
<path d="M125.828 94.4028H119.709V127.768H125.828V94.4028Z" fill="#BDCDE0"/>
<path d="M356.549 142.514C373.651 114.846 365.085 78.5528 337.417 61.4511C309.748 44.3495 273.455 52.9155 256.353 80.5838C239.252 108.252 247.818 144.545 275.486 161.647C303.154 178.749 339.448 170.183 356.549 142.514Z" fill="#36A784"/>
<path d="M306.451 153.801C298.091 153.801 289.919 151.322 282.968 146.678C276.017 142.033 270.6 135.432 267.401 127.708C264.201 119.985 263.364 111.486 264.995 103.287C266.626 95.0882 270.652 87.5568 276.563 81.6456C282.474 75.7343 290.006 71.7087 298.205 70.0778C306.404 68.4469 314.903 69.2839 322.626 72.4831C330.349 75.6822 336.951 81.0998 341.595 88.0507C346.24 95.0016 348.719 103.174 348.719 111.533C348.72 117.084 347.628 122.582 345.504 127.71C343.381 132.839 340.267 137.499 336.342 141.425C332.417 145.35 327.757 148.463 322.628 150.587C317.499 152.71 312.002 153.803 306.451 153.801Z" fill="#F9F9F9"/>
<path d="M327.407 112.832C327.856 111.91 328.221 110.95 328.498 109.963C328.766 108.967 328.947 107.949 329.038 106.922L325.617 105.475C325.617 104.4 325.485 103.33 325.224 102.287L328.143 100.018C327.469 98.0696 326.443 96.2614 325.114 94.6843L321.668 96.0332C320.914 95.2656 320.06 94.6017 319.13 94.059L319.608 90.3803C318.678 89.9313 317.71 89.5661 316.715 89.289C315.724 89.0184 314.71 88.8419 313.686 88.7617L312.214 92.1338C311.135 92.1384 310.06 92.2743 309.014 92.5385L306.745 89.5342C304.802 90.2108 302.998 91.2373 301.424 92.563L302.772 96.0087C302.012 96.7699 301.349 97.6225 300.798 98.5469L297.12 98.0687C296.673 98.9998 296.307 99.9681 296.028 100.963C295.759 101.954 295.582 102.968 295.501 103.991L298.885 105.463C298.883 106.538 299.019 107.61 299.29 108.651L296.359 110.932C297.036 112.876 298.062 114.679 299.388 116.253L302.834 114.905C303.584 115.673 304.424 116.348 305.335 116.916L304.857 120.594C305.783 121.043 306.747 121.409 307.739 121.686C308.739 121.954 309.76 122.135 310.792 122.225L312.251 118.829C313.331 118.831 314.406 118.695 315.452 118.424L317.708 121.355C319.659 120.686 321.468 119.659 323.042 118.326L321.693 114.88C322.473 114.116 323.156 113.26 323.728 112.33L327.407 112.832ZM309.872 114.132C308.153 113.665 306.611 112.698 305.442 111.354C304.272 110.01 303.528 108.349 303.304 106.581C303.079 104.814 303.384 103.019 304.18 101.425C304.976 99.8314 306.227 98.5095 307.775 97.6273C309.323 96.745 311.098 96.3419 312.875 96.4692C314.652 96.5964 316.352 97.2483 317.758 98.3421C319.164 99.4359 320.214 100.923 320.775 102.614C321.336 104.305 321.382 106.124 320.908 107.842C320.278 110.138 318.761 112.091 316.692 113.27C314.623 114.45 312.17 114.76 309.872 114.132Z" fill="#4E729C"/>
<path d="M305.985 129.105C306.053 128.371 306.053 127.632 305.985 126.898C305.938 126.16 305.815 125.428 305.617 124.716L302.981 124.532C302.717 123.808 302.372 123.117 301.951 122.472L303.422 120.191C302.503 119.035 301.376 118.062 300.099 117.322L298.101 119.05C297.404 118.715 296.666 118.471 295.906 118.327L295.354 115.74C294.616 115.672 293.873 115.672 293.134 115.74C292.397 115.798 291.667 115.922 290.952 116.108L290.78 118.744C290.05 119.007 289.354 119.357 288.708 119.786L286.476 118.352C285.327 119.278 284.355 120.403 283.607 121.675L285.348 123.686C285.012 124.378 284.769 125.112 284.624 125.868L282.025 126.432C281.957 127.166 281.957 127.905 282.025 128.639C282.074 129.377 282.193 130.108 282.38 130.822L285.029 131.006C285.285 131.732 285.635 132.42 286.071 133.054L284.637 135.298C285.556 136.453 286.683 137.426 287.96 138.167L289.958 136.426C290.655 136.762 291.393 137.005 292.153 137.149L292.705 139.749C293.439 139.817 294.178 139.817 294.912 139.749C295.649 139.691 296.38 139.568 297.095 139.381L297.279 136.733C298.006 136.476 298.698 136.13 299.339 135.703L301.571 137.137C302.73 136.214 303.707 135.083 304.452 133.802L302.711 131.803C303.045 131.11 303.288 130.376 303.435 129.62L305.985 129.105ZM294.422 133.459C293.296 133.54 292.17 133.286 291.188 132.729C290.206 132.171 289.411 131.335 288.904 130.326C288.397 129.317 288.2 128.18 288.338 127.059C288.476 125.939 288.944 124.884 289.681 124.028C290.418 123.173 291.393 122.555 292.481 122.253C293.569 121.951 294.722 121.978 295.795 122.331C296.868 122.684 297.812 123.347 298.508 124.237C299.204 125.126 299.622 126.201 299.707 127.327C299.765 128.078 299.675 128.832 299.44 129.547C299.206 130.262 298.832 130.924 298.341 131.493C297.85 132.063 297.251 132.53 296.578 132.868C295.905 133.205 295.173 133.406 294.422 133.459Z" fill="#4E729C"/>
<path d="M183.559 211.329L182.655 210.188L181.664 211.253L178.491 214.663L178.156 215.023V215.515V221.75H172.25V194.25H178.122V205.447V208.615L180.286 206.3L191.546 194.25H197.499L187.169 205.416L186.45 206.193L187.098 207.03L198.451 221.69H191.77L183.559 211.329Z" fill="white" stroke="#334B6D" stroke-width="2.5"/>
<path d="M212.468 213.908H211.218V215.158V221.75H205.25V194.25H217.696C221.575 194.25 224.59 195.264 226.611 196.95C228.607 198.614 229.75 201.026 229.75 204.105C229.75 207.184 228.611 209.581 226.619 211.232C224.601 212.905 221.584 213.908 217.688 213.908H212.468ZM223.577 205.355H223.722V204.105C223.722 202.44 223.189 200.953 221.975 199.906C220.791 198.885 219.139 198.438 217.21 198.438H212.503H211.253V199.688V208.47V209.72H212.503H217.206C219.119 209.733 220.762 209.297 221.943 208.283C222.84 207.514 223.365 206.501 223.577 205.355Z" fill="white" stroke="#334B6D" stroke-width="2.5"/>
<path d="M237.25 194.25H242.75V221.75H237.25V194.25Z" fill="white" stroke="#334B6D" stroke-width="2.5"/>
</svg>
