<svg width="619" height="276" viewBox="0 0 619 276" fill="none" xmlns="http://www.w3.org/2000/svg">
<path d="M173.038 176.871V242.758C173.038 246.109 171.708 249.322 169.338 251.691C166.969 254.06 163.756 255.391 160.406 255.391H47.1059C43.7567 255.389 40.5453 254.057 38.1776 251.689C35.81 249.32 34.48 246.108 34.48 242.758V168.965C34.48 165.616 35.8102 162.405 38.178 160.037C40.5459 157.669 43.7573 156.339 47.1059 156.339H80.3412C80.932 159.796 82.7275 162.932 85.4094 165.191C88.0914 167.45 91.4867 168.687 94.9935 168.683H164.843C165.919 168.682 166.985 168.893 167.979 169.304C168.973 169.715 169.877 170.318 170.638 171.079C171.399 171.839 172.003 172.742 172.414 173.736C172.826 174.73 173.038 175.795 173.038 176.871Z" fill="#7BADB7"/>
<path d="M160.411 255.391H47.1175C40.1344 255.391 33.722 252.011 32.7987 247.843L22.9749 203.79C22.0451 199.622 26.9506 196.243 33.9272 196.243H147.221C154.198 196.243 160.61 199.622 161.54 203.79L171.363 247.843C172.293 252.011 167.362 255.391 160.411 255.391Z" fill="#96D5E2"/>
<path d="M233.263 52.6573H225.37C224.92 50.1472 224.264 47.6786 223.407 45.2766L230.205 41.333C230.511 41.1564 230.78 40.9209 230.996 40.6403C231.211 40.3596 231.37 40.0392 231.461 39.6974C231.553 39.3555 231.576 38.999 231.53 38.6481C231.484 38.2972 231.369 37.9588 231.192 37.6524L224.247 25.5779C223.891 24.9637 223.306 24.5154 222.62 24.3304C221.934 24.1455 221.203 24.2389 220.586 24.5904L213.763 28.5276C212.079 26.6121 210.273 24.8065 208.358 23.1219L212.25 16.2928C212.427 15.9863 212.542 15.6479 212.588 15.297C212.634 14.9461 212.611 14.5896 212.519 14.2477C212.427 13.9059 212.269 13.5855 212.054 13.3048C211.838 13.0242 211.569 12.7888 211.262 12.6121L199.214 5.64823C198.907 5.47119 198.569 5.3563 198.218 5.31012C197.867 5.26394 197.51 5.28737 197.169 5.37908C196.827 5.4708 196.506 5.62899 196.226 5.84461C195.945 6.06024 195.71 6.32907 195.533 6.63573L191.589 13.4649C189.182 12.6244 186.715 11.9684 184.209 11.5027V3.60268C184.209 2.8867 183.924 2.20005 183.418 1.69377C182.912 1.1875 182.225 0.903076 181.509 0.903076L167.569 0.903076C167.214 0.903075 166.864 0.972949 166.536 1.1087C166.209 1.24444 165.912 1.44339 165.662 1.69416C165.412 1.94493 165.214 2.24258 165.079 2.57007C164.944 2.89757 164.875 3.24847 164.875 3.60268V11.5027C162.36 11.9215 159.888 12.5653 157.488 13.4264L153.545 6.63573C153.368 6.32907 153.133 6.06024 152.852 5.84461C152.571 5.62899 152.251 5.4708 151.909 5.37908C151.567 5.28737 151.211 5.26394 150.86 5.31012C150.509 5.3563 150.17 5.47119 149.864 5.64823L137.79 12.6185C137.172 12.9753 136.721 13.5626 136.536 14.2514C136.351 14.9402 136.447 15.6744 136.802 16.2928L140.746 23.1219C138.812 24.7866 137.005 26.5935 135.34 28.5276L128.511 24.5839C128.204 24.4069 127.866 24.292 127.515 24.2458C127.164 24.1997 126.808 24.2231 126.466 24.3148C126.124 24.4065 125.804 24.5647 125.523 24.7803C125.242 24.996 125.007 25.2648 124.83 25.5715L117.86 37.6524C117.683 37.9588 117.568 38.2972 117.522 38.6481C117.476 38.999 117.499 39.3555 117.591 39.6974C117.682 40.0392 117.841 40.3596 118.056 40.6403C118.272 40.9209 118.541 41.1564 118.847 41.333L125.683 45.2831C124.809 47.6773 124.152 50.1453 123.721 52.6573H115.814C115.098 52.6573 114.412 52.9417 113.905 53.448C113.399 53.9543 113.115 54.6409 113.115 55.3569V69.2974C113.115 69.6516 113.185 70.0023 113.32 70.3295C113.456 70.6567 113.655 70.9539 113.906 71.204C114.157 71.4542 114.454 71.6524 114.782 71.7874C115.109 71.9224 115.46 71.9914 115.814 71.9906H123.721C124.156 74.5038 124.813 76.9736 125.683 79.3712L118.847 83.3212C118.541 83.4979 118.272 83.7333 118.056 84.014C117.841 84.2946 117.682 84.6151 117.591 84.9569C117.499 85.2987 117.476 85.6553 117.522 86.0062C117.568 86.3571 117.683 86.6955 117.86 87.0019L124.83 99.0764C125.007 99.3831 125.242 99.6519 125.523 99.8675C125.804 100.083 126.124 100.241 126.466 100.333C126.808 100.425 127.164 100.448 127.515 100.402C127.866 100.356 128.204 100.241 128.511 100.064L135.34 96.1203C137.008 98.0512 138.815 99.8579 140.746 101.526L136.802 108.355C136.625 108.662 136.51 109 136.464 109.351C136.418 109.702 136.441 110.058 136.533 110.4C136.625 110.742 136.783 111.062 136.998 111.343C137.214 111.624 137.483 111.859 137.79 112.036L149.864 119.006C150.17 119.183 150.509 119.298 150.86 119.344C151.211 119.39 151.567 119.367 151.909 119.275C152.251 119.183 152.571 119.025 152.852 118.81C153.133 118.594 153.368 118.325 153.545 118.019L157.495 111.196C159.893 112.056 162.363 112.7 164.875 113.119V121.026C164.875 121.741 165.159 122.426 165.664 122.933C166.169 123.439 166.854 123.724 167.569 123.726H181.509C182.225 123.724 182.91 123.439 183.416 122.933C183.922 122.427 184.207 121.741 184.209 121.026V113.152C186.714 112.698 189.181 112.055 191.589 111.228L195.533 118.057C195.71 118.364 195.945 118.633 196.226 118.848C196.506 119.064 196.827 119.222 197.169 119.314C197.51 119.405 197.867 119.429 198.218 119.383C198.569 119.336 198.907 119.222 199.214 119.045L211.288 112.074C211.595 111.898 211.864 111.662 212.079 111.382C212.295 111.101 212.453 110.78 212.545 110.439C212.636 110.097 212.66 109.74 212.614 109.389C212.568 109.038 212.453 108.7 212.276 108.394L208.338 101.571C210.262 99.8945 212.068 98.0884 213.744 96.1652L220.586 100.064C220.892 100.241 221.231 100.356 221.582 100.402C221.933 100.448 222.289 100.425 222.631 100.333C222.973 100.241 223.293 100.083 223.574 99.8675C223.855 99.6519 224.09 99.3831 224.267 99.0764L231.237 87.0019C231.414 86.6955 231.529 86.3571 231.575 86.0062C231.621 85.6553 231.598 85.2987 231.506 84.9569C231.414 84.6151 231.256 84.2946 231.041 84.014C230.825 83.7333 230.556 83.4979 230.249 83.3212L223.427 79.3776C224.294 76.9769 224.95 74.5052 225.389 71.9906H233.283C233.637 71.9914 233.988 71.9224 234.315 71.7874C234.643 71.6524 234.94 71.4542 235.191 71.204C235.442 70.9539 235.641 70.6567 235.776 70.3295C235.912 70.0023 235.982 69.6516 235.982 69.2974V55.3569C235.982 55.0008 235.912 54.6481 235.775 54.3193C235.638 53.9905 235.437 53.6921 235.185 53.4412C234.932 53.1902 234.632 52.9918 234.302 52.8572C233.973 52.7227 233.619 52.6547 233.263 52.6573ZM174.526 103.232C166.435 103.228 158.526 100.825 151.8 96.3262C145.075 91.8277 139.834 85.4358 136.741 77.9589C133.648 70.4819 132.842 62.2557 134.424 54.3205C136.006 46.3853 139.906 39.0976 145.63 33.3788C151.355 27.66 158.646 23.767 166.583 22.1922C174.519 20.6173 182.745 21.4314 190.219 24.5313C197.693 27.6313 204.08 32.878 208.572 39.6078C213.064 46.3377 215.46 54.2486 215.456 62.34C215.457 67.7134 214.399 73.0343 212.341 77.9984C210.284 82.9625 207.269 87.4724 203.468 91.2702C199.666 95.068 195.153 98.0793 190.187 100.132C185.221 102.184 179.899 103.238 174.526 103.232Z" fill="url(#paint0_linear)"/>
<path d="M421.165 60.1404H126.241C124.088 60.1404 122.342 61.8859 122.342 64.0391V242.534C122.342 244.687 124.088 246.432 126.241 246.432H421.165C423.318 246.432 425.064 244.687 425.064 242.534V64.0391C425.064 61.8859 423.318 60.1404 421.165 60.1404Z" fill="#192641"/>
<path d="M415.809 72.1187H131.594C130.797 72.1187 130.151 72.7646 130.151 73.5614V218.372C130.151 219.169 130.797 219.815 131.594 219.815H415.809C416.606 219.815 417.252 219.169 417.252 218.372V73.5614C417.252 72.7646 416.606 72.1187 415.809 72.1187Z" fill="url(#paint1_linear)"/>
<path d="M449.462 265.279H97.9492C97.9492 260.279 99.9354 255.483 103.471 251.948C107.006 248.412 111.802 246.426 116.802 246.426H430.61C435.609 246.428 440.404 248.415 443.939 251.95C447.474 255.485 449.461 260.279 449.462 265.279Z" fill="#A1AABD"/>
<path d="M295.052 255.852H252.359C249.859 255.852 247.461 254.859 245.693 253.092C243.926 251.324 242.933 248.926 242.933 246.426H304.491C304.491 247.665 304.247 248.892 303.773 250.036C303.298 251.181 302.603 252.221 301.726 253.096C300.849 253.972 299.809 254.666 298.664 255.139C297.518 255.612 296.291 255.854 295.052 255.852Z" fill="#75898F"/>
<path d="M273.706 242.636C278.349 242.636 282.113 238.873 282.113 234.23C282.113 229.587 278.349 225.823 273.706 225.823C269.063 225.823 265.299 229.587 265.299 234.23C265.299 238.873 269.063 242.636 273.706 242.636Z" fill="#F2F2F2"/>
<path d="M277.387 66.0076C277.387 66.7356 277.171 67.4472 276.766 68.0525C276.362 68.6578 275.787 69.1295 275.115 69.4081C274.442 69.6867 273.702 69.7596 272.988 69.6176C272.274 69.4756 271.618 69.125 271.103 68.6102C270.589 68.0955 270.238 67.4397 270.096 66.7257C269.954 66.0117 270.027 65.2716 270.306 64.5991C270.584 63.9265 271.056 63.3517 271.661 62.9472C272.266 62.5428 272.978 62.3269 273.706 62.3269C274.682 62.3269 275.618 62.7147 276.309 63.405C276.999 64.0952 277.387 65.0314 277.387 66.0076Z" fill="#F2F2F2"/>
<path d="M262.753 66.0077C262.758 66.4615 262.628 66.9066 262.38 67.2864C262.131 67.6663 261.776 67.9637 261.358 68.1409C260.94 68.3181 260.479 68.3671 260.033 68.2817C259.587 68.1963 259.177 67.9803 258.854 67.6612C258.532 67.3421 258.311 66.9342 258.221 66.4895C258.13 66.0447 258.174 65.5831 258.347 65.1633C258.519 64.7436 258.812 64.3845 259.189 64.1318C259.566 63.8791 260.01 63.7442 260.464 63.7441C261.067 63.7424 261.647 63.9795 262.075 64.4037C262.504 64.8278 262.748 65.4045 262.753 66.0077Z" fill="#F2F2F2"/>
<path d="M284.652 66.0077C284.647 66.4615 284.777 66.9066 285.026 67.2864C285.274 67.6663 285.63 67.9637 286.048 68.1409C286.466 68.3181 286.927 68.3671 287.372 68.2817C287.818 68.1963 288.228 67.9803 288.551 67.6612C288.874 67.3421 289.094 66.9342 289.185 66.4895C289.275 66.0447 289.231 65.5831 289.059 65.1633C288.887 64.7436 288.593 64.3845 288.216 64.1318C287.839 63.8791 287.396 63.7442 286.942 63.7441C286.338 63.7424 285.759 63.9795 285.33 64.4037C284.901 64.8278 284.658 65.4045 284.652 66.0077Z" fill="#F2F2F2"/>
<path d="M71.8184 106.938V87.0596C71.8184 86.6288 71.6477 86.2155 71.3437 85.9102C71.0396 85.6049 70.627 85.4326 70.1961 85.4309H24.6683C24.2363 85.4309 23.822 85.6025 23.5166 85.908C23.2112 86.2134 23.0396 86.6277 23.0396 87.0596C23.0396 87.4916 23.2112 87.9059 23.5166 88.2113C23.822 88.5168 24.2363 88.6884 24.6683 88.6884H68.5545V106.906C66.8947 107.304 65.4386 108.297 64.4624 109.697C63.4862 111.098 63.0576 112.807 63.258 114.502C63.4585 116.197 64.2739 117.76 65.5498 118.894C66.8256 120.028 68.4732 120.654 70.1801 120.654C71.887 120.654 73.5345 120.028 74.8104 118.894C76.0862 117.76 76.9017 116.197 77.1021 114.502C77.3025 112.807 76.874 111.098 75.8977 109.697C74.9215 108.297 73.4654 107.304 71.8056 106.906L71.8184 106.938ZM70.1961 117.403C69.4618 117.403 68.744 117.185 68.1334 116.777C67.5228 116.369 67.047 115.789 66.766 115.111C66.4849 114.433 66.4114 113.686 66.5547 112.966C66.6979 112.246 67.0515 111.584 67.5708 111.065C68.09 110.546 68.7516 110.192 69.4718 110.049C70.192 109.906 70.9385 109.979 71.6169 110.26C72.2953 110.541 72.8752 111.017 73.2831 111.628C73.6911 112.238 73.9089 112.956 73.9089 113.69C73.9089 114.178 73.8126 114.662 73.6256 115.112C73.4386 115.563 73.1646 115.973 72.8192 116.318C72.4737 116.663 72.0637 116.936 71.6125 117.122C71.1613 117.308 70.6778 117.404 70.1897 117.403H70.1961Z" fill="white"/>
<path d="M37.2302 73.3691H1.16705C0.522507 73.3691 0 73.8916 0 74.5362V99.647C0 100.292 0.522507 100.814 1.16705 100.814H37.2302C37.8748 100.814 38.3973 100.292 38.3973 99.647V74.5362C38.3973 73.8916 37.8748 73.3691 37.2302 73.3691Z" fill="#273F5E"/>
<path d="M20.0648 79.1594H8.27246V83.0261H20.0648V79.1594Z" fill="#F2F2F2"/>
<path d="M31.8636 86.4824H8.27246V89.6758H31.8636V86.4824Z" fill="#F2F2F2"/>
<path d="M31.8636 92.5356H8.27246V95.729H31.8636V92.5356Z" fill="#F2F2F2"/>
<path d="M509.354 134.158C509.349 135.468 509.713 136.753 510.405 137.866C511.097 138.978 512.088 139.873 513.266 140.448C514.443 141.023 515.758 141.255 517.061 141.116C518.364 140.978 519.601 140.475 520.631 139.666C521.661 138.856 522.442 137.773 522.885 136.54C523.327 135.307 523.413 133.974 523.133 132.694C522.853 131.414 522.218 130.239 521.3 129.304C520.383 128.369 519.221 127.711 517.947 127.406V109.189H561.833C562.265 109.189 562.679 109.017 562.985 108.712C563.29 108.406 563.462 107.992 563.462 107.56C563.462 107.128 563.29 106.714 562.985 106.408C562.679 106.103 562.265 105.931 561.833 105.931H516.305C515.873 105.931 515.459 106.103 515.153 106.408C514.848 106.714 514.676 107.128 514.676 107.56V127.406C513.161 127.774 511.814 128.639 510.849 129.863C509.884 131.087 509.357 132.6 509.354 134.158ZM512.605 134.158C512.604 133.423 512.821 132.703 513.229 132.09C513.637 131.478 514.217 131 514.897 130.718C515.576 130.435 516.324 130.361 517.046 130.503C517.768 130.646 518.431 131 518.952 131.52C519.473 132.04 519.827 132.702 519.972 133.424C520.116 134.146 520.042 134.894 519.761 135.574C519.48 136.254 519.003 136.835 518.391 137.244C517.779 137.653 517.06 137.871 516.324 137.871C515.339 137.871 514.394 137.48 513.697 136.784C512.999 136.088 512.607 135.144 512.605 134.158Z" fill="white"/>
<path d="M549.277 121.282H585.34C585.984 121.282 586.507 120.76 586.507 120.115V95.0043C586.507 94.3598 585.984 93.8373 585.34 93.8373H549.277C548.632 93.8373 548.11 94.3598 548.11 95.0043V120.115C548.11 120.76 548.632 121.282 549.277 121.282Z" fill="#4E8FB7"/>
<path d="M566.443 103.494H578.236V99.6277H566.443V103.494Z" fill="#F2F2F2"/>
<path d="M554.65 110.151H578.241V106.951H554.65V110.151Z" fill="#F2F2F2"/>
<path d="M554.65 116.204H578.241V113.004H554.65V116.204Z" fill="#F2F2F2"/>
<path d="M500.767 88.6819C500.779 94.2632 499.107 99.7183 495.97 104.335H353.827C350.131 99.6073 347.838 93.9362 347.209 87.9683C346.581 82.0004 347.643 75.9761 350.274 70.5827C352.904 65.1892 356.998 60.6439 362.088 57.4653C367.178 54.2868 373.059 52.6029 379.06 52.6059C381.17 52.6201 383.274 52.8348 385.344 53.2472C389.229 44.9657 395.575 38.0855 403.517 33.5464C411.458 29.0073 420.607 27.0307 429.715 27.8866C438.822 28.7425 447.442 32.3892 454.399 38.3285C461.356 44.2678 466.309 52.2101 468.583 61.0703C472.568 60.429 476.645 60.6641 480.53 61.7593C484.416 62.8545 488.015 64.7834 491.079 67.4117C494.142 70.0401 496.596 73.3046 498.269 76.9781C499.942 80.6515 500.795 84.6455 500.767 88.6819Z" fill="#DDE0E3"/>
<path d="M414.77 77.9538V52.7981H408.255V77.9538H402.747L411.513 93.1383L420.278 77.9538H414.77Z" fill="#FB8284"/>
<path d="M439.435 67.7491V92.9048H432.92V67.7491H427.412L436.177 52.571L444.943 67.7491H439.435Z" fill="#23416E"/>
<path d="M398.971 130.388H385.967V196.891H398.971V130.388Z" fill="#4E8FB7"/>
<g style="mix-blend-mode:soft-light">
<path d="M398.971 144.226H385.967V196.891H398.971V144.226Z" fill="#0F5F96"/>
</g>
<path d="M564.385 172.318H462.999C462.085 172.318 461.344 173.059 461.344 173.973V193.537C461.344 194.451 462.085 195.191 462.999 195.191H564.385C565.298 195.191 566.039 194.451 566.039 193.537V173.973C566.039 173.059 565.298 172.318 564.385 172.318Z" fill="#6C9AB6"/>
<path d="M560.992 172.318H466.39C466.029 172.318 465.677 172.204 465.383 171.995C465.09 171.785 464.869 171.489 464.751 171.147C464.633 170.806 464.624 170.437 464.726 170.09C464.828 169.744 465.035 169.438 465.319 169.215L483.703 154.8C484.674 154.041 485.87 153.628 487.102 153.626H540.28C541.512 153.628 542.708 154.041 543.678 154.8L562.063 169.189C562.361 169.407 562.582 169.715 562.693 170.067C562.804 170.42 562.8 170.799 562.68 171.148C562.56 171.498 562.332 171.8 562.028 172.011C561.724 172.221 561.361 172.329 560.992 172.318Z" fill="#A1BEEB"/>
<path d="M479.472 183.758C479.472 184.713 479.189 185.647 478.658 186.441C478.128 187.235 477.374 187.854 476.491 188.219C475.609 188.585 474.638 188.68 473.701 188.494C472.765 188.308 471.904 187.848 471.229 187.172C470.554 186.497 470.094 185.637 469.908 184.7C469.721 183.764 469.817 182.793 470.182 181.91C470.548 181.028 471.167 180.274 471.961 179.743C472.755 179.213 473.688 178.93 474.643 178.93C475.924 178.93 477.152 179.438 478.058 180.344C478.963 181.249 479.472 182.478 479.472 183.758Z" fill="white"/>
<path d="M489.956 183.758C489.956 184.351 489.781 184.93 489.451 185.423C489.122 185.915 488.654 186.299 488.106 186.525C487.559 186.752 486.956 186.811 486.375 186.695C485.794 186.579 485.261 186.293 484.842 185.873C484.424 185.454 484.139 184.92 484.024 184.339C483.909 183.757 483.969 183.155 484.197 182.608C484.425 182.061 484.81 181.594 485.303 181.265C485.796 180.937 486.376 180.762 486.968 180.764C487.361 180.764 487.75 180.841 488.113 180.992C488.476 181.142 488.806 181.363 489.083 181.641C489.361 181.919 489.581 182.249 489.731 182.613C489.881 182.976 489.957 183.365 489.956 183.758Z" fill="white"/>
<path d="M498.716 183.758C498.716 184.351 498.54 184.929 498.211 185.422C497.882 185.914 497.414 186.298 496.867 186.525C496.32 186.752 495.718 186.811 495.137 186.695C494.556 186.58 494.022 186.295 493.604 185.876C493.185 185.457 492.9 184.923 492.784 184.342C492.669 183.762 492.728 183.159 492.955 182.612C493.181 182.065 493.565 181.597 494.057 181.268C494.55 180.939 495.129 180.764 495.721 180.764C496.114 180.764 496.504 180.841 496.867 180.992C497.23 181.142 497.561 181.363 497.839 181.641C498.117 181.919 498.337 182.249 498.488 182.612C498.638 182.976 498.716 183.365 498.716 183.758Z" fill="white"/>
<path d="M507.467 183.758C507.467 184.351 507.291 184.93 506.962 185.423C506.633 185.915 506.165 186.299 505.617 186.525C505.07 186.752 504.467 186.811 503.886 186.695C503.305 186.579 502.771 186.293 502.353 185.873C501.934 185.454 501.65 184.92 501.535 184.339C501.42 183.757 501.48 183.155 501.708 182.608C501.935 182.061 502.32 181.594 502.814 181.265C503.307 180.937 503.886 180.762 504.479 180.764C504.872 180.764 505.261 180.841 505.624 180.992C505.987 181.142 506.317 181.363 506.594 181.641C506.872 181.919 507.092 182.249 507.242 182.613C507.391 182.976 507.468 183.365 507.467 183.758Z" fill="white"/>
<path d="M564.385 199.257H462.999C462.085 199.257 461.344 199.997 461.344 200.911V220.475C461.344 221.389 462.085 222.13 462.999 222.13H564.385C565.298 222.13 566.039 221.389 566.039 220.475V200.911C566.039 199.997 565.298 199.257 564.385 199.257Z" fill="#6C9AB6"/>
<path d="M479.472 210.69C479.472 211.645 479.189 212.578 478.658 213.372C478.128 214.166 477.374 214.785 476.491 215.151C475.609 215.516 474.638 215.612 473.701 215.426C472.765 215.239 471.904 214.779 471.229 214.104C470.554 213.429 470.094 212.568 469.908 211.632C469.721 210.695 469.817 209.724 470.182 208.842C470.548 207.96 471.167 207.206 471.961 206.675C472.755 206.145 473.688 205.861 474.643 205.861C475.924 205.861 477.152 206.37 478.058 207.276C478.963 208.181 479.472 209.409 479.472 210.69Z" fill="#FB8284"/>
<path d="M489.956 210.69C489.958 211.283 489.783 211.863 489.454 212.356C489.126 212.85 488.658 213.234 488.111 213.462C487.563 213.689 486.961 213.749 486.379 213.634C485.798 213.518 485.264 213.233 484.844 212.814C484.425 212.395 484.14 211.861 484.025 211.279C483.909 210.698 483.969 210.095 484.196 209.548C484.424 209 484.809 208.532 485.302 208.204C485.796 207.875 486.375 207.701 486.968 207.702C487.76 207.704 488.519 208.019 489.079 208.579C489.639 209.139 489.955 209.898 489.956 210.69Z" fill="white"/>
<path d="M498.716 210.69C498.717 211.283 498.542 211.862 498.214 212.356C497.886 212.849 497.419 213.234 496.872 213.461C496.324 213.689 495.722 213.749 495.141 213.634C494.56 213.519 494.025 213.235 493.606 212.816C493.186 212.398 492.901 211.864 492.785 211.283C492.669 210.702 492.727 210.1 492.954 209.552C493.18 209.004 493.564 208.536 494.057 208.207C494.549 207.878 495.129 207.702 495.721 207.702C496.514 207.702 497.275 208.017 497.836 208.577C498.398 209.137 498.714 209.897 498.716 210.69Z" fill="white"/>
<path d="M507.467 210.69C507.468 211.283 507.294 211.863 506.965 212.356C506.637 212.85 506.169 213.234 505.622 213.462C505.074 213.689 504.471 213.749 503.89 213.634C503.308 213.518 502.774 213.233 502.355 212.814C501.936 212.395 501.651 211.861 501.535 211.279C501.42 210.698 501.48 210.095 501.707 209.548C501.935 209 502.319 208.532 502.813 208.204C503.306 207.875 503.886 207.701 504.479 207.702C505.271 207.704 506.03 208.019 506.59 208.579C507.15 209.139 507.465 209.898 507.467 210.69Z" fill="white"/>
<path d="M564.385 226.189H462.999C462.085 226.189 461.344 226.93 461.344 227.843V247.408C461.344 248.321 462.085 249.062 462.999 249.062H564.385C565.298 249.062 566.039 248.321 566.039 247.408V227.843C566.039 226.93 565.298 226.189 564.385 226.189Z" fill="#6C9AB6"/>
<path d="M479.472 237.629C479.472 238.584 479.189 239.517 478.658 240.311C478.128 241.105 477.374 241.724 476.491 242.09C475.609 242.455 474.638 242.551 473.701 242.364C472.765 242.178 471.904 241.718 471.229 241.043C470.554 240.368 470.094 239.507 469.908 238.571C469.721 237.634 469.817 236.663 470.182 235.781C470.548 234.898 471.167 234.144 471.961 233.614C472.755 233.083 473.688 232.8 474.643 232.8C475.924 232.8 477.152 233.309 478.058 234.214C478.963 235.12 479.472 236.348 479.472 237.629Z" fill="white"/>
<path d="M489.956 237.628C489.956 238.221 489.781 238.8 489.451 239.293C489.122 239.785 488.654 240.169 488.106 240.396C487.559 240.622 486.956 240.681 486.375 240.565C485.794 240.449 485.261 240.163 484.842 239.744C484.424 239.324 484.139 238.79 484.024 238.209C483.909 237.627 483.969 237.025 484.197 236.478C484.425 235.931 484.81 235.464 485.303 235.135C485.796 234.807 486.376 234.633 486.968 234.634C487.361 234.634 487.75 234.711 488.113 234.862C488.476 235.012 488.806 235.233 489.083 235.511C489.361 235.789 489.581 236.12 489.731 236.483C489.881 236.846 489.957 237.235 489.956 237.628Z" fill="white"/>
<path d="M498.716 237.628C498.716 238.221 498.54 238.8 498.211 239.292C497.882 239.785 497.414 240.168 496.867 240.395C496.32 240.622 495.718 240.681 495.137 240.565C494.556 240.45 494.022 240.165 493.604 239.746C493.185 239.327 492.9 238.793 492.784 238.213C492.669 237.632 492.728 237.03 492.955 236.482C493.181 235.935 493.565 235.468 494.057 235.138C494.55 234.809 495.129 234.634 495.721 234.634C496.114 234.634 496.504 234.711 496.867 234.862C497.23 235.012 497.561 235.233 497.839 235.511C498.117 235.789 498.337 236.119 498.488 236.482C498.638 236.846 498.716 237.235 498.716 237.628Z" fill="white"/>
<path d="M507.467 237.628C507.467 238.221 507.291 238.8 506.962 239.293C506.633 239.785 506.165 240.169 505.617 240.396C505.07 240.622 504.467 240.681 503.886 240.565C503.305 240.449 502.771 240.163 502.353 239.744C501.934 239.324 501.65 238.79 501.535 238.209C501.42 237.627 501.48 237.025 501.708 236.478C501.935 235.931 502.32 235.464 502.814 235.135C503.307 234.807 503.886 234.633 504.479 234.634C504.872 234.634 505.261 234.711 505.624 234.862C505.987 235.012 506.317 235.233 506.594 235.511C506.872 235.789 507.092 236.12 507.242 236.483C507.391 236.846 507.468 237.235 507.467 237.628Z" fill="white"/>
<path d="M564.385 253.127H462.999C462.085 253.127 461.344 253.868 461.344 254.782V274.346C461.344 275.259 462.085 276 462.999 276H564.385C565.298 276 566.039 275.259 566.039 274.346V254.782C566.039 253.868 565.298 253.127 564.385 253.127Z" fill="#6C9AB6"/>
<path d="M474.643 269.389C477.31 269.389 479.472 267.227 479.472 264.56C479.472 261.893 477.31 259.732 474.643 259.732C471.977 259.732 469.815 261.893 469.815 264.56C469.815 267.227 471.977 269.389 474.643 269.389Z" fill="#FB8284"/>
<path d="M489.956 264.56C489.958 265.153 489.783 265.733 489.454 266.226C489.126 266.72 488.658 267.105 488.111 267.332C487.563 267.559 486.961 267.619 486.379 267.504C485.798 267.389 485.264 267.103 484.844 266.684C484.425 266.265 484.14 265.731 484.025 265.149C483.909 264.568 483.969 263.965 484.196 263.418C484.424 262.87 484.809 262.403 485.302 262.074C485.796 261.745 486.375 261.571 486.968 261.572C487.761 261.572 488.521 261.887 489.081 262.447C489.642 263.008 489.956 263.768 489.956 264.56Z" fill="white"/>
<path d="M498.716 264.56C498.717 265.153 498.542 265.732 498.214 266.226C497.886 266.719 497.419 267.104 496.872 267.331C496.324 267.559 495.722 267.619 495.141 267.504C494.56 267.39 494.025 267.105 493.606 266.686C493.186 266.268 492.901 265.734 492.785 265.153C492.669 264.572 492.727 263.97 492.954 263.422C493.18 262.875 493.564 262.406 494.057 262.077C494.549 261.748 495.129 261.572 495.721 261.572C496.114 261.571 496.503 261.648 496.867 261.798C497.23 261.947 497.56 262.167 497.838 262.445C498.116 262.723 498.337 263.052 498.488 263.415C498.638 263.778 498.716 264.167 498.716 264.56Z" fill="white"/>
<path d="M507.467 264.56C507.468 265.153 507.294 265.733 506.965 266.226C506.637 266.72 506.169 267.105 505.622 267.332C505.074 267.559 504.471 267.619 503.89 267.504C503.308 267.389 502.774 267.103 502.355 266.684C501.936 266.265 501.651 265.731 501.535 265.149C501.42 264.568 501.48 263.965 501.707 263.418C501.935 262.87 502.319 262.403 502.813 262.074C503.306 261.745 503.886 261.571 504.479 261.572C505.271 261.572 506.032 261.887 506.592 262.447C507.152 263.008 507.467 263.768 507.467 264.56Z" fill="white"/>
<path opacity="0.1" d="M556.428 167.676C556.428 168.362 553.94 168.926 550.874 168.926C547.809 168.926 545.321 168.362 545.321 167.676C545.321 166.99 547.809 166.426 550.874 166.426C553.94 166.426 556.428 166.983 556.428 167.676Z" fill="black"/>
<path d="M574.663 213.665H616.696C617.784 213.665 618.665 212.784 618.665 211.697V169.664C618.665 168.576 617.784 167.695 616.696 167.695H574.663C573.576 167.695 572.695 168.576 572.695 169.664V211.697C572.695 212.784 573.576 213.665 574.663 213.665Z" fill="#E7F0F8"/>
<path d="M547.93 165.323V167.689H553.855V165.323C553.817 163.56 554.13 161.807 554.778 160.167C555.426 158.527 556.395 157.032 557.628 155.772C558.861 154.511 560.334 153.51 561.959 152.826C563.585 152.142 565.33 151.79 567.094 151.79C568.857 151.79 570.603 152.142 572.228 152.826C573.854 153.51 575.326 154.511 576.559 155.772C577.793 157.032 578.762 158.527 579.409 160.167C580.057 161.807 580.371 163.56 580.332 165.323V167.689H586.257V165.323C586.304 162.777 585.842 160.247 584.9 157.881C583.958 155.515 582.554 153.361 580.77 151.544C578.986 149.727 576.858 148.284 574.509 147.298C572.161 146.313 569.64 145.806 567.094 145.806C564.547 145.806 562.026 146.313 559.678 147.298C557.33 148.284 555.202 149.727 553.418 151.544C551.634 153.361 550.229 155.515 549.287 157.881C548.345 160.247 547.884 162.777 547.93 165.323Z" fill="#E7F0F8"/>
<path d="M590.58 182.533C590.583 183.379 590.795 184.211 591.198 184.955C591.601 185.699 592.181 186.332 592.888 186.798V193.55C592.888 194.288 593.181 194.996 593.703 195.518C594.225 196.04 594.933 196.333 595.671 196.333C596.409 196.333 597.117 196.04 597.639 195.518C598.161 194.996 598.454 194.288 598.454 193.55V186.798C599.192 186.316 599.793 185.65 600.197 184.866C600.601 184.082 600.794 183.207 600.758 182.325C600.722 181.444 600.458 180.588 599.991 179.839C599.524 179.091 598.871 178.477 598.095 178.057C597.32 177.637 596.449 177.426 595.567 177.444C594.685 177.462 593.823 177.708 593.066 178.16C592.308 178.611 591.681 179.251 591.245 180.018C590.809 180.785 590.58 181.651 590.58 182.533Z" fill="#273F5E"/>
<path d="M174.539 60.1661H155.116C155.181 57.6336 156.233 55.2268 158.047 53.4586C159.861 51.6905 162.294 50.7009 164.827 50.7009C167.361 50.7009 169.794 51.6905 171.608 53.4586C173.422 55.2268 174.474 57.6336 174.539 60.1661Z" fill="url(#paint2_linear)"/>
<path d="M164.798 50.4578C162.228 50.4662 159.766 51.4926 157.952 53.3122C156.137 55.1317 155.117 57.5962 155.115 60.1661V115.582C155.115 126.072 150.948 136.133 143.531 143.551C136.114 150.97 126.054 155.138 115.564 155.14H88.2407V60.1661C88.2407 58.8906 88.492 57.6277 88.9803 56.4494C89.4686 55.2711 90.1843 54.2006 91.0865 53.299C91.9887 52.3974 93.0597 51.6824 94.2383 51.1949C95.4169 50.7074 96.68 50.4569 97.9555 50.4578H164.798Z" fill="#6C9AB6"/>
<path d="M123.059 70.7656H101.475V78.9286H123.059V70.7656Z" fill="#F2F2F2"/>
<path d="M141.495 87.7646H101.475V94.8311H141.495V87.7646Z" fill="#F2F2F2"/>
<path d="M135.948 102.488H101.475V109.554H135.948V102.488Z" fill="#F2F2F2"/>
<path d="M141.495 117.204H101.475V124.271H141.495V117.204Z" fill="#F2F2F2"/>
<path d="M207.722 92.1252C200.649 92.1252 193.645 93.5185 187.109 96.2254C180.574 98.9323 174.636 102.9 169.635 107.902C164.633 112.903 160.665 118.841 157.959 125.376C155.252 131.911 153.858 138.916 153.858 145.989C153.858 153.063 155.252 160.067 157.959 166.602C160.665 173.137 164.633 179.075 169.635 184.077C174.636 189.078 180.574 193.046 187.109 195.753C193.645 198.46 200.649 199.853 207.722 199.853V185.438C199.917 185.438 192.288 183.124 185.799 178.788C179.309 174.451 174.251 168.288 171.264 161.078C168.278 153.867 167.496 145.933 169.019 138.278C170.541 130.623 174.3 123.591 179.819 118.073C185.337 112.554 192.369 108.795 200.024 107.273C207.679 105.75 215.613 106.532 222.824 109.518C230.034 112.505 236.197 117.563 240.533 124.053C244.87 130.542 247.184 138.172 247.184 145.976H261.573C261.57 131.695 255.895 118 245.797 107.902C235.699 97.8033 222.003 92.1286 207.722 92.1252Z" fill="#FB8284"/>
<path d="M261.574 145.976C261.562 160.258 255.883 173.952 245.784 184.051C235.685 194.15 221.992 199.828 207.71 199.84V185.438C218.173 185.428 228.204 181.267 235.602 173.869C243.001 166.47 247.161 156.439 247.172 145.976H261.574Z" fill="#4E8FB7"/>
<path d="M306.607 130.125H293.603V196.628H306.607V130.125Z" fill="#4E8FB7"/>
<g style="mix-blend-mode:soft-light">
<path d="M306.607 183.63H293.603V196.634H306.607V183.63Z" fill="black"/>
</g>
<path d="M329.699 130.125H316.694V196.628H329.699V130.125Z" fill="#4E8FB7"/>
<g style="mix-blend-mode:soft-light">
<path d="M329.699 173.268H316.694V196.628H329.699V173.268Z" fill="black"/>
</g>
<path d="M352.789 130.388H339.785V196.891H352.789V130.388Z" fill="#4E8FB7"/>
<g style="mix-blend-mode:soft-light">
<path d="M352.789 165.181H339.785V196.891H352.789V165.181Z" fill="black"/>
</g>
<path d="M375.881 130.388H362.876V196.891H375.881V130.388Z" fill="#4E8FB7"/>
<g style="mix-blend-mode:soft-light">
<path d="M375.881 175.166H362.876V196.891H375.881V175.166Z" fill="black"/>
</g>
<path d="M408.526 201.116H286.922V122.93H278.515V209.542H286.922V209.523H408.526V201.116Z" fill="#1A3151"/>
<path d="M299.054 194.114L295.963 191.267L311.994 173.857C312.262 173.57 312.603 173.363 312.982 173.259C313.36 173.155 313.759 173.158 314.136 173.267L331.18 178.346L341.324 165.945C341.544 165.68 341.824 165.472 342.141 165.339C342.458 165.206 342.803 165.152 343.146 165.181C343.488 165.212 343.818 165.327 344.106 165.516C344.393 165.705 344.63 165.962 344.794 166.265L351.847 179.16L361.498 183.784L375.502 175.166L390.725 144.226L394.496 146.085L378.971 177.564C378.794 177.92 378.521 178.22 378.183 178.429L362.69 187.958C362.392 188.142 362.051 188.249 361.701 188.268C361.35 188.287 361 188.218 360.683 188.067L349.391 182.655C348.993 182.464 348.665 182.152 348.455 181.764L342.594 171.017L333.54 182.091C333.279 182.413 332.928 182.65 332.532 182.772C332.135 182.895 331.712 182.896 331.315 182.777L314.187 177.647L299.054 194.114Z" fill="#FB8284"/>
<path d="M228.282 145.181L198.535 130.779C198.398 130.714 198.248 130.685 198.097 130.694C197.946 130.703 197.8 130.75 197.672 130.831C197.544 130.911 197.438 131.023 197.365 131.155C197.292 131.287 197.253 131.436 197.252 131.587V160.391C197.252 160.543 197.291 160.691 197.364 160.824C197.437 160.956 197.543 161.068 197.671 161.148C197.8 161.228 197.946 161.274 198.097 161.282C198.248 161.29 198.399 161.259 198.535 161.193L228.282 146.771C228.429 146.697 228.552 146.583 228.639 146.443C228.725 146.303 228.77 146.141 228.77 145.976C228.77 145.812 228.725 145.65 228.639 145.51C228.552 145.369 228.429 145.256 228.282 145.181Z" fill="#23416E"/>
<defs>
<linearGradient id="paint0_linear" x1="174.548" y1="0.903076" x2="174.548" y2="123.726" gradientUnits="userSpaceOnUse">
<stop stop-color="#FFC895"/>
<stop offset="0.522276" stop-color="#FB8284"/>
</linearGradient>
<linearGradient id="paint1_linear" x1="273.701" y1="72.1187" x2="273.701" y2="219.815" gradientUnits="userSpaceOnUse">
<stop stop-color="#FDFEFE"/>
<stop offset="1" stop-color="#B1CEE7"/>
</linearGradient>
<linearGradient id="paint2_linear" x1="5108.78" y1="1020.5" x2="5131.64" y2="769.091" gradientUnits="userSpaceOnUse">
<stop offset="0.01" stop-color="#3251DF"/>
<stop offset="0.14" stop-color="#3F5FE1"/>
<stop offset="0.39" stop-color="#6383E5"/>
<stop offset="0.73" stop-color="#9BBEEC"/>
<stop offset="1" stop-color="#CDF2F2"/>
</linearGradient>
</defs>
</svg>
